# This file uses centimeters as units for non-parametric coordinates.

mtllib SM_door.mtl
g default
v -42.500000 -102.000000 2.500000
v 42.500000 -102.000000 2.500000
v -42.500000 102.000000 2.500000
v 42.500000 102.000000 2.500000
v -42.500000 102.000000 -2.500000
v 42.500000 102.000000 -2.500000
v -42.500000 -102.000000 -2.500000
v 42.500000 -102.000000 -2.500000
v -42.500000 87.412766 2.500000
v -42.500000 87.412659 -2.500000
v 42.500000 87.412659 -2.500000
v 42.500000 87.412766 2.500000
v -42.500000 65.021133 2.500000
v -42.500000 65.021034 -2.500000
v 42.500000 65.021034 -2.500000
v 42.500000 65.021133 2.500000
v -42.500000 57.013454 2.500000
v -42.500000 57.013344 -2.500000
v 42.500000 57.013344 -2.500000
v 42.500000 57.013454 2.500000
v -42.500000 -9.668301 2.500000
v -42.500000 -9.668354 -2.500000
v 42.500000 -9.668354 -2.500000
v 42.500000 -9.668301 2.500000
v -42.500000 -27.213249 2.500000
v -42.500000 -27.213253 -2.500000
v 42.500000 -27.213253 -2.500000
v 42.500000 -27.213249 2.500000
v -42.499996 -95.007980 2.500000
v -42.500000 -95.007957 -2.500000
v 42.500000 -95.007957 -2.500000
v 42.499996 -95.007980 2.500000
v -37.685261 -102.000000 2.500000
v -37.685257 -95.007980 2.500000
v -37.685261 -27.213249 2.500000
v -37.685261 -9.668301 2.500000
v -37.685261 57.013454 2.500000
v -37.685261 65.021133 2.500000
v -37.685261 87.412766 2.500000
v -37.685261 102.000000 2.500000
v -37.685261 102.000000 -2.500000
v -37.685265 87.412659 -2.500000
v -37.685265 65.021034 -2.500000
v -37.685261 57.013344 -2.500000
v -37.685261 -9.668354 -2.500000
v -37.685261 -27.213253 -2.500000
v -37.685261 -95.007957 -2.500000
v -37.685261 -102.000000 -2.500000
v 38.434792 -102.000000 2.500000
v 38.434792 -95.007973 2.500000
v 38.434792 -27.213249 2.500000
v 38.434792 -9.668303 2.500000
v 38.434792 57.013454 2.500000
v 38.434792 65.021133 2.500000
v 38.434792 87.412766 2.500000
v 38.434792 102.000000 2.500000
v 38.434792 102.000000 -2.500000
v 38.434792 87.412659 -2.500000
v 38.434792 65.021034 -2.500000
v 38.434792 57.013348 -2.500000
v 38.434792 -9.668354 -2.500000
v 38.434792 -27.213253 -2.500000
v 38.434792 -95.007957 -2.500000
v 38.434792 -102.000000 -2.500000
v -42.500000 -100.335442 2.500000
v -42.500000 -100.335442 -2.500000
v -37.685261 -100.335442 -2.500000
v 38.434792 -100.335442 -2.500000
v 42.500000 -100.335442 -2.500000
v 42.500000 -100.335442 2.500000
v 38.434792 -100.335442 2.500000
v -37.685257 -100.335442 2.500000
v 2.863702 -95.007980 2.500000
v 2.863702 -100.335442 2.500000
v 2.863686 -102.000000 2.500000
v 2.863686 -102.000000 -2.500000
v 2.863686 -100.335442 -2.500000
v 2.863686 -95.007957 -2.500000
v 2.863686 -27.213253 -2.500000
v 2.863686 -9.668354 -2.500000
v 2.863686 57.013351 -2.500000
v 2.863686 65.021034 -2.500000
v 2.863686 87.412659 -2.500000
v 2.863686 102.000000 -2.500000
v 2.863686 102.000000 2.500000
v 2.863701 87.412766 2.500000
v 2.863701 65.021133 2.500000
v 2.863701 57.013454 2.500000
v 2.863701 -9.668303 2.500000
v 2.863701 -27.213249 2.500000
v -2.318211 -102.000000 2.500000
v -2.318189 -100.335442 2.500000
v -2.318189 -95.007980 2.500000
v -2.318191 -27.213249 2.500000
v -2.318191 -9.668303 2.500000
v -2.318191 57.013454 2.500000
v -2.318192 65.021133 2.500000
v -2.318192 87.412766 2.500000
v -2.318211 102.000000 2.500000
v -2.318211 102.000000 -2.500000
v -2.318210 87.412659 -2.500000
v -2.318210 65.021027 -2.500000
v -2.318211 57.013348 -2.500000
v -2.318211 -9.668354 -2.500000
v -2.318211 -27.213253 -2.500000
v -2.318211 -95.007957 -2.500000
v -2.318211 -100.335442 -2.500000
v -2.318211 -102.000000 -2.500000
v -33.314888 -89.133316 2.349682
v -33.314892 -33.087906 2.349682
v -6.688560 -89.133316 2.349682
v -6.688561 -33.087906 2.349682
v -36.503666 -94.075951 0.219178
v -36.503670 -28.145275 0.219178
v -3.499779 -94.075951 0.219178
v -3.499781 -28.145275 0.219178
v -33.883408 -3.712312 2.349682
v -33.883408 51.057468 2.349682
v -6.120044 -3.712314 2.349682
v -6.120044 51.057468 2.349682
v -36.576633 -8.389765 0.219178
v -36.576633 55.734917 0.219178
v -3.426816 -8.389766 0.219178
v -3.426816 55.734917 0.219178
v -33.517738 68.440247 2.349682
v -33.517738 83.993652 2.349682
v -6.485713 68.440247 2.349682
v -6.485713 83.993652 2.349682
v -35.730492 66.258736 0.219178
v -35.730492 86.175163 0.219178
v -4.272960 66.258736 0.219178
v -4.272960 86.175163 0.219178
v 7.368166 -33.814705 2.349682
v 7.368168 -88.406525 2.349682
v 33.930328 -88.406517 2.349682
v 33.930328 -33.814705 2.349683
v 3.764531 -28.326008 0.219178
v 3.764533 -93.895226 0.219178
v 37.533962 -93.895218 0.219178
v 37.533962 -28.326008 0.219178
v 7.130697 50.892635 2.349682
v 7.130697 -3.547483 2.349682
v 34.167793 -3.547483 2.349682
v 34.167793 50.892635 2.349682
v 3.749861 55.994076 0.219178
v 3.749861 -8.648927 0.219178
v 37.548630 -8.648927 0.219178
v 37.548630 55.994076 0.219178
v 7.358086 84.166473 2.349682
v 7.358086 68.267426 2.349682
v 33.940407 68.267426 2.349682
v 33.940407 84.166473 2.349682
v 4.715359 86.247162 0.219178
v 4.715359 66.186737 0.219178
v 36.583134 66.186737 0.219178
v 36.583134 86.247162 0.219178
vt 0.720277 0.036950
vt 0.734927 0.036927
vt 0.734927 0.041804
vt 0.720277 0.041827
vt 0.734927 0.057414
vt 0.720277 0.057436
vt 0.734927 0.256054
vt 0.720277 0.256060
vt 0.734927 0.307461
vt 0.720277 0.307463
vt 0.734927 0.502841
vt 0.720277 0.502827
vt 0.734927 0.526303
vt 0.720277 0.526287
vt 0.734927 0.591911
vt 0.720277 0.591890
vt 0.734927 0.634653
vt 0.720277 0.634628
vt 0.456615 0.036927
vt 0.471265 0.036950
vt 0.471265 0.041827
vt 0.456615 0.041804
vt 0.471265 0.057436
vt 0.456615 0.057414
vt 0.471265 0.256060
vt 0.456615 0.256054
vt 0.471265 0.307463
vt 0.456615 0.307461
vt 0.471265 0.502827
vt 0.456615 0.502841
vt 0.471265 0.526287
vt 0.456615 0.526303
vt 0.471265 0.591890
vt 0.456615 0.591911
vt 0.471265 0.634628
vt 0.456615 0.634653
vt 0.234492 0.300109
vt 0.234492 0.086912
vt 0.239830 0.091865
vt 0.239831 0.295156
vt 0.346934 0.086910
vt 0.346933 0.300110
vt 0.341595 0.295157
vt 0.341596 0.091864
vt 0.115378 0.527912
vt 0.115378 0.318705
vt 0.120616 0.324206
vt 0.120617 0.522411
vt 0.228318 0.318705
vt 0.228319 0.527912
vt 0.223080 0.522411
vt 0.223080 0.324206
vt 0.117447 0.283276
vt 0.117447 0.071064
vt 0.122342 0.076285
vt 0.122343 0.278055
vt 0.231153 0.071063
vt 0.231153 0.283276
vt 0.226258 0.278055
vt 0.226258 0.076285
vt 0.233732 0.528163
vt 0.233732 0.318791
vt 0.238612 0.323876
vt 0.238611 0.523078
vt 0.347644 0.318791
vt 0.347645 0.528163
vt 0.342765 0.523078
vt 0.342765 0.323876
vt 0.471245 0.634603
vt 0.485361 0.634603
vt 0.485352 0.649253
vt 0.471245 0.649253
vt 0.588979 0.634603
vt 0.588978 0.649253
vt 0.604161 0.649253
vt 0.604161 0.634603
vt 0.708386 0.649253
vt 0.708377 0.634603
vt 0.720297 0.634603
vt 0.720297 0.649253
vt 0.236441 0.539994
vt 0.351555 0.539994
vt 0.344136 0.544616
vt 0.243851 0.544616
vt 0.351555 0.615169
vt 0.236441 0.615169
vt 0.243851 0.610548
vt 0.344136 0.610548
vt 0.117442 0.540479
vt 0.230786 0.540479
vt 0.222902 0.547252
vt 0.125327 0.547252
vt 0.230787 0.617432
vt 0.117442 0.617432
vt 0.125327 0.610658
vt 0.222902 0.610658
vt 0.485370 0.036974
vt 0.485370 0.041850
vt 0.588980 0.036974
vt 0.588980 0.041850
vt 0.485370 0.057457
vt 0.604160 0.036974
vt 0.604160 0.041850
vt 0.588980 0.057457
vt 0.485370 0.256066
vt 0.708368 0.041850
vt 0.708368 0.036974
vt 0.604160 0.057457
vt 0.485370 0.307465
vt 0.708368 0.057457
vt 0.588980 0.256066
vt 0.604160 0.256066
vt 0.588980 0.307465
vt 0.485370 0.502812
vt 0.604160 0.307465
vt 0.708368 0.256066
vt 0.708368 0.307465
vt 0.588980 0.502812
vt 0.604160 0.502812
vt 0.604160 0.526271
vt 0.708368 0.502812
vt 0.255592 0.556534
vt 0.255592 0.598608
vt 0.334306 0.556534
vt 0.334306 0.598608
vt 0.708368 0.591869
vt 0.134741 0.555541
vt 0.134741 0.602369
vt 0.213488 0.555541
vt 0.213488 0.602369
vt 0.744228 0.623531
vt 0.758334 0.623531
vt 0.758334 0.628407
vt 0.744228 0.628407
vt 0.744228 0.607923
vt 0.758334 0.607923
vt 0.861948 0.623531
vt 0.861948 0.628407
vt 0.744228 0.409305
vt 0.758334 0.409305
vt 0.861948 0.607923
vt 0.877129 0.628407
vt 0.877129 0.623531
vt 0.744228 0.357904
vt 0.758334 0.357904
vt 0.861948 0.409305
vt 0.877129 0.607923
vt 0.981341 0.628407
vt 0.981341 0.623531
vt 0.744228 0.162548
vt 0.758334 0.162548
vt 0.861948 0.357904
vt 0.877129 0.409305
vt 0.981341 0.607923
vt 0.993251 0.623531
vt 0.993251 0.628407
vt 0.744228 0.139088
vt 0.758334 0.139088
vt 0.861948 0.162548
vt 0.877129 0.357904
vt 0.981341 0.409305
vt 0.993251 0.607923
vt 0.744228 0.073487
vt 0.758334 0.073487
vt 0.861948 0.139088
vt 0.877129 0.162548
vt 0.981341 0.357904
vt 0.993251 0.409305
vt 0.744228 0.030751
vt 0.758334 0.030751
vt 0.861948 0.073487
vt 0.877129 0.139088
vt 0.981341 0.162548
vt 0.993251 0.357904
vt 0.861948 0.030751
vt 0.877129 0.073487
vt 0.981341 0.139088
vt 0.993251 0.162548
vt 0.877129 0.030751
vt 0.981341 0.073487
vt 0.993251 0.139088
vt 0.981341 0.030751
vt 0.993251 0.073487
vt 0.993251 0.030751
vt 0.249663 0.279916
vt 0.249663 0.107105
vt 0.331763 0.107105
vt 0.331763 0.279916
vt 0.128941 0.507953
vt 0.128941 0.338664
vt 0.214756 0.338664
vt 0.214756 0.507953
vt 0.133432 0.261165
vt 0.133432 0.093175
vt 0.215169 0.093175
vt 0.215169 0.261165
vt 0.249030 0.507358
vt 0.249030 0.339596
vt 0.332347 0.339596
vt 0.332347 0.507358
vt 0.588980 0.526271
vt 0.588980 0.591869
vt 0.485370 0.591869
vt 0.485370 0.526271
vt 0.604160 0.591869
vt 0.708368 0.526271
vn 0.000000 0.000000 1.000000
vn 0.000000 0.000000 1.000000
vn 0.000000 0.000000 1.000000
vn 0.000000 0.000000 1.000000
vn 0.000000 1.000000 0.000000
vn 0.000000 1.000000 0.000000
vn 0.000000 1.000000 0.000000
vn 0.000000 1.000000 0.000000
vn 0.000000 0.000000 -1.000000
vn 0.000000 0.000000 -1.000000
vn 0.000000 0.000000 -1.000000
vn 0.000000 0.000000 -1.000000
vn 1.000000 0.000000 0.000000
vn 1.000000 0.000000 0.000000
vn 1.000000 0.000000 0.000000
vn 1.000000 0.000000 0.000000
vn -1.000000 0.000000 0.000000
vn -1.000000 0.000000 0.000000
vn -1.000000 0.000000 0.000000
vn -1.000000 0.000000 0.000000
vn -1.000000 0.000000 0.000000
vn -1.000000 0.000000 0.000000
vn -1.000000 0.000000 0.000000
vn -1.000000 0.000000 0.000000
vn 0.000000 0.000000 -1.000000
vn 0.000000 0.000000 -1.000000
vn 0.000000 0.000000 -1.000000
vn 0.000000 0.000000 -1.000000
vn 1.000000 0.000000 0.000000
vn 1.000000 0.000000 0.000000
vn 1.000000 0.000000 0.000000
vn 1.000000 0.000000 0.000000
vn 0.000000 0.000000 1.000000
vn 0.000000 0.000000 1.000000
vn 0.000000 0.000000 1.000000
vn 0.000000 0.000000 1.000000
vn -1.000000 0.000000 0.000000
vn -1.000000 0.000000 0.000000
vn -1.000000 0.000000 0.000000
vn -1.000000 0.000000 0.000000
vn 0.000000 0.000000 -1.000000
vn 0.000000 0.000000 -1.000000
vn 0.000000 0.000000 -1.000000
vn 0.000000 0.000000 -1.000000
vn 0.000000 0.000000 1.000000
vn 0.000000 0.000000 1.000000
vn 0.000000 0.000000 1.000000
vn 0.000000 0.000000 1.000000
vn -1.000000 0.000000 0.000000
vn -1.000000 0.000000 0.000000
vn -1.000000 0.000000 0.000000
vn -1.000000 0.000000 0.000000
vn 0.000000 0.000000 -1.000000
vn 0.000000 0.000000 -1.000000
vn 0.000000 0.000000 -1.000000
vn 0.000000 0.000000 -1.000000
vn 1.000000 0.000000 0.000000
vn 1.000000 0.000000 0.000000
vn 1.000000 0.000000 0.000000
vn 1.000000 0.000000 0.000000
vn 0.000000 0.000000 1.000000
vn 0.000000 0.000000 1.000000
vn 0.000000 0.000000 1.000000
vn 0.000000 0.000000 1.000000
vn -1.000000 0.000000 0.000000
vn -1.000000 0.000000 0.000000
vn -1.000000 0.000000 0.000000
vn -1.000000 0.000000 0.000000
vn 0.000000 0.000000 -1.000000
vn 0.000000 0.000000 -1.000000
vn 0.000000 0.000000 -1.000000
vn 0.000000 0.000000 -1.000000
vn 1.000000 0.000000 0.000000
vn 1.000000 0.000000 0.000000
vn 1.000000 0.000000 0.000000
vn 1.000000 0.000000 0.000000
vn 0.000000 0.000000 1.000000
vn 0.000000 0.000000 1.000000
vn 0.000000 0.000000 1.000000
vn 0.000000 0.000000 1.000000
vn -1.000000 0.000000 0.000000
vn -1.000000 0.000000 0.000000
vn -1.000000 0.000000 0.000000
vn -1.000000 0.000000 0.000000
vn 0.000000 0.000000 -1.000000
vn 0.000000 0.000000 -1.000000
vn 0.000000 0.000000 -1.000000
vn 0.000000 0.000000 -1.000000
vn 1.000000 0.000000 0.000000
vn 1.000000 0.000000 0.000000
vn 1.000000 0.000000 0.000000
vn 1.000000 0.000000 0.000000
vn 0.000000 0.000000 1.000000
vn 0.000000 0.000000 1.000000
vn 0.000000 0.000000 1.000000
vn 0.000000 0.000000 1.000000
vn -1.000000 0.000000 0.000000
vn -1.000000 0.000000 0.000000
vn -1.000000 0.000000 0.000000
vn -1.000000 0.000000 0.000000
vn 0.000000 0.000000 -1.000000
vn 0.000000 0.000000 -1.000000
vn 0.000000 0.000000 -1.000000
vn 0.000000 0.000000 -1.000000
vn 1.000000 0.000000 0.000000
vn 1.000000 0.000000 0.000000
vn 1.000000 0.000000 0.000000
vn 1.000000 0.000000 0.000000
vn 0.000000 0.000000 1.000000
vn 0.000000 0.000000 1.000000
vn 0.000000 0.000000 1.000000
vn 0.000000 0.000000 1.000000
vn 0.000000 0.000000 1.000000
vn 0.000000 0.000000 1.000000
vn 0.000000 0.000000 1.000000
vn 0.000000 0.000000 1.000000
vn 0.000000 0.000000 1.000000
vn 0.000000 0.000000 1.000000
vn 0.000000 0.000000 1.000000
vn 0.000000 0.000000 1.000000
vn 0.000000 0.000000 1.000000
vn 0.000000 0.000000 1.000000
vn 0.000000 0.000000 1.000000
vn 0.000000 0.000000 1.000000
vn 0.000000 0.000000 1.000000
vn 0.000000 0.000000 1.000000
vn 0.000000 0.000000 1.000000
vn 0.000000 0.000000 1.000000
vn 0.000000 0.000000 1.000000
vn 0.000000 0.000000 1.000000
vn 0.000000 0.000000 1.000000
vn 0.000000 0.000000 1.000000
vn 0.000000 0.000000 1.000000
vn 0.000000 0.000000 1.000000
vn 0.000000 0.000000 1.000000
vn 0.000000 0.000000 1.000000
vn 0.000000 0.000000 1.000000
vn 0.000000 0.000000 1.000000
vn 0.000000 0.000000 1.000000
vn 0.000000 0.000000 1.000000
vn 0.000000 1.000000 0.000000
vn 0.000000 1.000000 0.000000
vn 0.000000 1.000000 0.000000
vn 0.000000 1.000000 0.000000
vn 0.000000 0.000000 -1.000000
vn 0.000000 0.000000 -1.000000
vn 0.000000 0.000000 -1.000000
vn 0.000000 0.000000 -1.000000
vn 0.000000 0.000000 -1.000000
vn 0.000000 0.000000 -1.000000
vn 0.000000 0.000000 -1.000000
vn 0.000000 0.000000 -1.000000
vn 0.000000 0.000000 -1.000000
vn 0.000000 0.000000 -1.000000
vn 0.000000 0.000000 -1.000000
vn 0.000000 0.000000 -1.000000
vn 0.000000 0.000000 -1.000000
vn 0.000000 0.000000 -1.000000
vn 0.000000 0.000000 -1.000000
vn 0.000000 0.000000 -1.000000
vn 0.000000 0.000000 -1.000000
vn 0.000000 0.000000 -1.000000
vn 0.000000 0.000000 -1.000000
vn 0.000000 0.000000 -1.000000
vn 0.000000 0.000000 -1.000000
vn 0.000000 0.000000 -1.000000
vn 0.000000 0.000000 -1.000000
vn 0.000000 0.000000 -1.000000
vn 0.000000 0.000000 -1.000000
vn 0.000000 0.000000 -1.000000
vn 0.000000 0.000000 -1.000000
vn 0.000000 0.000000 -1.000000
vn 0.000000 0.000000 1.000000
vn 0.000000 0.000000 1.000000
vn 0.000000 0.000000 1.000000
vn 0.000000 0.000000 1.000000
vn 0.000000 0.000000 1.000000
vn 0.000000 0.000000 1.000000
vn 0.000000 0.000000 1.000000
vn 0.000000 0.000000 1.000000
vn -0.000000 0.000000 1.000000
vn -0.000000 0.000000 1.000000
vn -0.000000 0.000000 1.000000
vn -0.000000 0.000000 1.000000
vn 0.000000 0.000000 1.000000
vn 0.000000 0.000000 1.000000
vn 0.000000 0.000000 1.000000
vn 0.000000 0.000000 1.000000
vn 0.000000 0.000000 1.000000
vn 0.000000 0.000000 1.000000
vn 0.000000 0.000000 1.000000
vn 0.000000 0.000000 1.000000
vn 0.000000 0.000000 1.000000
vn 0.000000 0.000000 1.000000
vn 0.000000 0.000000 1.000000
vn 0.000000 0.000000 1.000000
vn 0.000000 0.000000 1.000000
vn 0.000000 0.000000 1.000000
vn 0.000000 0.000000 1.000000
vn 0.000000 0.000000 1.000000
vn 0.000000 1.000000 0.000000
vn 0.000000 1.000000 0.000000
vn 0.000000 1.000000 0.000000
vn 0.000000 1.000000 0.000000
vn 0.000000 0.000000 -1.000000
vn 0.000000 0.000000 -1.000000
vn 0.000000 0.000000 -1.000000
vn 0.000000 0.000000 -1.000000
vn 0.000000 0.000000 -1.000000
vn 0.000000 0.000000 -1.000000
vn 0.000000 0.000000 -1.000000
vn 0.000000 0.000000 -1.000000
vn 0.000000 0.000000 -1.000000
vn 0.000000 0.000000 -1.000000
vn 0.000000 0.000000 -1.000000
vn 0.000000 0.000000 -1.000000
vn -0.000000 0.000000 -1.000000
vn -0.000000 0.000000 -1.000000
vn -0.000000 0.000000 -1.000000
vn -0.000000 0.000000 -1.000000
vn 0.000000 0.000000 -1.000000
vn 0.000000 0.000000 -1.000000
vn 0.000000 0.000000 -1.000000
vn 0.000000 0.000000 -1.000000
vn 0.000000 0.000000 -1.000000
vn 0.000000 0.000000 -1.000000
vn 0.000000 0.000000 -1.000000
vn 0.000000 0.000000 -1.000000
vn 0.000000 0.000000 -1.000000
vn 0.000000 0.000000 -1.000000
vn 0.000000 0.000000 -1.000000
vn 0.000000 0.000000 -1.000000
vn -1.000000 0.000000 0.000000
vn -1.000000 0.000000 0.000000
vn -1.000000 0.000000 0.000000
vn -1.000000 0.000000 0.000000
vn 0.000000 0.000000 -1.000000
vn 0.000000 0.000000 -1.000000
vn 0.000000 0.000000 -1.000000
vn 0.000000 0.000000 -1.000000
vn 0.000000 0.000000 -1.000000
vn 0.000000 0.000000 -1.000000
vn 0.000000 0.000000 -1.000000
vn 0.000000 0.000000 -1.000000
vn 0.000000 0.000000 -1.000000
vn 0.000000 0.000000 -1.000000
vn 0.000000 0.000000 -1.000000
vn 0.000000 0.000000 -1.000000
vn 1.000000 0.000000 0.000000
vn 1.000000 0.000000 0.000000
vn 1.000000 0.000000 0.000000
vn 1.000000 0.000000 0.000000
vn 0.000000 0.000000 1.000000
vn 0.000000 0.000000 1.000000
vn 0.000000 0.000000 1.000000
vn 0.000000 0.000000 1.000000
vn 0.000000 0.000000 1.000000
vn 0.000000 0.000000 1.000000
vn 0.000000 0.000000 1.000000
vn 0.000000 0.000000 1.000000
vn 0.000000 0.000000 1.000000
vn 0.000000 0.000000 1.000000
vn 0.000000 0.000000 1.000000
vn 0.000000 0.000000 1.000000
vn 0.000000 0.000000 1.000000
vn 0.000000 0.000000 1.000000
vn 0.000000 0.000000 1.000000
vn 0.000000 0.000000 1.000000
vn 0.000000 0.000000 1.000000
vn 0.000000 0.000000 1.000000
vn 0.000000 0.000000 1.000000
vn 0.000000 0.000000 1.000000
vn 0.000000 -0.000000 1.000000
vn 0.000000 -0.000000 1.000000
vn 0.000000 -0.000000 1.000000
vn 0.000000 -0.000000 1.000000
vn 0.000000 0.000000 1.000000
vn 0.000000 0.000000 1.000000
vn 0.000000 0.000000 1.000000
vn 0.000000 0.000000 1.000000
vn 0.000000 0.000000 1.000000
vn 0.000000 0.000000 1.000000
vn 0.000000 0.000000 1.000000
vn 0.000000 0.000000 1.000000
vn 0.000000 0.000000 1.000000
vn 0.000000 0.000000 1.000000
vn 0.000000 0.000000 1.000000
vn 0.000000 0.000000 1.000000
vn 0.000000 0.000000 1.000000
vn 0.000000 0.000000 1.000000
vn 0.000000 0.000000 1.000000
vn 0.000000 0.000000 1.000000
vn 0.000000 0.000000 1.000000
vn 0.000000 0.000000 1.000000
vn 0.000000 0.000000 1.000000
vn 0.000000 0.000000 1.000000
vn 0.000000 1.000000 0.000000
vn 0.000000 1.000000 0.000000
vn 0.000000 1.000000 0.000000
vn 0.000000 1.000000 0.000000
vn 0.000000 0.000000 -1.000000
vn 0.000000 0.000000 -1.000000
vn 0.000000 0.000000 -1.000000
vn 0.000000 0.000000 -1.000000
vn 0.000000 0.000000 -1.000000
vn 0.000000 0.000000 -1.000000
vn 0.000000 0.000000 -1.000000
vn 0.000000 0.000000 -1.000000
vn -0.000000 0.000000 -1.000000
vn -0.000000 0.000000 -1.000000
vn -0.000000 0.000000 -1.000000
vn -0.000000 0.000000 -1.000000
vn 0.000000 0.000000 -1.000000
vn 0.000000 0.000000 -1.000000
vn 0.000000 0.000000 -1.000000
vn 0.000000 0.000000 -1.000000
vn 0.000000 0.000000 -1.000000
vn 0.000000 0.000000 -1.000000
vn 0.000000 0.000000 -1.000000
vn 0.000000 0.000000 -1.000000
vn 0.000000 0.000000 -1.000000
vn 0.000000 0.000000 -1.000000
vn 0.000000 0.000000 -1.000000
vn 0.000000 0.000000 -1.000000
vn 0.000000 0.000000 -1.000000
vn 0.000000 0.000000 -1.000000
vn 0.000000 0.000000 -1.000000
vn 0.000000 0.000000 -1.000000
vn 0.000000 0.000000 1.000000
vn 0.000000 0.000000 1.000000
vn 0.000000 0.000000 1.000000
vn 0.000000 0.000000 1.000000
vn 0.000000 0.000000 1.000000
vn 0.000000 0.000000 1.000000
vn 0.000000 0.000000 1.000000
vn 0.000000 0.000000 1.000000
vn 0.000000 0.000000 1.000000
vn 0.000000 0.000000 1.000000
vn 0.000000 0.000000 1.000000
vn 0.000000 0.000000 1.000000
vn 0.000000 0.000000 1.000000
vn 0.000000 0.000000 1.000000
vn 0.000000 0.000000 1.000000
vn 0.000000 0.000000 1.000000
vn 0.000000 0.000000 1.000000
vn 0.000000 0.000000 1.000000
vn 0.000000 0.000000 1.000000
vn 0.000000 0.000000 1.000000
vn 0.000000 0.000000 1.000000
vn 0.000000 0.000000 1.000000
vn 0.000000 0.000000 1.000000
vn 0.000000 0.000000 1.000000
vn 0.000000 0.000000 1.000000
vn 0.000000 0.000000 1.000000
vn 0.000000 0.000000 1.000000
vn 0.000000 0.000000 1.000000
vn 0.000000 0.000000 1.000000
vn 0.000000 0.000000 1.000000
vn 0.000000 0.000000 1.000000
vn 0.000000 0.000000 1.000000
vn 0.000000 1.000000 0.000000
vn 0.000000 1.000000 0.000000
vn 0.000000 1.000000 0.000000
vn 0.000000 1.000000 0.000000
vn 0.000000 0.000000 -1.000000
vn 0.000000 0.000000 -1.000000
vn 0.000000 0.000000 -1.000000
vn 0.000000 0.000000 -1.000000
vn 0.000000 0.000000 -1.000000
vn 0.000000 0.000000 -1.000000
vn 0.000000 0.000000 -1.000000
vn 0.000000 0.000000 -1.000000
vn 0.000000 0.000000 -1.000000
vn 0.000000 0.000000 -1.000000
vn 0.000000 0.000000 -1.000000
vn 0.000000 0.000000 -1.000000
vn 0.000000 0.000000 -1.000000
vn 0.000000 0.000000 -1.000000
vn 0.000000 0.000000 -1.000000
vn 0.000000 0.000000 -1.000000
vn 0.000000 0.000000 -1.000000
vn 0.000000 0.000000 -1.000000
vn 0.000000 0.000000 -1.000000
vn 0.000000 0.000000 -1.000000
vn 0.000000 0.000000 -1.000000
vn 0.000000 0.000000 -1.000000
vn 0.000000 0.000000 -1.000000
vn 0.000000 0.000000 -1.000000
vn 0.000000 0.000000 -1.000000
vn 0.000000 0.000000 -1.000000
vn 0.000000 0.000000 -1.000000
vn 0.000000 0.000000 -1.000000
vn 0.000000 0.000000 -1.000000
vn 0.000000 0.000000 -1.000000
vn 0.000000 0.000000 -1.000000
vn 0.000000 0.000000 -1.000000
vn -0.693592 -0.000000 0.720368
vn -0.693592 -0.000000 0.720368
vn -0.693592 -0.000000 0.720368
vn -0.693592 -0.000000 0.720368
vn 0.000000 -0.698693 0.715421
vn 0.000000 -0.698693 0.715421
vn 0.000000 -0.698694 0.715421
vn 0.000000 -0.698694 0.715421
vn 0.693592 0.000000 0.720368
vn 0.693592 0.000000 0.720368
vn 0.693592 0.000000 0.720368
vn 0.693592 0.000000 0.720368
vn 0.000000 0.698694 0.715421
vn 0.000000 0.698694 0.715421
vn 0.000000 0.698694 0.715421
vn 0.000000 0.698694 0.715421
vn -0.627623 -0.000000 0.778518
vn -0.627623 -0.000000 0.778518
vn -0.627623 -0.000000 0.778518
vn -0.627623 -0.000000 0.778518
vn 0.000000 -0.715422 0.698693
vn 0.000000 -0.715422 0.698693
vn 0.000000 -0.715422 0.698693
vn 0.000000 -0.715422 0.698693
vn 0.627623 0.000000 0.778518
vn 0.627623 0.000000 0.778518
vn 0.627623 0.000000 0.778518
vn 0.627623 0.000000 0.778518
vn 0.000000 0.715421 0.698693
vn 0.000000 0.715421 0.698693
vn 0.000000 0.715421 0.698693
vn 0.000000 0.715421 0.698693
vn -0.533141 0.000000 0.846026
vn -0.533141 0.000000 0.846026
vn -0.533141 0.000000 0.846026
vn -0.533141 0.000000 0.846026
vn 0.000000 -0.385371 0.922762
vn 0.000000 -0.385371 0.922762
vn 0.000000 -0.385371 0.922762
vn 0.000000 -0.385371 0.922762
vn 0.533141 0.000000 0.846026
vn 0.533141 0.000000 0.846026
vn 0.533141 0.000000 0.846026
vn 0.533141 0.000000 0.846026
vn 0.000000 0.385371 0.922762
vn 0.000000 0.385371 0.922762
vn 0.000000 0.385371 0.922762
vn 0.000000 0.385371 0.922762
vn -0.620411 0.000000 0.784277
vn -0.620411 0.000000 0.784277
vn -0.620411 0.000000 0.784277
vn -0.620411 0.000000 0.784277
vn -0.000000 -0.414511 0.910045
vn -0.000000 -0.414511 0.910044
vn -0.000000 -0.414511 0.910045
vn -0.000000 -0.414511 0.910045
vn 0.620410 0.000000 0.784277
vn 0.620410 0.000000 0.784277
vn 0.620410 0.000000 0.784277
vn 0.620410 0.000000 0.784277
vn 0.000000 0.414510 0.910045
vn 0.000000 0.414510 0.910045
vn 0.000000 0.414510 0.910045
vn 0.000000 0.414510 0.910045
vn -0.508921 -0.000000 0.860813
vn -0.508921 -0.000000 0.860813
vn -0.508921 -0.000000 0.860813
vn -0.508921 -0.000000 0.860813
vn 0.000000 -0.361858 0.932233
vn 0.000000 -0.361858 0.932233
vn 0.000000 -0.361858 0.932233
vn 0.000000 -0.361858 0.932233
vn 0.508921 0.000000 0.860813
vn 0.508921 0.000000 0.860813
vn 0.508921 0.000000 0.860813
vn 0.508921 0.000000 0.860813
vn -0.000000 0.361858 0.932233
vn -0.000000 0.361858 0.932233
vn -0.000000 0.361858 0.932233
vn -0.000000 0.361858 0.932233
vn -0.555540 0.000000 0.831490
vn -0.555540 0.000000 0.831490
vn -0.555540 0.000000 0.831490
vn -0.555540 0.000000 0.831490
vn 0.000000 -0.395838 0.918320
vn 0.000000 -0.395838 0.918320
vn 0.000000 -0.395838 0.918320
vn 0.000000 -0.395838 0.918320
vn 0.555539 0.000000 0.831490
vn 0.555539 0.000000 0.831490
vn 0.555539 0.000000 0.831490
vn 0.555539 0.000000 0.831490
vn 0.000000 0.395839 0.918320
vn 0.000000 0.395839 0.918320
vn 0.000000 0.395839 0.918320
vn 0.000000 0.395839 0.918320
vn 0.887923 0.000000 0.459993
vn 0.887923 0.000000 0.459993
vn 0.887923 0.000000 0.459993
vn 0.887923 0.000000 0.459993
vn 0.000000 0.925694 0.378273
vn 0.000000 0.925694 0.378273
vn 0.000000 0.925694 0.378273
vn 0.000000 0.925694 0.378273
vn -0.887923 -0.000000 0.459992
vn -0.887923 -0.000000 0.459992
vn -0.887923 -0.000000 0.459992
vn -0.887923 -0.000000 0.459992
vn 0.000000 -0.925694 0.378272
vn 0.000000 -0.925694 0.378272
vn 0.000000 -0.925694 0.378272
vn 0.000000 -0.925694 0.378272
vn 0.899384 0.000000 0.437159
vn 0.899384 0.000000 0.437159
vn 0.899384 0.000000 0.437159
vn 0.899384 0.000000 0.437159
vn 0.000000 0.872298 0.488975
vn 0.000000 0.872298 0.488975
vn 0.000000 0.872298 0.488975
vn 0.000000 0.872298 0.488975
vn -0.899385 0.000000 0.437158
vn -0.899385 0.000000 0.437158
vn -0.899385 0.000000 0.437158
vn -0.899385 0.000000 0.437158
vn 0.000000 -0.872298 0.488974
vn 0.000000 -0.872298 0.488974
vn 0.000000 -0.872298 0.488974
vn 0.000000 -0.872298 0.488974
vn 0.759293 0.000000 0.650749
vn 0.759293 0.000000 0.650749
vn 0.759293 0.000000 0.650749
vn 0.759293 0.000000 0.650749
vn 0.000000 0.878945 0.476924
vn 0.000000 0.878944 0.476924
vn 0.000000 0.878945 0.476924
vn 0.000000 0.878945 0.476924
vn -0.759293 -0.000000 0.650749
vn -0.759293 -0.000000 0.650749
vn -0.759293 -0.000000 0.650748
vn -0.759293 -0.000000 0.650748
vn 0.000000 -0.878942 0.476928
vn 0.000000 -0.878942 0.476928
vn 0.000000 -0.878942 0.476928
vn 0.000000 -0.878942 0.476928
vn 0.930085 0.000000 0.367345
vn 0.930085 0.000000 0.367345
vn 0.930085 0.000000 0.367345
vn 0.930085 0.000000 0.367345
vn -0.000000 0.898741 0.438480
vn -0.000000 0.898741 0.438480
vn -0.000000 0.898741 0.438480
vn -0.000000 0.898741 0.438480
vn -0.930085 0.000000 0.367345
vn -0.930085 0.000000 0.367345
vn -0.930085 0.000000 0.367345
vn -0.930085 0.000000 0.367345
vn 0.000000 -0.898743 0.438476
vn 0.000000 -0.898743 0.438476
vn 0.000000 -0.898743 0.438476
vn 0.000000 -0.898743 0.438476
vn 0.932119 0.000000 0.362153
vn 0.932119 0.000000 0.362153
vn 0.932119 0.000000 0.362153
vn 0.932119 0.000000 0.362153
vn 0.000000 0.912966 0.408035
vn 0.000000 0.912966 0.408035
vn 0.000000 0.912966 0.408035
vn 0.000000 0.912966 0.408035
vn -0.932119 0.000000 0.362154
vn -0.932118 0.000000 0.362154
vn -0.932119 0.000000 0.362154
vn -0.932118 0.000000 0.362154
vn 0.000000 -0.912966 0.408037
vn 0.000000 -0.912966 0.408037
vn 0.000000 -0.912966 0.408037
vn 0.000000 -0.912966 0.408037
vn 0.776365 0.000000 0.630283
vn 0.776365 0.000000 0.630283
vn 0.776365 0.000000 0.630283
vn 0.776365 0.000000 0.630283
vn 0.000000 0.890457 0.455067
vn 0.000000 0.890457 0.455067
vn 0.000000 0.890457 0.455067
vn 0.000000 0.890457 0.455067
vn -0.776365 -0.000000 0.630283
vn -0.776365 -0.000000 0.630283
vn -0.776366 -0.000000 0.630283
vn -0.776366 -0.000000 0.630283
vn 0.000000 -0.890459 0.455064
vn 0.000000 -0.890459 0.455064
vn 0.000000 -0.890459 0.455064
vn 0.000000 -0.890459 0.455064
vn 0.000000 0.000000 -1.000000
vn 0.000000 0.000000 -1.000000
vn 0.000000 0.000000 -1.000000
vn 0.000000 0.000000 -1.000000
vn 1.000000 0.000000 0.000000
vn 1.000000 0.000000 0.000000
vn 1.000000 0.000000 0.000000
vn 1.000000 0.000000 0.000000
s off
g SM_door
usemtl aiStandardSurface1SG
f 1/20/1 33/97/2 72/98/3 65/21/4
f 3/69/5 40/70/6 41/71/7 5/72/8
f 66/131/9 67/132/10 48/133/11 7/134/12
f 2/1/13 8/2/14 69/3/15 70/4/16
f 7/19/17 1/20/18 65/21/19 66/22/20
f 10/34/21 9/33/22 3/35/23 5/36/24
f 5/169/25 41/170/26 42/164/27 10/163/28
f 12/16/29 11/15/30 6/17/31 4/18/32
f 9/33/33 39/203/34 40/70/35 3/35/36
f 14/32/37 13/31/38 9/33/39 10/34/40
f 10/163/41 42/164/42 43/158/43 14/157/44
f 13/31/45 38/204/46 39/203/47 9/33/48
f 18/30/49 17/29/50 13/31/51 14/32/52
f 14/157/53 43/158/54 44/151/55 18/150/56
f 20/12/57 19/11/58 15/13/59 16/14/60
f 17/29/61 37/114/62 38/204/63 13/31/64
f 22/28/65 21/27/66 17/29/67 18/30/68
f 18/150/69 44/151/70 45/145/71 22/144/72
f 24/10/73 23/9/74 19/11/75 20/12/76
f 21/27/77 36/109/78 37/114/79 17/29/80
f 26/26/81 25/25/82 21/27/83 22/28/84
f 22/144/85 45/145/86 46/140/87 26/139/88
f 28/8/89 27/7/90 23/9/91 24/10/92
f 25/25/93 35/105/94 36/109/95 21/27/96
f 30/24/97 29/23/98 25/25/99 26/26/100
f 26/139/101 46/140/102 47/136/103 30/135/104
f 32/6/105 31/5/106 27/7/107 28/8/108
f 29/23/109 34/101/110 35/105/111 25/25/112
f 91/99/113 92/100/114 72/98/115 33/97/116
f 110/185/117 109/186/118 111/187/119 112/188/120
f 36/109/121 35/105/122 94/111/123 95/113/124
f 118/189/125 117/190/126 119/191/127 120/192/128
f 38/204/129 37/114/130 96/118/131 97/201/132
f 126/123/133 125/122/134 127/124/135 128/125/136
f 98/202/137 99/73/138 40/70/139 39/203/140
f 99/73/141 100/74/142 41/71/143 40/70/144
f 100/175/145 101/171/146 42/164/147 41/170/148
f 101/171/149 102/165/150 43/158/151 42/164/152
f 102/165/153 103/159/154 44/151/155 43/158/156
f 103/159/157 104/152/158 45/145/159 44/151/160
f 104/152/161 105/146/162 46/140/163 45/145/164
f 105/146/165 106/141/166 47/136/167 46/140/168
f 107/137/169 108/138/170 48/133/171 67/132/172
f 70/4/173 71/106/174 49/107/175 2/1/176
f 28/8/177 51/116/178 50/110/179 32/6/180
f 24/10/181 52/117/182 51/116/183 28/8/184
f 20/12/185 53/121/186 52/117/187 24/10/188
f 16/14/189 54/206/190 53/121/191 20/12/192
f 12/16/193 55/126/194 54/206/195 16/14/196
f 56/78/197 55/126/198 12/16/199 4/18/200
f 57/77/201 56/78/202 4/79/203 6/80/204
f 11/183/205 58/180/206 57/182/207 6/184/208
f 15/181/209 59/177/210 58/180/211 11/183/212
f 19/178/213 60/173/214 59/177/215 15/181/216
f 23/174/217 61/167/218 60/173/219 19/178/220
f 27/168/221 62/161/222 61/167/223 23/174/224
f 31/162/225 63/154/226 62/161/227 27/168/228
f 64/148/229 68/149/230 69/155/231 8/156/232
f 66/22/233 65/21/234 29/23/235 30/24/236
f 30/135/237 47/136/238 67/132/239 66/131/240
f 67/132/241 47/136/242 106/141/243 107/137/244
f 69/155/245 68/149/246 63/154/247 31/162/248
f 70/4/249 69/3/250 31/5/251 32/6/252
f 32/6/253 50/110/254 71/106/255 70/4/256
f 34/101/257 72/98/258 92/100/259 93/104/260
f 65/21/261 72/98/262 34/101/263 29/23/264
f 71/106/265 74/103/266 75/102/267 49/107/268
f 73/108/269 74/103/270 71/106/271 50/110/272
f 133/193/273 134/194/274 135/195/275 136/196/276
f 89/115/277 90/112/278 51/116/279 52/117/280
f 141/197/281 142/198/282 143/199/283 144/200/284
f 87/120/285 88/119/286 53/121/287 54/206/288
f 149/128/289 150/127/290 151/129/291 152/130/292
f 56/78/293 85/76/294 86/205/295 55/126/296
f 57/77/297 84/75/298 85/76/299 56/78/300
f 58/180/301 83/176/302 84/179/303 57/182/304
f 60/173/305 81/166/306 82/172/307 59/177/308
f 61/167/309 80/160/310 81/166/311 60/173/312
f 62/161/313 79/153/314 80/160/315 61/167/316
f 63/154/317 78/147/318 79/153/319 62/161/320
f 77/143/321 78/147/322 63/154/323 68/149/324
f 64/148/325 76/142/326 77/143/327 68/149/328
f 92/100/329 91/99/330 75/102/331 74/103/332
f 93/104/333 92/100/334 74/103/335 73/108/336
f 94/111/337 93/104/338 73/108/339 90/112/340
f 95/113/341 94/111/342 90/112/343 89/115/344
f 96/118/345 95/113/346 89/115/347 88/119/348
f 97/201/349 96/118/350 88/119/351 87/120/352
f 98/202/353 97/201/354 87/120/355 86/205/356
f 85/76/357 99/73/358 98/202/359 86/205/360
f 84/75/361 100/74/362 99/73/363 85/76/364
f 83/176/365 101/171/366 100/175/367 84/179/368
f 82/172/369 102/165/370 101/171/371 83/176/372
f 81/166/373 103/159/374 102/165/375 82/172/376
f 80/160/377 104/152/378 103/159/379 81/166/380
f 79/153/381 105/146/382 104/152/383 80/160/384
f 78/147/385 106/141/386 105/146/387 79/153/388
f 77/143/389 107/137/390 106/141/391 78/147/392
f 76/142/393 108/138/394 107/137/395 77/143/396
f 130/87/397 129/84/398 125/122/399 126/123/400
f 129/84/401 131/83/402 127/124/403 125/122/404
f 131/83/405 132/88/406 128/125/407 127/124/408
f 132/88/409 130/87/410 126/123/411 128/125/412
f 153/95/413 154/92/414 150/127/415 149/128/416
f 154/92/417 155/91/418 151/129/419 150/127/420
f 155/91/421 156/96/422 152/130/423 151/129/424
f 156/96/425 153/95/426 149/128/427 152/130/428
f 145/64/429 146/63/430 142/198/431 141/197/432
f 146/63/433 147/68/434 143/199/435 142/198/436
f 147/68/437 148/67/438 144/200/439 143/199/440
f 148/67/441 145/64/442 141/197/443 144/200/444
f 122/48/445 121/47/446 117/190/447 118/189/448
f 121/47/449 123/52/450 119/191/451 117/190/452
f 123/52/453 124/51/454 120/192/455 119/191/456
f 124/51/457 122/48/458 118/189/459 120/192/460
f 137/56/461 138/55/462 134/194/463 133/193/464
f 138/55/465 139/60/466 135/195/467 134/194/468
f 139/60/469 140/59/470 136/196/471 135/195/472
f 140/59/473 137/56/474 133/193/475 136/196/476
f 114/40/477 113/39/478 109/186/479 110/185/480
f 113/39/481 115/44/482 111/187/483 109/186/484
f 115/44/485 116/43/486 112/188/487 111/187/488
f 116/43/489 114/40/490 110/185/491 112/188/492
f 35/37/493 34/38/494 113/39/495 114/40/496
f 34/38/497 93/41/498 115/44/499 113/39/500
f 93/41/501 94/42/502 116/43/503 115/44/504
f 94/42/505 35/37/506 114/40/507 116/43/508
f 37/45/509 36/46/510 121/47/511 122/48/512
f 36/46/513 95/49/514 123/52/515 121/47/516
f 95/49/517 96/50/518 124/51/519 123/52/520
f 96/50/521 37/45/522 122/48/523 124/51/524
f 39/86/525 38/81/526 129/84/527 130/87/528
f 38/81/529 97/82/530 131/83/531 129/84/532
f 97/82/533 98/85/534 132/88/535 131/83/536
f 98/85/537 39/86/538 130/87/539 132/88/540
f 90/53/541 73/54/542 138/55/543 137/56/544
f 73/54/545 50/57/546 139/60/547 138/55/548
f 50/57/549 51/58/550 140/59/551 139/60/552
f 51/58/553 90/53/554 137/56/555 140/59/556
f 88/61/557 89/62/558 146/63/559 145/64/560
f 89/62/561 52/65/562 147/68/563 146/63/564
f 52/65/565 53/66/566 148/67/567 147/68/568
f 53/66/569 88/61/570 145/64/571 148/67/572
f 86/94/573 87/89/574 154/92/575 153/95/576
f 87/89/577 54/90/578 155/91/579 154/92/580
f 54/90/581 55/93/582 156/96/583 155/91/584
f 55/93/585 86/94/586 153/95/587 156/96/588
f 59/177/589 82/172/590 83/176/591 58/180/592
f 15/13/593 11/15/594 12/16/595 16/14/596
g default
v 31.281796 -17.058431 0.743533
v 31.021195 -16.546977 0.743533
v 30.615304 -16.141081 0.743533
v 30.103846 -15.880483 0.743533
v 29.536896 -15.790685 0.743533
v 28.969942 -15.880483 0.743533
v 28.458482 -16.141082 0.743533
v 28.052593 -16.546977 0.743533
v 27.791992 -17.058431 0.743533
v 27.702195 -17.625385 0.743533
v 27.791992 -18.192339 0.743533
v 28.052593 -18.703797 0.743533
v 28.458483 -19.109688 0.743533
v 28.969942 -19.370289 0.743533
v 29.536896 -19.460085 0.743533
v 30.103846 -19.370289 0.743533
v 30.615304 -19.109688 0.743533
v 31.021195 -18.703797 0.743533
v 31.281796 -18.192339 0.743533
v 31.371594 -17.625385 0.743533
v 29.536896 -17.625385 9.644742
v 33.230519 -16.425256 5.115635
v 33.420597 -17.625385 5.115635
v 33.230515 -18.825519 5.115635
v 32.678876 -19.908174 5.115635
v 31.819682 -20.767371 5.115635
v 30.737025 -21.319008 5.115635
v 29.536896 -21.509091 5.115635
v 28.336762 -21.319010 5.115635
v 27.254107 -20.767373 5.115635
v 26.394908 -19.908174 5.115635
v 25.843271 -18.825519 5.115635
v 25.653188 -17.625385 5.115635
v 25.843271 -16.425256 5.115635
v 26.394908 -15.342602 5.115635
v 27.254107 -14.483401 5.115635
v 28.336760 -13.931761 5.115635
v 29.536896 -13.741680 5.115635
v 30.737027 -13.931761 5.115635
v 31.819682 -14.483401 5.115635
v 32.678880 -15.342601 5.115635
v 31.281796 -17.058431 4.418910
v 31.371594 -17.625385 4.418910
v 31.281796 -18.192339 4.418910
v 31.021195 -18.703797 4.418910
v 30.615304 -19.109688 4.418910
v 30.103846 -19.370289 4.418910
v 29.536896 -19.460085 4.418910
v 28.969942 -19.370289 4.418910
v 28.458483 -19.109688 4.418910
v 28.052593 -18.703797 4.418910
v 27.791992 -18.192339 4.418910
v 27.702195 -17.625385 4.418910
v 27.791992 -17.058431 4.418910
v 28.052593 -16.546977 4.418910
v 28.458482 -16.141082 4.418910
v 28.969942 -15.880483 4.418910
v 29.536896 -15.790685 4.418910
v 30.103846 -15.880483 4.418910
v 30.615304 -16.141081 4.418910
v 31.021195 -16.546977 4.418910
v 32.307216 -16.725253 9.644742
v 33.230519 -16.425256 8.685875
v 31.893469 -15.913235 9.644742
v 32.678880 -15.342601 8.685875
v 31.249043 -15.268815 9.644742
v 31.819682 -14.483401 8.685875
v 30.437024 -14.855069 9.644742
v 30.737027 -13.931761 8.685875
v 29.536896 -14.712502 9.644742
v 29.536896 -13.741680 8.685875
v 28.636762 -14.855070 9.644742
v 28.336760 -13.931761 8.685875
v 27.824745 -15.268813 9.644742
v 27.254107 -14.483401 8.685875
v 27.180322 -15.913237 9.644742
v 26.394908 -15.342602 8.685875
v 26.766576 -16.725255 9.644742
v 25.843271 -16.425256 8.685875
v 26.624009 -17.625385 9.644742
v 25.653188 -17.625385 8.685875
v 26.766576 -18.525517 9.644742
v 25.843271 -18.825519 8.685875
v 27.180322 -19.337536 9.644742
v 26.394908 -19.908174 8.685875
v 27.824745 -19.981959 9.644742
v 27.254107 -20.767373 8.685875
v 28.636762 -20.395705 9.644742
v 28.336762 -21.319010 8.685875
v 29.536896 -20.538270 9.644742
v 29.536896 -21.509091 8.685875
v 30.437024 -20.395704 9.644742
v 30.737025 -21.319008 8.685875
v 31.249043 -19.981957 9.644742
v 31.819682 -20.767371 8.685875
v 31.893465 -19.337536 9.644742
v 32.678876 -19.908174 8.685875
v 32.307205 -18.525517 9.644742
v 33.230515 -18.825519 8.685875
v 32.449782 -17.625383 9.644742
v 33.420597 -17.625385 8.685875
vt 0.014499 0.646124
vt 0.016151 0.646124
vt 0.017803 0.646124
vt 0.019455 0.646124
vt 0.021107 0.646124
vt 0.022760 0.646124
vt 0.024412 0.646124
vt 0.026064 0.646124
vt 0.027716 0.646124
vt 0.029368 0.646124
vt 0.031020 0.646124
vt 0.032672 0.646124
vt 0.034324 0.646124
vt 0.035977 0.646124
vt 0.037629 0.646124
vt 0.039281 0.646124
vt 0.040933 0.646124
vt 0.042585 0.646124
vt 0.044237 0.646124
vt 0.045889 0.646124
vt 0.047541 0.646124
vt 0.014499 0.666788
vt 0.047541 0.663133
vt 0.014499 0.663133
vt 0.045889 0.663133
vt 0.044237 0.663133
vt 0.042585 0.663133
vt 0.040933 0.663133
vt 0.039281 0.663133
vt 0.037629 0.663133
vt 0.035977 0.663133
vt 0.034324 0.663133
vt 0.032672 0.663133
vt 0.031020 0.663133
vt 0.029368 0.663133
vt 0.027716 0.663133
vt 0.026064 0.663133
vt 0.024412 0.663133
vt 0.022760 0.663133
vt 0.021107 0.663133
vt 0.019455 0.663133
vt 0.017803 0.663133
vt 0.016151 0.663133
vt 0.047933 0.725643
vt 0.047933 0.725643
vt 0.047933 0.732933
vt 0.044005 0.736862
vt 0.036715 0.736862
vt 0.036715 0.736862
vt 0.036715 0.736862
vt 0.029424 0.736862
vt 0.025496 0.732933
vt 0.025496 0.725643
vt 0.025496 0.725643
vt 0.025496 0.725643
vt 0.025496 0.718353
vt 0.029424 0.714425
vt 0.036715 0.714425
vt 0.036715 0.714425
vt 0.036715 0.714425
vt 0.044005 0.714425
vt 0.047933 0.718353
vt 0.047933 0.725643
vt 0.045129 0.731111
vt 0.042182 0.734057
vt 0.036715 0.734057
vt 0.036715 0.734057
vt 0.036715 0.734057
vt 0.031247 0.734057
vt 0.028301 0.731111
vt 0.028301 0.725643
vt 0.028301 0.725643
vt 0.028301 0.725643
vt 0.028301 0.720175
vt 0.031247 0.717229
vt 0.036715 0.717229
vt 0.036715 0.717229
vt 0.036715 0.717229
vt 0.042182 0.717229
vt 0.045129 0.720175
vt 0.045129 0.725643
vt 0.045129 0.725643
vt 0.045129 0.725643
vt 0.036715 0.725643
vt 0.047541 0.666788
vt 0.047541 0.689569
vt 0.045889 0.689569
vt 0.045889 0.666788
vt 0.044237 0.689569
vt 0.044237 0.666788
vt 0.042585 0.689569
vt 0.042585 0.666788
vt 0.040933 0.689569
vt 0.040933 0.666788
vt 0.039281 0.689569
vt 0.039281 0.666788
vt 0.037629 0.689569
vt 0.037629 0.666788
vt 0.035977 0.689569
vt 0.035977 0.666788
vt 0.034324 0.689569
vt 0.034324 0.666788
vt 0.032672 0.689569
vt 0.032672 0.666788
vt 0.031020 0.689569
vt 0.031020 0.666788
vt 0.029368 0.689569
vt 0.029368 0.666788
vt 0.027716 0.689569
vt 0.027716 0.666788
vt 0.026064 0.689569
vt 0.026064 0.666788
vt 0.024412 0.689569
vt 0.024412 0.666788
vt 0.022760 0.689569
vt 0.022760 0.666788
vt 0.021107 0.689569
vt 0.021107 0.666788
vt 0.019455 0.689569
vt 0.019455 0.666788
vt 0.017803 0.689569
vt 0.017803 0.666788
vt 0.016151 0.689569
vt 0.016151 0.666788
vt 0.014499 0.689569
vn 0.951056 0.309019 0.000000
vn 0.809018 0.587784 0.000000
vn 0.656971 0.477316 -0.583574
vn 0.772315 0.250942 -0.583574
vn 0.587786 0.809017 0.000000
vn 0.477317 0.656969 -0.583575
vn 0.309017 0.951057 0.000000
vn 0.250940 0.772315 -0.583573
vn 0.000000 1.000000 0.000000
vn 0.000000 0.812059 -0.583575
vn -0.309016 0.951057 0.000000
vn -0.250940 0.772316 -0.583573
vn -0.587786 0.809017 0.000000
vn -0.477317 0.656969 -0.583575
vn -0.809018 0.587783 0.000000
vn -0.656972 0.477316 -0.583574
vn -0.951056 0.309018 0.000000
vn -0.772315 0.250941 -0.583574
vn -1.000000 0.000000 0.000000
vn -0.812060 0.000000 -0.583574
vn -0.951057 -0.309017 0.000000
vn -0.772315 -0.250940 -0.583574
vn -0.809018 -0.587784 0.000000
vn -0.656970 -0.477316 -0.583575
vn -0.587784 -0.809018 0.000000
vn -0.477316 -0.656970 -0.583575
vn -0.309017 -0.951057 0.000000
vn -0.250940 -0.772315 -0.583574
vn 0.000000 -1.000000 0.000000
vn 0.000000 -0.812060 -0.583574
vn 0.309018 -0.951056 0.000000
vn 0.250941 -0.772315 -0.583574
vn 0.587784 -0.809018 0.000000
vn 0.477316 -0.656971 -0.583574
vn 0.809018 -0.587784 0.000000
vn 0.656971 -0.477316 -0.583574
vn 0.951056 -0.309018 0.000000
vn 0.772316 -0.250941 -0.583573
vn 1.000000 0.000000 0.000000
vn 0.812060 -0.000000 -0.583574
vn 0.900845 0.292701 -0.320631
vn 0.947204 -0.000001 -0.320631
vn 0.900845 -0.292702 -0.320631
vn 0.766305 -0.556751 -0.320631
vn 0.556752 -0.766305 -0.320631
vn 0.292701 -0.900845 -0.320631
vn 0.000001 -0.947204 -0.320631
vn -0.292700 -0.900845 -0.320631
vn -0.556752 -0.766305 -0.320631
vn -0.766305 -0.556752 -0.320631
vn -0.900845 -0.292701 -0.320631
vn -0.947204 0.000000 -0.320631
vn -0.900845 0.292701 -0.320631
vn -0.766305 0.556752 -0.320630
vn -0.556753 0.766304 -0.320631
vn -0.292702 0.900845 -0.320631
vn -0.000000 0.947204 -0.320631
vn 0.292702 0.900845 -0.320631
vn 0.556753 0.766304 -0.320631
vn 0.766305 0.556752 -0.320631
vn 0.407855 0.132520 0.903379
vn 0.935780 0.304052 0.178516
vn 0.796022 0.578343 0.178516
vn 0.346941 0.252068 0.903379
vn 0.428845 -0.000002 0.903378
vn 0.983937 -0.000002 0.178516
vn 0.578344 0.796022 0.178517
vn 0.252067 0.346941 0.903379
vn 0.304053 0.935780 0.178517
vn 0.132520 0.407854 0.903379
vn -0.000000 0.983937 0.178516
vn -0.000000 0.428843 0.903379
vn -0.304053 0.935780 0.178516
vn -0.132520 0.407854 0.903379
vn -0.578344 0.796021 0.178517
vn -0.252068 0.346941 0.903379
vn -0.796022 0.578343 0.178517
vn -0.346941 0.252067 0.903379
vn -0.935780 0.304053 0.178516
vn -0.407854 0.132520 0.903379
vn -0.983937 -0.000000 0.178516
vn -0.428843 0.000000 0.903379
vn -0.935780 -0.304052 0.178516
vn -0.407854 -0.132520 0.903379
vn -0.796022 -0.578343 0.178517
vn -0.346941 -0.252067 0.903379
vn -0.578343 -0.796022 0.178517
vn -0.252067 -0.346941 0.903379
vn -0.304051 -0.935780 0.178516
vn -0.132519 -0.407855 0.903379
vn 0.000001 -0.983937 0.178516
vn 0.000000 -0.428843 0.903379
vn 0.304052 -0.935780 0.178516
vn 0.132520 -0.407855 0.903379
vn 0.578343 -0.796022 0.178517
vn 0.252067 -0.346941 0.903379
vn 0.796023 -0.578342 0.178517
vn 0.346942 -0.252067 0.903379
vn 0.935780 -0.304053 0.178516
vn 0.407853 -0.132520 0.903379
vn 0.000000 -0.000000 1.000000
s 1
g SM_door SM_doorknob
usemtl aiStandardSurface1SG
f 157/207/597 158/208/598 217/249/599 198/230/600
f 158/208/598 159/209/601 216/248/602 217/249/599
f 159/209/601 160/210/603 215/247/604 216/248/602
f 160/210/603 161/211/605 214/246/606 215/247/604
f 161/211/605 162/212/607 213/245/608 214/246/606
f 162/212/607 163/213/609 212/244/610 213/245/608
f 163/213/609 164/214/611 211/243/612 212/244/610
f 164/214/611 165/215/613 210/242/614 211/243/612
f 165/215/613 166/216/615 209/241/616 210/242/614
f 166/216/615 167/217/617 208/240/618 209/241/616
f 167/217/617 168/218/619 207/239/620 208/240/618
f 168/218/619 169/219/621 206/238/622 207/239/620
f 169/219/621 170/220/623 205/237/624 206/238/622
f 170/220/623 171/221/625 204/236/626 205/237/624
f 171/221/625 172/222/627 203/235/628 204/236/626
f 172/222/627 173/223/629 202/234/630 203/235/628
f 173/223/629 174/224/631 201/233/632 202/234/630
f 174/224/631 175/225/633 200/232/634 201/233/632
f 175/225/633 176/226/635 199/231/636 200/232/634
f 176/226/635 157/227/597 198/229/600 199/231/636
f 199/231/636 198/229/600 178/291/637 179/294/638
f 200/232/634 199/231/636 179/294/638 180/296/639
f 201/233/632 200/232/634 180/296/639 181/298/640
f 202/234/630 201/233/632 181/298/640 182/300/641
f 203/235/628 202/234/630 182/300/641 183/302/642
f 204/236/626 203/235/628 183/302/642 184/304/643
f 205/237/624 204/236/626 184/304/643 185/306/644
f 206/238/622 205/237/624 185/306/644 186/308/645
f 207/239/620 206/238/622 186/308/645 187/310/646
f 208/240/618 207/239/620 187/310/646 188/312/647
f 209/241/616 208/240/618 188/312/647 189/314/648
f 210/242/614 209/241/616 189/314/648 190/316/649
f 211/243/612 210/242/614 190/316/649 191/318/650
f 212/244/610 211/243/612 191/318/650 192/320/651
f 213/245/608 212/244/610 192/320/651 193/322/652
f 214/246/606 213/245/608 193/322/652 194/324/653
f 215/247/604 214/246/606 194/324/653 195/326/654
f 216/248/602 215/247/604 195/326/654 196/328/655
f 217/249/599 216/248/602 196/328/655 197/330/656
f 198/230/600 217/249/599 197/330/656 178/228/637
f 218/289/657 219/250/658 221/252/659 220/270/660
f 219/250/658 218/289/657 256/288/661 257/251/662
f 220/270/660 221/252/659 223/253/663 222/271/664
f 222/271/664 223/253/663 225/254/665 224/272/666
f 224/272/666 225/254/665 227/255/667 226/273/668
f 226/273/668 227/255/667 229/256/669 228/274/670
f 228/274/670 229/256/669 231/257/671 230/275/672
f 230/275/672 231/257/671 233/258/673 232/276/674
f 232/276/674 233/258/673 235/259/675 234/277/676
f 234/277/676 235/259/675 237/260/677 236/278/678
f 236/278/678 237/260/677 239/261/679 238/279/680
f 238/279/680 239/261/679 241/262/681 240/280/682
f 240/280/682 241/262/681 243/263/683 242/281/684
f 242/281/684 243/263/683 245/264/685 244/282/686
f 244/282/686 245/264/685 247/265/687 246/283/688
f 246/283/688 247/265/687 249/266/689 248/284/690
f 248/284/690 249/266/689 251/267/691 250/285/692
f 250/285/692 251/267/691 253/268/693 252/286/694
f 252/286/694 253/268/693 255/269/695 254/287/696
f 254/287/696 255/269/695 257/251/662 256/288/661
f 218/289/657 220/270/660 177/290/697
f 220/270/660 222/271/664 177/290/697
f 222/271/664 224/272/666 177/290/697
f 224/272/666 226/273/668 177/290/697
f 226/273/668 228/274/670 177/290/697
f 228/274/670 230/275/672 177/290/697
f 230/275/672 232/276/674 177/290/697
f 232/276/674 234/277/676 177/290/697
f 234/277/676 236/278/678 177/290/697
f 236/278/678 238/279/680 177/290/697
f 238/279/680 240/280/682 177/290/697
f 240/280/682 242/281/684 177/290/697
f 242/281/684 244/282/686 177/290/697
f 244/282/686 246/283/688 177/290/697
f 246/283/688 248/284/690 177/290/697
f 248/284/690 250/285/692 177/290/697
f 250/285/692 252/286/694 177/290/697
f 252/286/694 254/287/696 177/290/697
f 254/287/696 256/288/661 177/290/697
f 256/288/661 218/289/657 177/290/697
f 179/294/638 178/291/637 219/292/658 257/293/662
f 180/296/639 179/294/638 257/293/662 255/295/695
f 181/298/640 180/296/639 255/295/695 253/297/693
f 182/300/641 181/298/640 253/297/693 251/299/691
f 183/302/642 182/300/641 251/299/691 249/301/689
f 184/304/643 183/302/642 249/301/689 247/303/687
f 185/306/644 184/304/643 247/303/687 245/305/685
f 186/308/645 185/306/644 245/305/685 243/307/683
f 187/310/646 186/308/645 243/307/683 241/309/681
f 188/312/647 187/310/646 241/309/681 239/311/679
f 189/314/648 188/312/647 239/311/679 237/313/677
f 190/316/649 189/314/648 237/313/677 235/315/675
f 191/318/650 190/316/649 235/315/675 233/317/673
f 192/320/651 191/318/650 233/317/673 231/319/671
f 193/322/652 192/320/651 231/319/671 229/321/669
f 194/324/653 193/322/652 229/321/669 227/323/667
f 195/326/654 194/324/653 227/323/667 225/325/665
f 196/328/655 195/326/654 225/325/665 223/327/663
f 197/330/656 196/328/655 223/327/663 221/329/659
f 178/228/637 197/330/656 221/329/659 219/331/658
g default
v -49.234050 -102.043963 4.421682
v 50.160178 -102.043963 4.421682
v -49.234050 109.550590 4.421682
v 50.160178 109.550590 4.421682
v -49.234050 109.550590 -2.578318
v 50.160178 109.550590 -2.578318
v -49.234050 -102.043963 -2.578318
v 50.160178 -102.043963 -2.578318
v -42.427530 -102.043963 4.421683
v -42.427530 109.550590 4.421683
v -42.427530 109.550590 -2.578318
v -42.427530 -102.043963 -2.578318
v 42.689093 -102.043963 4.421682
v 42.689093 109.550590 4.421682
v 42.689093 109.550590 -2.578318
v 42.689093 -102.043963 -2.578318
v -49.234050 101.646696 4.421682
v -49.234050 101.646580 -2.578318
v -42.427530 101.646580 -2.578318
v 42.689105 101.646580 -2.578318
v 50.160178 101.646580 -2.578318
v 50.160178 101.646696 4.421682
v 42.689093 101.646696 4.421682
v -42.427530 101.646696 4.421683
vt 0.065700 0.032538
vt 0.086385 0.032538
vt 0.086385 0.628047
vt 0.065700 0.628048
vt 0.086385 0.651282
vt 0.065700 0.651282
vt 0.377625 0.029894
vt 0.397966 0.029894
vt 0.397966 0.628047
vt 0.377625 0.628047
vt 0.397966 0.649960
vt 0.377625 0.649960
vt 0.043718 0.032538
vt 0.043718 0.628048
vt 0.023207 0.628048
vt 0.023207 0.032538
vt 0.417813 0.628047
vt 0.417813 0.029894
vt 0.438323 0.029894
vt 0.438323 0.628047
vt 0.377625 0.671711
vt 0.357763 0.671711
vt 0.357763 0.651282
vt 0.377625 0.651282
vt 0.108357 0.671711
vt 0.108357 0.651282
vt 0.086385 0.671711
vt 0.357763 0.715373
vt 0.108357 0.715373
vt 0.108357 0.694870
vt 0.357763 0.694870
vt 0.086385 0.694870
vt 0.357763 0.628047
vt 0.357763 0.029894
vt 0.108357 0.628047
vt 0.108357 0.032538
vt 0.377625 0.694870
vn -0.000000 0.000000 1.000000
vn -0.000000 0.000000 1.000000
vn -0.000000 0.000000 1.000000
vn -0.000000 0.000000 1.000000
vn 0.000000 1.000000 0.000000
vn 0.000000 1.000000 0.000000
vn 0.000000 1.000000 0.000000
vn 0.000000 1.000000 0.000000
vn 0.000000 0.000000 -1.000000
vn 0.000000 0.000000 -1.000000
vn 0.000000 0.000000 -1.000000
vn 0.000000 0.000000 -1.000000
vn 1.000000 0.000000 0.000000
vn 1.000000 0.000000 0.000000
vn 1.000000 0.000000 0.000000
vn 1.000000 0.000000 0.000000
vn -1.000000 0.000000 0.000000
vn -1.000000 0.000000 0.000000
vn -1.000000 0.000000 0.000000
vn -1.000000 0.000000 0.000000
vn 0.000000 1.000000 0.000000
vn 0.000000 1.000000 0.000000
vn 0.000000 0.000000 1.000000
vn 0.000000 0.000000 1.000000
vn 0.000000 0.000000 1.000000
vn 0.000000 0.000000 1.000000
vn 0.000000 1.000000 0.000000
vn 0.000000 1.000000 0.000000
vn 0.000000 0.000000 -1.000000
vn 0.000000 0.000000 -1.000000
vn 0.000000 0.000000 -1.000000
vn 0.000000 0.000000 -1.000000
vn -1.000000 0.000000 0.000000
vn -1.000000 0.000000 0.000000
vn 0.000000 0.000000 -1.000000
vn 0.000000 0.000000 -1.000000
vn 0.000000 0.000000 -1.000000
vn 0.000000 0.000000 -1.000000
vn 1.000000 0.000000 0.000000
vn 1.000000 0.000000 0.000000
vn 0.000000 0.000000 1.000000
vn 0.000000 0.000000 1.000000
vn 0.000000 0.000000 1.000000
vn -0.000000 0.000000 1.000000
vn 0.000000 -1.000000 0.000016
vn 0.000000 -1.000000 0.000016
vn 0.000000 -1.000000 0.000016
vn 0.000000 -1.000000 0.000016
vn -1.000000 0.000000 -0.000001
vn -1.000000 0.000000 -0.000001
vn -1.000000 0.000000 -0.000001
vn -1.000000 0.000000 -0.000001
vn 1.000000 0.000000 0.000000
vn 1.000000 0.000000 0.000000
vn 1.000000 0.000000 0.000000
vn 1.000000 0.000000 0.000000
s 1
g SM_door SM_doorframe
usemtl aiStandardSurface1SG
f 258/339/698 266/349/699 281/348/700 274/340/701
s 2
f 260/352/702 267/353/703 268/354/704 262/355/705
s 3
f 275/341/706 276/364/707 269/365/708 264/338/709
s 4
f 259/332/710 265/333/711 278/334/712 279/335/713
s 5
f 264/338/714 258/339/715 274/340/716 275/341/717
s 2
f 268/354/704 267/353/703 271/356/718 272/357/719
s 1
f 279/335/720 280/345/721 270/344/722 259/332/723
s 2
f 272/357/719 271/356/718 261/358/724 263/336/725
s 3
f 273/367/726 277/366/727 278/334/728 265/333/729
s 5
f 275/341/717 274/340/716 260/342/730 262/343/731
s 3
f 262/355/732 268/354/733 276/364/707 275/341/706
f 277/366/727 276/364/707 268/354/733 272/357/734
f 263/336/735 278/334/728 277/366/727 272/357/734
s 4
f 279/335/713 278/334/712 263/336/736 261/337/737
s 1
f 271/356/738 280/361/721 279/363/720 261/358/739
f 267/353/740 281/362/700 280/361/721 271/356/738
f 274/368/701 281/362/700 267/353/740 260/352/741
s off
f 276/359/742 277/360/743 280/361/744 281/362/745
f 270/344/746 280/345/747 277/346/748 273/347/749
f 281/348/750 266/349/751 269/350/752 276/351/753
g default
v 31.281796 -17.058431 0.743533
v 31.021195 -16.546977 0.743533
v 30.615304 -16.141081 0.743533
v 30.103846 -15.880483 0.743533
v 29.536896 -15.790685 0.743533
v 28.969942 -15.880483 0.743533
v 28.458482 -16.141082 0.743533
v 28.052593 -16.546977 0.743533
v 27.791992 -17.058431 0.743533
v 27.702195 -17.625385 0.743533
v 27.791992 -18.192339 0.743533
v 28.052593 -18.703797 0.743533
v 28.458483 -19.109688 0.743533
v 28.969942 -19.370289 0.743533
v 29.536896 -19.460085 0.743533
v 30.103846 -19.370289 0.743533
v 30.615304 -19.109688 0.743533
v 31.021195 -18.703797 0.743533
v 31.281796 -18.192339 0.743533
v 31.371594 -17.625385 0.743533
v 29.536896 -17.625385 9.644742
v 33.230519 -16.425256 5.115635
v 33.420597 -17.625385 5.115635
v 33.230515 -18.825519 5.115635
v 32.678876 -19.908174 5.115635
v 31.819682 -20.767371 5.115635
v 30.737025 -21.319008 5.115635
v 29.536896 -21.509091 5.115635
v 28.336762 -21.319010 5.115635
v 27.254107 -20.767373 5.115635
v 26.394908 -19.908174 5.115635
v 25.843271 -18.825519 5.115635
v 25.653188 -17.625385 5.115635
v 25.843271 -16.425256 5.115635
v 26.394908 -15.342602 5.115635
v 27.254107 -14.483401 5.115635
v 28.336760 -13.931761 5.115635
v 29.536896 -13.741680 5.115635
v 30.737027 -13.931761 5.115635
v 31.819682 -14.483401 5.115635
v 32.678880 -15.342601 5.115635
v 31.281796 -17.058431 4.418910
v 31.371594 -17.625385 4.418910
v 31.281796 -18.192339 4.418910
v 31.021195 -18.703797 4.418910
v 30.615304 -19.109688 4.418910
v 30.103846 -19.370289 4.418910
v 29.536896 -19.460085 4.418910
v 28.969942 -19.370289 4.418910
v 28.458483 -19.109688 4.418910
v 28.052593 -18.703797 4.418910
v 27.791992 -18.192339 4.418910
v 27.702195 -17.625385 4.418910
v 27.791992 -17.058431 4.418910
v 28.052593 -16.546977 4.418910
v 28.458482 -16.141082 4.418910
v 28.969942 -15.880483 4.418910
v 29.536896 -15.790685 4.418910
v 30.103846 -15.880483 4.418910
v 30.615304 -16.141081 4.418910
v 31.021195 -16.546977 4.418910
v 32.307216 -16.725253 9.644742
v 33.230519 -16.425256 8.685875
v 31.893469 -15.913235 9.644742
v 32.678880 -15.342601 8.685875
v 31.249043 -15.268815 9.644742
v 31.819682 -14.483401 8.685875
v 30.437024 -14.855069 9.644742
v 30.737027 -13.931761 8.685875
v 29.536896 -14.712502 9.644742
v 29.536896 -13.741680 8.685875
v 28.636762 -14.855070 9.644742
v 28.336760 -13.931761 8.685875
v 27.824745 -15.268813 9.644742
v 27.254107 -14.483401 8.685875
v 27.180322 -15.913237 9.644742
v 26.394908 -15.342602 8.685875
v 26.766576 -16.725255 9.644742
v 25.843271 -16.425256 8.685875
v 26.624009 -17.625385 9.644742
v 25.653188 -17.625385 8.685875
v 26.766576 -18.525517 9.644742
v 25.843271 -18.825519 8.685875
v 27.180322 -19.337536 9.644742
v 26.394908 -19.908174 8.685875
v 27.824745 -19.981959 9.644742
v 27.254107 -20.767373 8.685875
v 28.636762 -20.395705 9.644742
v 28.336762 -21.319010 8.685875
v 29.536896 -20.538270 9.644742
v 29.536896 -21.509091 8.685875
v 30.437024 -20.395704 9.644742
v 30.737025 -21.319008 8.685875
v 31.249043 -19.981957 9.644742
v 31.819682 -20.767371 8.685875
v 31.893465 -19.337536 9.644742
v 32.678876 -19.908174 8.685875
v 32.307205 -18.525517 9.644742
v 33.230515 -18.825519 8.685875
v 32.449782 -17.625383 9.644742
v 33.420597 -17.625385 8.685875
vt 0.014499 0.646124
vt 0.016151 0.646124
vt 0.017803 0.646124
vt 0.019455 0.646124
vt 0.021107 0.646124
vt 0.022760 0.646124
vt 0.024412 0.646124
vt 0.026064 0.646124
vt 0.027716 0.646124
vt 0.029368 0.646124
vt 0.031020 0.646124
vt 0.032672 0.646124
vt 0.034324 0.646124
vt 0.035977 0.646124
vt 0.037629 0.646124
vt 0.039281 0.646124
vt 0.040933 0.646124
vt 0.042585 0.646124
vt 0.044237 0.646124
vt 0.045889 0.646124
vt 0.047541 0.646124
vt 0.014499 0.666788
vt 0.047541 0.663133
vt 0.014499 0.663133
vt 0.045889 0.663133
vt 0.044237 0.663133
vt 0.042585 0.663133
vt 0.040933 0.663133
vt 0.039281 0.663133
vt 0.037629 0.663133
vt 0.035977 0.663133
vt 0.034324 0.663133
vt 0.032672 0.663133
vt 0.031020 0.663133
vt 0.029368 0.663133
vt 0.027716 0.663133
vt 0.026064 0.663133
vt 0.024412 0.663133
vt 0.022760 0.663133
vt 0.021107 0.663133
vt 0.019455 0.663133
vt 0.017803 0.663133
vt 0.016151 0.663133
vt 0.047933 0.725643
vt 0.047933 0.725643
vt 0.047933 0.732933
vt 0.044005 0.736862
vt 0.036715 0.736862
vt 0.036715 0.736862
vt 0.036715 0.736862
vt 0.029424 0.736862
vt 0.025496 0.732933
vt 0.025496 0.725643
vt 0.025496 0.725643
vt 0.025496 0.725643
vt 0.025496 0.718353
vt 0.029424 0.714425
vt 0.036715 0.714425
vt 0.036715 0.714425
vt 0.036715 0.714425
vt 0.044005 0.714425
vt 0.047933 0.718353
vt 0.047933 0.725643
vt 0.045129 0.731111
vt 0.042182 0.734057
vt 0.036715 0.734057
vt 0.036715 0.734057
vt 0.036715 0.734057
vt 0.031247 0.734057
vt 0.028301 0.731111
vt 0.028301 0.725643
vt 0.028301 0.725643
vt 0.028301 0.725643
vt 0.028301 0.720175
vt 0.031247 0.717229
vt 0.036715 0.717229
vt 0.036715 0.717229
vt 0.036715 0.717229
vt 0.042182 0.717229
vt 0.045129 0.720175
vt 0.045129 0.725643
vt 0.045129 0.725643
vt 0.045129 0.725643
vt 0.036715 0.725643
vt 0.047541 0.666788
vt 0.047541 0.689569
vt 0.045889 0.689569
vt 0.045889 0.666788
vt 0.044237 0.689569
vt 0.044237 0.666788
vt 0.042585 0.689569
vt 0.042585 0.666788
vt 0.040933 0.689569
vt 0.040933 0.666788
vt 0.039281 0.689569
vt 0.039281 0.666788
vt 0.037629 0.689569
vt 0.037629 0.666788
vt 0.035977 0.689569
vt 0.035977 0.666788
vt 0.034324 0.689569
vt 0.034324 0.666788
vt 0.032672 0.689569
vt 0.032672 0.666788
vt 0.031020 0.689569
vt 0.031020 0.666788
vt 0.029368 0.689569
vt 0.029368 0.666788
vt 0.027716 0.689569
vt 0.027716 0.666788
vt 0.026064 0.689569
vt 0.026064 0.666788
vt 0.024412 0.689569
vt 0.024412 0.666788
vt 0.022760 0.689569
vt 0.022760 0.666788
vt 0.021107 0.689569
vt 0.021107 0.666788
vt 0.019455 0.689569
vt 0.019455 0.666788
vt 0.017803 0.689569
vt 0.017803 0.666788
vt 0.016151 0.689569
vt 0.016151 0.666788
vt 0.014499 0.689569
vn 0.951056 0.309019 0.000000
vn 0.809018 0.587784 0.000000
vn 0.656971 0.477316 -0.583574
vn 0.772315 0.250942 -0.583574
vn 0.587786 0.809017 0.000000
vn 0.477317 0.656969 -0.583575
vn 0.309017 0.951057 0.000000
vn 0.250940 0.772315 -0.583573
vn 0.000000 1.000000 0.000000
vn 0.000000 0.812059 -0.583575
vn -0.309016 0.951057 0.000000
vn -0.250940 0.772316 -0.583573
vn -0.587786 0.809017 0.000000
vn -0.477317 0.656969 -0.583575
vn -0.809018 0.587783 0.000000
vn -0.656972 0.477316 -0.583574
vn -0.951056 0.309018 0.000000
vn -0.772315 0.250941 -0.583574
vn -1.000000 0.000000 0.000000
vn -0.812060 0.000000 -0.583574
vn -0.951057 -0.309017 0.000000
vn -0.772315 -0.250940 -0.583574
vn -0.809018 -0.587784 0.000000
vn -0.656970 -0.477316 -0.583575
vn -0.587784 -0.809018 0.000000
vn -0.477316 -0.656970 -0.583575
vn -0.309017 -0.951057 0.000000
vn -0.250940 -0.772315 -0.583574
vn 0.000000 -1.000000 0.000000
vn 0.000000 -0.812060 -0.583574
vn 0.309018 -0.951056 0.000000
vn 0.250941 -0.772315 -0.583574
vn 0.587784 -0.809018 0.000000
vn 0.477316 -0.656971 -0.583574
vn 0.809018 -0.587784 0.000000
vn 0.656971 -0.477316 -0.583574
vn 0.951056 -0.309018 0.000000
vn 0.772316 -0.250941 -0.583573
vn 1.000000 0.000000 0.000000
vn 0.812060 -0.000000 -0.583574
vn 0.900845 0.292701 -0.320631
vn 0.947204 -0.000001 -0.320631
vn 0.900845 -0.292702 -0.320631
vn 0.766305 -0.556751 -0.320631
vn 0.556752 -0.766305 -0.320631
vn 0.292701 -0.900845 -0.320631
vn 0.000001 -0.947204 -0.320631
vn -0.292700 -0.900845 -0.320631
vn -0.556752 -0.766305 -0.320631
vn -0.766305 -0.556752 -0.320631
vn -0.900845 -0.292701 -0.320631
vn -0.947204 0.000000 -0.320631
vn -0.900845 0.292701 -0.320631
vn -0.766305 0.556752 -0.320630
vn -0.556753 0.766304 -0.320631
vn -0.292702 0.900845 -0.320631
vn -0.000000 0.947204 -0.320631
vn 0.292702 0.900845 -0.320631
vn 0.556753 0.766304 -0.320631
vn 0.766305 0.556752 -0.320631
vn 0.407855 0.132520 0.903379
vn 0.935780 0.304052 0.178516
vn 0.796022 0.578343 0.178516
vn 0.346941 0.252068 0.903379
vn 0.428845 -0.000002 0.903378
vn 0.983937 -0.000002 0.178516
vn 0.578344 0.796022 0.178517
vn 0.252067 0.346941 0.903379
vn 0.304053 0.935780 0.178517
vn 0.132520 0.407854 0.903379
vn -0.000000 0.983937 0.178516
vn -0.000000 0.428843 0.903379
vn -0.304053 0.935780 0.178516
vn -0.132520 0.407854 0.903379
vn -0.578344 0.796021 0.178517
vn -0.252068 0.346941 0.903379
vn -0.796022 0.578343 0.178517
vn -0.346941 0.252067 0.903379
vn -0.935780 0.304053 0.178516
vn -0.407854 0.132520 0.903379
vn -0.983937 -0.000000 0.178516
vn -0.428843 0.000000 0.903379
vn -0.935780 -0.304052 0.178516
vn -0.407854 -0.132520 0.903379
vn -0.796022 -0.578343 0.178517
vn -0.346941 -0.252067 0.903379
vn -0.578343 -0.796022 0.178517
vn -0.252067 -0.346941 0.903379
vn -0.304051 -0.935780 0.178516
vn -0.132519 -0.407855 0.903379
vn 0.000001 -0.983937 0.178516
vn 0.000000 -0.428843 0.903379
vn 0.304052 -0.935780 0.178516
vn 0.132520 -0.407855 0.903379
vn 0.578343 -0.796022 0.178517
vn 0.252067 -0.346941 0.903379
vn 0.796023 -0.578342 0.178517
vn 0.346942 -0.252067 0.903379
vn 0.935780 -0.304053 0.178516
vn 0.407853 -0.132520 0.903379
vn 0.000000 -0.000000 1.000000
s 1
g SM_door SM_doorknob
f 282/369/754 283/370/755 342/411/756 323/392/757
f 283/370/755 284/371/758 341/410/759 342/411/756
f 284/371/758 285/372/760 340/409/761 341/410/759
f 285/372/760 286/373/762 339/408/763 340/409/761
f 286/373/762 287/374/764 338/407/765 339/408/763
f 287/374/764 288/375/766 337/406/767 338/407/765
f 288/375/766 289/376/768 336/405/769 337/406/767
f 289/376/768 290/377/770 335/404/771 336/405/769
f 290/377/770 291/378/772 334/403/773 335/404/771
f 291/378/772 292/379/774 333/402/775 334/403/773
f 292/379/774 293/380/776 332/401/777 333/402/775
f 293/380/776 294/381/778 331/400/779 332/401/777
f 294/381/778 295/382/780 330/399/781 331/400/779
f 295/382/780 296/383/782 329/398/783 330/399/781
f 296/383/782 297/384/784 328/397/785 329/398/783
f 297/384/784 298/385/786 327/396/787 328/397/785
f 298/385/786 299/386/788 326/395/789 327/396/787
f 299/386/788 300/387/790 325/394/791 326/395/789
f 300/387/790 301/388/792 324/393/793 325/394/791
f 301/388/792 282/389/754 323/391/757 324/393/793
f 324/393/793 323/391/757 303/453/794 304/456/795
f 325/394/791 324/393/793 304/456/795 305/458/796
f 326/395/789 325/394/791 305/458/796 306/460/797
f 327/396/787 326/395/789 306/460/797 307/462/798
f 328/397/785 327/396/787 307/462/798 308/464/799
f 329/398/783 328/397/785 308/464/799 309/466/800
f 330/399/781 329/398/783 309/466/800 310/468/801
f 331/400/779 330/399/781 310/468/801 311/470/802
f 332/401/777 331/400/779 311/470/802 312/472/803
f 333/402/775 332/401/777 312/472/803 313/474/804
f 334/403/773 333/402/775 313/474/804 314/476/805
f 335/404/771 334/403/773 314/476/805 315/478/806
f 336/405/769 335/404/771 315/478/806 316/480/807
f 337/406/767 336/405/769 316/480/807 317/482/808
f 338/407/765 337/406/767 317/482/808 318/484/809
f 339/408/763 338/407/765 318/484/809 319/486/810
f 340/409/761 339/408/763 319/486/810 320/488/811
f 341/410/759 340/409/761 320/488/811 321/490/812
f 342/411/756 341/410/759 321/490/812 322/492/813
f 323/392/757 342/411/756 322/492/813 303/390/794
f 343/451/814 344/412/815 346/414/816 345/432/817
f 344/412/815 343/451/814 381/450/818 382/413/819
f 345/432/817 346/414/816 348/415/820 347/433/821
f 347/433/821 348/415/820 350/416/822 349/434/823
f 349/434/823 350/416/822 352/417/824 351/435/825
f 351/435/825 352/417/824 354/418/826 353/436/827
f 353/436/827 354/418/826 356/419/828 355/437/829
f 355/437/829 356/419/828 358/420/830 357/438/831
f 357/438/831 358/420/830 360/421/832 359/439/833
f 359/439/833 360/421/832 362/422/834 361/440/835
f 361/440/835 362/422/834 364/423/836 363/441/837
f 363/441/837 364/423/836 366/424/838 365/442/839
f 365/442/839 366/424/838 368/425/840 367/443/841
f 367/443/841 368/425/840 370/426/842 369/444/843
f 369/444/843 370/426/842 372/427/844 371/445/845
f 371/445/845 372/427/844 374/428/846 373/446/847
f 373/446/847 374/428/846 376/429/848 375/447/849
f 375/447/849 376/429/848 378/430/850 377/448/851
f 377/448/851 378/430/850 380/431/852 379/449/853
f 379/449/853 380/431/852 382/413/819 381/450/818
f 343/451/814 345/432/817 302/452/854
f 345/432/817 347/433/821 302/452/854
f 347/433/821 349/434/823 302/452/854
f 349/434/823 351/435/825 302/452/854
f 351/435/825 353/436/827 302/452/854
f 353/436/827 355/437/829 302/452/854
f 355/437/829 357/438/831 302/452/854
f 357/438/831 359/439/833 302/452/854
f 359/439/833 361/440/835 302/452/854
f 361/440/835 363/441/837 302/452/854
f 363/441/837 365/442/839 302/452/854
f 365/442/839 367/443/841 302/452/854
f 367/443/841 369/444/843 302/452/854
f 369/444/843 371/445/845 302/452/854
f 371/445/845 373/446/847 302/452/854
f 373/446/847 375/447/849 302/452/854
f 375/447/849 377/448/851 302/452/854
f 377/448/851 379/449/853 302/452/854
f 379/449/853 381/450/818 302/452/854
f 381/450/818 343/451/814 302/452/854
f 304/456/795 303/453/794 344/454/815 382/455/819
f 305/458/796 304/456/795 382/455/819 380/457/852
f 306/460/797 305/458/796 380/457/852 378/459/850
f 307/462/798 306/460/797 378/459/850 376/461/848
f 308/464/799 307/462/798 376/461/848 374/463/846
f 309/466/800 308/464/799 374/463/846 372/465/844
f 310/468/801 309/466/800 372/465/844 370/467/842
f 311/470/802 310/468/801 370/467/842 368/469/840
f 312/472/803 311/470/802 368/469/840 366/471/838
f 313/474/804 312/472/803 366/471/838 364/473/836
f 314/476/805 313/474/804 364/473/836 362/475/834
f 315/478/806 314/476/805 362/475/834 360/477/832
f 316/480/807 315/478/806 360/477/832 358/479/830
f 317/482/808 316/480/807 358/479/830 356/481/828
f 318/484/809 317/482/808 356/481/828 354/483/826
f 319/486/810 318/484/809 354/483/826 352/485/824
f 320/488/811 319/486/810 352/485/824 350/487/822
f 321/490/812 320/488/811 350/487/822 348/489/820
f 322/492/813 321/490/812 348/489/820 346/491/816
f 303/390/794 322/492/813 346/491/816 344/493/815
g default
v -49.234050 -102.043963 4.421682
v 50.160178 -102.043963 4.421682
v -49.234050 109.550590 4.421682
v 50.160178 109.550590 4.421682
v -49.234050 109.550590 -2.578318
v 50.160178 109.550590 -2.578318
v -49.234050 -102.043963 -2.578318
v 50.160178 -102.043963 -2.578318
v -42.427530 -102.043963 4.421683
v -42.427530 109.550590 4.421683
v -42.427530 109.550590 -2.578318
v -42.427530 -102.043963 -2.578318
v 42.689093 -102.043963 4.421682
v 42.689093 109.550590 4.421682
v 42.689093 109.550590 -2.578318
v 42.689093 -102.043963 -2.578318
v -49.234050 101.646696 4.421682
v -49.234050 101.646580 -2.578318
v -42.427530 101.646580 -2.578318
v 42.689105 101.646580 -2.578318
v 50.160178 101.646580 -2.578318
v 50.160178 101.646696 4.421682
v 42.689093 101.646696 4.421682
v -42.427530 101.646696 4.421683
vt 0.065700 0.032538
vt 0.086385 0.032538
vt 0.086385 0.628047
vt 0.065700 0.628048
vt 0.086385 0.651282
vt 0.065700 0.651282
vt 0.377625 0.029894
vt 0.397966 0.029894
vt 0.397966 0.628047
vt 0.377625 0.628047
vt 0.397966 0.649960
vt 0.377625 0.649960
vt 0.043718 0.032538
vt 0.043718 0.628048
vt 0.023207 0.628048
vt 0.023207 0.032538
vt 0.417813 0.628047
vt 0.417813 0.029894
vt 0.438323 0.029894
vt 0.438323 0.628047
vt 0.377625 0.671711
vt 0.357763 0.671711
vt 0.357763 0.651282
vt 0.377625 0.651282
vt 0.108357 0.671711
vt 0.108357 0.651282
vt 0.086385 0.671711
vt 0.357763 0.715373
vt 0.108357 0.715373
vt 0.108357 0.694870
vt 0.357763 0.694870
vt 0.086385 0.694870
vt 0.357763 0.628047
vt 0.357763 0.029894
vt 0.108357 0.628047
vt 0.108357 0.032538
vt 0.377625 0.694870
vn -0.000000 0.000000 1.000000
vn -0.000000 0.000000 1.000000
vn -0.000000 0.000000 1.000000
vn -0.000000 0.000000 1.000000
vn 0.000000 1.000000 0.000000
vn 0.000000 1.000000 0.000000
vn 0.000000 1.000000 0.000000
vn 0.000000 1.000000 0.000000
vn 0.000000 0.000000 -1.000000
vn 0.000000 0.000000 -1.000000
vn 0.000000 0.000000 -1.000000
vn 0.000000 0.000000 -1.000000
vn 1.000000 0.000000 0.000000
vn 1.000000 0.000000 0.000000
vn 1.000000 0.000000 0.000000
vn 1.000000 0.000000 0.000000
vn -1.000000 0.000000 0.000000
vn -1.000000 0.000000 0.000000
vn -1.000000 0.000000 0.000000
vn -1.000000 0.000000 0.000000
vn 0.000000 1.000000 0.000000
vn 0.000000 1.000000 0.000000
vn 0.000000 0.000000 1.000000
vn 0.000000 0.000000 1.000000
vn 0.000000 0.000000 1.000000
vn 0.000000 0.000000 1.000000
vn 0.000000 1.000000 0.000000
vn 0.000000 1.000000 0.000000
vn 0.000000 0.000000 -1.000000
vn 0.000000 0.000000 -1.000000
vn 0.000000 0.000000 -1.000000
vn 0.000000 0.000000 -1.000000
vn -1.000000 0.000000 0.000000
vn -1.000000 0.000000 0.000000
vn 0.000000 0.000000 -1.000000
vn 0.000000 0.000000 -1.000000
vn 0.000000 0.000000 -1.000000
vn 0.000000 0.000000 -1.000000
vn 1.000000 0.000000 0.000000
vn 1.000000 0.000000 0.000000
vn 0.000000 0.000000 1.000000
vn 0.000000 0.000000 1.000000
vn 0.000000 0.000000 1.000000
vn -0.000000 0.000000 1.000000
vn 0.000000 -1.000000 0.000016
vn 0.000000 -1.000000 0.000016
vn 0.000000 -1.000000 0.000016
vn 0.000000 -1.000000 0.000016
vn -1.000000 0.000000 -0.000001
vn -1.000000 0.000000 -0.000001
vn -1.000000 0.000000 -0.000001
vn -1.000000 0.000000 -0.000001
vn 1.000000 0.000000 0.000000
vn 1.000000 0.000000 0.000000
vn 1.000000 0.000000 0.000000
vn 1.000000 0.000000 0.000000
s 1
g SM_door SM_doorframe
f 383/501/855 391/511/856 406/510/857 399/502/858
s 2
f 385/514/859 392/515/860 393/516/861 387/517/862
s 3
f 400/503/863 401/526/864 394/527/865 389/500/866
s 4
f 384/494/867 390/495/868 403/496/869 404/497/870
s 5
f 389/500/871 383/501/872 399/502/873 400/503/874
s 2
f 393/516/861 392/515/860 396/518/875 397/519/876
s 1
f 404/497/877 405/507/878 395/506/879 384/494/880
s 2
f 397/519/876 396/518/875 386/520/881 388/498/882
s 3
f 398/529/883 402/528/884 403/496/885 390/495/886
s 5
f 400/503/874 399/502/873 385/504/887 387/505/888
s 3
f 387/517/889 393/516/890 401/526/864 400/503/863
f 402/528/884 401/526/864 393/516/890 397/519/891
f 388/498/892 403/496/885 402/528/884 397/519/891
s 4
f 404/497/870 403/496/869 388/498/893 386/499/894
s 1
f 396/518/895 405/523/878 404/525/877 386/520/896
f 392/515/897 406/524/857 405/523/878 396/518/895
f 399/530/858 406/524/857 392/515/897 385/514/898
s off
f 401/521/899 402/522/900 405/523/901 406/524/902
f 395/506/903 405/507/904 402/508/905 398/509/906
f 406/510/907 391/511/908 394/512/909 401/513/910
