# This file uses centimeters as units for non-parametric coordinates.

mtllib SM_plate.mtl
g default
v 5.226223 -0.606596 -1.698103
v 4.445686 -0.606596 -3.229988
v 3.229986 -0.606596 -4.445687
v 1.698102 -0.606596 -5.226225
v -0.000000 -0.606596 -5.495170
v -1.698103 -0.606596 -5.226225
v -3.229987 -0.606596 -4.445686
v -4.445686 -0.606596 -3.229988
v -5.226224 -0.606596 -1.698102
v -5.495169 -0.606596 -0.000001
v -5.226224 -0.606596 1.698101
v -4.445685 -0.606596 3.229985
v -3.229987 -0.606596 4.445684
v -1.698102 -0.606596 5.226222
v -0.000001 -0.606596 5.495165
v 1.698101 -0.606596 5.226222
v 3.229985 -0.606596 4.445683
v 4.445683 -0.606596 3.229985
v 5.226222 -0.606596 1.698101
v 5.495167 -0.606596 -0.000001
v 9.120031 0.603492 -2.963278
v 7.757962 0.603492 -5.636490
v 5.636489 0.603492 -7.757962
v 2.963277 0.603492 -9.120030
v -0.000000 0.603492 -9.589366
v -2.963277 0.603492 -9.120030
v -5.636488 0.603492 -7.757960
v -7.757960 0.603492 -5.636488
v -9.120028 0.603492 -2.963277
v -9.589364 0.603492 -0.000000
v -9.120028 0.603492 2.963276
v -7.757959 0.603492 5.636487
v -5.636487 0.603492 7.757958
v -2.963277 0.603492 9.120027
v -0.000000 0.603492 9.589363
v 2.963276 0.603492 9.120027
v 5.636486 0.603492 7.757957
v 7.757957 0.603492 5.636486
v 9.120026 0.603492 2.963276
v 9.589363 0.603492 -0.000000
v 5.425638 -0.497036 -1.762897
v 5.704844 -0.497036 -0.000001
v 5.425638 -0.497036 1.762895
v 4.615316 -0.497036 3.353230
v 3.353230 -0.497036 4.615316
v 1.762895 -0.497036 5.425636
v -0.000001 -0.497036 5.704844
v -1.762896 -0.497036 5.425637
v -3.353232 -0.497036 4.615317
v -4.615318 -0.497036 3.353230
v -5.425639 -0.497036 1.762895
v -5.704847 -0.497036 -0.000001
v -5.425639 -0.497036 -1.762896
v -4.615319 -0.497036 -3.353233
v -3.353233 -0.497036 -4.615319
v -1.762897 -0.497036 -5.425640
v -0.000000 -0.497036 -5.704847
v 1.762896 -0.497036 -5.425640
v 3.353231 -0.497036 -4.615320
v 4.615319 -0.497036 -3.353234
v 9.011513 0.335838 -2.928018
v 9.475260 0.335838 -0.000000
v 9.011509 0.335838 2.928017
v 7.665646 0.335838 5.569419
v 5.569419 0.335838 7.665647
v 2.928016 0.335838 9.011509
v -0.000000 0.335838 9.475260
v -2.928017 0.335838 9.011509
v -5.569419 0.335838 7.665647
v -7.665648 0.335838 5.569419
v -9.011511 0.335838 2.928017
v -9.475261 0.335838 -0.000000
v -9.011510 0.335838 -2.928017
v -7.665649 0.335838 -5.569420
v -5.569420 0.335838 -7.665649
v -2.928018 0.335838 -9.011513
v -0.000000 0.335838 -9.475264
v 2.928018 0.335838 -9.011514
v 5.569422 0.335838 -7.665650
v 7.665652 0.335838 -5.569422
v 4.702252 -0.513211 -1.525656
v 3.993744 -0.513206 -2.891414
v 0.027002 -0.533402 0.003220
v 2.908558 -0.513203 -3.997602
v 1.529295 -0.513267 -4.680183
v 0.004335 -0.513349 -4.927861
v -1.503145 -0.513456 -4.667546
v -2.878910 -0.513575 -3.968445
v -3.946027 -0.513677 -2.871766
v -4.643550 -0.513763 -1.509509
v -4.870357 -0.513774 0.000584
v -4.642970 -0.513771 1.509793
v -3.939416 -0.513760 2.866857
v -2.870798 -0.513707 3.957636
v -1.507737 -0.513399 4.672957
v 0.002299 -0.513095 4.956460
v 1.522765 -0.513131 4.697840
v 2.905658 -0.513209 3.999091
v 3.993282 -0.513181 2.897117
v 4.708352 -0.513148 1.529665
v 4.933830 -0.513177 0.001842
v 5.004226 0.163105 -3.635786
v -0.000000 0.145191 -0.000001
v 3.938143 0.177037 -5.420391
v 1.911444 0.163105 -5.882823
v -0.000000 0.177037 -6.699968
v -1.911445 0.163105 -5.882823
v -3.938144 0.177037 -5.420390
v -5.004227 0.163105 -3.635783
v -6.372048 0.177037 -2.070405
v -6.185560 0.163105 -0.000001
v -6.372049 0.177037 2.070403
v -5.004227 0.163105 3.635783
v -3.938142 0.177037 5.420387
v -1.911445 0.163105 5.882819
v -0.000001 0.177037 6.699965
v 1.911444 0.163105 5.882819
v 3.938141 0.177037 5.420387
v 5.004226 0.163105 3.635782
v 6.372047 0.177037 2.070403
v 6.185559 0.163105 -0.000001
v 6.372048 0.177037 -2.070405
v 6.585810 -0.228988 -2.139859
v 6.924722 -0.228988 -0.000001
v 6.585808 -0.228988 2.139858
v 5.602218 -0.228988 4.070254
v 4.070254 -0.228988 5.602218
v 2.139858 -0.228988 6.585807
v -0.000001 -0.228988 6.924721
v -2.139858 -0.228988 6.585808
v -4.070256 -0.228988 5.602218
v -5.602220 -0.228988 4.070254
v -6.585810 -0.228988 2.139858
v -6.924724 -0.228988 -0.000000
v -6.585810 -0.228988 -2.139859
v -5.602221 -0.228988 -4.070257
v -4.070256 -0.228988 -5.602221
v -2.139859 -0.228988 -6.585811
v -0.000000 -0.228988 -6.924725
v 2.139859 -0.228988 -6.585811
v 4.070256 -0.228988 -5.602222
v 5.602221 -0.228988 -4.070257
v 0.018176 -0.503022 3.869518
v 2.233037 -0.503608 3.073535
v 3.652654 -0.503274 1.185762
v 3.617382 -0.503642 -1.161546
v 2.249381 -0.503622 -3.059837
v 0.029297 -0.504523 -3.699985
v -2.063869 -0.505921 -2.882548
v -3.253443 -0.507079 -1.063079
v -3.248542 -0.507146 1.063111
v -2.015246 -0.506673 2.822124
v -1.167420 -0.501508 3.802542
v 1.262617 -0.499912 3.949048
v 3.340425 -0.500211 2.405236
v 4.118200 -0.500187 0.010905
v 3.337641 -0.500356 -2.378935
v 1.293345 -0.500726 -3.845525
v -1.155537 -0.501866 -3.762825
v -3.058880 -0.503182 -2.250421
v -3.737354 -0.503765 0.003286
v -3.021281 -0.503683 2.218153
v 6.699507 0.335838 6.699508
v 6.780183 0.603492 6.780183
v 5.687410 0.509721 7.828049
v 4.301348 0.335838 8.441872
v 4.353145 0.603492 8.543530
v 2.990048 0.509721 9.202423
v 1.482143 0.335838 9.357887
v 1.499991 0.603492 9.470574
v -0.000000 0.509721 9.676000
v -1.482144 0.335838 9.357887
v -1.499992 0.603492 9.470575
v -2.990049 0.509721 9.202423
v -4.301349 0.335838 8.441872
v -4.353146 0.603492 8.543530
v -5.687411 0.509721 7.828049
v -6.699508 0.335838 6.699508
v -6.780184 0.603492 6.780184
v -7.828050 0.509721 5.687411
v -8.441874 0.335838 4.301349
v -8.543531 0.603492 4.353146
v -9.202425 0.509721 2.990049
v -9.357888 0.335838 1.482144
v -9.470576 0.603492 1.499992
v -9.676003 0.509721 -0.000000
v -9.357888 0.335838 -1.482144
v -9.470576 0.603492 -1.499992
v -9.202426 0.509721 -2.990049
v -8.441874 0.335838 -4.301350
v -8.543531 0.603492 -4.353147
v -7.828051 0.509721 -5.687412
v -6.699509 0.335838 -6.699509
v -6.780185 0.603492 -6.780185
v -5.687412 0.509721 -7.828051
v -4.301350 0.335838 -8.441875
v -4.353148 0.603492 -8.543532
v -2.990050 0.509721 -9.202426
v -1.482144 0.335838 -9.357890
v -1.499992 0.603492 -9.470579
v -0.000000 0.509721 -9.676005
v 1.482144 0.335838 -9.357891
v 1.499992 0.603492 -9.470579
v 2.990050 0.509721 -9.202429
v 4.301351 0.335838 -8.441875
v 4.353148 0.603492 -8.543533
v 5.687414 0.509721 -7.828053
v 6.699511 0.335838 -6.699510
v 6.780187 0.603492 -6.780186
v 7.828053 0.509721 -5.687413
v 8.441876 0.335838 -4.301351
v 8.543534 0.603492 -4.353148
v 5.016719 -0.567796 -1.630031
v 4.402316 -0.513212 -2.234563
v 4.267471 -0.567796 -3.100507
v 3.100505 -0.567796 -4.267473
v 2.247313 -0.513229 -4.393267
v 1.630030 -0.567796 -5.016721
v -0.000000 -0.567796 -5.274885
v -0.758408 -0.513400 -4.857917
v -1.630031 -0.567796 -5.016721
v -3.100507 -0.567796 -4.267471
v -3.455463 -0.513627 -3.462294
v -4.267471 -0.567796 -3.100507
v -5.016720 -0.567796 -1.630030
v -4.815358 -0.513775 -0.764063
v -5.274883 -0.567796 -0.000001
v -5.016720 -0.567796 1.630030
v -4.344588 -0.513766 2.214748
v -4.267471 -0.567796 3.100504
v -3.100507 -0.567796 4.267469
v -2.217550 -0.513575 4.365387
v -1.630030 -0.567796 5.016718
v -0.000001 -0.567796 5.274880
v 0.770099 -0.513084 4.889818
v 1.630029 -0.567796 5.016717
v 3.100505 -0.567796 4.267469
v 3.491337 -0.513204 3.490601
v 4.267469 -0.567796 3.100504
v 5.016718 -0.567796 1.630029
v 4.881034 -0.513157 0.776481
v 5.274881 -0.567796 -0.000001
v 5.128150 0.490908 -7.058294
v 7.058293 0.490908 -5.128151
v 2.696028 0.490908 -8.297522
v -0.000000 0.490908 -8.724529
v -2.696028 0.490908 -8.297522
v -5.128150 0.490908 -7.058293
v -7.058292 0.490908 -5.128149
v -8.297519 0.490908 -2.696028
v -8.724525 0.490908 -0.000000
v -8.297520 0.490908 2.696027
v -7.058291 0.490908 5.128148
v -5.128148 0.490908 7.058290
v -2.696028 0.490908 8.297518
v -0.000000 0.490908 8.724525
v 2.696027 0.490908 8.297518
v 5.128147 0.490908 7.058290
v 7.058290 0.490908 5.128148
v 8.297518 0.490908 2.696027
v 8.724524 0.490908 -0.000000
v 8.297522 0.490908 -2.696029
v 5.795152 0.216845 -4.210427
v 6.812610 0.216845 -2.213552
v 7.163197 0.216845 -0.000001
v 6.812609 0.216845 2.213550
v 5.795151 0.216845 4.210423
v 4.210423 0.216845 5.795151
v 2.213550 0.216845 6.812609
v -0.000001 0.216845 7.163198
v -2.213551 0.216845 6.812609
v -4.210423 0.216845 5.795151
v -5.795153 0.216845 4.210423
v -6.812610 0.216845 2.213550
v -7.163198 0.216845 -0.000001
v -6.812610 0.216845 -2.213552
v -5.795153 0.216845 -4.210424
v -4.210425 0.216845 -5.795155
v -2.213552 0.216845 -6.812612
v -0.000000 0.216845 -7.163201
v 2.213551 0.216845 -6.812612
v 4.210425 0.216845 -5.795155
v 0.712112 -0.501676 3.902690
v 0.026715 -0.515341 2.497286
v 1.455878 -0.515397 2.007868
v 2.839562 -0.502348 2.664388
v 2.375732 -0.515287 0.771090
v 3.887654 -0.502110 0.516201
v 2.356638 -0.515485 -0.754441
v 3.431798 -0.502425 -1.830848
v 1.463271 -0.515569 -1.982924
v 1.695418 -0.502604 -3.476820
v 0.030477 -0.516256 -2.391186
v -0.629921 -0.503743 -3.695352
v -1.314200 -0.517334 -1.856881
v -2.590364 -0.505208 -2.483366
v -2.074951 -0.518202 -0.683515
v -3.464060 -0.506091 -0.450666
v -2.066947 -0.518319 0.677932
v -3.066818 -0.506027 1.687744
v -1.281953 -0.517706 1.831327
v -1.516099 -0.504526 3.326793
v 4.895860 -0.606596 -2.494569
v 4.505091 -0.575099 -3.273148
v 5.082670 -0.497036 -2.589754
v 5.296058 -0.575099 -1.720794
v 3.885376 -0.606596 -3.885378
v 3.273146 -0.575099 -4.505093
v 4.033629 -0.497036 -4.033631
v 2.494568 -0.606596 -4.895862
v 1.720793 -0.575099 -5.296060
v 2.589752 -0.497036 -5.082672
v 0.859568 -0.606596 -5.427103
v -0.000000 -0.575099 -5.568599
v 0.892367 -0.497036 -5.634183
v -0.859569 -0.606596 -5.427102
v -1.720793 -0.575099 -5.296059
v -0.892367 -0.497036 -5.634183
v -2.494569 -0.606596 -4.895860
v -3.273147 -0.575099 -4.505091
v -2.589753 -0.497036 -5.082671
v -3.885377 -0.606596 -3.885378
v -4.505090 -0.575099 -3.273148
v -4.033630 -0.497036 -4.033631
v -4.895859 -0.606596 -2.494569
v -5.296058 -0.575099 -1.720793
v -5.082670 -0.497036 -2.589753
v -5.427101 -0.606596 -0.859568
v -5.568596 -0.575099 -0.000001
v -5.634181 -0.497036 -0.892367
v -5.427101 -0.606596 0.859567
v -5.296058 -0.575099 1.720792
v -5.634181 -0.497036 0.892366
v -4.895859 -0.606596 2.494567
v -4.505090 -0.575099 3.273144
v -5.082670 -0.497036 2.589751
v -3.885377 -0.606596 3.885374
v -3.273147 -0.575099 4.505088
v -4.033630 -0.497036 4.033628
v -2.494569 -0.606596 4.895858
v -1.720793 -0.575099 5.296056
v -2.589753 -0.497036 5.082668
v -0.859568 -0.606596 5.427099
v -0.000001 -0.575099 5.568594
v -0.892367 -0.497036 5.634179
v 0.859567 -0.606596 5.427099
v 1.720792 -0.575099 5.296056
v 0.892365 -0.497036 5.634179
v 2.494567 -0.606596 4.895858
v 3.273145 -0.575099 4.505088
v 2.589751 -0.497036 5.082668
v 3.885375 -0.606596 3.885374
v 4.505088 -0.575099 3.273144
v 4.033628 -0.497036 4.033628
v 4.895858 -0.606596 2.494567
v 5.296057 -0.575099 1.720792
v 5.082667 -0.497036 2.589751
v 5.427100 -0.606596 0.859567
v 5.568594 -0.575099 -0.000001
v 5.634180 -0.497036 0.892365
v 5.427100 -0.606596 -0.859569
v 5.634180 -0.497036 -0.892367
v 3.647801 -0.497332 -2.609414
v 2.846904 -0.502360 -2.647252
v 2.677996 -0.497322 -3.663226
v 3.493263 -0.513199 -3.488039
v 1.408613 -0.497576 -4.229245
v 0.738226 -0.502988 -3.745898
v 0.017342 -0.497906 -4.474219
v 0.774269 -0.513306 -4.863499
v -1.304011 -0.498332 -4.178698
v -1.525143 -0.504324 -3.340977
v -2.559402 -0.498809 -3.546603
v -2.219058 -0.513516 -4.370625
v -3.456934 -0.499216 -2.530824
v -3.092256 -0.505703 -1.705153
v -4.082716 -0.499562 -1.329468
v -4.347915 -0.513726 -2.216457
v -4.244203 -0.499605 0.002336
v -3.465066 -0.506082 0.457558
v -4.080397 -0.499592 1.330609
v -4.815560 -0.513773 0.765137
v -3.430490 -0.499550 2.511196
v -2.536505 -0.505969 2.427897
v -2.526953 -0.499336 3.503374
v -3.446452 -0.513754 3.452972
v -1.322381 -0.498107 4.200355
v -0.648292 -0.502748 3.803161
v 0.009198 -0.496888 4.588624
v -0.762383 -0.513219 4.877078
v 1.382498 -0.497035 4.299884
v 1.663800 -0.502149 3.541774
v 2.666399 -0.497345 3.669194
v 2.242042 -0.513179 4.401217
v 3.645962 -0.497235 2.632235
v 3.450979 -0.502125 1.862390
v 4.341929 -0.497100 1.410098
v 4.405694 -0.513159 2.240007
v 4.498103 -0.497220 0.007373
v 3.866636 -0.502312 -0.492735
v 4.317530 -0.497355 -1.394056
v 4.876830 -0.513198 -0.772862
v 3.291947 0.145191 -2.391741
v 4.383353 0.163105 -4.657773
v 3.075273 0.163105 -5.608149
v 1.257412 0.145191 -3.869918
v 0.808437 0.163105 -6.344687
v -0.808438 0.163105 -6.344687
v -1.257413 0.145191 -3.869918
v -3.075274 0.163105 -5.608149
v -4.383354 0.163105 -4.657772
v -3.291948 0.145191 -2.391740
v -5.784335 0.163105 -2.729486
v -6.283975 0.163105 -1.191747
v -4.069069 0.145191 -0.000001
v -6.283975 0.163105 1.191745
v -5.784335 0.163105 2.729485
v -3.291948 0.145191 2.391739
v -4.383353 0.163105 4.657770
v -3.075273 0.163105 5.608146
v -1.257412 0.145191 3.869915
v -0.808438 0.163105 6.344683
v 0.808437 0.163105 6.344683
v 1.257411 0.145191 3.869915
v 3.075272 0.163105 5.608146
v 4.383352 0.163105 4.657770
v 3.291946 0.145191 2.391739
v 5.784333 0.163105 2.729485
v 6.283973 0.163105 1.191745
v 4.069068 0.145191 -0.000001
v 6.283974 0.163105 -1.191747
v 5.784334 0.163105 -2.729488
v 5.814381 -0.396142 -1.889207
v 6.838946 -0.228988 -1.083183
v 6.113592 -0.396142 -0.000001
v 6.838945 -0.228988 1.083182
v 5.814379 -0.396142 1.889205
v 6.169502 -0.228988 3.143520
v 4.946000 -0.396142 3.593485
v 4.896145 -0.228988 4.896145
v 3.593486 -0.396142 4.946001
v 3.143520 -0.228988 6.169503
v 1.889205 -0.396142 5.814379
v 1.083182 -0.228988 6.838945
v -0.000001 -0.396142 6.113591
v -1.083183 -0.228988 6.838945
v -1.889206 -0.396142 5.814379
v -3.143522 -0.228988 6.169503
v -3.593488 -0.396142 4.946001
v -4.896146 -0.228988 4.896145
v -4.946002 -0.396142 3.593485
v -6.169504 -0.228988 3.143520
v -5.814381 -0.396142 1.889205
v -6.838947 -0.228988 1.083182
v -6.113594 -0.396142 -0.000001
v -6.838947 -0.228988 -1.083183
v -5.814381 -0.396142 -1.889206
v -6.169504 -0.228988 -3.143522
v -4.946003 -0.396142 -3.593488
v -4.896146 -0.228988 -4.896147
v -3.593488 -0.396142 -4.946003
v -3.143522 -0.228988 -6.169505
v -1.889207 -0.396142 -5.814382
v -1.083183 -0.228988 -6.838948
v -0.000000 -0.396142 -6.113596
v 1.083183 -0.228988 -6.838949
v 1.889206 -0.396142 -5.814383
v 3.143522 -0.228988 -6.169507
v 3.593487 -0.396142 -4.946005
v 4.896147 -0.228988 -4.896148
v 4.946003 -0.396142 -3.593489
v 6.169505 -0.228988 -3.143523
v 9.357889 0.335838 -1.482144
v 9.202428 0.509721 -2.990050
v 9.470577 0.603492 -1.499993
v 9.676000 0.509721 -0.000000
v 9.357886 0.335838 1.482143
v 9.470574 0.603492 1.499992
v 9.202422 0.509721 2.990048
v 8.441872 0.335838 4.301349
v 8.543530 0.603492 4.353146
v 7.828048 0.509721 5.687411
v 4.961280 -0.575099 -2.527903
v 3.937294 -0.575099 -3.937296
v 2.527901 -0.575099 -4.961282
v 0.871054 -0.575099 -5.499621
v -0.871055 -0.575099 -5.499621
v -2.527902 -0.575099 -4.961281
v -3.937295 -0.575099 -3.937295
v -4.961280 -0.575099 -2.527902
v -5.499620 -0.575099 -0.871054
v -5.499620 -0.575099 0.871053
v -4.961280 -0.575099 2.527900
v -3.937294 -0.575099 3.937292
v -2.527902 -0.575099 4.961278
v -0.871054 -0.575099 5.499618
v 0.871053 -0.575099 5.499618
v 2.527900 -0.575099 4.961278
v 3.937292 -0.575099 3.937293
v 4.961278 -0.575099 2.527900
v 5.499619 -0.575099 0.871053
v 5.499619 -0.575099 -0.871055
v 3.199525 -0.497306 -3.178621
v 0.713632 -0.497733 -4.405508
v -1.959190 -0.498573 -3.907063
v -3.816222 -0.499414 -1.948786
v -4.213756 -0.499601 0.677105
v -3.012281 -0.499527 3.038367
v -0.666088 -0.497387 4.459834
v 2.051134 -0.497225 4.029439
v 4.047347 -0.497146 2.042995
v 4.458842 -0.497300 -0.708001
v 2.916383 0.145191 -4.014059
v -0.000000 0.145191 -4.961648
v -2.916384 0.145191 -4.014059
v -4.718806 0.145191 -1.533234
v -4.718806 0.145191 1.533232
v -2.916383 0.145191 4.014056
v -0.000001 0.145191 4.961645
v 2.916382 0.145191 4.014056
v 4.718805 0.145191 1.533232
v 4.718805 0.145191 -1.533235
v 6.037865 -0.396142 -0.956305
v 6.037864 -0.396142 0.956303
v 5.446836 -0.396142 2.775304
v 4.322634 -0.396142 4.322634
v 2.775304 -0.396142 5.446836
v 0.956303 -0.396142 6.037864
v -0.956304 -0.396142 6.037863
v -2.775306 -0.396142 5.446836
v -4.322636 -0.396142 4.322634
v -5.446838 -0.396142 2.775304
v -6.037866 -0.396142 0.956303
v -6.037866 -0.396142 -0.956304
v -5.446839 -0.396142 -2.775306
v -4.322636 -0.396142 -4.322637
v -2.775306 -0.396142 -5.446839
v -0.956304 -0.396142 -6.037868
v 0.956304 -0.396142 -6.037867
v 2.775306 -0.396142 -5.446840
v 4.322636 -0.396142 -4.322638
v 5.446839 -0.396142 -2.775307
v 9.556141 0.509721 -1.513545
v 9.556139 0.509721 1.513544
v 8.620717 0.509721 4.392475
v 6.841440 0.509721 6.841440
v 4.392475 0.509721 8.620718
v 1.513543 0.509721 9.556139
v -1.513544 0.509721 9.556139
v -4.392476 0.509721 8.620719
v -6.841441 0.509721 6.841441
v -8.620719 0.509721 4.392476
v -9.556141 0.509721 1.513544
v -9.556141 0.509721 -1.513544
v -8.620720 0.509721 -4.392476
v -6.841443 0.509721 -6.841442
v -4.392477 0.509721 -8.620721
v -1.513544 0.509721 -9.556143
v 1.513544 0.509721 -9.556143
v 4.392478 0.509721 -8.620723
v 6.841444 0.509721 -6.841444
v 8.620723 0.509721 -4.392478
v 4.699599 -0.567796 -2.394570
v 3.729623 -0.567796 -3.729625
v 2.394568 -0.567796 -4.699601
v 0.825111 -0.567796 -5.209546
v -0.825111 -0.567796 -5.209546
v -2.394569 -0.567796 -4.699600
v -3.729624 -0.567796 -3.729624
v -4.699599 -0.567796 -2.394569
v -5.209545 -0.567796 -0.825111
v -5.209545 -0.567796 0.825110
v -4.699599 -0.567796 2.394567
v -3.729623 -0.567796 3.729621
v -2.394569 -0.567796 4.699597
v -0.825111 -0.567796 5.209542
v 0.825110 -0.567796 5.209542
v 2.394567 -0.567796 4.699597
v 3.729621 -0.567796 3.729621
v 4.699597 -0.567796 2.394567
v 5.209543 -0.567796 0.825110
v 5.209543 -0.567796 -0.825111
v 6.168701 0.490908 -6.168702
v 3.960550 0.490908 -7.773018
v 1.364712 0.490908 -8.616455
v -1.364713 0.490908 -8.616455
v -3.960550 0.490908 -7.773017
v -6.168700 0.490908 -6.168700
v -7.773015 0.490908 -3.960549
v -8.616453 0.490908 -1.364712
v -8.616453 0.490908 1.364712
v -7.773015 0.490908 3.960548
v -6.168699 0.490908 6.168698
v -3.960548 0.490908 7.773014
v -1.364712 0.490908 8.616451
v 1.364712 0.490908 8.616451
v 3.960548 0.490908 7.773013
v 6.168698 0.490908 6.168698
v 7.773013 0.490908 3.960548
v 8.616450 0.490908 1.364712
v 8.616452 0.490908 -1.364713
v 7.773017 0.490908 -3.960551
v 6.381971 0.216845 -3.251778
v 7.074466 0.216845 -1.120487
v 7.074464 0.216845 1.120485
v 6.381969 0.216845 3.251775
v 5.064759 0.216845 5.064759
v 3.251775 0.216845 6.381968
v 1.120485 0.216845 7.074465
v -1.120486 0.216845 7.074465
v -3.251776 0.216845 6.381968
v -5.064760 0.216845 5.064759
v -6.381971 0.216845 3.251775
v -7.074466 0.216845 1.120485
v -7.074466 0.216845 -1.120486
v -6.381971 0.216845 -3.251776
v -5.064761 0.216845 -5.064761
v -3.251777 0.216845 -6.381972
v -1.120486 0.216845 -7.074469
v 1.120486 0.216845 -7.074469
v 3.251776 0.216845 -6.381972
v 5.064760 0.216845 -5.064763
v 0.921998 -0.510164 2.895732
v 2.443014 -0.510463 1.757051
v 3.011269 -0.510439 0.010728
v 2.433896 -0.510606 -1.739814
v 0.943077 -0.510981 -2.794994
v -0.827091 -0.512128 -2.704432
v -2.163752 -0.513434 -1.599153
v -2.630427 -0.514017 0.003036
v -2.128517 -0.513935 1.563652
v -0.821062 -0.511749 2.752411
v -1.953161 -0.498810 3.886119
v 0.696956 -0.496847 4.510793
v 3.191828 -0.497325 3.188880
v 4.475657 -0.497139 0.722481
v 4.033827 -0.497357 -2.021210
v 2.072213 -0.497426 -3.997626
v -0.650186 -0.498108 -4.383183
v -3.048322 -0.499019 -3.075644
v -4.212950 -0.499609 -0.672807
v -3.802918 -0.499573 1.941958
vt 0.484998 0.391298
vt 0.503773 0.442019
vt 0.537301 0.484456
vt 0.582303 0.514453
vt 0.634371 0.529077
vt 0.688409 0.526893
vt 0.739128 0.508118
vt 0.781562 0.474590
vt 0.811559 0.429590
vt 0.826182 0.377523
vt 0.824002 0.323486
vt 0.805229 0.272767
vt 0.771703 0.230330
vt 0.726704 0.200328
vt 0.674638 0.185697
vt 0.620598 0.187881
vt 0.569877 0.206657
vt 0.527440 0.240187
vt 0.497439 0.285188
vt 0.482817 0.337258
vt 0.228678 0.963863
vt 0.161746 0.943978
vt 0.104234 0.904384
vt 0.061773 0.848956
vt 0.038517 0.783119
vt 0.036746 0.713318
vt 0.056630 0.646386
vt 0.096224 0.588875
vt 0.151652 0.546413
vt 0.217489 0.523158
vt 0.287290 0.521385
vt 0.354222 0.541270
vt 0.411734 0.580864
vt 0.454195 0.636293
vt 0.477451 0.702129
vt 0.479222 0.771930
vt 0.459338 0.838862
vt 0.419744 0.896374
vt 0.364316 0.938836
vt 0.298479 0.962090
vt 0.477697 0.392760
vt 0.475422 0.336392
vt 0.490674 0.282079
vt 0.521966 0.235139
vt 0.566231 0.200166
vt 0.619136 0.180581
vt 0.675504 0.178303
vt 0.729813 0.193563
vt 0.776750 0.224857
vt 0.811721 0.269121
vt 0.831303 0.322025
vt 0.833578 0.378390
vt 0.818324 0.432699
vt 0.787035 0.479637
vt 0.742774 0.514610
vt 0.689871 0.534194
vt 0.633505 0.536471
vt 0.579194 0.521219
vt 0.532254 0.489930
vt 0.497281 0.445665
vt 0.358491 0.416653
vt 0.354666 0.322278
vt 0.380191 0.231341
vt 0.432569 0.152742
vt 0.506671 0.094177
vt 0.595244 0.061375
vt 0.689619 0.057551
vt 0.780555 0.083080
vt 0.859151 0.135461
vt 0.917714 0.209564
vt 0.950511 0.298136
vt 0.954334 0.392508
vt 0.928807 0.483441
vt 0.876432 0.562036
vt 0.802333 0.620600
vt 0.713763 0.653401
vt 0.619391 0.657227
vt 0.528455 0.631703
vt 0.449858 0.579327
vt 0.391292 0.505225
vt 0.502218 0.387786
vt 0.519323 0.432990
vt 0.653683 0.357193
vt 0.549135 0.471471
vt 0.589667 0.497817
vt 0.636339 0.511123
vt 0.684325 0.508522
vt 0.729808 0.491744
vt 0.767119 0.461434
vt 0.793868 0.421481
vt 0.806472 0.375193
vt 0.804898 0.327271
vt 0.787912 0.282352
vt 0.758557 0.244409
vt 0.718642 0.217106
vt 0.672566 0.202748
vt 0.624185 0.205249
vt 0.578482 0.221990
vt 0.540516 0.252392
vt 0.513208 0.292442
vt 0.500579 0.339282
vt 0.196115 0.872056
vt 0.257984 0.742624
vt 0.150927 0.855249
vt 0.131853 0.810971
vt 0.105174 0.770813
vt 0.115768 0.723780
vt 0.117789 0.675610
vt 0.154006 0.643786
vt 0.183954 0.606004
vt 0.231959 0.601546
vt 0.278395 0.588582
vt 0.319853 0.613192
vt 0.365041 0.629999
vt 0.384115 0.674277
vt 0.410794 0.714435
vt 0.400200 0.761469
vt 0.398179 0.809638
vt 0.361962 0.841462
vt 0.332014 0.879244
vt 0.284009 0.883702
vt 0.237573 0.896666
vt 0.439184 0.400469
vt 0.436411 0.331823
vt 0.454985 0.265679
vt 0.493091 0.208513
vt 0.546997 0.165920
vt 0.611426 0.142068
vt 0.680073 0.139295
vt 0.746215 0.157873
vt 0.803378 0.195982
vt 0.845968 0.249887
vt 0.869817 0.314316
vt 0.872589 0.382960
vt 0.854014 0.449100
vt 0.815910 0.506265
vt 0.762007 0.548856
vt 0.697580 0.572707
vt 0.628936 0.575482
vt 0.562793 0.556908
vt 0.505628 0.518804
vt 0.463035 0.464899
vt 0.668097 0.236607
vt 0.596086 0.253335
vt 0.544893 0.307036
vt 0.537405 0.380395
vt 0.573138 0.444621
vt 0.640057 0.472717
vt 0.708353 0.454876
vt 0.752127 0.402463
vt 0.759754 0.336107
vt 0.727710 0.276715
vt 0.704842 0.243027
vt 0.629564 0.229572
vt 0.559093 0.270133
vt 0.526069 0.341985
vt 0.541677 0.419398
vt 0.600088 0.472632
vt 0.676792 0.479016
vt 0.741711 0.438796
vt 0.771127 0.370963
vt 0.756889 0.299237
vt 0.490047 0.418265
vt 0.516907 0.466106
vt 0.557236 0.503304
vt 0.607086 0.526218
vt 0.661577 0.532607
vt 0.715375 0.521844
vt 0.763213 0.494983
vt 0.800409 0.454656
vt 0.823324 0.404807
vt 0.829715 0.350318
vt 0.818954 0.296521
vt 0.792095 0.248681
vt 0.751769 0.211481
vt 0.701922 0.188559
vt 0.647431 0.182167
vt 0.593631 0.192931
vt 0.545790 0.219792
vt 0.508590 0.260121
vt 0.485674 0.309972
vt 0.479285 0.364465
vt 0.543059 0.444851
vt 0.616123 0.492224
vt 0.701336 0.486458
vt 0.766444 0.432157
vt 0.788456 0.351682
vt 0.759608 0.273613
vt 0.691602 0.220690
vt 0.605257 0.224178
vt 0.535714 0.278849
vt 0.512811 0.363166
vt 0.178707 0.826025
vt 0.144826 0.763499
vt 0.154167 0.692999
vt 0.203163 0.641455
vt 0.273099 0.628554
vt 0.337261 0.659224
vt 0.371142 0.721750
vt 0.361801 0.792249
vt 0.312805 0.843793
vt 0.242869 0.856695
vt 0.461135 0.365200
vt 0.468185 0.305063
vt 0.493474 0.250048
vt 0.534527 0.205541
vt 0.587323 0.175896
vt 0.646695 0.164017
vt 0.706832 0.171071
vt 0.761844 0.196364
vt 0.806348 0.237417
vt 0.835989 0.290213
vt 0.847865 0.349583
vt 0.840814 0.409718
vt 0.815526 0.464730
vt 0.774476 0.509236
vt 0.721682 0.538879
vt 0.662312 0.550757
vt 0.602176 0.543708
vt 0.547162 0.518420
vt 0.502655 0.477369
vt 0.473012 0.424573
vt 0.263723 0.968671
vt 0.333294 0.955834
vt 0.395494 0.922126
vt 0.444233 0.870848
vt 0.474741 0.807018
vt 0.484031 0.736885
vt 0.471194 0.667314
vt 0.437486 0.605114
vt 0.386208 0.556375
vt 0.322378 0.525868
vt 0.252245 0.516578
vt 0.182674 0.529414
vt 0.120474 0.563122
vt 0.071735 0.614400
vt 0.041227 0.678230
vt 0.031937 0.748363
vt 0.044774 0.817935
vt 0.078482 0.880134
vt 0.129760 0.928873
vt 0.193590 0.959381
vt 0.498991 0.414954
vt 0.524390 0.460193
vt 0.562525 0.495369
vt 0.609665 0.517037
vt 0.661192 0.523078
vt 0.712064 0.512900
vt 0.757300 0.487500
vt 0.792474 0.449366
vt 0.814142 0.402229
vt 0.820185 0.350703
vt 0.810010 0.299832
vt 0.784612 0.254594
vt 0.746480 0.219416
vt 0.699344 0.197741
vt 0.647816 0.191695
vt 0.596942 0.201875
vt 0.551703 0.227275
vt 0.516526 0.265411
vt 0.494856 0.312551
vt 0.488814 0.364080
vt 0.142913 0.909764
vt 0.096896 0.866024
vt 0.066648 0.810206
vt 0.055128 0.747772
vt 0.063466 0.684834
vt 0.090845 0.627553
vt 0.134584 0.581536
vt 0.190403 0.551288
vt 0.252836 0.539769
vt 0.315774 0.548106
vt 0.373055 0.575485
vt 0.419072 0.619224
vt 0.449320 0.675042
vt 0.460840 0.737477
vt 0.452502 0.800414
vt 0.425123 0.857695
vt 0.381384 0.903712
vt 0.325565 0.933961
vt 0.263132 0.945480
vt 0.200194 0.937142
vt 0.210659 0.901899
vt 0.262195 0.908728
vt 0.313317 0.899297
vt 0.359024 0.874530
vt 0.394839 0.836852
vt 0.417259 0.789948
vt 0.424088 0.738414
vt 0.414657 0.687291
vt 0.389890 0.641585
vt 0.352211 0.605769
vt 0.305309 0.583349
vt 0.253773 0.576521
vt 0.202651 0.585951
vt 0.156944 0.610719
vt 0.121129 0.648397
vt 0.098709 0.695300
vt 0.091880 0.746834
vt 0.101311 0.797958
vt 0.126078 0.843663
vt 0.163757 0.879480
vt 0.636339 0.263680
vt 0.584721 0.293639
vt 0.560604 0.346041
vt 0.572212 0.402765
vt 0.614862 0.441139
vt 0.670420 0.444792
vt 0.716167 0.415200
vt 0.736591 0.366921
vt 0.726641 0.316394
vt 0.690197 0.274525
vt 0.729662 0.243290
vt 0.649265 0.214118
vt 0.566595 0.246228
vt 0.517521 0.318478
vt 0.521266 0.405690
vt 0.575232 0.474527
vt 0.658754 0.496520
vt 0.738360 0.464505
vt 0.783492 0.393798
vt 0.780266 0.310714
vt 0.492401 0.417393
vt 0.501584 0.443248
vt 0.485420 0.419979
vt 0.482536 0.391791
vt 0.518877 0.464549
vt 0.535599 0.486302
vt 0.513036 0.469165
vt 0.558628 0.501215
vt 0.581254 0.516734
vt 0.554500 0.507410
vt 0.607765 0.523802
vt 0.634079 0.531570
vt 0.605753 0.530969
vt 0.661476 0.530098
vt 0.688902 0.529355
vt 0.661777 0.537537
vt 0.714503 0.519489
vt 0.740357 0.510307
vt 0.717088 0.526471
vt 0.761656 0.493014
vt 0.783407 0.476292
vt 0.766273 0.498855
vt 0.798320 0.453263
vt 0.813840 0.430638
vt 0.804516 0.457392
vt 0.820907 0.404129
vt 0.828676 0.377816
vt 0.828075 0.406141
vt 0.827206 0.350419
vt 0.826464 0.322993
vt 0.834645 0.350118
vt 0.816600 0.297392
vt 0.807418 0.271538
vt 0.823581 0.294807
vt 0.790126 0.250237
vt 0.773405 0.228485
vt 0.795967 0.245621
vt 0.750377 0.213570
vt 0.727753 0.198047
vt 0.754506 0.207374
vt 0.701244 0.190976
vt 0.674930 0.183204
vt 0.703256 0.183808
vt 0.647532 0.184675
vt 0.620105 0.185420
vt 0.647231 0.177237
vt 0.594503 0.195285
vt 0.568648 0.204468
vt 0.591918 0.188304
vt 0.547347 0.221762
vt 0.525595 0.238485
vt 0.542731 0.215921
vt 0.510679 0.261514
vt 0.495158 0.284139
vt 0.504484 0.257385
vt 0.488091 0.310651
vt 0.480323 0.336966
vt 0.480923 0.308639
vt 0.481793 0.364363
vt 0.474354 0.364665
vt 0.531156 0.425454
vt 0.556005 0.429564
vt 0.557557 0.461876
vt 0.532756 0.453435
vt 0.595086 0.484182
vt 0.617771 0.471556
vt 0.637595 0.496916
vt 0.612553 0.506299
vt 0.679901 0.492534
vt 0.689867 0.467207
vt 0.721382 0.477408
vt 0.707749 0.501878
vt 0.753103 0.449002
vt 0.744748 0.421906
vt 0.777025 0.413810
vt 0.782057 0.442458
vt 0.786938 0.372847
vt 0.764294 0.355793
vt 0.786686 0.330804
vt 0.807559 0.351137
vt 0.770728 0.291591
vt 0.742531 0.290921
vt 0.746166 0.257329
vt 0.774674 0.262261
vt 0.711130 0.231181
vt 0.688648 0.241112
vt 0.671005 0.214207
vt 0.696132 0.208016
vt 0.627107 0.218187
vt 0.615558 0.240810
vt 0.584745 0.233166
vt 0.600658 0.211872
vt 0.550390 0.261933
vt 0.553659 0.286664
vt 0.524210 0.297516
vt 0.525246 0.271386
vt 0.514203 0.340705
vt 0.532075 0.358617
vt 0.514710 0.385086
vt 0.499524 0.363661
vt 0.217286 0.827766
vt 0.170196 0.862191
vt 0.143019 0.836357
vt 0.175014 0.787583
vt 0.116683 0.787755
vt 0.109880 0.750881
vt 0.164433 0.730228
vt 0.117142 0.696081
vt 0.133313 0.662251
vt 0.189586 0.677608
vt 0.171398 0.622185
vt 0.204365 0.604321
vt 0.240865 0.649822
vt 0.258727 0.594292
vt 0.295898 0.599218
vt 0.298682 0.657483
vt 0.345772 0.623058
vt 0.372949 0.648892
vt 0.340954 0.697665
vt 0.399285 0.697494
vt 0.406088 0.734368
vt 0.351535 0.755020
vt 0.398826 0.789168
vt 0.382655 0.822998
vt 0.326382 0.807641
vt 0.344570 0.863064
vt 0.311603 0.880928
vt 0.275104 0.835427
vt 0.257241 0.890956
vt 0.220070 0.886030
vt 0.464723 0.395357
vt 0.435112 0.366255
vt 0.462280 0.334852
vt 0.443110 0.298025
vt 0.478651 0.276554
vt 0.471802 0.235606
vt 0.512239 0.226169
vt 0.518378 0.185108
vt 0.559752 0.188629
vt 0.578278 0.151474
vt 0.616539 0.167607
vt 0.645641 0.137996
vt 0.677043 0.165162
vt 0.713870 0.145996
vt 0.735339 0.181540
vt 0.776287 0.174691
vt 0.785721 0.215129
vt 0.826781 0.221269
vt 0.823258 0.262642
vt 0.860413 0.281169
vt 0.844278 0.319428
vt 0.873888 0.348529
vt 0.846720 0.379930
vt 0.865888 0.416756
vt 0.830347 0.438225
vt 0.837198 0.479173
vt 0.796762 0.488608
vt 0.790625 0.529669
vt 0.749253 0.526147
vt 0.730727 0.563302
vt 0.692467 0.547168
vt 0.663367 0.576780
vt 0.631965 0.549613
vt 0.595138 0.568782
vt 0.573668 0.533242
vt 0.532720 0.540092
vt 0.523283 0.499656
vt 0.482223 0.493517
vt 0.485744 0.452144
vt 0.448589 0.433617
vt 0.352885 0.369615
vt 0.350269 0.418301
vt 0.263647 0.965708
vt 0.299017 0.965005
vt 0.363870 0.275811
vt 0.332307 0.953039
vt 0.365729 0.941442
vt 0.403304 0.189992
vt 0.393691 0.919774
vt 0.421893 0.898416
vt 0.467328 0.120560
vt 0.441791 0.869168
vt 0.462013 0.840140
vt 0.549674 0.074310
vt 0.471899 0.806174
vt 0.482161 0.772319
vt 0.642282 0.055770
vt 0.481067 0.736961
vt 0.480366 0.701591
vt 0.736086 0.066756
vt 0.468399 0.668301
vt 0.456801 0.634880
vt 0.821903 0.106195
vt 0.435134 0.606917
vt 0.413776 0.578715
vt 0.891332 0.170221
vt 0.384527 0.558817
vt 0.355500 0.538596
vt 0.937578 0.252567
vt 0.321535 0.528709
vt 0.287679 0.518447
vt 0.956115 0.345173
vt 0.252321 0.519541
vt 0.216951 0.520243
vt 0.945129 0.438973
vt 0.183661 0.532209
vt 0.150239 0.543807
vt 0.905695 0.524788
vt 0.122277 0.565475
vt 0.094075 0.586833
vt 0.841674 0.594218
vt 0.074177 0.616081
vt 0.053955 0.645108
vt 0.759331 0.640467
vt 0.044069 0.679074
vt 0.033807 0.712929
vt 0.666726 0.659007
vt 0.034901 0.748287
vt 0.035602 0.783657
vt 0.572924 0.648023
vt 0.047569 0.816947
vt 0.059167 0.850369
vt 0.487107 0.608590
vt 0.080834 0.878331
vt 0.102192 0.906534
vt 0.417675 0.544568
vt 0.131441 0.926431
vt 0.160468 0.946653
vt 0.371425 0.462222
vt 0.194433 0.956539
vt 0.491887 0.389920
vt 0.508980 0.411001
vt 0.509900 0.438579
vt 0.542064 0.479291
vt 0.568316 0.486236
vt 0.585238 0.508069
vt 0.635189 0.522098
vt 0.660392 0.511734
vt 0.687031 0.520002
vt 0.735688 0.501991
vt 0.749650 0.478063
vt 0.776396 0.469825
vt 0.805174 0.426655
vt 0.801957 0.398851
vt 0.819203 0.376705
vt 0.817112 0.324865
vt 0.798168 0.304183
vt 0.799102 0.276207
vt 0.766939 0.235496
vt 0.739666 0.229297
vt 0.723769 0.206713
vt 0.673820 0.192675
vt 0.648369 0.202015
vt 0.621977 0.194772
vt 0.573317 0.212784
vt 0.558349 0.235712
vt 0.532605 0.244951
vt 0.503823 0.288122
vt 0.505062 0.315307
vt 0.489796 0.338076
vt 0.118173 0.889716
vt 0.170470 0.925720
vt 0.079563 0.839312
vt 0.058416 0.779445
vt 0.056806 0.715973
vt 0.074888 0.655110
vt 0.110893 0.602814
vt 0.161296 0.564202
vt 0.221164 0.543057
vt 0.284635 0.541446
vt 0.345498 0.559529
vt 0.397795 0.595533
vt 0.436405 0.645936
vt 0.457552 0.705803
vt 0.459162 0.769276
vt 0.441080 0.830139
vt 0.405075 0.882435
vt 0.354672 0.921046
vt 0.294805 0.942191
vt 0.231333 0.943803
vt 0.186321 0.892545
vt 0.236156 0.907355
vt 0.288129 0.906035
vt 0.337151 0.888725
vt 0.378422 0.857108
vt 0.407907 0.814289
vt 0.422712 0.764452
vt 0.421398 0.712479
vt 0.404082 0.663458
vt 0.372470 0.622184
vt 0.329647 0.592703
vt 0.279812 0.577893
vt 0.227839 0.579213
vt 0.178817 0.596524
vt 0.137546 0.628141
vt 0.108060 0.670960
vt 0.093256 0.720797
vt 0.094570 0.772769
vt 0.111886 0.821790
vt 0.143498 0.863064
vt 0.646569 0.233033
vt 0.662814 0.279385
vt 0.616436 0.289426
vt 0.575667 0.263880
vt 0.583214 0.324645
vt 0.535111 0.327065
vt 0.578229 0.372307
vt 0.540745 0.401954
vt 0.601605 0.413901
vt 0.588894 0.459658
vt 0.644811 0.431880
vt 0.660640 0.474986
vt 0.688719 0.420132
vt 0.726241 0.444349
vt 0.716748 0.386308
vt 0.760939 0.384126
vt 0.721480 0.343803
vt 0.756370 0.315953
vt 0.701208 0.304947
vt 0.713982 0.259145
vt 0.383982 0.509334
vt 0.363563 0.465137
vt 0.228289 0.966802
vt 0.444176 0.585493
vt 0.411098 0.549769
vt 0.524957 0.639323
vt 0.482459 0.615569
vt 0.618418 0.665555
vt 0.570661 0.656097
vt 0.715411 0.661622
vt 0.667068 0.667384
vt 0.806441 0.627910
vt 0.762245 0.648328
vt 0.882598 0.567718
vt 0.846875 0.600795
vt 0.936428 0.486940
vt 0.912674 0.529436
vt 0.962662 0.393481
vt 0.953202 0.441237
vt 0.958733 0.296488
vt 0.964493 0.344831
vt 0.925023 0.205456
vt 0.945441 0.249653
vt 0.864834 0.129295
vt 0.897909 0.165020
vt 0.784054 0.075460
vt 0.826551 0.099216
vt 0.690591 0.049222
vt 0.738350 0.058683
vt 0.593595 0.053154
vt 0.641939 0.047392
vt 0.502562 0.086867
vt 0.546760 0.066448
vt 0.426403 0.147060
vt 0.462127 0.113983
vt 0.372571 0.227842
vt 0.396326 0.185344
vt 0.346337 0.321306
vt 0.355796 0.273547
vt 0.344507 0.369957
vn -0.009980 -0.999945 0.003243
vn -0.009479 -0.999943 0.004830
vn 0.414803 -0.885024 -0.211354
vn 0.442757 -0.885026 -0.143859
vn -0.008490 -0.999945 0.006168
vn 0.376630 -0.885026 -0.273639
vn 0.246662 -0.952387 -0.179210
vn 0.271728 -0.952363 -0.138453
vn 0.289968 -0.952388 -0.094216
vn -0.007522 -0.999943 0.007522
vn 0.329190 -0.885024 -0.329190
vn -0.006169 -0.999945 0.008490
vn 0.273639 -0.885026 -0.376631
vn 0.179210 -0.952387 -0.246661
vn 0.215645 -0.952363 -0.215645
vn -0.004830 -0.999943 0.009479
vn 0.211354 -0.885024 -0.414804
vn -0.003243 -0.999945 0.009980
vn 0.143860 -0.885026 -0.442757
vn 0.094216 -0.952387 -0.289968
vn 0.138453 -0.952363 -0.271728
vn -0.001664 -0.999943 0.010507
vn 0.072825 -0.885024 -0.459815
vn -0.000000 -0.999945 0.010495
vn 0.000000 -0.885026 -0.465542
vn 0.000000 -0.952387 -0.304891
vn 0.047706 -0.952363 -0.301213
vn 0.001664 -0.999943 0.010507
vn -0.072825 -0.885024 -0.459814
vn 0.003243 -0.999945 0.009980
vn -0.143860 -0.885026 -0.442757
vn -0.094216 -0.952387 -0.289968
vn -0.047706 -0.952363 -0.301213
vn 0.004830 -0.999943 0.009479
vn -0.211354 -0.885024 -0.414803
vn 0.006169 -0.999945 0.008490
vn -0.273639 -0.885026 -0.376631
vn -0.179210 -0.952387 -0.246662
vn -0.138453 -0.952363 -0.271728
vn 0.007522 -0.999943 0.007522
vn -0.329190 -0.885024 -0.329190
vn 0.008490 -0.999945 0.006169
vn -0.376631 -0.885026 -0.273639
vn -0.246662 -0.952387 -0.179210
vn -0.215645 -0.952363 -0.215645
vn 0.009479 -0.999943 0.004830
vn -0.414804 -0.885024 -0.211354
vn 0.009980 -0.999945 0.003243
vn -0.442758 -0.885025 -0.143860
vn -0.289968 -0.952388 -0.094216
vn -0.271728 -0.952363 -0.138453
vn 0.010507 -0.999943 0.001664
vn -0.459815 -0.885024 -0.072825
vn 0.010495 -0.999945 0.000000
vn -0.465541 -0.885026 -0.000000
vn -0.304890 -0.952388 -0.000000
vn -0.301213 -0.952363 -0.047706
vn 0.010507 -0.999943 -0.001664
vn -0.459813 -0.885024 0.072825
vn 0.009980 -0.999945 -0.003243
vn -0.442757 -0.885026 0.143860
vn -0.289968 -0.952388 0.094216
vn -0.301213 -0.952363 0.047706
vn 0.009479 -0.999943 -0.004830
vn -0.414804 -0.885024 0.211354
vn 0.008490 -0.999945 -0.006169
vn -0.376630 -0.885026 0.273639
vn -0.246662 -0.952387 0.179210
vn -0.271728 -0.952363 0.138453
vn 0.007522 -0.999943 -0.007522
vn -0.329190 -0.885024 0.329190
vn 0.006169 -0.999945 -0.008490
vn -0.273639 -0.885026 0.376631
vn -0.179210 -0.952388 0.246661
vn -0.215645 -0.952363 0.215645
vn 0.004830 -0.999943 -0.009479
vn -0.211354 -0.885024 0.414804
vn 0.003243 -0.999945 -0.009980
vn -0.143860 -0.885026 0.442757
vn -0.094216 -0.952387 0.289968
vn -0.138453 -0.952363 0.271728
vn 0.001664 -0.999943 -0.010507
vn -0.072825 -0.885024 0.459814
vn -0.000000 -0.999945 -0.010495
vn 0.000000 -0.885026 0.465542
vn -0.000000 -0.952387 0.304891
vn -0.047706 -0.952363 0.301213
vn -0.001664 -0.999943 -0.010507
vn 0.072825 -0.885024 0.459815
vn -0.003243 -0.999945 -0.009980
vn 0.143860 -0.885026 0.442758
vn 0.094216 -0.952387 0.289968
vn 0.047706 -0.952363 0.301213
vn -0.004830 -0.999943 -0.009479
vn 0.211354 -0.885024 0.414804
vn -0.006169 -0.999945 -0.008490
vn 0.273639 -0.885026 0.376631
vn 0.179211 -0.952387 0.246661
vn 0.138453 -0.952363 0.271728
vn -0.007522 -0.999943 -0.007522
vn 0.329191 -0.885024 0.329191
vn -0.008490 -0.999945 -0.006169
vn 0.376632 -0.885025 0.273640
vn 0.246662 -0.952387 0.179210
vn 0.215645 -0.952363 0.215645
vn -0.009479 -0.999943 -0.004830
vn 0.414804 -0.885024 0.211355
vn -0.009981 -0.999945 -0.003243
vn 0.442757 -0.885026 0.143860
vn 0.289968 -0.952387 0.094216
vn 0.271728 -0.952363 0.138453
vn -0.010507 -0.999943 -0.001664
vn 0.459814 -0.885024 0.072825
vn -0.010495 -0.999945 0.000000
vn 0.465542 -0.885026 -0.000000
vn 0.304890 -0.952387 0.000000
vn 0.301213 -0.952363 0.047706
vn -0.010507 -0.999943 0.001664
vn 0.459814 -0.885024 -0.072825
vn 0.301213 -0.952363 -0.047706
vn -0.077173 -0.995449 0.055906
vn -0.012279 -0.999886 0.008801
vn -0.009015 -0.999923 0.008597
vn -0.069247 -0.995279 0.068003
vn 0.007047 -0.999962 -0.005124
vn 0.006629 -0.999961 -0.005827
vn 0.005193 -0.999962 -0.006957
vn -0.006631 -0.999936 0.009219
vn -0.058246 -0.995075 0.080204
vn -0.027941 -0.995771 0.087521
vn -0.004105 -0.999899 0.013621
vn -0.001692 -0.999936 0.011209
vn -0.014561 -0.995816 0.090213
vn 0.002717 -0.999962 -0.008278
vn 0.001996 -0.999961 -0.008614
vn 0.000208 -0.999962 -0.008693
vn 0.000297 -0.999950 0.010003
vn 0.000380 -0.995798 0.091579
vn 0.026309 -0.996538 0.078860
vn 0.004104 -0.999928 0.011244
vn 0.004435 -0.999957 0.008183
vn 0.037041 -0.996667 0.072681
vn -0.002660 -0.999962 -0.008314
vn -0.003459 -0.999961 -0.008154
vn -0.004958 -0.999962 -0.007165
vn 0.005003 -0.999968 0.006283
vn 0.048018 -0.996712 0.065268
vn 0.061003 -0.997182 0.043655
vn 0.008216 -0.999951 0.005527
vn 0.007135 -0.999969 0.003437
vn 0.066294 -0.997226 0.033833
vn -0.007062 -0.999962 -0.005170
vn -0.007627 -0.999961 -0.004515
vn -0.008276 -0.999962 -0.002762
vn 0.006546 -0.999977 0.001961
vn 0.070953 -0.997219 0.022810
vn 0.071927 -0.997410 0.000008
vn 0.009120 -0.999958 0.000005
vn 0.007604 -0.999970 -0.001092
vn 0.072246 -0.997327 -0.010949
vn -0.008765 -0.999962 0.000001
vn -0.008820 -0.999961 0.000891
vn -0.008298 -0.999962 0.002725
vn 0.006508 -0.999977 -0.002099
vn 0.070639 -0.997238 -0.022947
vn 0.058641 -0.997372 -0.042547
vn 0.007495 -0.999957 -0.005405
vn 0.005708 -0.999970 -0.005311
vn 0.052886 -0.997253 -0.051871
vn -0.007093 -0.999962 0.005158
vn -0.006523 -0.999961 0.005950
vn -0.004912 -0.999962 0.007188
vn 0.004627 -0.999975 -0.005388
vn 0.045901 -0.997040 -0.061682
vn 0.028562 -0.996320 -0.080814
vn 0.005249 -0.999920 -0.011490
vn 0.003436 -0.999920 -0.012173
vn 0.017805 -0.995355 -0.094613
vn -0.002592 -0.999962 0.008349
vn -0.001752 -0.999961 0.008646
vn 0.000171 -0.999962 0.008702
vn 0.000573 -0.999917 -0.012863
vn 0.000926 -0.994424 -0.105449
vn -0.031354 -0.995044 -0.094366
vn -0.005419 -0.999869 -0.015278
vn -0.005865 -0.999918 -0.011358
vn -0.044614 -0.995113 -0.088092
vn 0.002661 -0.999962 0.008291
vn 0.003502 -0.999961 0.008076
vn 0.005069 -0.999963 0.007026
vn -0.006639 -0.999938 -0.008967
vn -0.058504 -0.995057 -0.080244
vn -0.078133 -0.995305 -0.057132
vn -0.012419 -0.999880 -0.009259
vn -0.011623 -0.999912 -0.006348
vn -0.088834 -0.994966 -0.046386
vn 0.007062 -0.999962 0.005113
vn 0.007609 -0.999961 0.004442
vn 0.008256 -0.999962 0.002671
vn -0.011466 -0.999927 -0.003727
vn -0.098008 -0.994676 -0.031834
vn -0.096974 -0.995287 0.000274
vn -0.015541 -0.999879 0.000179
vn -0.012530 -0.999920 0.001873
vn -0.096794 -0.995195 0.014755
vn 0.008716 -0.999962 0.000013
vn 0.008777 -0.999961 -0.000825
vn 0.008267 -0.999962 -0.002620
vn -0.010796 -0.999936 0.003526
vn -0.094754 -0.995025 0.030770
vn -0.000000 1.000000 0.000000
vn -0.001509 0.999998 0.001096
vn -0.002814 0.999989 0.003874
vn -0.000576 0.999998 0.001774
vn -0.018608 0.999736 0.013519
vn -0.021315 0.999624 0.017247
vn -0.025154 0.999084 0.034621
vn -0.009816 0.999624 0.025602
vn -0.007108 0.999736 0.021875
vn 0.000000 0.999989 0.004788
vn 0.000576 0.999998 0.001774
vn -0.007107 0.999624 0.026482
vn 0.000000 0.999084 0.042794
vn 0.007107 0.999624 0.026482
vn 0.007108 0.999736 0.021875
vn 0.002814 0.999989 0.003874
vn 0.001509 0.999998 0.001096
vn 0.009816 0.999624 0.025602
vn 0.025154 0.999084 0.034621
vn 0.021315 0.999624 0.017247
vn 0.018608 0.999735 0.013519
vn 0.004554 0.999989 0.001480
vn 0.001865 0.999998 0.000000
vn 0.022990 0.999624 0.014942
vn 0.040699 0.999084 0.013224
vn 0.027382 0.999624 0.001425
vn 0.023001 0.999735 0.000000
vn 0.004554 0.999989 -0.001480
vn 0.001509 0.999998 -0.001096
vn 0.027382 0.999624 -0.001425
vn 0.040699 0.999084 -0.013224
vn 0.022990 0.999624 -0.014942
vn 0.018608 0.999735 -0.013519
vn 0.002814 0.999989 -0.003874
vn 0.000576 0.999998 -0.001774
vn 0.021315 0.999624 -0.017247
vn 0.025154 0.999084 -0.034621
vn 0.009816 0.999624 -0.025602
vn 0.007108 0.999735 -0.021875
vn -0.000000 0.999989 -0.004788
vn -0.000576 0.999998 -0.001774
vn 0.007107 0.999624 -0.026482
vn 0.000000 0.999084 -0.042794
vn -0.007107 0.999624 -0.026482
vn -0.007108 0.999736 -0.021875
vn -0.002814 0.999989 -0.003874
vn -0.001509 0.999998 -0.001096
vn -0.009816 0.999624 -0.025602
vn -0.025154 0.999084 -0.034621
vn -0.021315 0.999624 -0.017247
vn -0.018608 0.999735 -0.013519
vn -0.004554 0.999989 -0.001480
vn -0.001865 0.999998 0.000000
vn -0.022990 0.999624 -0.014942
vn -0.040699 0.999084 -0.013224
vn -0.027382 0.999624 -0.001425
vn -0.023001 0.999735 -0.000000
vn -0.004554 0.999989 0.001480
vn -0.027382 0.999624 0.001425
vn -0.040699 0.999084 0.013224
vn -0.022990 0.999624 0.014942
vn 0.210411 -0.977045 -0.033325
vn 0.213008 -0.977050 0.000000
vn 0.202583 -0.977050 -0.065823
vn 0.203093 -0.976933 -0.065989
vn 0.210929 -0.976930 -0.033407
vn 0.213545 -0.976933 0.000000
vn 0.210411 -0.977045 0.033325
vn 0.202583 -0.977050 0.065823
vn 0.210929 -0.976930 0.033407
vn 0.203094 -0.976933 0.065989
vn 0.189814 -0.977045 0.096716
vn 0.172327 -0.977050 0.125203
vn 0.190282 -0.976930 0.096954
vn 0.172762 -0.976933 0.125519
vn 0.150637 -0.977045 0.150637
vn 0.125203 -0.977050 0.172327
vn 0.151008 -0.976930 0.151008
vn 0.125519 -0.976933 0.172762
vn 0.096716 -0.977045 0.189814
vn 0.065823 -0.977050 0.202583
vn 0.096954 -0.976930 0.190282
vn 0.065989 -0.976933 0.203094
vn 0.033325 -0.977045 0.210411
vn -0.000000 -0.977050 0.213008
vn 0.033407 -0.976930 0.210929
vn 0.000000 -0.976933 0.213545
vn -0.033325 -0.977045 0.210411
vn -0.065823 -0.977050 0.202583
vn -0.033407 -0.976930 0.210929
vn -0.065989 -0.976933 0.203093
vn -0.096716 -0.977045 0.189814
vn -0.125203 -0.977050 0.172327
vn -0.096954 -0.976930 0.190282
vn -0.125519 -0.976933 0.172762
vn -0.150637 -0.977045 0.150637
vn -0.172327 -0.977050 0.125203
vn -0.151008 -0.976930 0.151008
vn -0.172762 -0.976933 0.125519
vn -0.189814 -0.977045 0.096716
vn -0.202583 -0.977050 0.065823
vn -0.190282 -0.976930 0.096954
vn -0.203094 -0.976933 0.065989
vn -0.210411 -0.977045 0.033325
vn -0.213009 -0.977050 -0.000000
vn -0.210929 -0.976930 0.033407
vn -0.213545 -0.976933 -0.000000
vn -0.210411 -0.977045 -0.033325
vn -0.202583 -0.977050 -0.065823
vn -0.210929 -0.976930 -0.033407
vn -0.203094 -0.976933 -0.065989
vn -0.189814 -0.977045 -0.096716
vn -0.172327 -0.977050 -0.125203
vn -0.190282 -0.976930 -0.096953
vn -0.172762 -0.976933 -0.125519
vn -0.150638 -0.977045 -0.150638
vn -0.125203 -0.977050 -0.172327
vn -0.151008 -0.976930 -0.151008
vn -0.125519 -0.976933 -0.172762
vn -0.096716 -0.977045 -0.189814
vn -0.065823 -0.977050 -0.202583
vn -0.096954 -0.976930 -0.190282
vn -0.065989 -0.976933 -0.203093
vn -0.033325 -0.977045 -0.210411
vn 0.000000 -0.977050 -0.213008
vn -0.033407 -0.976930 -0.210929
vn -0.000000 -0.976933 -0.213545
vn 0.033325 -0.977045 -0.210411
vn 0.065823 -0.977050 -0.202583
vn 0.033407 -0.976930 -0.210929
vn 0.065989 -0.976933 -0.203093
vn 0.096715 -0.977045 -0.189814
vn 0.125203 -0.977050 -0.172327
vn 0.096953 -0.976930 -0.190282
vn 0.125519 -0.976933 -0.172762
vn 0.150637 -0.977045 -0.150637
vn 0.172327 -0.977050 -0.125203
vn 0.151008 -0.976930 -0.151008
vn 0.172761 -0.976933 -0.125519
vn 0.189814 -0.977045 -0.096715
vn 0.190282 -0.976930 -0.096953
vn 0.269848 -0.962903 0.000000
vn 0.266493 -0.962912 -0.042208
vn 0.910119 -0.388464 -0.144147
vn 0.921461 -0.388470 0.000001
vn 0.256641 -0.962903 -0.083387
vn 0.876361 -0.388473 -0.284746
vn -0.005149 0.999985 0.001673
vn -0.005464 0.999985 0.000865
vn -0.005414 0.999985 0.000000
vn 0.256641 -0.962903 0.083388
vn 0.266493 -0.962912 0.042208
vn 0.910120 -0.388461 0.144149
vn 0.876363 -0.388466 0.284748
vn -0.005464 0.999985 -0.000865
vn -0.005149 0.999985 -0.001673
vn 0.218312 -0.962903 0.158613
vn 0.240407 -0.962912 0.122494
vn 0.821031 -0.388463 0.418336
vn 0.745478 -0.388469 0.541622
vn -0.004929 0.999985 -0.002512
vn -0.004380 0.999985 -0.003182
vn 0.158613 -0.962903 0.218312
vn 0.190788 -0.962912 0.190788
vn 0.651574 -0.388461 0.651574
vn 0.541622 -0.388467 0.745479
vn -0.003912 0.999985 -0.003912
vn -0.003182 0.999985 -0.004380
vn 0.083388 -0.962903 0.256641
vn 0.122494 -0.962912 0.240407
vn 0.418336 -0.388462 0.821031
vn 0.284747 -0.388468 0.876363
vn -0.002512 0.999985 -0.004929
vn -0.001673 0.999985 -0.005149
vn 0.000000 -0.962903 0.269848
vn 0.042208 -0.962912 0.266493
vn 0.144149 -0.388461 0.910120
vn 0.000000 -0.388469 0.921462
vn -0.000865 0.999985 -0.005464
vn -0.000000 0.999985 -0.005414
vn -0.083388 -0.962903 0.256641
vn -0.042208 -0.962912 0.266493
vn -0.144149 -0.388463 0.910120
vn -0.284747 -0.388469 0.876362
vn 0.000865 0.999985 -0.005464
vn 0.001673 0.999985 -0.005149
vn -0.158613 -0.962903 0.218312
vn -0.122494 -0.962912 0.240407
vn -0.418336 -0.388465 0.821030
vn -0.541621 -0.388470 0.745478
vn 0.002512 0.999985 -0.004929
vn 0.003182 0.999985 -0.004380
vn -0.218312 -0.962903 0.158613
vn -0.190788 -0.962912 0.190788
vn -0.651574 -0.388463 0.651574
vn -0.745478 -0.388470 0.541622
vn 0.003912 0.999985 -0.003912
vn 0.004380 0.999985 -0.003182
vn -0.256641 -0.962903 0.083388
vn -0.240407 -0.962912 0.122494
vn -0.821031 -0.388463 0.418336
vn -0.876363 -0.388468 0.284748
vn 0.004929 0.999985 -0.002512
vn 0.005149 0.999985 -0.001673
vn -0.269848 -0.962903 -0.000000
vn -0.266493 -0.962912 0.042208
vn -0.910120 -0.388462 0.144149
vn -0.921462 -0.388469 -0.000000
vn 0.005464 0.999985 -0.000865
vn 0.005414 0.999985 -0.000000
vn -0.256641 -0.962903 -0.083387
vn -0.266493 -0.962912 -0.042208
vn -0.910120 -0.388462 -0.144149
vn -0.876363 -0.388467 -0.284747
vn 0.005464 0.999985 0.000865
vn 0.005149 0.999985 0.001673
vn -0.218312 -0.962903 -0.158613
vn -0.240407 -0.962912 -0.122494
vn -0.821031 -0.388461 -0.418336
vn -0.745478 -0.388469 -0.541622
vn 0.004929 0.999985 0.002512
vn 0.004380 0.999985 0.003182
vn -0.158613 -0.962903 -0.218312
vn -0.190788 -0.962912 -0.190788
vn -0.651573 -0.388464 -0.651573
vn -0.541622 -0.388470 -0.745478
vn 0.003912 0.999985 0.003912
vn 0.003182 0.999985 0.004380
vn -0.083387 -0.962903 -0.256641
vn -0.122494 -0.962912 -0.240407
vn -0.418336 -0.388463 -0.821031
vn -0.284747 -0.388469 -0.876362
vn 0.002512 0.999985 0.004929
vn 0.001673 0.999985 0.005149
vn -0.000000 -0.962903 -0.269848
vn -0.042208 -0.962912 -0.266493
vn -0.144149 -0.388463 -0.910119
vn -0.000000 -0.388469 -0.921462
vn 0.000865 0.999985 0.005464
vn -0.000000 0.999985 0.005414
vn 0.083387 -0.962903 -0.256641
vn 0.042208 -0.962912 -0.266493
vn 0.144148 -0.388461 -0.910120
vn 0.284747 -0.388467 -0.876363
vn -0.000865 0.999985 0.005464
vn -0.001673 0.999985 0.005149
vn 0.158613 -0.962903 -0.218311
vn 0.122494 -0.962912 -0.240407
vn 0.418336 -0.388462 -0.821031
vn 0.541622 -0.388469 -0.745478
vn -0.002512 0.999985 0.004929
vn -0.003182 0.999985 0.004380
vn 0.218311 -0.962903 -0.158613
vn 0.190788 -0.962912 -0.190788
vn 0.651573 -0.388464 -0.651573
vn 0.745478 -0.388469 -0.541622
vn -0.003912 0.999985 0.003912
vn -0.004380 0.999985 0.003182
vn 0.240407 -0.962912 -0.122493
vn 0.821030 -0.388464 -0.418336
vn -0.004929 0.999985 0.002512
vn -0.147366 -0.986191 0.075563
vn -0.133194 -0.986346 0.096855
vn -0.158389 -0.986034 0.051486
vn -0.086602 -0.995234 0.044828
vn -0.117314 -0.986203 0.116791
vn -0.097704 -0.986075 0.134572
vn -0.074256 -0.986328 0.147115
vn -0.049967 -0.986670 0.154873
vn -0.042639 -0.995379 0.086037
vn -0.025493 -0.986742 0.160284
vn 0.000229 -0.986790 0.162004
vn 0.025735 -0.987140 0.157773
vn 0.049069 -0.987554 0.149433
vn 0.014896 -0.996139 0.086513
vn 0.070965 -0.987725 0.139153
vn 0.091608 -0.987840 0.125617
vn 0.108983 -0.988148 0.108106
vn 0.122753 -0.988458 0.088787
vn 0.055945 -0.996947 0.054465
vn 0.134442 -0.988547 0.068563
vn 0.143401 -0.988574 0.046462
vn 0.147978 -0.988721 0.023104
vn 0.149107 -0.988821 0.000011
vn 0.072192 -0.997331 0.010899
vn 0.147991 -0.988719 -0.023114
vn 0.143121 -0.988613 -0.046487
vn 0.133485 -0.988694 -0.068311
vn 0.121008 -0.988758 -0.087830
vn 0.065023 -0.997317 -0.033641
vn 0.106827 -0.988592 -0.106175
vn 0.090121 -0.988279 -0.123220
vn 0.070944 -0.987902 -0.137899
vn 0.050260 -0.987275 -0.150873
vn 0.037301 -0.996802 -0.070666
vn 0.027200 -0.986311 -0.162640
vn 0.000427 -0.985567 -0.169287
vn -0.027015 -0.985611 -0.166859
vn -0.051918 -0.985964 -0.158682
vn -0.017405 -0.994562 -0.102681
vn -0.075462 -0.986045 -0.148393
vn -0.097971 -0.986028 -0.134727
vn -0.117417 -0.986163 -0.117025
vn -0.133803 -0.986206 -0.097440
vn -0.069320 -0.995239 -0.068514
vn -0.148648 -0.985939 -0.076339
vn -0.160066 -0.985735 -0.052006
vn -0.165145 -0.985936 -0.025630
vn -0.165620 -0.986190 0.000149
vn -0.099123 -0.994967 -0.014689
vn -0.163943 -0.986136 0.025670
vn -0.109536 0.987929 0.109536
vn -0.125303 0.987933 0.091038
vn -0.091038 0.987933 0.125303
vn -0.089140 0.988434 0.122690
vn -0.102109 0.989775 0.099599
vn -0.110975 0.990547 0.080628
vn -0.070326 0.987929 0.138024
vn -0.047861 0.987933 0.147302
vn -0.042389 0.990547 0.130459
vn -0.063171 0.989775 0.127889
vn -0.024233 0.987929 0.153000
vn 0.000000 0.987933 0.154883
vn 0.000000 0.988434 0.151653
vn -0.024064 0.989775 0.140595
vn 0.024233 0.987929 0.153000
vn 0.047861 0.987933 0.147302
vn 0.042389 0.990547 0.130459
vn 0.024064 0.989775 0.140595
vn 0.070327 0.987929 0.138024
vn 0.091038 0.987933 0.125303
vn 0.089140 0.988434 0.122690
vn 0.063171 0.989775 0.127889
vn 0.109536 0.987929 0.109536
vn 0.125303 0.987933 0.091038
vn 0.110975 0.990547 0.080628
vn 0.102109 0.989775 0.099599
vn 0.138024 0.987929 0.070327
vn 0.147302 0.987933 0.047861
vn 0.144231 0.988434 0.046863
vn 0.126278 0.989775 0.066333
vn 0.153000 0.987929 0.024233
vn 0.154883 0.987933 -0.000000
vn 0.137173 0.990547 0.000000
vn 0.141150 0.989775 0.020559
vn 0.153000 0.987929 -0.024233
vn 0.147302 0.987933 -0.047861
vn 0.144231 0.988434 -0.046863
vn 0.141150 0.989775 -0.020559
vn 0.138024 0.987929 -0.070327
vn 0.125303 0.987933 -0.091038
vn 0.110975 0.990547 -0.080628
vn 0.126278 0.989775 -0.066333
vn 0.109536 0.987929 -0.109536
vn 0.091038 0.987933 -0.125303
vn 0.089140 0.988434 -0.122690
vn 0.102109 0.989775 -0.099599
vn 0.070327 0.987929 -0.138024
vn 0.047861 0.987933 -0.147302
vn 0.042389 0.990547 -0.130459
vn 0.063171 0.989775 -0.127889
vn 0.024233 0.987929 -0.153000
vn -0.000000 0.987933 -0.154883
vn 0.000000 0.988434 -0.151653
vn 0.024064 0.989775 -0.140595
vn -0.024233 0.987929 -0.153000
vn -0.047861 0.987933 -0.147302
vn -0.042389 0.990547 -0.130459
vn -0.024064 0.989775 -0.140595
vn -0.070327 0.987929 -0.138024
vn -0.091038 0.987933 -0.125303
vn -0.089140 0.988434 -0.122690
vn -0.063171 0.989775 -0.127889
vn -0.109536 0.987929 -0.109536
vn -0.125303 0.987933 -0.091038
vn -0.110975 0.990547 -0.080628
vn -0.102109 0.989775 -0.099599
vn -0.138024 0.987929 -0.070327
vn -0.147302 0.987933 -0.047861
vn -0.144231 0.988434 -0.046863
vn -0.126278 0.989775 -0.066333
vn -0.153000 0.987929 -0.024233
vn -0.154883 0.987933 -0.000000
vn -0.137173 0.990547 -0.000000
vn -0.141150 0.989775 -0.020559
vn -0.153000 0.987929 0.024233
vn -0.147302 0.987933 0.047861
vn -0.144231 0.988434 0.046863
vn -0.141150 0.989775 0.020559
vn -0.138023 0.987929 0.070326
vn -0.126278 0.989775 0.066333
vn 0.002630 -0.999965 0.007927
vn 0.004496 -0.999971 0.006169
vn 0.001938 -0.999961 0.008620
vn 0.000370 -0.999971 0.007628
vn 0.000662 -1.000000 0.000062
vn 0.006724 -0.999965 0.004896
vn 0.007251 -0.999971 0.002384
vn 0.006576 -0.999961 0.005850
vn 0.008336 -0.999965 0.000028
vn 0.007265 -0.999971 -0.002303
vn 0.008770 -0.999961 0.000867
vn 0.006758 -0.999965 -0.004862
vn 0.004596 -0.999971 -0.006080
vn 0.007606 -0.999961 -0.004429
vn 0.002697 -0.999965 -0.007864
vn 0.000310 -0.999972 -0.007544
vn 0.003591 -0.999961 -0.008036
vn -0.002380 -0.999966 -0.007903
vn -0.004097 -0.999972 -0.006228
vn -0.001774 -0.999961 -0.008629
vn -0.006528 -0.999967 -0.004936
vn -0.006934 -0.999973 -0.002447
vn -0.006524 -0.999961 -0.005952
vn -0.008163 -0.999967 -0.000026
vn -0.006944 -0.999973 0.002355
vn -0.008810 -0.999961 -0.000905
vn -0.006504 -0.999967 0.004895
vn -0.003944 -0.999973 0.006275
vn -0.007651 -0.999961 0.004490
vn -0.002276 -0.999966 0.007953
vn -0.003405 -0.999961 0.008177
vn 0.004862 -0.999960 -0.007510
vn -0.002647 -0.999899 -0.013974
vn -0.008939 -0.999922 -0.008749
vn -0.013110 -0.999913 -0.001699
vn -0.011271 -0.999919 0.005924
vn -0.005263 -0.999922 0.011308
vn 0.002229 -0.999942 0.010588
vn 0.006491 -0.999962 0.005813
vn 0.007562 -0.999971 0.001056
vn 0.006799 -0.999971 -0.003553
s 1
g SM_plate
usemtl aiStandardSurface1SG
f 1/1/1 303/323/2 483/163/3 306/326/4
f 303/323/2 2/2/5 304/324/6 483/163/3
f 483/163/3 304/324/6 60/60/7 305/325/8
f 306/326/4 483/163/3 305/325/8 41/41/9
f 2/2/5 307/327/10 484/164/11 304/324/6
f 307/327/10 3/3/12 308/328/13 484/164/11
f 484/164/11 308/328/13 59/59/14 309/329/15
f 304/324/6 484/164/11 309/329/15 60/60/7
f 3/3/12 310/330/16 485/165/17 308/328/13
f 310/330/16 4/4/18 311/331/19 485/165/17
f 485/165/17 311/331/19 58/58/20 312/332/21
f 308/328/13 485/165/17 312/332/21 59/59/14
f 4/4/18 313/333/22 486/166/23 311/331/19
f 313/333/22 5/5/24 314/334/25 486/166/23
f 486/166/23 314/334/25 57/57/26 315/335/27
f 311/331/19 486/166/23 315/335/27 58/58/20
f 5/5/24 316/336/28 487/167/29 314/334/25
f 316/336/28 6/6/30 317/337/31 487/167/29
f 487/167/29 317/337/31 56/56/32 318/338/33
f 314/334/25 487/167/29 318/338/33 57/57/26
f 6/6/30 319/339/34 488/168/35 317/337/31
f 319/339/34 7/7/36 320/340/37 488/168/35
f 488/168/35 320/340/37 55/55/38 321/341/39
f 317/337/31 488/168/35 321/341/39 56/56/32
f 7/7/36 322/342/40 489/169/41 320/340/37
f 322/342/40 8/8/42 323/343/43 489/169/41
f 489/169/41 323/343/43 54/54/44 324/344/45
f 320/340/37 489/169/41 324/344/45 55/55/38
f 8/8/42 325/345/46 490/170/47 323/343/43
f 325/345/46 9/9/48 326/346/49 490/170/47
f 490/170/47 326/346/49 53/53/50 327/347/51
f 323/343/43 490/170/47 327/347/51 54/54/44
f 9/9/48 328/348/52 491/171/53 326/346/49
f 328/348/52 10/10/54 329/349/55 491/171/53
f 491/171/53 329/349/55 52/52/56 330/350/57
f 326/346/49 491/171/53 330/350/57 53/53/50
f 10/10/54 331/351/58 492/172/59 329/349/55
f 331/351/58 11/11/60 332/352/61 492/172/59
f 492/172/59 332/352/61 51/51/62 333/353/63
f 329/349/55 492/172/59 333/353/63 52/52/56
f 11/11/60 334/354/64 493/173/65 332/352/61
f 334/354/64 12/12/66 335/355/67 493/173/65
f 493/173/65 335/355/67 50/50/68 336/356/69
f 332/352/61 493/173/65 336/356/69 51/51/62
f 12/12/66 337/357/70 494/174/71 335/355/67
f 337/357/70 13/13/72 338/358/73 494/174/71
f 494/174/71 338/358/73 49/49/74 339/359/75
f 335/355/67 494/174/71 339/359/75 50/50/68
f 13/13/72 340/360/76 495/175/77 338/358/73
f 340/360/76 14/14/78 341/361/79 495/175/77
f 495/175/77 341/361/79 48/48/80 342/362/81
f 338/358/73 495/175/77 342/362/81 49/49/74
f 14/14/78 343/363/82 496/176/83 341/361/79
f 343/363/82 15/15/84 344/364/85 496/176/83
f 496/176/83 344/364/85 47/47/86 345/365/87
f 341/361/79 496/176/83 345/365/87 48/48/80
f 15/15/84 346/366/88 497/177/89 344/364/85
f 346/366/88 16/16/90 347/367/91 497/177/89
f 497/177/89 347/367/91 46/46/92 348/368/93
f 344/364/85 497/177/89 348/368/93 47/47/86
f 16/16/90 349/369/94 498/178/95 347/367/91
f 349/369/94 17/17/96 350/370/97 498/178/95
f 498/178/95 350/370/97 45/45/98 351/371/99
f 347/367/91 498/178/95 351/371/99 46/46/92
f 17/17/96 352/372/100 499/179/101 350/370/97
f 352/372/100 18/18/102 353/373/103 499/179/101
f 499/179/101 353/373/103 44/44/104 354/374/105
f 350/370/97 499/179/101 354/374/105 45/45/98
f 18/18/102 355/375/106 500/180/107 353/373/103
f 355/375/106 19/19/108 356/376/109 500/180/107
f 500/180/107 356/376/109 43/43/110 357/377/111
f 353/373/103 500/180/107 357/377/111 44/44/104
f 19/19/108 358/378/112 501/181/113 356/376/109
f 358/378/112 20/20/114 359/379/115 501/181/113
f 501/181/113 359/379/115 42/42/116 360/380/117
f 356/376/109 501/181/113 360/380/117 43/43/110
f 20/20/114 361/381/118 502/182/119 359/379/115
f 361/381/118 1/1/1 306/326/4 502/182/119
f 502/182/119 306/326/4 41/41/9 362/382/120
f 359/379/115 502/182/119 362/382/120 42/42/116
f 82/82/121 363/383/122 503/183/123 366/386/124
f 363/383/122 157/157/125 364/384/126 503/183/123
f 503/183/123 364/384/126 147/147/127 365/385/128
f 366/386/124 503/183/123 365/385/128 84/84/129
f 85/85/130 367/387/131 504/184/132 370/390/133
f 367/387/131 158/158/134 368/388/135 504/184/132
f 504/184/132 368/388/135 148/148/136 369/389/137
f 370/390/133 504/184/132 369/389/137 86/86/138
f 87/87/139 371/391/140 505/185/141 374/394/142
f 371/391/140 159/159/143 372/392/144 505/185/141
f 505/185/141 372/392/144 149/149/145 373/393/146
f 374/394/142 505/185/141 373/393/146 88/88/147
f 89/89/148 375/395/149 506/186/150 378/398/151
f 375/395/149 160/160/152 376/396/153 506/186/150
f 506/186/150 376/396/153 150/150/154 377/397/155
f 378/398/151 506/186/150 377/397/155 90/90/156
f 91/91/157 379/399/158 507/187/159 382/402/160
f 379/399/158 161/161/161 380/400/162 507/187/159
f 507/187/159 380/400/162 151/151/163 381/401/164
f 382/402/160 507/187/159 381/401/164 92/92/165
f 93/93/166 383/403/167 508/188/168 386/406/169
f 383/403/167 162/162/170 384/404/171 508/188/168
f 508/188/168 384/404/171 152/152/172 385/405/173
f 386/406/169 508/188/168 385/405/173 94/94/174
f 95/95/175 387/407/176 509/189/177 390/410/178
f 387/407/176 153/153/179 388/408/180 509/189/177
f 509/189/177 388/408/180 143/143/181 389/409/182
f 390/410/178 509/189/177 389/409/182 96/96/183
f 97/97/184 391/411/185 510/190/186 394/414/187
f 391/411/185 154/154/188 392/412/189 510/190/186
f 510/190/186 392/412/189 144/144/190 393/413/191
f 394/414/187 510/190/186 393/413/191 98/98/192
f 99/99/193 395/415/194 511/191/195 398/418/196
f 395/415/194 155/155/197 396/416/198 511/191/195
f 511/191/195 396/416/198 145/145/199 397/417/200
f 398/418/196 511/191/195 397/417/200 100/100/201
f 101/101/202 399/419/203 512/192/204 402/422/205
f 399/419/203 156/156/206 400/420/207 512/192/204
f 512/192/204 400/420/207 146/146/208 401/421/209
f 402/422/205 512/192/204 401/421/209 81/81/210
f 103/103/211 403/423/212 513/193/213 406/426/214
f 403/423/212 102/102/215 404/424/216 513/193/213
f 513/193/213 404/424/216 104/104/217 405/425/218
f 406/426/214 513/193/213 405/425/218 105/105/219
f 103/103/211 406/426/214 514/194/220 409/429/221
f 406/426/214 105/105/219 407/427/222 514/194/220
f 514/194/220 407/427/222 106/106/223 408/428/224
f 409/429/221 514/194/220 408/428/224 107/107/225
f 103/103/211 409/429/221 515/195/226 412/432/227
f 409/429/221 107/107/225 410/430/228 515/195/226
f 515/195/226 410/430/228 108/108/229 411/431/230
f 412/432/227 515/195/226 411/431/230 109/109/231
f 103/103/211 412/432/227 516/196/232 415/435/233
f 412/432/227 109/109/231 413/433/234 516/196/232
f 516/196/232 413/433/234 110/110/235 414/434/236
f 415/435/233 516/196/232 414/434/236 111/111/237
f 103/103/211 415/435/233 517/197/238 418/438/239
f 415/435/233 111/111/237 416/436/240 517/197/238
f 517/197/238 416/436/240 112/112/241 417/437/242
f 418/438/239 517/197/238 417/437/242 113/113/243
f 103/103/211 418/438/239 518/198/244 421/441/245
f 418/438/239 113/113/243 419/439/246 518/198/244
f 518/198/244 419/439/246 114/114/247 420/440/248
f 421/441/245 518/198/244 420/440/248 115/115/249
f 103/103/211 421/441/245 519/199/250 424/444/251
f 421/441/245 115/115/249 422/442/252 519/199/250
f 519/199/250 422/442/252 116/116/253 423/443/254
f 424/444/251 519/199/250 423/443/254 117/117/255
f 103/103/211 424/444/251 520/200/256 427/447/257
f 424/444/251 117/117/255 425/445/258 520/200/256
f 520/200/256 425/445/258 118/118/259 426/446/260
f 427/447/257 520/200/256 426/446/260 119/119/261
f 103/103/211 427/447/257 521/201/262 430/450/263
f 427/447/257 119/119/261 428/448/264 521/201/262
f 521/201/262 428/448/264 120/120/265 429/449/266
f 430/450/263 521/201/262 429/449/266 121/121/267
f 103/103/211 430/450/263 522/202/268 403/423/212
f 430/450/263 121/121/267 431/451/269 522/202/268
f 522/202/268 431/451/269 122/122/270 432/452/271
f 403/423/212 522/202/268 432/452/271 102/102/215
f 42/42/116 362/382/120 523/203/272 435/455/273
f 362/382/120 41/41/9 433/453/274 523/203/272
f 523/203/272 433/453/274 123/123/275 434/454/276
f 435/455/273 523/203/272 434/454/276 124/124/277
f 43/43/110 360/380/117 524/204/278 437/457/279
f 360/380/117 42/42/116 435/455/273 524/204/278
f 524/204/278 435/455/273 124/124/277 436/456/280
f 437/457/279 524/204/278 436/456/280 125/125/281
f 44/44/104 357/377/111 525/205/282 439/459/283
f 357/377/111 43/43/110 437/457/279 525/205/282
f 525/205/282 437/457/279 125/125/281 438/458/284
f 439/459/283 525/205/282 438/458/284 126/126/285
f 45/45/98 354/374/105 526/206/286 441/461/287
f 354/374/105 44/44/104 439/459/283 526/206/286
f 526/206/286 439/459/283 126/126/285 440/460/288
f 441/461/287 526/206/286 440/460/288 127/127/289
f 46/46/92 351/371/99 527/207/290 443/463/291
f 351/371/99 45/45/98 441/461/287 527/207/290
f 527/207/290 441/461/287 127/127/289 442/462/292
f 443/463/291 527/207/290 442/462/292 128/128/293
f 47/47/86 348/368/93 528/208/294 445/465/295
f 348/368/93 46/46/92 443/463/291 528/208/294
f 528/208/294 443/463/291 128/128/293 444/464/296
f 445/465/295 528/208/294 444/464/296 129/129/297
f 48/48/80 345/365/87 529/209/298 447/467/299
f 345/365/87 47/47/86 445/465/295 529/209/298
f 529/209/298 445/465/295 129/129/297 446/466/300
f 447/467/299 529/209/298 446/466/300 130/130/301
f 49/49/74 342/362/81 530/210/302 449/469/303
f 342/362/81 48/48/80 447/467/299 530/210/302
f 530/210/302 447/467/299 130/130/301 448/468/304
f 449/469/303 530/210/302 448/468/304 131/131/305
f 50/50/68 339/359/75 531/211/306 451/471/307
f 339/359/75 49/49/74 449/469/303 531/211/306
f 531/211/306 449/469/303 131/131/305 450/470/308
f 451/471/307 531/211/306 450/470/308 132/132/309
f 51/51/62 336/356/69 532/212/310 453/473/311
f 336/356/69 50/50/68 451/471/307 532/212/310
f 532/212/310 451/471/307 132/132/309 452/472/312
f 453/473/311 532/212/310 452/472/312 133/133/313
f 52/52/56 333/353/63 533/213/314 455/475/315
f 333/353/63 51/51/62 453/473/311 533/213/314
f 533/213/314 453/473/311 133/133/313 454/474/316
f 455/475/315 533/213/314 454/474/316 134/134/317
f 53/53/50 330/350/57 534/214/318 457/477/319
f 330/350/57 52/52/56 455/475/315 534/214/318
f 534/214/318 455/475/315 134/134/317 456/476/320
f 457/477/319 534/214/318 456/476/320 135/135/321
f 54/54/44 327/347/51 535/215/322 459/479/323
f 327/347/51 53/53/50 457/477/319 535/215/322
f 535/215/322 457/477/319 135/135/321 458/478/324
f 459/479/323 535/215/322 458/478/324 136/136/325
f 55/55/38 324/344/45 536/216/326 461/481/327
f 324/344/45 54/54/44 459/479/323 536/216/326
f 536/216/326 459/479/323 136/136/325 460/480/328
f 461/481/327 536/216/326 460/480/328 137/137/329
f 56/56/32 321/341/39 537/217/330 463/483/331
f 321/341/39 55/55/38 461/481/327 537/217/330
f 537/217/330 461/481/327 137/137/329 462/482/332
f 463/483/331 537/217/330 462/482/332 138/138/333
f 57/57/26 318/338/33 538/218/334 465/485/335
f 318/338/33 56/56/32 463/483/331 538/218/334
f 538/218/334 463/483/331 138/138/333 464/484/336
f 465/485/335 538/218/334 464/484/336 139/139/337
f 58/58/20 315/335/27 539/219/338 467/487/339
f 315/335/27 57/57/26 465/485/335 539/219/338
f 539/219/338 465/485/335 139/139/337 466/486/340
f 467/487/339 539/219/338 466/486/340 140/140/341
f 59/59/14 312/332/21 540/220/342 469/489/343
f 312/332/21 58/58/20 467/487/339 540/220/342
f 540/220/342 467/487/339 140/140/341 468/488/344
f 469/489/343 540/220/342 468/488/344 141/141/345
f 60/60/7 309/329/15 541/221/346 471/491/347
f 309/329/15 59/59/14 469/489/343 541/221/346
f 541/221/346 469/489/343 141/141/345 470/490/348
f 471/491/347 541/221/346 470/490/348 142/142/349
f 41/41/9 305/325/8 542/222/350 433/453/274
f 305/325/8 60/60/7 471/491/347 542/222/350
f 542/222/350 471/491/347 142/142/349 472/492/351
f 433/453/274 542/222/350 472/492/351 123/123/275
f 62/62/352 473/493/353 543/682/354 476/680/355
f 473/493/353 61/61/356 474/494/357 543/682/354
f 543/223/354 474/645/357 21/21/358 475/495/359
f 476/496/355 543/223/354 475/495/359 40/40/360
f 63/63/361 477/497/362 544/681/363 479/678/364
f 477/497/362 62/62/352 476/680/355 544/681/363
f 544/224/363 476/496/355 40/40/360 478/498/365
f 479/499/364 544/224/363 478/498/365 39/39/366
f 64/64/367 480/500/368 545/679/369 482/676/370
f 480/500/368 63/63/361 479/678/364 545/679/369
f 545/225/369 479/499/364 39/39/366 481/501/371
f 482/502/370 545/225/369 481/501/371 38/38/372
f 65/65/373 163/503/374 546/677/375 165/674/376
f 163/503/374 64/64/367 482/676/370 546/677/375
f 546/226/375 482/502/370 38/38/372 164/504/377
f 165/505/376 546/226/375 164/504/377 37/37/378
f 66/66/379 166/506/380 547/675/381 168/672/382
f 166/506/380 65/65/373 165/674/376 547/675/381
f 547/227/381 165/505/376 37/37/378 167/507/383
f 168/508/382 547/227/381 167/507/383 36/36/384
f 67/67/385 169/509/386 548/673/387 171/670/388
f 169/509/386 66/66/379 168/672/382 548/673/387
f 548/228/387 168/508/382 36/36/384 170/510/389
f 171/511/388 548/228/387 170/510/389 35/35/390
f 68/68/391 172/512/392 549/671/393 174/668/394
f 172/512/392 67/67/385 171/670/388 549/671/393
f 549/229/393 171/511/388 35/35/390 173/513/395
f 174/514/394 549/229/393 173/513/395 34/34/396
f 69/69/397 175/515/398 550/669/399 177/666/400
f 175/515/398 68/68/391 174/668/394 550/669/399
f 550/230/399 174/514/394 34/34/396 176/516/401
f 177/517/400 550/230/399 176/516/401 33/33/402
f 70/70/403 178/518/404 551/667/405 180/664/406
f 178/518/404 69/69/397 177/666/400 551/667/405
f 551/231/405 177/517/400 33/33/402 179/519/407
f 180/520/406 551/231/405 179/519/407 32/32/408
f 71/71/409 181/521/410 552/665/411 183/662/412
f 181/521/410 70/70/403 180/664/406 552/665/411
f 552/232/411 180/520/406 32/32/408 182/522/413
f 183/523/412 552/232/411 182/522/413 31/31/414
f 72/72/415 184/524/416 553/663/417 186/660/418
f 184/524/416 71/71/409 183/662/412 553/663/417
f 553/233/417 183/523/412 31/31/414 185/525/419
f 186/526/418 553/233/417 185/525/419 30/30/420
f 73/73/421 187/527/422 554/661/423 189/658/424
f 187/527/422 72/72/415 186/660/418 554/661/423
f 554/234/423 186/526/418 30/30/420 188/528/425
f 189/529/424 554/234/423 188/528/425 29/29/426
f 74/74/427 190/530/428 555/659/429 192/656/430
f 190/530/428 73/73/421 189/658/424 555/659/429
f 555/235/429 189/529/424 29/29/426 191/531/431
f 192/532/430 555/235/429 191/531/431 28/28/432
f 75/75/433 193/533/434 556/657/435 195/654/436
f 193/533/434 74/74/427 192/656/430 556/657/435
f 556/236/435 192/532/430 28/28/432 194/534/437
f 195/535/436 556/236/435 194/534/437 27/27/438
f 76/76/439 196/536/440 557/655/441 198/652/442
f 196/536/440 75/75/433 195/654/436 557/655/441
f 557/237/441 195/535/436 27/27/438 197/537/443
f 198/538/442 557/237/441 197/537/443 26/26/444
f 77/77/445 199/539/446 558/653/447 201/650/448
f 199/539/446 76/76/439 198/652/442 558/653/447
f 558/238/447 198/538/442 26/26/444 200/540/449
f 201/541/448 558/238/447 200/540/449 25/25/450
f 78/78/451 202/542/452 559/651/453 204/648/454
f 202/542/452 77/77/445 201/650/448 559/651/453
f 559/239/453 201/541/448 25/25/450 203/543/455
f 204/544/454 559/239/453 203/543/455 24/24/456
f 79/79/457 205/545/458 560/649/459 207/646/460
f 205/545/458 78/78/451 204/648/454 560/649/459
f 560/240/459 204/544/454 24/24/456 206/546/461
f 207/547/460 560/240/459 206/546/461 23/23/462
f 80/80/463 208/548/464 561/647/465 210/643/466
f 208/548/464 79/79/457 207/646/460 561/647/465
f 561/241/465 207/547/460 23/23/462 209/549/467
f 210/550/466 561/241/465 209/549/467 22/22/468
f 61/61/356 211/551/469 562/644/470 474/494/357
f 211/551/469 80/80/463 210/643/466 562/644/470
f 562/242/470 210/550/466 22/22/468 212/552/471
f 474/645/357 562/242/470 212/552/471 21/21/358
f 2/2/5 303/323/2 563/243/472 215/555/473
f 303/323/2 1/1/1 213/553/474 563/243/472
f 563/243/472 213/553/474 81/81/210 214/554/475
f 215/555/473 563/243/472 214/554/475 82/82/121
f 3/3/12 307/327/10 564/244/476 216/556/477
f 307/327/10 2/2/5 215/555/473 564/244/476
f 564/244/476 215/555/473 82/82/121 366/386/124
f 216/556/477 564/244/476 366/386/124 84/84/129
f 4/4/18 310/330/16 565/245/478 218/558/479
f 310/330/16 3/3/12 216/556/477 565/245/478
f 565/245/478 216/556/477 84/84/129 217/557/480
f 218/558/479 565/245/478 217/557/480 85/85/130
f 5/5/24 313/333/22 566/246/481 219/559/482
f 313/333/22 4/4/18 218/558/479 566/246/481
f 566/246/481 218/558/479 85/85/130 370/390/133
f 219/559/482 566/246/481 370/390/133 86/86/138
f 6/6/30 316/336/28 567/247/483 221/561/484
f 316/336/28 5/5/24 219/559/482 567/247/483
f 567/247/483 219/559/482 86/86/138 220/560/485
f 221/561/484 567/247/483 220/560/485 87/87/139
f 7/7/36 319/339/34 568/248/486 222/562/487
f 319/339/34 6/6/30 221/561/484 568/248/486
f 568/248/486 221/561/484 87/87/139 374/394/142
f 222/562/487 568/248/486 374/394/142 88/88/147
f 8/8/42 322/342/40 569/249/488 224/564/489
f 322/342/40 7/7/36 222/562/487 569/249/488
f 569/249/488 222/562/487 88/88/147 223/563/490
f 224/564/489 569/249/488 223/563/490 89/89/148
f 9/9/48 325/345/46 570/250/491 225/565/492
f 325/345/46 8/8/42 224/564/489 570/250/491
f 570/250/491 224/564/489 89/89/148 378/398/151
f 225/565/492 570/250/491 378/398/151 90/90/156
f 10/10/54 328/348/52 571/251/493 227/567/494
f 328/348/52 9/9/48 225/565/492 571/251/493
f 571/251/493 225/565/492 90/90/156 226/566/495
f 227/567/494 571/251/493 226/566/495 91/91/157
f 11/11/60 331/351/58 572/252/496 228/568/497
f 331/351/58 10/10/54 227/567/494 572/252/496
f 572/252/496 227/567/494 91/91/157 382/402/160
f 228/568/497 572/252/496 382/402/160 92/92/165
f 12/12/66 334/354/64 573/253/498 230/570/499
f 334/354/64 11/11/60 228/568/497 573/253/498
f 573/253/498 228/568/497 92/92/165 229/569/500
f 230/570/499 573/253/498 229/569/500 93/93/166
f 13/13/72 337/357/70 574/254/501 231/571/502
f 337/357/70 12/12/66 230/570/499 574/254/501
f 574/254/501 230/570/499 93/93/166 386/406/169
f 231/571/502 574/254/501 386/406/169 94/94/174
f 14/14/78 340/360/76 575/255/503 233/573/504
f 340/360/76 13/13/72 231/571/502 575/255/503
f 575/255/503 231/571/502 94/94/174 232/572/505
f 233/573/504 575/255/503 232/572/505 95/95/175
f 15/15/84 343/363/82 576/256/506 234/574/507
f 343/363/82 14/14/78 233/573/504 576/256/506
f 576/256/506 233/573/504 95/95/175 390/410/178
f 234/574/507 576/256/506 390/410/178 96/96/183
f 16/16/90 346/366/88 577/257/508 236/576/509
f 346/366/88 15/15/84 234/574/507 577/257/508
f 577/257/508 234/574/507 96/96/183 235/575/510
f 236/576/509 577/257/508 235/575/510 97/97/184
f 17/17/96 349/369/94 578/258/511 237/577/512
f 349/369/94 16/16/90 236/576/509 578/258/511
f 578/258/511 236/576/509 97/97/184 394/414/187
f 237/577/512 578/258/511 394/414/187 98/98/192
f 18/18/102 352/372/100 579/259/513 239/579/514
f 352/372/100 17/17/96 237/577/512 579/259/513
f 579/259/513 237/577/512 98/98/192 238/578/515
f 239/579/514 579/259/513 238/578/515 99/99/193
f 19/19/108 355/375/106 580/260/516 240/580/517
f 355/375/106 18/18/102 239/579/514 580/260/516
f 580/260/516 239/579/514 99/99/193 398/418/196
f 240/580/517 580/260/516 398/418/196 100/100/201
f 20/20/114 358/378/112 581/261/518 242/582/519
f 358/378/112 19/19/108 240/580/517 581/261/518
f 581/261/518 240/580/517 100/100/201 241/581/520
f 242/582/519 581/261/518 241/581/520 101/101/202
f 1/1/1 361/381/118 582/262/521 213/553/474
f 361/381/118 20/20/114 242/582/519 582/262/521
f 582/262/521 242/582/519 101/101/202 402/422/205
f 213/553/474 582/262/521 402/422/205 81/81/210
f 22/22/468 209/549/467 583/263/522 244/584/523
f 209/549/467 23/23/462 243/583/524 583/263/522
f 583/263/522 243/583/524 282/622/525 622/302/526
f 244/584/523 583/263/522 622/302/526 263/603/527
f 23/23/462 206/546/461 584/264/528 243/583/524
f 206/546/461 24/24/456 245/585/529 584/264/528
f 584/264/528 245/585/529 281/621/530 621/301/531
f 243/583/524 584/264/528 621/301/531 282/622/525
f 24/24/456 203/543/455 585/265/532 245/585/529
f 203/543/455 25/25/450 246/586/533 585/265/532
f 585/265/532 246/586/533 280/620/534 620/300/535
f 245/585/529 585/265/532 620/300/535 281/621/530
f 25/25/450 200/540/449 586/266/536 246/586/533
f 200/540/449 26/26/444 247/587/537 586/266/536
f 586/266/536 247/587/537 279/619/538 619/299/539
f 246/586/533 586/266/536 619/299/539 280/620/534
f 26/26/444 197/537/443 587/267/540 247/587/537
f 197/537/443 27/27/438 248/588/541 587/267/540
f 587/267/540 248/588/541 278/618/542 618/298/543
f 247/587/537 587/267/540 618/298/543 279/619/538
f 27/27/438 194/534/437 588/268/544 248/588/541
f 194/534/437 28/28/432 249/589/545 588/268/544
f 588/268/544 249/589/545 277/617/546 617/297/547
f 248/588/541 588/268/544 617/297/547 278/618/542
f 28/28/432 191/531/431 589/269/548 249/589/545
f 191/531/431 29/29/426 250/590/549 589/269/548
f 589/269/548 250/590/549 276/616/550 616/296/551
f 249/589/545 589/269/548 616/296/551 277/617/546
f 29/29/426 188/528/425 590/270/552 250/590/549
f 188/528/425 30/30/420 251/591/553 590/270/552
f 590/270/552 251/591/553 275/615/554 615/295/555
f 250/590/549 590/270/552 615/295/555 276/616/550
f 30/30/420 185/525/419 591/271/556 251/591/553
f 185/525/419 31/31/414 252/592/557 591/271/556
f 591/271/556 252/592/557 274/614/558 614/294/559
f 251/591/553 591/271/556 614/294/559 275/615/554
f 31/31/414 182/522/413 592/272/560 252/592/557
f 182/522/413 32/32/408 253/593/561 592/272/560
f 592/272/560 253/593/561 273/613/562 613/293/563
f 252/592/557 592/272/560 613/293/563 274/614/558
f 32/32/408 179/519/407 593/273/564 253/593/561
f 179/519/407 33/33/402 254/594/565 593/273/564
f 593/273/564 254/594/565 272/612/566 612/292/567
f 253/593/561 593/273/564 612/292/567 273/613/562
f 33/33/402 176/516/401 594/274/568 254/594/565
f 176/516/401 34/34/396 255/595/569 594/274/568
f 594/274/568 255/595/569 271/611/570 611/291/571
f 254/594/565 594/274/568 611/291/571 272/612/566
f 34/34/396 173/513/395 595/275/572 255/595/569
f 173/513/395 35/35/390 256/596/573 595/275/572
f 595/275/572 256/596/573 270/610/574 610/290/575
f 255/595/569 595/275/572 610/290/575 271/611/570
f 35/35/390 170/510/389 596/276/576 256/596/573
f 170/510/389 36/36/384 257/597/577 596/276/576
f 596/276/576 257/597/577 269/609/578 609/289/579
f 256/596/573 596/276/576 609/289/579 270/610/574
f 36/36/384 167/507/383 597/277/580 257/597/577
f 167/507/383 37/37/378 258/598/581 597/277/580
f 597/277/580 258/598/581 268/608/582 608/288/583
f 257/597/577 597/277/580 608/288/583 269/609/578
f 37/37/378 164/504/377 598/278/584 258/598/581
f 164/504/377 38/38/372 259/599/585 598/278/584
f 598/278/584 259/599/585 267/607/586 607/287/587
f 258/598/581 598/278/584 607/287/587 268/608/582
f 38/38/372 481/501/371 599/279/588 259/599/585
f 481/501/371 39/39/366 260/600/589 599/279/588
f 599/279/588 260/600/589 266/606/590 606/286/591
f 259/599/585 599/279/588 606/286/591 267/607/586
f 39/39/366 478/498/365 600/280/592 260/600/589
f 478/498/365 40/40/360 261/601/593 600/280/592
f 600/280/592 261/601/593 265/605/594 605/285/595
f 260/600/589 600/280/592 605/285/595 266/606/590
f 40/40/360 475/495/359 601/281/596 261/601/593
f 475/495/359 21/21/358 262/602/597 601/281/596
f 601/281/596 262/602/597 264/604/598 604/284/599
f 261/601/593 601/281/596 604/284/599 265/605/594
f 21/21/358 212/552/471 602/282/600 262/602/597
f 212/552/471 22/22/468 244/584/523 602/282/600
f 602/282/600 244/584/523 263/603/527 603/283/601
f 262/602/597 602/282/600 603/283/601 264/604/598
f 603/283/601 263/603/527 102/102/215 432/452/271
f 264/604/598 603/283/601 432/452/271 122/122/270
f 604/284/599 264/604/598 122/122/270 431/451/269
f 265/605/594 604/284/599 431/451/269 121/121/267
f 605/285/595 265/605/594 121/121/267 429/449/266
f 266/606/590 605/285/595 429/449/266 120/120/265
f 606/286/591 266/606/590 120/120/265 428/448/264
f 267/607/586 606/286/591 428/448/264 119/119/261
f 607/287/587 267/607/586 119/119/261 426/446/260
f 268/608/582 607/287/587 426/446/260 118/118/259
f 608/288/583 268/608/582 118/118/259 425/445/258
f 269/609/578 608/288/583 425/445/258 117/117/255
f 609/289/579 269/609/578 117/117/255 423/443/254
f 270/610/574 609/289/579 423/443/254 116/116/253
f 610/290/575 270/610/574 116/116/253 422/442/252
f 271/611/570 610/290/575 422/442/252 115/115/249
f 611/291/571 271/611/570 115/115/249 420/440/248
f 272/612/566 611/291/571 420/440/248 114/114/247
f 612/292/567 272/612/566 114/114/247 419/439/246
f 273/613/562 612/292/567 419/439/246 113/113/243
f 613/293/563 273/613/562 113/113/243 417/437/242
f 274/614/558 613/293/563 417/437/242 112/112/241
f 614/294/559 274/614/558 112/112/241 416/436/240
f 275/615/554 614/294/559 416/436/240 111/111/237
f 615/295/555 275/615/554 111/111/237 414/434/236
f 276/616/550 615/295/555 414/434/236 110/110/235
f 616/296/551 276/616/550 110/110/235 413/433/234
f 277/617/546 616/296/551 413/433/234 109/109/231
f 617/297/547 277/617/546 109/109/231 411/431/230
f 278/618/542 617/297/547 411/431/230 108/108/229
f 618/298/543 278/618/542 108/108/229 410/430/228
f 279/619/538 618/298/543 410/430/228 107/107/225
f 619/299/539 279/619/538 107/107/225 408/428/224
f 280/620/534 619/299/539 408/428/224 106/106/223
f 620/300/535 280/620/534 106/106/223 407/427/222
f 281/621/530 620/300/535 407/427/222 105/105/219
f 621/301/531 281/621/530 105/105/219 405/425/218
f 282/622/525 621/301/531 405/425/218 104/104/217
f 622/302/526 282/622/525 104/104/217 404/424/216
f 263/603/527 622/302/526 404/424/216 102/102/215
f 124/124/277 434/454/276 473/493/353 62/62/352
f 434/454/276 123/123/275 61/61/356 473/493/353
f 125/125/281 436/456/280 477/497/362 63/63/361
f 436/456/280 124/124/277 62/62/352 477/497/362
f 126/126/285 438/458/284 480/500/368 64/64/367
f 438/458/284 125/125/281 63/63/361 480/500/368
f 127/127/289 440/460/288 163/503/374 65/65/373
f 440/460/288 126/126/285 64/64/367 163/503/374
f 128/128/293 442/462/292 166/506/380 66/66/379
f 442/462/292 127/127/289 65/65/373 166/506/380
f 129/129/297 444/464/296 169/509/386 67/67/385
f 444/464/296 128/128/293 66/66/379 169/509/386
f 130/130/301 446/466/300 172/512/392 68/68/391
f 446/466/300 129/129/297 67/67/385 172/512/392
f 131/131/305 448/468/304 175/515/398 69/69/397
f 448/468/304 130/130/301 68/68/391 175/515/398
f 132/132/309 450/470/308 178/518/404 70/70/403
f 450/470/308 131/131/305 69/69/397 178/518/404
f 133/133/313 452/472/312 181/521/410 71/71/409
f 452/472/312 132/132/309 70/70/403 181/521/410
f 134/134/317 454/474/316 184/524/416 72/72/415
f 454/474/316 133/133/313 71/71/409 184/524/416
f 135/135/321 456/476/320 187/527/422 73/73/421
f 456/476/320 134/134/317 72/72/415 187/527/422
f 136/136/325 458/478/324 190/530/428 74/74/427
f 458/478/324 135/135/321 73/73/421 190/530/428
f 137/137/329 460/480/328 193/533/434 75/75/433
f 460/480/328 136/136/325 74/74/427 193/533/434
f 138/138/333 462/482/332 196/536/440 76/76/439
f 462/482/332 137/137/329 75/75/433 196/536/440
f 139/139/337 464/484/336 199/539/446 77/77/445
f 464/484/336 138/138/333 76/76/439 199/539/446
f 140/140/341 466/486/340 202/542/452 78/78/451
f 466/486/340 139/139/337 77/77/445 202/542/452
f 141/141/345 468/488/344 205/545/458 79/79/457
f 468/488/344 140/140/341 78/78/451 205/545/458
f 142/142/349 470/490/348 208/548/464 80/80/463
f 470/490/348 141/141/345 79/79/457 208/548/464
f 123/123/275 472/492/351 211/551/469 61/61/356
f 472/492/351 142/142/349 80/80/463 211/551/469
f 144/144/190 392/412/189 623/303/602 285/625/603
f 392/412/189 154/154/188 283/623/604 623/303/602
f 623/303/602 283/623/604 143/143/181 284/624/605
f 285/625/603 623/303/602 284/624/605 83/83/606
f 145/145/199 396/416/198 624/304/607 287/627/608
f 396/416/198 155/155/197 286/626/609 624/304/607
f 624/304/607 286/626/609 144/144/190 285/625/603
f 287/627/608 624/304/607 285/625/603 83/83/606
f 146/146/208 400/420/207 625/305/610 289/629/611
f 400/420/207 156/156/206 288/628/612 625/305/610
f 625/305/610 288/628/612 145/145/199 287/627/608
f 289/629/611 625/305/610 287/627/608 83/83/606
f 147/147/127 364/384/126 626/306/613 291/631/614
f 364/384/126 157/157/125 290/630/615 626/306/613
f 626/306/613 290/630/615 146/146/208 289/629/611
f 291/631/614 626/306/613 289/629/611 83/83/606
f 148/148/136 368/388/135 627/307/616 293/633/617
f 368/388/135 158/158/134 292/632/618 627/307/616
f 627/307/616 292/632/618 147/147/127 291/631/614
f 293/633/617 627/307/616 291/631/614 83/83/606
f 149/149/145 372/392/144 628/308/619 295/635/620
f 372/392/144 159/159/143 294/634/621 628/308/619
f 628/308/619 294/634/621 148/148/136 293/633/617
f 295/635/620 628/308/619 293/633/617 83/83/606
f 150/150/154 376/396/153 629/309/622 297/637/623
f 376/396/153 160/160/152 296/636/624 629/309/622
f 629/309/622 296/636/624 149/149/145 295/635/620
f 297/637/623 629/309/622 295/635/620 83/83/606
f 151/151/163 380/400/162 630/310/625 299/639/626
f 380/400/162 161/161/161 298/638/627 630/310/625
f 630/310/625 298/638/627 150/150/154 297/637/623
f 299/639/626 630/310/625 297/637/623 83/83/606
f 152/152/172 384/404/171 631/311/628 301/641/629
f 384/404/171 162/162/170 300/640/630 631/311/628
f 631/311/628 300/640/630 151/151/163 299/639/626
f 301/641/629 631/311/628 299/639/626 83/83/606
f 143/143/181 388/408/180 632/312/631 284/624/605
f 388/408/180 153/153/179 302/642/632 632/312/631
f 632/312/631 302/642/632 152/152/172 301/641/629
f 284/624/605 632/312/631 301/641/629 83/83/606
f 95/95/175 232/572/505 633/313/633 387/407/176
f 232/572/505 94/94/174 385/405/173 633/313/633
f 633/313/633 385/405/173 152/152/172 302/642/632
f 387/407/176 633/313/633 302/642/632 153/153/179
f 97/97/184 235/575/510 634/314/634 391/411/185
f 235/575/510 96/96/183 389/409/182 634/314/634
f 634/314/634 389/409/182 143/143/181 283/623/604
f 391/411/185 634/314/634 283/623/604 154/154/188
f 99/99/193 238/578/515 635/315/635 395/415/194
f 238/578/515 98/98/192 393/413/191 635/315/635
f 635/315/635 393/413/191 144/144/190 286/626/609
f 395/415/194 635/315/635 286/626/609 155/155/197
f 101/101/202 241/581/520 636/316/636 399/419/203
f 241/581/520 100/100/201 397/417/200 636/316/636
f 636/316/636 397/417/200 145/145/199 288/628/612
f 399/419/203 636/316/636 288/628/612 156/156/206
f 82/82/121 214/554/475 637/317/637 363/383/122
f 214/554/475 81/81/210 401/421/209 637/317/637
f 637/317/637 401/421/209 146/146/208 290/630/615
f 363/383/122 637/317/637 290/630/615 157/157/125
f 85/85/130 217/557/480 638/318/638 367/387/131
f 217/557/480 84/84/129 365/385/128 638/318/638
f 638/318/638 365/385/128 147/147/127 292/632/618
f 367/387/131 638/318/638 292/632/618 158/158/134
f 87/87/139 220/560/485 639/319/639 371/391/140
f 220/560/485 86/86/138 369/389/137 639/319/639
f 639/319/639 369/389/137 148/148/136 294/634/621
f 371/391/140 639/319/639 294/634/621 159/159/143
f 89/89/148 223/563/490 640/320/640 375/395/149
f 223/563/490 88/88/147 373/393/146 640/320/640
f 640/320/640 373/393/146 149/149/145 296/636/624
f 375/395/149 640/320/640 296/636/624 160/160/152
f 91/91/157 226/566/495 641/321/641 379/399/158
f 226/566/495 90/90/156 377/397/155 641/321/641
f 641/321/641 377/397/155 150/150/154 298/638/627
f 379/399/158 641/321/641 298/638/627 161/161/161
f 93/93/166 229/569/500 642/322/642 383/403/167
f 229/569/500 92/92/165 381/401/164 642/322/642
f 642/322/642 381/401/164 151/151/163 300/640/630
f 383/403/167 642/322/642 300/640/630 162/162/170
