# This file uses centimeters as units for non-parametric coordinates.

mtllib SM_Shard_2.mtl
g default
v 5.458456 -0.278531 5.280811
v 5.216581 -0.154803 4.928596
v 5.603571 -0.371933 4.562305
v 5.411802 -0.242841 5.547832
v 5.392851 -0.228988 5.638008
v 5.049143 0.017935 7.151642
v 4.921085 0.092825 7.231018
v 4.968229 0.061519 7.401237
v 5.040346 0.022617 7.181747
v 4.779325 0.153149 7.926140
v 4.135796 0.509721 9.258797
v 4.111233 0.526076 9.249191
v 3.994959 0.603492 9.203728
v 4.040537 0.582096 9.024323
v 4.160202 0.525921 8.553307
v 4.216120 0.500354 8.318153
v 4.236780 0.490908 8.231277
v 4.397972 0.411605 7.676842
v 4.424784 0.335838 8.963516
v 4.329355 0.392673 9.073914
v 4.488420 0.357063 7.303978
v 4.618412 0.278673 6.768093
v 4.744316 0.162538 5.344837
v 4.676422 0.233698 6.467510
v 4.687599 0.224844 6.401707
v 4.697697 0.216845 6.342266
v 4.734615 0.176279 5.653992
v 4.743727 0.167745 5.545609
v 4.745411 0.163105 5.398121
v 4.559288 0.148389 4.128956
v 4.534132 0.147222 3.971172
v 4.494696 0.146376 3.733643
v 4.492058 0.145191 2.835821
v 5.468000 -0.268236 2.007421
v 4.494055 0.145191 3.164768
v 4.624668 0.145191 2.426861
v 4.643105 0.145191 2.370010
v 5.105349 0.145191 0.944487
v 5.043962 0.145191 -0.000001
v 4.626099 0.145191 -1.615291
v 5.399557 -0.372380 -2.069561
v 5.075029 0.145191 0.120094
v 4.661842 0.145191 -2.439981
v 4.687241 0.146742 -3.078070
v 4.659321 0.145191 -2.381794
v 4.660156 0.145191 -2.401079
v 4.518068 0.224667 -6.477669
v 4.764576 0.000784 -6.671181
v 4.570772 0.172394 -5.690525
v 4.551231 0.191998 -6.024185
v 4.530363 0.212736 -6.343811
v 4.526340 0.216845 -6.426147
v 4.462229 0.377324 -7.439423
v 4.496300 0.284179 -6.852596
v 4.300562 0.592965 -9.140488
v 4.295525 0.598569 -9.092957
v 4.287123 0.603492 -9.133736
v 4.291487 0.600074 -9.135933
v 4.764818 0.389950 -8.889900
v 4.896454 0.335838 -8.767883
v 4.937338 0.322134 -8.684143
v 4.549023 0.525910 -8.391953
v 4.317257 0.592083 -9.036674
v 4.354937 0.566378 -9.152641
v 4.460587 0.515876 -9.159180
v 4.473461 0.509721 -9.159981
v 4.512503 0.490908 -8.116920
v 4.921597 0.137026 -7.788567
v 4.908939 -0.011795 -7.068550
v 4.892483 -0.077869 -6.741901
v 4.902363 -0.044696 -6.910938
v 4.986094 -0.142291 -6.344582
v 4.963556 -0.126782 -6.440235
v 4.681913 0.149886 -4.182766
v 4.593582 0.163105 -5.508434
v 4.586836 0.165212 -5.579754
v 4.579002 0.168912 -5.628357
v 5.138819 -0.228988 -5.793514
v 5.197287 -0.261779 -5.571739
v 5.259024 -0.296406 -5.337551
v 5.353342 -0.347536 -4.931507
v 5.428904 -0.388497 -4.606220
v 4.686350 0.149495 -4.108727
v 4.687206 0.148535 -3.943443
v 5.439272 -0.396142 -4.548702
v 5.472048 -0.420252 -4.392578
v 5.524374 -0.458745 -4.143314
v 5.555220 -0.481496 -3.965839
v 5.576284 -0.497036 -3.844616
v 5.633360 -0.538832 -3.665947
v 5.673468 -0.568201 -3.540398
v 5.683771 -0.567796 -3.042942
v 5.637575 -0.533528 -2.706453
v 5.610048 -0.513209 -2.513222
v 5.608515 -0.509531 -2.321438
v 5.608438 -0.509382 -2.314205
v 5.684958 -0.575099 -3.508488
v 5.700834 -0.584518 -3.456228
v 5.738058 -0.606596 -3.333729
v 5.730730 -0.601394 -3.296986
v 5.698828 -0.578745 -3.137047
v 5.687040 -0.570174 -3.063377
v 5.597876 -0.505230 -2.127159
v 5.586748 -0.501433 -1.893797
v 5.581018 -0.499384 -1.779528
v 5.737978 -0.498164 -0.492887
v 5.790136 -0.497891 -0.066550
v 5.124491 0.145191 0.521950
v 5.599051 -0.497356 -1.614105
v 5.629660 -0.497974 -1.371165
v 5.702589 -0.498335 -0.782015
v 5.717192 -0.498339 -0.663395
v 5.786798 -0.497941 0.008231
v 5.783262 -0.497988 0.087311
v 5.756094 -0.497989 0.687180
v 5.751749 -0.497921 0.781571
v 5.730368 -0.497325 1.240533
v 5.742292 -0.503581 1.758801
v 5.731230 -0.497103 1.367747
v 5.731817 -0.497363 1.399726
v 5.732096 -0.497499 1.413068
v 5.737600 -0.500779 1.600207
v 5.755022 -0.505167 1.826981
v 5.818422 -0.513158 2.165688
v 5.828478 -0.516890 2.198360
v 5.851225 -0.525144 2.273911
v 5.927977 -0.555990 2.503202
v 5.957979 -0.567796 2.594980
v 5.990965 -0.581502 2.689680
v 6.032736 -0.598861 2.809612
v 5.985682 -0.575099 3.110550
v 5.929010 -0.544746 3.304285
v 5.841276 -0.497036 3.534655
v 5.670935 -0.407580 4.289871
v 5.649469 -0.396142 4.368996
v 6.045141 -0.606596 2.873207
v 6.003546 -0.584561 3.039249
v 10.738951 0.335838 1.482143
v 10.856321 0.335838 -0.000000
v 10.937201 0.509721 1.513544
v 10.392576 0.335838 2.928017
v 8.220007 -0.228988 1.083181
v 8.305784 -0.228988 -0.000001
v 11.057066 0.509721 -0.000000
v 10.970427 0.603492 -0.000000
v 10.851645 0.603492 -1.499992
v 10.105589 0.490908 -0.000000
v 10.851637 0.603492 1.499991
v 10.583487 0.509721 2.990047
v 7.966871 -0.228988 2.139858
v 7.418928 -0.396142 0.956303
v 7.494654 -0.396142 -0.000001
v 10.937208 0.509721 -1.513544
v 10.738951 0.335838 -1.482144
v 8.220011 -0.228988 -1.083183
v 10.501097 0.603492 -2.963278
v 9.997519 0.490908 -1.364713
v 9.678587 0.490908 -2.696030
v 9.997511 0.490908 1.364712
v 10.501089 0.603492 2.963276
v 10.001783 0.509721 4.392475
v 9.822935 0.335838 4.301350
v 7.550566 -0.228988 3.143520
v 7.195440 -0.396142 1.889204
v 7.015242 -0.497036 0.892365
v 7.085909 -0.497036 -0.000001
v 7.418928 -0.396142 -0.956305
v 10.583494 0.509721 -2.990051
v 9.924597 0.603492 -4.353149
v 9.154081 0.490908 -3.960552
v 8.455530 0.216845 -1.120486
v 8.544264 0.216845 -0.000001
v 8.455526 0.216845 1.120484
v 9.678579 0.490908 2.696026
v 9.924597 0.603492 4.353146
v 9.046713 0.335838 5.569420
v 6.949659 -0.575099 -0.000001
v 7.015242 -0.497036 -0.892367
v 6.880682 -0.575099 -0.871055
v 10.392576 0.335838 -2.928019
v 7.966871 -0.228988 -2.139860
v 7.195444 -0.396142 -1.889208
v 10.001783 0.509721 -4.392479
v 9.139029 0.603492 -5.636490
v 8.439356 0.490908 -5.128151
v 8.193674 0.216845 -2.213552
v 8.193674 0.216845 2.213551
v 9.154074 0.490908 3.960548
v 9.139021 0.603492 5.636486
v 9.209112 0.509721 5.687412
v 6.983282 -0.228988 4.070255
v 6.827898 -0.396142 2.775305
v 6.806700 -0.497036 1.762895
v 6.880682 -0.575099 0.871053
v 6.876230 -0.606596 -0.000001
v 6.808165 -0.606596 0.859567
v 6.655943 -0.567796 -0.000001
v 6.808165 -0.606596 -0.859569
v 6.806700 -0.497036 -1.762897
v 9.822943 0.335838 -4.301350
v 9.209120 0.509721 -5.687412
v 8.161249 0.603492 -6.780186
v 7.763033 0.216845 -3.251778
v 7.549765 0.490908 -6.168701
v 7.165396 0.163105 -2.729488
v 7.753111 0.177037 -2.070406
v 7.665037 0.163105 -1.191747
v 7.566622 0.163105 -0.000001
v 7.665037 0.163105 1.191745
v 7.753111 0.177037 2.070402
v 7.165396 0.163105 2.729485
v 7.763033 0.216845 3.251774
v 8.439352 0.490908 5.128147
v 8.222502 0.509721 6.841438
v 8.080572 0.335838 6.699509
v 6.590605 -0.567796 0.825109
v 6.590605 -0.567796 -0.825111
v 6.677122 -0.575099 -1.720794
v 6.607286 -0.606596 -1.698103
v 7.550570 -0.228988 -3.143522
v 6.827902 -0.396142 -2.775307
v 6.463732 -0.497036 -2.589754
v 9.046713 0.335838 -5.569420
v 8.222509 0.509721 -6.841446
v 7.017553 0.603492 -7.757965
v 7.176214 0.216845 -4.210426
v 6.509214 0.490908 -7.058292
v 6.445822 0.216845 -5.064762
v 7.176214 0.216845 4.210423
v 7.549761 0.490908 6.168697
v 8.161245 0.603492 6.780182
v 7.068472 0.509721 7.828049
v 6.950483 0.335838 7.665649
v 6.277208 -0.228988 4.896145
v 6.327063 -0.396142 3.593487
v 6.463732 -0.497036 2.589750
v 6.677118 -0.575099 1.720792
v 6.607286 -0.606596 1.698101
v 6.314894 -0.513177 0.001842
v 6.257895 -0.513198 -0.772862
v 6.397783 -0.567796 -1.630032
v 6.342344 -0.575099 -2.527903
v 6.983286 -0.228988 -4.070255
v 8.080572 0.335838 -6.699509
v 7.068476 0.509721 -7.828056
v 5.591490 0.216845 -5.795155
v 6.385290 0.163105 -3.635784
v 6.099867 0.145191 -1.533235
v 6.099867 0.145191 1.533233
v 6.385290 0.163105 3.635784
v 6.445822 0.216845 5.064758
v 7.017550 0.603492 7.757957
v 5.773539 0.509721 8.620720
v 6.397783 -0.567796 1.630030
v 6.262098 -0.513157 0.776481
v 5.839907 -0.497301 -0.708001
v 6.083315 -0.513211 -1.525657
v 6.080664 -0.567796 -2.394569
v 6.276922 -0.606596 -2.494570
v 5.886152 -0.575099 -3.273148
v 6.327066 -0.396142 -3.593487
v 5.996382 -0.497036 -3.353233
v 6.277208 -0.228988 -4.896149
v 6.950483 0.335838 -7.665649
v 5.734213 0.603492 -8.543533
v 5.773542 0.509721 -8.620720
v 5.341612 0.490908 -7.773018
v 5.764418 0.163105 -4.657772
v 5.450132 0.145191 -0.000001
v 5.764414 0.163105 4.657772
v 5.591486 0.216845 5.795151
v 6.509211 0.490908 7.058289
v 5.734209 0.603492 8.543526
v 5.682409 0.335838 8.441872
v 5.451319 -0.228988 5.602219
v 5.703695 -0.396142 4.322636
v 5.996378 -0.497036 3.353230
v 6.342340 -0.575099 2.527901
v 6.276922 -0.606596 2.494566
v 6.080660 -0.567796 2.394567
v 6.089415 -0.513148 1.529665
v 5.856722 -0.497139 0.722481
v 5.879168 -0.497220 0.007373
v 5.698595 -0.497355 -1.394056
v 5.783381 -0.513212 -2.234564
v 5.826750 -0.606596 -3.229988
v 5.703699 -0.396142 -4.322639
v 5.451319 -0.228988 -5.602222
v 5.682413 0.335838 -8.441879
v 4.344341 0.603492 -9.120033
v 4.632839 0.216845 -6.381973
v 5.319204 0.177037 -5.420391
v 4.673010 0.145191 -2.391741
v 4.673010 0.145191 2.391739
v 5.319204 0.177037 5.420387
v 5.341612 0.490908 7.773010
v 4.344339 0.603492 9.120026
v 4.371111 0.509721 9.202423
vt 0.484998 0.391298
vt 0.503773 0.442019
vt 0.497439 0.285188
vt 0.482817 0.337258
vt 0.228678 0.963863
vt 0.161746 0.943978
vt 0.104234 0.904384
vt 0.061773 0.848956
vt 0.479222 0.771930
vt 0.459338 0.838862
vt 0.419744 0.896374
vt 0.364316 0.938836
vt 0.298479 0.962090
vt 0.477697 0.392760
vt 0.475422 0.336392
vt 0.490674 0.282079
vt 0.521966 0.235139
vt 0.497281 0.445665
vt 0.358491 0.416653
vt 0.354666 0.322278
vt 0.380191 0.231341
vt 0.432569 0.152742
vt 0.506671 0.094177
vt 0.449858 0.579327
vt 0.391292 0.505225
vt 0.502218 0.387786
vt 0.513208 0.292442
vt 0.500579 0.339282
vt 0.196115 0.872056
vt 0.150927 0.855249
vt 0.398179 0.809638
vt 0.361962 0.841462
vt 0.332014 0.879244
vt 0.284009 0.883702
vt 0.237573 0.896666
vt 0.439184 0.400469
vt 0.436411 0.331823
vt 0.454985 0.265679
vt 0.493091 0.208513
vt 0.546997 0.165920
vt 0.505628 0.518804
vt 0.463035 0.464899
vt 0.490047 0.418265
vt 0.508590 0.260121
vt 0.485674 0.309972
vt 0.479285 0.364465
vt 0.512811 0.363166
vt 0.312805 0.843793
vt 0.242869 0.856695
vt 0.461135 0.365200
vt 0.468185 0.305063
vt 0.493474 0.250048
vt 0.534527 0.205541
vt 0.502655 0.477369
vt 0.473012 0.424573
vt 0.263723 0.968671
vt 0.333294 0.955834
vt 0.395494 0.922126
vt 0.444233 0.870848
vt 0.474741 0.807018
vt 0.078482 0.880134
vt 0.129760 0.928873
vt 0.193590 0.959381
vt 0.498991 0.414954
vt 0.516526 0.265411
vt 0.494856 0.312551
vt 0.488814 0.364080
vt 0.142913 0.909764
vt 0.096896 0.866024
vt 0.452502 0.800414
vt 0.425123 0.857695
vt 0.381384 0.903712
vt 0.325565 0.933961
vt 0.263132 0.945480
vt 0.200194 0.937142
vt 0.210659 0.901899
vt 0.262195 0.908728
vt 0.313317 0.899297
vt 0.359024 0.874530
vt 0.394839 0.836852
vt 0.126078 0.843663
vt 0.163757 0.879480
vt 0.517521 0.318478
vt 0.492401 0.417393
vt 0.501584 0.443248
vt 0.485420 0.419979
vt 0.482536 0.391791
vt 0.510679 0.261514
vt 0.495158 0.284139
vt 0.504484 0.257385
vt 0.488091 0.310651
vt 0.480323 0.336966
vt 0.480923 0.308639
vt 0.481793 0.364363
vt 0.474354 0.364665
vt 0.514203 0.340705
vt 0.514710 0.385086
vt 0.499524 0.363661
vt 0.217286 0.827766
vt 0.170196 0.862191
vt 0.382655 0.822998
vt 0.326382 0.807641
vt 0.344570 0.863064
vt 0.311603 0.880928
vt 0.275104 0.835427
vt 0.257241 0.890956
vt 0.220070 0.886030
vt 0.464723 0.395357
vt 0.435112 0.366255
vt 0.462280 0.334852
vt 0.443110 0.298025
vt 0.478651 0.276554
vt 0.471802 0.235606
vt 0.512239 0.226169
vt 0.518378 0.185108
vt 0.482223 0.493517
vt 0.485744 0.452144
vt 0.448589 0.433617
vt 0.352885 0.369615
vt 0.350269 0.418301
vt 0.263647 0.965708
vt 0.299017 0.965005
vt 0.363870 0.275811
vt 0.332307 0.953039
vt 0.365729 0.941442
vt 0.403304 0.189992
vt 0.393691 0.919774
vt 0.421893 0.898416
vt 0.467328 0.120560
vt 0.441791 0.869168
vt 0.462013 0.840140
vt 0.549674 0.074310
vt 0.471899 0.806174
vt 0.482161 0.772319
vt 0.487107 0.608590
vt 0.080834 0.878331
vt 0.102192 0.906534
vt 0.417675 0.544568
vt 0.131441 0.926431
vt 0.160468 0.946653
vt 0.371425 0.462222
vt 0.194433 0.956539
vt 0.491887 0.389920
vt 0.508980 0.411001
vt 0.503823 0.288122
vt 0.505062 0.315307
vt 0.489796 0.338076
vt 0.118173 0.889716
vt 0.170470 0.925720
vt 0.441080 0.830139
vt 0.405075 0.882435
vt 0.354672 0.921046
vt 0.294805 0.942191
vt 0.231333 0.943803
vt 0.186321 0.892545
vt 0.236156 0.907355
vt 0.288129 0.906035
vt 0.337151 0.888725
vt 0.378422 0.857108
vt 0.407907 0.814289
vt 0.143498 0.863064
vt 0.383982 0.509334
vt 0.363563 0.465137
vt 0.228289 0.966802
vt 0.444176 0.585493
vt 0.411098 0.549769
vt 0.482459 0.615569
vt 0.593595 0.053154
vt 0.502562 0.086867
vt 0.546760 0.066448
vt 0.426403 0.147060
vt 0.462127 0.113983
vt 0.372571 0.227842
vt 0.396326 0.185344
vt 0.346337 0.321306
vt 0.355796 0.273547
vt 0.344507 0.369957
vt 0.575000 0.450000
vt 0.525000 0.475000
vt 0.475000 0.500000
vt 0.450000 0.525000
vt 0.425000 0.550000
vt 0.450000 0.518015
vt 0.444077 0.525000
vt 0.444077 0.525000
vt 0.425000 0.547568
vt 0.440343 0.529142
vt 0.441268 0.528064
vt 0.424716 0.547846
vt 0.425000 0.547568
vt 0.422701 0.550000
vt 0.422701 0.550000
vt 0.418931 0.556069
vt 0.410854 0.568276
vt 0.411161 0.566574
vt 0.418931 0.556069
vt 0.425000 0.558268
vt 0.420593 0.563596
vt 0.419861 0.564384
vt 0.417879 0.566518
vt 0.413979 0.570870
vt 0.412494 0.572527
vt 0.410966 0.571653
vt 0.410644 0.571468
vt 0.425000 0.558268
vt 0.433934 0.550000
vt 0.428666 0.554876
vt 0.449336 0.535802
vt 0.447548 0.537165
vt 0.446320 0.538275
vt 0.438292 0.545034
vt 0.437673 0.545714
vt 0.436988 0.546466
vt 0.433934 0.550000
vt 0.450000 0.535334
vt 0.450000 0.535334
vt 0.466690 0.525000
vt 0.464208 0.526486
vt 0.462568 0.527488
vt 0.471947 0.520747
vt 0.466690 0.525000
vt 0.475000 0.518307
vt 0.475000 0.518307
vt 0.494332 0.500000
vt 0.479761 0.513798
vt 0.479180 0.514349
vt 0.504744 0.495256
vt 0.525000 0.487353
vt 0.506145 0.494709
vt 0.532920 0.480703
vt 0.532726 0.480867
vt 0.525000 0.487353
vt 0.539757 0.475000
vt 0.533312 0.480374
vt 0.574407 0.455160
vt 0.573532 0.455546
vt 0.570096 0.456961
vt 0.566526 0.458474
vt 0.575000 0.455011
vt 0.580154 0.453057
vt 0.575000 0.455011
vt 0.588220 0.450000
vt 0.608763 0.441436
vt 0.608776 0.441518
vt 0.608327 0.441673
vt 0.608736 0.441264
vt 0.607703 0.439230
vt 0.607786 0.439377
vt 0.608467 0.440580
vt 0.608736 0.441264
vt 0.608327 0.441673
vt 0.607649 0.441854
vt 0.600000 0.444115
vt 0.600000 0.437700
vt 0.601069 0.437524
vt 0.603134 0.438055
vt 0.588220 0.450000
vt 0.578834 0.446166
vt 0.588267 0.442393
vt 0.600000 0.437700
vt 0.600000 0.444115
vt 0.596713 0.445960
vt 0.576975 0.446909
vt 0.578834 0.446166
vt 0.575000 0.447749
vt 0.571408 0.449458
vt 0.575000 0.447749
vt 0.570269 0.450000
vt 0.550000 0.467918
vt 0.550000 0.457264
vt 0.553744 0.455832
vt 0.558418 0.454046
vt 0.561162 0.453088
vt 0.563761 0.452181
vt 0.570269 0.450000
vt 0.566526 0.458474
vt 0.565852 0.458809
vt 0.565315 0.459057
vt 0.564560 0.459468
vt 0.550767 0.467467
vt 0.539757 0.475000
vt 0.537786 0.462214
vt 0.539300 0.461741
vt 0.541455 0.461067
vt 0.542799 0.460439
vt 0.544767 0.459518
vt 0.547591 0.458313
vt 0.549360 0.457558
vt 0.550000 0.457264
vt 0.550000 0.467918
vt 0.548353 0.469047
vt 0.532306 0.464862
vt 0.532972 0.464250
vt 0.534334 0.462828
vt 0.534647 0.462502
vt 0.536494 0.462315
vt 0.537282 0.462236
vt 0.537786 0.462214
vt 0.525000 0.470483
vt 0.525079 0.470439
vt 0.527192 0.469272
vt 0.528982 0.467716
vt 0.532121 0.465031
vt 0.525000 0.470483
vt 0.520204 0.475000
vt 0.521231 0.474036
vt 0.523333 0.472075
vt 0.507041 0.481720
vt 0.508441 0.481007
vt 0.515399 0.477473
vt 0.518274 0.476022
vt 0.520204 0.475000
vt 0.504744 0.495256
vt 0.500000 0.497671
vt 0.500000 0.485312
vt 0.505030 0.482747
vt 0.494332 0.500000
vt 0.482475 0.492525
vt 0.488623 0.489987
vt 0.489889 0.489466
vt 0.497935 0.486159
vt 0.498996 0.485723
vt 0.500000 0.485312
vt 0.500000 0.497671
vt 0.477301 0.493915
vt 0.480015 0.493220
vt 0.480207 0.493169
vt 0.480666 0.493044
vt 0.482475 0.492525
vt 0.475000 0.494503
vt 0.475000 0.494503
vt 0.462546 0.500000
vt 0.464041 0.499478
vt 0.465222 0.499066
vt 0.466350 0.498643
vt 0.469182 0.497607
vt 0.470094 0.497234
vt 0.470490 0.497076
vt 0.474244 0.494934
vt 0.460663 0.502067
vt 0.461844 0.500351
vt 0.462546 0.500000
vt 0.450000 0.518015
vt 0.451396 0.516043
vt 0.451944 0.515208
vt 0.457479 0.507603
vt 0.458851 0.504896
vt 0.460157 0.502805
vt 0.519309 0.250533
vt 0.521114 0.245403
vt 0.520381 0.256500
vt 0.519480 0.252576
vt 0.519309 0.250533
vt 0.521091 0.259602
vt 0.520381 0.256500
vt 0.521712 0.262596
vt 0.521091 0.259602
vt 0.523333 0.270075
vt 0.521712 0.262596
vt 0.523784 0.272529
vt 0.523333 0.270075
vt 0.523987 0.273589
vt 0.523784 0.272529
vt 0.524448 0.291531
vt 0.524880 0.286565
vt 0.524731 0.284391
vt 0.523937 0.297390
vt 0.524448 0.291531
vt 0.524731 0.284391
vt 0.523987 0.273589
vt 0.523897 0.297807
vt 0.523937 0.297390
vt 0.523798 0.298807
vt 0.523897 0.297807
vt 0.521012 0.317019
vt 0.523360 0.302779
vt 0.523798 0.298807
vt 0.520531 0.319947
vt 0.521012 0.317019
vt 0.517488 0.338562
vt 0.520531 0.319947
vt 0.517088 0.341016
vt 0.517488 0.338562
vt 0.517088 0.341016
vt 0.516778 0.356828
vt 0.516710 0.343337
vt 0.516803 0.362224
vt 0.516778 0.356828
vt 0.516824 0.365978
vt 0.516803 0.362224
vt 0.516945 0.384624
vt 0.516824 0.365978
vt 0.517011 0.392316
vt 0.516945 0.384624
vt 0.517011 0.392316
vt 0.516368 0.401087
vt 0.516966 0.397543
vt 0.515165 0.408328
vt 0.516368 0.401087
vt 0.515165 0.408328
vt 0.514120 0.414351
vt 0.514148 0.414125
vt 0.513368 0.420330
vt 0.514120 0.414351
vt 0.511754 0.426276
vt 0.513368 0.420330
vt 0.509010 0.436652
vt 0.511754 0.426276
vt 0.508828 0.437281
vt 0.509010 0.436652
vt 0.508171 0.439550
vt 0.508828 0.437281
vt 0.506538 0.444456
vt 0.508171 0.439550
vt 0.506164 0.445585
vt 0.506538 0.444456
vt 0.506755 0.449618
vt 0.506164 0.445585
vt 0.507014 0.451348
vt 0.506755 0.449618
vt 0.507789 0.456609
vt 0.507206 0.452416
vt 0.507014 0.451348
vt 0.508659 0.462637
vt 0.507789 0.456609
vt 0.508832 0.466544
vt 0.508659 0.462637
vt 0.509096 0.472279
vt 0.508832 0.466544
vt 0.509728 0.480370
vt 0.509096 0.472279
vt 0.510136 0.485451
vt 0.509728 0.480370
vt 0.511344 0.497871
vt 0.510237 0.487309
vt 0.510136 0.485451
vt 0.512749 0.511081
vt 0.511344 0.497871
vt 0.513775 0.518728
vt 0.512749 0.511081
vt 0.514763 0.525982
vt 0.513775 0.518728
vt 0.517726 0.547192
vt 0.517395 0.544066
vt 0.514763 0.525982
vt 0.517837 0.562442
vt 0.518809 0.557078
vt 0.517726 0.547192
vt 0.513748 0.590399
vt 0.517004 0.567452
vt 0.517837 0.562442
vt 0.510771 0.621817
vt 0.509797 0.618993
vt 0.513748 0.590399
vt 0.514142 0.626682
vt 0.510771 0.621817
vt 0.521855 0.637589
vt 0.514142 0.626682
vt 0.060589 0.852204
vt 0.060576 0.852541
vt 0.060741 0.849515
vt 0.060589 0.852204
vt 0.060741 0.849515
vt 0.061153 0.847825
vt 0.061024 0.848087
vt 0.061217 0.847704
vt 0.061153 0.847825
vt 0.063576 0.847978
vt 0.062190 0.847722
vt 0.061217 0.847704
vt 0.063576 0.847978
vt 0.085531 0.848510
vt 0.079362 0.850524
vt 0.114650 0.842594
vt 0.100963 0.844386
vt 0.085531 0.848510
vt 0.124622 0.841420
vt 0.123398 0.841455
vt 0.114650 0.842594
vt 0.126519 0.841164
vt 0.124622 0.841420
vt 0.133911 0.840285
vt 0.126519 0.841164
vt 0.143070 0.839243
vt 0.141616 0.839318
vt 0.133911 0.840285
vt 0.144215 0.839214
vt 0.143070 0.839243
vt 0.145870 0.839067
vt 0.144215 0.839214
vt 0.176476 0.835503
vt 0.145870 0.839067
vt 0.176476 0.835503
vt 0.181957 0.834618
vt 0.178183 0.835293
vt 0.181957 0.834618
vt 0.216139 0.827714
vt 0.201693 0.830978
vt 0.217019 0.827512
vt 0.216139 0.827714
vt 0.217455 0.827412
vt 0.217019 0.827512
vt 0.273395 0.826163
vt 0.234797 0.823429
vt 0.217455 0.827412
vt 0.285637 0.825804
vt 0.276264 0.826367
vt 0.273395 0.826163
vt 0.325761 0.807050
vt 0.295194 0.823590
vt 0.326980 0.806390
vt 0.325761 0.807050
vt 0.343259 0.800307
vt 0.335749 0.801645
vt 0.326980 0.806390
vt 0.361819 0.797828
vt 0.356236 0.797928
vt 0.343259 0.800307
vt 0.365523 0.797737
vt 0.361819 0.797828
vt 0.365523 0.797737
vt 0.395253 0.796644
vt 0.394033 0.796843
vt 0.398611 0.795986
vt 0.395253 0.796644
vt 0.401053 0.795326
vt 0.398611 0.795986
vt 0.416626 0.791595
vt 0.401053 0.795326
vt 0.417954 0.791121
vt 0.416626 0.791595
vt 0.419426 0.790592
vt 0.417954 0.791121
vt 0.437953 0.782851
vt 0.426125 0.788028
vt 0.419426 0.790592
vt 0.437953 0.782851
vt 0.458321 0.773208
vt 0.446189 0.779219
vt 0.460230 0.772371
vt 0.458321 0.773208
vt 0.465400 0.770101
vt 0.460230 0.772371
vt 0.475729 0.765383
vt 0.465400 0.770101
vt 0.479663 0.763581
vt 0.475729 0.765383
vt 0.481970 0.766152
vt 0.479663 0.763581
vt 0.482459 0.766672
vt 0.481970 0.766152
vt 0.594705 0.058688
vt 0.601300 0.052236
vt 0.591404 0.062465
vt 0.594705 0.058688
vt 0.591404 0.062465
vt 0.565536 0.117101
vt 0.568605 0.110356
vt 0.576466 0.094290
vt 0.548971 0.165008
vt 0.565153 0.118027
vt 0.565536 0.117101
vt 0.548054 0.167802
vt 0.548971 0.165008
vt 0.545642 0.176094
vt 0.548054 0.167802
vt 0.536403 0.204283
vt 0.538532 0.198328
vt 0.535457 0.206717
vt 0.536403 0.204283
vt 0.527503 0.230015
vt 0.535457 0.206717
vt 0.524184 0.237184
vt 0.527503 0.230015
vt 0.521885 0.243205
vt 0.524184 0.237184
vt 0.521114 0.245403
vt 0.521885 0.243205
vn -0.488609 -0.872014 0.029214
vn -0.471084 -0.881760 0.024070
vn -0.494602 -0.869089 -0.007371
vn -0.525623 -0.850713 0.002758
vn -0.490335 -0.870992 0.030741
vn -0.490257 -0.871034 0.030794
vn -0.490453 -0.870935 0.030459
vn -0.512170 -0.858733 -0.016088
vn -0.492595 -0.869939 -0.023570
vn -0.542981 -0.838888 -0.037933
vn -0.540685 -0.840562 -0.033386
vn -0.543456 -0.838575 -0.038056
vn -0.543455 -0.838575 -0.038056
vn -0.543446 -0.838581 -0.038059
vn -0.543454 -0.838576 -0.038056
vn -0.543453 -0.838577 -0.038056
vn -0.543456 -0.838575 -0.038053
vn -0.543452 -0.838577 -0.038056
vn -0.543465 -0.838569 -0.038054
vn -0.543455 -0.838576 -0.038055
vn -0.535036 -0.844762 0.010679
vn -0.521410 -0.853305 -0.001660
vn -0.534899 -0.844120 0.036660
vn -0.545148 -0.838098 0.020117
vn -0.545359 -0.837961 0.020138
vn -0.545332 -0.837978 0.020137
vn -0.545339 -0.837974 0.020137
vn -0.545308 -0.837994 0.020128
vn -0.545333 -0.837978 0.020136
vn -0.389675 -0.920947 0.003290
vn -0.502061 -0.860504 0.086418
vn -0.502055 -0.860508 0.086412
vn -0.508020 -0.858511 -0.069820
vn -0.388364 -0.921503 0.002357
vn -0.413396 -0.909957 -0.032894
vn -0.497996 -0.852011 -0.161482
vn -0.497997 -0.852010 -0.161483
vn -0.632185 -0.770261 -0.083905
vn -0.647774 -0.757298 0.082998
vn -0.498116 -0.857482 0.128858
vn -0.565475 -0.823456 0.046468
vn -0.512838 -0.852819 0.098477
vn -0.584929 -0.811073 -0.004353
vn -0.565879 -0.824123 -0.024527
vn -0.565879 -0.824124 -0.024526
vn -0.565880 -0.824123 -0.024523
vn -0.580568 -0.813742 0.027663
vn -0.674005 -0.738717 -0.003929
vn -0.611424 -0.789119 -0.058761
vn -0.674001 -0.738721 -0.003927
vn -0.674008 -0.738714 -0.003934
vn -0.696331 -0.715248 -0.059528
vn -0.571171 -0.803262 -0.168918
vn -0.700934 -0.709589 -0.071935
vn -0.444576 -0.893843 0.058277
vn -0.429958 -0.900809 0.060654
vn -0.607256 -0.793967 0.029259
vn -0.607210 -0.794003 0.029257
vn -0.427384 -0.902005 0.061070
vn -0.427395 -0.902001 0.061062
vn -0.427419 -0.901990 0.061053
vn -0.512343 -0.854573 -0.084906
vn -0.502112 -0.862286 -0.065931
vn -0.427386 -0.902005 0.061059
vn -0.427402 -0.901997 0.061067
vn -0.427395 -0.902001 0.061059
vn -0.558936 -0.810008 -0.177420
vn -0.558607 -0.810263 -0.177294
vn -0.558606 -0.810263 -0.177294
vn -0.556195 -0.826514 -0.086730
vn -0.588002 -0.786536 -0.188722
vn -0.572900 -0.819085 0.029748
vn -0.528960 -0.848548 -0.012959
vn -0.573177 -0.818881 0.030026
vn -0.584982 -0.811037 0.003924
vn -0.573177 -0.818881 0.030026
vn -0.573840 -0.818469 0.028590
vn -0.573177 -0.818882 0.030026
vn -0.573178 -0.818880 0.030029
vn -0.573176 -0.818882 0.030025
vn -0.573176 -0.818882 0.030026
vn -0.573175 -0.818883 0.030029
vn -0.573174 -0.818883 0.030029
vn -0.587070 -0.809535 -0.001550
vn -0.587436 -0.809269 -0.001654
vn -0.587438 -0.809267 -0.001648
vn -0.587436 -0.809269 -0.001657
vn -0.587436 -0.809269 -0.001654
vn -0.587435 -0.809270 -0.001657
vn -0.587436 -0.809269 -0.001652
vn -0.587436 -0.809269 -0.001655
vn -0.538679 -0.842428 0.011839
vn -0.538689 -0.842421 0.011837
vn -0.437347 -0.898918 -0.025947
vn -0.262767 -0.961222 0.083703
vn -0.214779 -0.973402 0.079734
vn -0.236156 -0.968821 0.074936
vn -0.178320 -0.980761 0.079437
vn -0.257312 -0.964252 0.063318
vn -0.261197 -0.963422 0.059948
vn -0.543212 -0.839572 0.006361
vn -0.508510 -0.860969 0.012276
vn -0.653642 -0.752630 0.079383
vn -0.559142 -0.828967 -0.013171
vn -0.559141 -0.828968 -0.013176
vn -0.654790 -0.751502 0.080589
vn -0.654784 -0.751507 0.080590
vn -0.654780 -0.751511 0.080592
vn -0.654785 -0.751507 0.080588
vn -0.654782 -0.751509 0.080589
vn -0.659093 -0.748560 0.072491
vn -0.692672 -0.721238 0.004656
vn -0.708343 -0.705156 -0.031690
vn -0.708995 -0.704482 -0.032116
vn -0.708996 -0.704481 -0.032114
vn -0.708994 -0.704483 -0.032115
vn -0.708994 -0.704483 -0.032117
vn -0.648171 -0.761473 0.005722
vn -0.648168 -0.761476 0.005713
vn -0.648158 -0.761484 0.005733
vn -0.648169 -0.761475 0.005721
vn -0.638883 -0.768959 0.023047
vn -0.443538 -0.896023 -0.020425
vn -0.598304 -0.795831 0.093201
vn -0.598334 -0.795804 0.093231
vn -0.598328 -0.795809 0.093225
vn -0.327274 -0.944911 -0.005832
vn -0.315735 -0.948804 -0.009090
vn -0.336353 -0.941639 0.013518
vn -0.598326 -0.795812 0.093217
vn -0.495714 -0.868439 -0.008943
vn -0.495722 -0.868435 -0.008943
vn -0.495720 -0.868436 -0.008943
vn -0.495725 -0.868433 -0.008942
vn -0.495717 -0.868438 -0.008946
vn -0.495721 -0.868436 -0.008943
vn 0.152600 -0.978502 0.138733
vn 0.261411 -0.964313 0.042007
vn 0.264792 -0.964305 0.000605
vn 0.909923 -0.388813 0.144445
vn 0.251646 -0.964305 0.082400
vn 0.210482 -0.976999 0.034212
vn 0.213230 -0.977002 0.000876
vn 0.921308 -0.388832 0.000330
vn -0.007337 0.999973 0.000236
vn -0.007325 0.999972 0.001397
vn -0.155656 0.987811 0.000433
vn -0.007398 0.999972 -0.000935
vn 0.876124 -0.388812 0.285013
vn 0.202523 -0.977002 0.066724
vn 0.210605 -0.976983 0.033915
vn 0.213292 -0.976988 0.000559
vn 0.910016 -0.388834 -0.143802
vn 0.261597 -0.964313 -0.040828
vn 0.210753 -0.976999 -0.032503
vn -0.006905 0.999973 0.002492
vn -0.153697 0.987807 0.024777
vn -0.147904 0.987811 0.048513
vn -0.153831 0.987807 -0.023931
vn -0.007051 0.999973 -0.002043
vn 0.820746 -0.388827 0.418556
vn 0.235635 -0.964313 0.120732
vn 0.189608 -0.976999 0.097581
vn 0.202680 -0.976988 0.066443
vn 0.301645 -0.952199 0.048252
vn 0.305403 -0.952223 0.000477
vn 0.210777 -0.976983 -0.032823
vn 0.876317 -0.388834 -0.284387
vn -0.006536 0.999972 0.003592
vn -0.138518 0.987807 0.071059
vn -0.137419 0.990295 0.020765
vn -0.132088 0.991238 0.000420
vn -0.137555 0.990294 -0.019904
vn -0.148172 0.987811 -0.047688
vn -0.006747 0.999972 -0.003176
vn 0.213866 -0.964305 0.156130
vn 0.465504 -0.885046 0.000354
vn 0.301792 -0.952199 -0.047321
vn 0.459838 -0.885040 -0.072476
vn 0.252019 -0.964305 -0.081250
vn 0.203064 -0.977002 -0.065059
vn 0.203026 -0.976988 -0.065379
vn 0.821045 -0.388814 -0.417982
vn -0.005796 0.999973 0.004504
vn -0.125673 0.987811 0.091843
vn -0.143518 0.988524 0.047155
vn -0.143826 0.988524 -0.046208
vn -0.138907 0.987807 -0.070296
vn -0.006074 0.999973 -0.004121
vn 0.745165 -0.388818 0.541802
vn 0.171992 -0.977002 0.126042
vn 0.189816 -0.976983 0.097336
vn 0.290307 -0.952224 0.094828
vn 0.459728 -0.885041 0.073165
vn -0.010964 -0.999940 -0.000113
vn -0.010953 -0.999938 -0.001848
vn -0.164840 -0.986320 -0.000415
vn -0.010986 -0.999938 0.001627
vn 0.290601 -0.952224 -0.093920
vn 0.236177 -0.964313 -0.119669
vn 0.745545 -0.388840 -0.541263
vn -0.005106 0.999972 0.005435
vn -0.122984 0.990294 0.064750
vn -0.109780 0.987807 0.110386
vn -0.025856 0.999537 0.016064
vn -0.060634 0.997966 0.019701
vn -0.030360 0.999537 0.002201
vn -0.022890 0.999738 -0.000000
vn -0.030360 0.999537 -0.002201
vn -0.060634 0.997966 -0.019701
vn -0.025856 0.999537 -0.016064
vn -0.123380 0.990295 -0.063973
vn -0.126183 0.987811 -0.091141
vn 0.651242 -0.388807 0.651700
vn 0.186794 -0.964313 0.187638
vn -0.164805 -0.985984 -0.025959
vn -0.164054 -0.986123 0.025461
vn 0.442834 -0.885043 -0.143513
vn -0.010460 -0.999940 0.003280
vn 0.190393 -0.976999 -0.096039
vn 0.190318 -0.976983 -0.096352
vn 0.272398 -0.952199 -0.138265
vn 0.214576 -0.964305 -0.155152
vn 0.651695 -0.388824 -0.651237
vn -0.004121 0.999973 0.006074
vn -0.106615 0.991238 0.077980
vn -0.091141 0.987811 0.126183
vn -0.098969 0.990295 0.097572
vn -0.107109 0.991238 -0.077300
vn -0.110386 0.987807 -0.109780
vn -0.005436 0.999972 -0.005105
vn 0.541270 -0.388817 0.745552
vn 0.155152 -0.964305 0.214577
vn 0.150174 -0.976999 0.151397
vn 0.172228 -0.976988 0.125822
vn 0.271970 -0.952199 0.139105
vn 0.442615 -0.885044 0.144186
vn -0.010391 -0.999940 -0.003495
vn -0.096457 -0.995337 -0.000048
vn -0.096273 -0.995250 0.014433
vn -0.158920 -0.985942 0.051597
vn 0.414931 -0.885042 -0.211027
vn 0.173021 -0.977002 -0.124625
vn 0.187638 -0.964313 -0.186794
vn 0.541795 -0.388841 -0.745158
vn -0.091247 0.987855 0.125761
vn -0.020669 0.999661 0.015833
vn -0.006004 0.999980 0.001951
vn -0.006004 0.999980 -0.001951
vn -0.020547 0.999665 -0.015746
vn -0.099585 0.990294 -0.096956
vn -0.004503 0.999973 -0.005797
vn 0.417980 -0.388813 0.821047
vn -0.161018 -0.985601 -0.051612
vn -0.100182 -0.994857 -0.014940
vn -0.031467 -0.999496 0.004235
vn -0.103795 -0.994044 0.033205
vn -0.149526 -0.986048 0.073153
vn -0.001867 -0.999998 -0.000068
vn 0.390584 -0.883320 -0.259212
vn 0.172294 -0.977330 -0.123048
vn 0.241643 -0.955882 -0.167026
vn 0.152393 -0.976873 -0.149986
vn 0.166845 -0.960888 -0.221036
vn -0.005286 0.999916 0.011829
vn 0.444905 -0.304433 -0.842247
vn -0.072908 0.988391 0.133294
vn -0.026805 0.999390 0.022375
vn -0.004984 0.999988 -0.000000
vn -0.026593 0.999405 -0.021965
vn -0.090928 0.988223 -0.123074
vn -0.091882 0.987893 -0.124999
vn 0.002623 0.999959 0.008731
vn 0.141646 -0.955152 0.260040
vn 0.131812 -0.976589 0.170001
vn 0.148087 -0.978700 0.142183
vn 0.216927 -0.963986 0.153862
vn 0.418504 -0.883252 0.211474
vn 0.018126 -0.999759 0.012359
vn -0.153338 -0.985734 -0.069393
vn -0.109784 -0.993363 -0.034319
vn -0.033024 -0.999447 -0.003919
vn -0.032385 -0.999475 0.000497
vn -0.031704 -0.999459 0.008798
vn -0.110089 -0.992573 0.051753
vn 0.029657 -0.999364 -0.019783
vn 0.154066 -0.977846 -0.141707
vn 0.133904 -0.976631 -0.168111
vn 0.145578 -0.954409 -0.260597
vn -0.006355 0.999875 0.014445
vn -0.080488 0.987227 0.137491
vn -0.038684 0.997914 0.051689
vn -0.003131 0.999983 0.004966
vn -0.004440 0.999981 -0.004370
vn -0.040353 0.997827 -0.052087
vn -0.072658 0.988551 -0.132237
vn 0.014727 0.999104 0.039672
vn 0.352976 -0.234807 0.905690
vn 0.337130 -0.918562 0.206368
vn -0.148397 -0.984747 -0.090840
vn -0.144874 -0.985468 -0.088683
vn -0.136927 -0.986911 -0.085193
vn -0.038410 -0.999128 -0.016382
vn -0.035556 -0.999230 -0.016604
vn -0.038411 -0.999128 -0.016382
vn -0.038643 -0.999130 -0.015674
vn -0.040640 -0.999131 -0.009258
vn -0.037684 -0.999263 -0.007273
vn 0.008403 -0.999963 0.001690
vn 0.008376 -0.999964 0.001637
vn 0.008297 -0.999965 0.000445
vn 0.008302 -0.999965 0.000351
vn 0.007808 -0.999969 -0.000276
vn 0.007844 -0.999969 -0.000298
vn 0.007808 -0.999970 -0.000315
vn 0.008330 -0.999965 -0.000355
vn 0.008402 -0.999964 -0.001609
vn 0.008277 -0.999964 -0.002111
vn -0.034740 -0.999273 0.015720
vn -0.034669 -0.999289 0.014794
vn -0.035662 -0.999234 0.016135
vn -0.033630 -0.999304 0.016175
vn -0.030447 -0.999357 0.018951
vn -0.031171 -0.999306 0.020415
vn 0.300418 -0.918579 -0.256832
vn 0.373415 -0.871003 -0.319241
vn 0.378752 -0.867004 -0.323806
vn 0.378754 -0.867003 -0.323808
vn 0.196709 -0.965932 -0.168170
vn 0.182690 -0.970686 -0.156185
vn 0.179844 -0.970751 -0.159054
vn 0.156185 -0.970686 -0.182690
vn 0.132952 -0.978846 -0.155515
vn 0.131550 -0.979295 -0.153873
vn 0.131549 -0.979295 -0.153873
vn 0.126777 -0.979370 -0.157360
vn 0.105690 -0.979295 -0.172660
vn 0.113091 -0.976257 -0.184749
vn 0.113219 -0.976203 -0.184960
vn 0.113219 -0.976203 -0.184959
vn 0.113220 -0.976203 -0.184959
vn 0.112670 -0.976213 -0.185241
vn 0.083090 -0.976203 -0.200311
vn 0.083088 -0.976203 -0.200312
vn 0.236636 -0.786466 -0.570504
vn 0.083087 -0.976203 -0.200313
vn 0.251299 -0.754849 -0.605848
vn 0.343282 -0.444065 -0.827625
vn 0.281800 0.677504 -0.679394
vn 0.280559 0.677501 -0.679911
vn 0.171303 0.677653 -0.715152
vn 0.171368 0.677371 -0.715403
vn -0.012908 0.998463 0.053897
vn -0.030149 0.991582 0.125923
vn -0.049495 0.991582 0.119644
vn -0.049611 0.991581 0.119607
vn -0.060136 0.987605 0.144981
vn -0.066441 0.984849 0.160181
vn -0.066442 0.984849 0.160181
vn -0.066440 0.984849 0.160182
vn -0.045259 0.992998 0.109114
vn -0.016342 0.997845 0.063552
vn -0.037011 0.997462 0.060830
vn -0.035673 0.996913 0.069945
vn -0.037208 0.997457 0.060784
vn -0.031276 0.997074 0.069747
vn -0.010916 0.999828 0.015025
vn -0.008407 0.999927 0.008668
vn -0.009088 0.999955 0.002807
vn -0.009640 0.999936 0.005857
vn -0.008954 0.999958 0.002073
vn -0.008955 0.999958 0.002073
vn 0.000000 1.000000 -0.000000
vn 0.000000 1.000000 -0.000000
vn 0.000000 1.000000 -0.000000
vn 0.000001 1.000000 -0.000000
vn 0.000000 1.000000 0.000000
vn 0.000000 1.000000 0.000000
vn 0.000001 1.000000 0.000000
vn -0.000000 1.000000 -0.000000
vn -0.000000 1.000000 -0.000000
vn 0.000002 1.000000 0.000000
vn -0.008923 0.999958 -0.002066
vn -0.008955 0.999958 -0.002073
vn -0.009232 0.999951 -0.003603
vn -0.008669 0.999930 -0.008070
vn -0.021338 0.999341 -0.029370
vn -0.007613 0.999916 -0.010478
vn -0.028427 0.997993 -0.056583
vn -0.036508 0.997220 -0.064964
vn -0.077096 0.989037 -0.125948
vn -0.090537 0.984849 -0.147902
vn -0.088322 0.984879 -0.149038
vn -0.066441 0.984849 -0.160181
vn -0.066442 0.984849 -0.160181
vn -0.055825 0.989328 -0.134588
vn -0.066441 0.984849 -0.160182
vn -0.049611 0.991581 -0.119607
vn -0.048628 0.991591 -0.119927
vn -0.030167 0.991581 -0.125924
vn 0.037578 0.986907 0.156852
vn 0.171370 0.677466 0.715313
vn 0.211504 -0.419312 0.882861
vn 0.243901 -0.755123 0.608524
vn 0.125195 -0.945105 0.301832
vn 0.091807 -0.976317 0.195897
vn 0.083086 -0.976203 0.200314
vn 0.083087 -0.976203 0.200313
vn 0.113183 -0.976218 0.184902
vn 0.113219 -0.976203 0.184959
vn 0.128718 -0.979344 0.155937
vn 0.131902 -0.979183 0.154283
vn 0.131524 -0.979299 0.153868
vn 0.131551 -0.979294 0.153872
vn 0.181382 -0.970716 0.157513
vn 0.189411 -0.968454 0.161929
vn 0.404691 -0.867668 0.288752
vn 0.423346 -0.868114 0.259144
s 1
g SM_Shard_2 SM_broken_plate
usemtl aiStandardSurface1SG
f 1/184/1 2/181/2 3/183/3
f 2/181/2 1/185/1 7/182/4
f 1/185/1 4/188/5 7/182/4
f 4/188/5 5/187/6 7/182/4
f 5/187/6 6/186/7 7/182/4
f 6/190/7 9/189/8 7/182/4
f 8/191/9 7/182/4 9/189/8
f 10/193/10 7/182/4 8/192/9
f 7/182/4 10/196/10 18/197/11
f 18/197/11 10/196/10 17/198/12
f 10/196/10 19/195/13 17/198/12
f 17/198/12 19/195/13 16/199/14
f 16/199/14 19/195/13 15/200/15
f 15/200/15 19/195/13 14/201/16
f 19/195/13 20/194/17 14/201/16
f 20/194/17 11/204/18 14/201/16
f 11/204/18 12/203/19 14/201/16
f 12/203/19 13/202/20 14/201/16
f 22/206/21 7/182/4 21/207/22
f 21/207/22 7/182/4 18/205/11
f 2/181/2 7/182/4 23/215/23
f 23/215/23 7/182/4 29/208/24
f 29/208/24 7/182/4 28/209/25
f 28/209/25 7/182/4 27/210/26
f 27/210/26 7/182/4 26/211/27
f 26/211/27 7/182/4 25/212/28
f 25/212/28 7/182/4 24/213/29
f 7/182/4 22/214/21 24/213/29
f 32/217/30 2/181/2 31/218/31
f 31/218/31 2/181/2 30/219/32
f 30/219/32 2/181/2 23/216/23
f 2/181/2 32/221/30 34/180/33
f 32/221/30 35/220/34 34/180/33
f 33/222/35 34/180/33 35/220/34
f 33/223/35 36/226/36 34/180/33
f 36/226/36 37/225/37 34/180/33
f 37/225/37 38/224/38 34/180/33
f 42/227/39 39/229/40 41/179/41
f 39/229/40 40/228/42 41/179/41
f 44/233/43 41/179/41 43/234/44
f 40/232/42 45/231/45 41/179/41
f 43/234/44 41/179/41 46/230/46
f 41/179/41 45/231/45 46/230/46
f 49/238/47 50/237/48 48/178/49
f 50/237/48 51/236/50 48/178/49
f 51/236/50 52/235/51 48/178/49
f 47/239/52 48/178/49 52/235/51
f 53/242/53 48/178/49 54/240/54
f 54/240/54 48/178/49 47/241/52
f 55/246/55 56/245/56 58/243/57
f 56/245/56 57/244/58 58/243/57
f 55/250/55 64/249/59 56/251/56
f 56/251/56 64/249/59 63/252/60
f 64/249/59 65/248/61 63/252/60
f 62/253/62 63/252/60 61/254/63
f 61/254/63 63/252/60 60/255/64
f 60/255/64 63/252/60 59/256/65
f 59/256/65 63/252/60 66/247/66
f 63/252/60 65/248/61 66/247/66
f 48/178/49 53/257/53 69/258/67
f 69/258/67 53/257/53 68/259/68
f 53/257/53 67/262/69 68/259/68
f 61/260/63 68/259/68 62/261/62
f 67/262/69 62/261/62 68/259/68
f 70/265/70 48/178/49 71/263/71
f 71/263/71 48/178/49 69/264/67
f 72/268/72 48/178/49 73/266/73
f 73/266/73 48/178/49 70/267/70
f 48/178/49 72/275/72 49/276/47
f 72/275/72 78/274/74 49/276/47
f 83/269/75 74/280/76 82/270/77
f 74/280/76 75/279/78 82/270/77
f 82/270/77 75/279/78 81/271/79
f 81/271/79 75/279/78 80/272/80
f 80/272/80 75/279/78 79/273/81
f 79/273/81 75/279/78 78/274/74
f 75/279/78 76/278/82 78/274/74
f 76/278/82 77/277/83 78/274/74
f 77/277/83 49/276/47 78/274/74
f 41/179/41 44/281/43 91/282/84
f 44/281/43 84/291/85 91/282/84
f 91/282/84 84/291/85 90/283/86
f 90/283/86 84/291/85 89/284/87
f 89/284/87 84/291/85 88/285/88
f 82/289/77 85/288/89 83/290/75
f 88/285/88 84/291/85 87/286/90
f 84/291/85 83/290/75 87/286/90
f 87/286/90 83/290/75 86/287/91
f 83/290/75 85/288/89 86/287/91
f 91/298/84 97/297/92 41/179/41
f 97/297/92 98/296/93 41/179/41
f 98/296/93 99/295/94 41/179/41
f 99/295/94 100/294/95 41/179/41
f 100/294/95 101/293/96 41/179/41
f 101/293/96 102/292/97 41/179/41
f 102/292/97 92/303/98 41/179/41
f 92/303/98 93/302/99 41/179/41
f 93/302/99 94/301/100 41/179/41
f 41/179/41 94/301/100 96/299/101
f 94/301/100 95/300/102 96/299/101
f 105/305/103 41/179/41 104/306/104
f 96/304/101 103/307/105 41/179/41
f 103/307/105 104/306/104 41/179/41
f 41/179/41 105/312/103 42/313/39
f 105/312/103 109/311/106 42/313/39
f 109/311/106 110/310/107 42/313/39
f 110/310/107 111/309/108 42/313/39
f 111/309/108 112/308/109 42/313/39
f 112/308/109 106/316/110 42/313/39
f 106/316/110 107/315/111 42/313/39
f 107/315/111 108/314/112 42/313/39
f 34/180/33 38/317/38 117/318/113
f 107/323/111 113/322/114 108/324/112
f 113/322/114 114/321/115 108/324/112
f 114/321/115 115/320/116 108/324/112
f 117/318/113 38/317/38 116/319/117
f 108/324/112 115/320/116 38/317/38
f 115/320/116 116/319/117 38/317/38
f 117/329/113 119/328/118 34/180/33
f 119/328/118 120/327/119 34/180/33
f 120/327/119 121/326/120 34/180/33
f 121/326/120 122/325/121 34/180/33
f 118/330/122 34/180/33 122/325/121
f 130/332/123 34/180/33 129/333/124
f 129/333/124 34/180/33 128/334/125
f 128/334/125 34/180/33 127/335/126
f 127/335/126 34/180/33 126/336/127
f 126/336/127 34/180/33 125/337/128
f 125/337/128 34/180/33 124/338/129
f 118/331/122 123/339/130 34/180/33
f 123/339/130 124/338/129 34/180/33
f 2/181/2 34/180/33 3/343/3
f 3/343/3 34/180/33 135/344/131
f 135/344/131 34/180/33 134/345/132
f 134/345/132 34/180/33 133/346/133
f 133/346/133 34/180/33 132/347/134
f 132/347/134 34/180/33 131/348/135
f 131/348/135 34/180/33 137/340/136
f 34/180/33 130/342/123 137/340/136
f 130/342/123 136/341/137 137/340/136
f 138/123/138 139/20/139 140/176/140
f 141/21/141 142/111/142 138/123/138
f 142/111/142 143/37/143 138/123/138
f 140/176/140 139/20/139 144/175/144
f 138/123/138 143/37/143 139/20/139
f 145/13/145 146/121/146 147/153/147
f 148/124/148 144/122/144 145/13/145
f 149/173/149 138/123/138 140/176/140
f 140/57/140 144/122/144 148/124/148
f 141/21/141 138/123/138 149/173/149
f 150/38/150 142/111/142 141/21/141
f 150/38/150 151/51/151 142/111/142
f 151/51/151 152/110/152 142/111/142
f 142/111/142 152/110/152 143/37/143
f 144/122/144 153/56/153 145/13/145
f 139/20/139 154/119/154 144/175/144
f 143/37/143 155/109/155 139/20/139
f 145/13/145 153/56/153 146/121/146
f 146/121/146 156/5/156 157/74/157
f 157/74/157 156/5/156 158/154/158
f 147/153/147 146/121/146 157/74/157
f 159/73/159 145/13/145 147/153/147
f 148/124/148 145/13/145 159/73/159
f 149/125/149 140/57/140 160/12/160
f 160/12/160 140/57/140 148/124/148
f 161/174/161 141/21/141 149/173/149
f 162/126/162 150/38/150 141/21/141
f 163/113/163 150/38/150 162/126/162
f 164/112/164 151/51/151 150/38/150
f 165/93/165 166/15/166 151/51/151
f 151/51/151 166/15/166 152/110/152
f 152/110/152 167/50/167 143/37/143
f 144/175/144 154/119/154 153/177/153
f 139/20/139 155/109/155 154/119/154
f 143/37/143 167/50/167 155/109/155
f 153/56/153 168/164/168 146/121/146
f 146/121/146 168/164/168 156/5/156
f 156/5/156 169/142/169 158/154/158
f 158/154/158 169/142/169 170/75/170
f 157/74/157 158/154/158 171/77/171
f 147/153/147 157/74/157 172/157/172
f 159/73/159 147/153/147 173/78/173
f 174/152/174 148/124/148 159/73/159
f 175/127/175 149/125/149 160/12/160
f 160/12/160 148/124/148 174/152/174
f 161/58/161 149/125/149 175/127/175
f 162/126/162 141/21/141 161/174/161
f 176/22/176 163/113/163 162/126/162
f 163/113/163 164/112/164 150/38/150
f 164/112/164 165/93/165 151/51/151
f 165/93/165 177/92/177 166/15/166
f 166/15/166 178/95/178 152/110/152
f 177/92/177 179/46/179 166/15/166
f 152/110/152 178/95/178 167/50/167
f 154/119/154 180/19/180 153/177/153
f 155/109/155 181/36/181 154/119/154
f 167/50/167 182/108/182 155/109/155
f 153/177/153 180/19/180 168/120/168
f 168/164/168 183/63/183 156/5/156
f 156/5/156 183/63/183 169/142/169
f 169/142/169 184/6/184 170/75/170
f 170/75/170 184/6/184 185/149/185
f 158/154/158 170/75/170 186/156/186
f 171/77/171 158/154/158 186/156/186
f 172/157/172 157/74/157 171/77/171
f 187/158/187 159/73/159 173/78/173
f 173/78/173 147/153/147 172/157/172
f 174/152/174 159/73/159 187/158/187
f 175/127/175 160/12/160 188/72/188
f 188/72/188 160/12/160 174/152/174
f 189/11/189 161/58/161 175/127/175
f 190/171/190 162/126/162 161/174/161
f 176/22/176 162/126/162 190/171/190
f 191/39/191 163/113/163 176/22/176
f 192/52/192 164/112/164 163/113/163
f 193/16/193 165/93/165 164/112/164
f 194/45/194 177/92/177 165/93/165
f 194/45/194 195/4/195 177/92/177
f 195/4/195 196/91/196 197/147/197
f 195/4/195 198/94/198 177/92/177
f 166/15/166 179/46/179 178/95/178
f 177/92/177 198/94/198 179/46/179
f 178/95/178 199/14/199 167/50/167
f 154/119/154 181/36/181 180/19/180
f 155/109/155 182/108/182 181/36/181
f 167/50/167 199/14/199 182/108/182
f 180/19/180 200/141/200 168/120/168
f 168/120/168 200/141/200 183/163/183
f 183/63/183 201/140/201 169/142/169
f 169/142/169 201/140/201 184/6/184
f 184/6/184 202/139/202 185/149/185
f 170/75/170 185/149/185 203/76/203
f 185/149/185 202/139/202 204/68/204
f 186/156/186 170/75/170 203/76/203
f 186/156/186 205/107/205 206/35/206
f 207/106/207 186/156/186 206/35/206
f 171/77/171 186/156/186 207/106/207
f 172/157/172 171/77/171 208/34/208
f 173/78/173 209/104/209 187/158/187
f 172/157/172 208/34/208 173/78/173
f 187/158/187 209/104/209 210/33/210
f 211/103/211 187/158/187 210/33/210
f 212/79/212 174/152/174 187/158/187
f 213/151/213 175/127/175 188/72/188
f 188/72/188 174/152/174 212/79/212
f 189/11/189 175/127/175 213/151/213
f 190/128/190 161/58/161 189/11/189
f 214/172/214 176/22/176 190/171/190
f 215/129/215 176/22/176 214/172/214
f 215/129/215 191/39/191 176/22/176
f 191/39/191 192/52/192 163/113/163
f 192/52/192 193/16/193 164/112/164
f 193/16/193 194/45/194 165/93/165
f 196/91/196 195/4/195 194/45/194
f 197/147/197 196/91/196 216/66/216
f 217/67/217 195/4/195 197/147/197
f 198/94/198 195/4/195 217/67/217
f 179/46/179 218/87/218 178/95/178
f 198/94/198 219/1/219 179/46/179
f 178/95/178 218/87/218 199/14/199
f 181/36/181 220/118/220 180/19/180
f 182/108/182 221/55/221 181/36/181
f 199/14/199 222/86/222 182/108/182
f 180/19/180 220/118/220 200/141/200
f 200/141/200 223/25/223 183/163/183
f 183/163/183 223/25/223 201/162/201
f 201/140/201 224/62/224 184/6/184
f 184/6/184 224/62/224 202/139/202
f 202/139/202 225/7/225 204/68/204
f 203/76/203 185/149/185 226/155/226
f 204/68/204 227/148/227 228/82/228
f 185/149/185 204/68/204 226/155/226
f 203/76/203 205/107/205 186/156/186
f 205/107/205 207/106/207 206/35/206
f 208/34/208 171/77/171 207/106/207
f 173/78/173 208/34/208 209/104/209
f 209/104/209 211/103/211 210/33/210
f 212/79/212 187/158/187 211/103/211
f 213/151/213 188/72/188 229/159/229
f 229/159/229 188/72/188 212/79/212
f 230/71/230 189/11/189 213/151/213
f 231/130/231 190/128/190 189/11/189
f 214/59/214 190/128/190 231/130/231
f 232/169/232 215/129/215 214/172/214
f 233/23/233 215/129/215 232/169/232
f 234/115/234 191/39/191 215/129/215
f 235/114/235 192/52/192 191/39/191
f 236/90/236 193/16/193 192/52/192
f 237/89/237 194/45/194 193/16/193
f 237/89/237 196/91/196 194/45/194
f 196/91/196 238/3/238 216/66/216
f 197/147/197 216/66/216 239/28/239
f 240/98/240 197/147/197 239/28/239
f 217/67/217 197/147/197 240/98/240
f 241/143/241 198/94/198 217/67/217
f 219/1/219 198/94/198 241/143/241
f 179/46/179 219/1/219 218/87/218
f 218/87/218 242/43/242 199/14/199
f 199/14/199 242/43/242 222/86/222
f 181/36/181 221/55/221 220/118/220
f 182/108/182 222/86/222 221/55/221
f 220/118/220 243/42/243 200/141/200
f 200/141/200 243/42/243 223/25/223
f 223/25/223 244/138/244 201/162/201
f 201/162/201 244/138/244 224/166/224
f 224/62/224 245/137/245 202/139/202
f 204/68/204 225/7/225 227/148/227
f 202/139/202 245/137/245 225/7/225
f 228/82/228 227/148/227 246/161/246
f 226/155/226 247/29/247 203/76/203
f 226/155/226 204/68/204 228/82/228
f 203/76/203 247/29/247 205/107/205
f 248/49/248 207/106/207 205/107/205
f 248/49/248 208/34/208 207/106/207
f 208/34/208 249/48/249 209/104/209
f 249/48/249 211/103/211 209/104/209
f 250/32/250 212/79/212 211/103/211
f 251/80/251 213/151/213 229/159/229
f 229/159/229 212/79/212 250/32/250
f 230/71/230 213/151/213 251/80/251
f 231/130/231 189/11/189 230/71/230
f 252/10/252 214/59/214 231/130/231
f 232/131/232 214/59/214 252/10/252
f 253/170/253 233/23/233 232/169/232
f 233/23/233 234/115/234 215/129/215
f 234/115/234 235/114/235 191/39/191
f 235/114/235 236/90/236 192/52/192
f 236/90/236 237/89/237 193/16/193
f 238/3/238 196/91/196 237/89/237
f 216/66/216 238/3/238 254/145/254
f 216/66/216 254/145/254 255/146/255
f 239/28/239 216/66/216 255/146/255
f 239/28/239 256/47/256 240/98/240
f 257/26/257 217/67/217 240/98/240
f 241/143/241 217/67/217 257/26/257
f 258/64/258 219/1/219 241/143/241
f 219/1/219 259/84/259 218/87/218
f 218/87/218 259/84/259 242/43/242
f 242/43/242 260/85/260 222/86/222
f 221/55/221 261/117/261 220/118/220
f 222/86/222 262/18/262 221/55/221
f 220/118/220 261/117/261 243/42/243
f 243/42/243 263/116/263 223/25/223
f 223/25/223 263/116/263 244/138/244
f 244/138/244 264/24/264 224/166/224
f 224/166/224 264/24/264 245/165/245
f 225/7/225 265/136/265 227/148/227
f 245/137/245 266/61/266 225/7/225
f 227/148/227 265/136/265 267/69/267
f 227/148/227 267/69/267 246/161/246
f 228/82/228 246/161/246 268/100/268
f 226/155/226 228/82/228 247/29/247
f 247/29/247 248/49/248 205/107/205
f 269/105/269 208/34/208 248/49/248
f 269/105/269 249/48/249 208/34/208
f 249/48/249 250/32/250 211/103/211
f 229/159/229 250/32/250 251/80/251
f 251/80/251 270/101/270 271/160/271
f 271/160/271 230/71/230 251/80/251
f 272/150/272 231/130/231 230/71/230
f 252/10/252 231/130/231 272/150/272
f 273/133/273 232/131/232 252/10/252
f 253/60/253 232/131/232 273/133/273
f 274/132/274 233/23/233 253/170/253
f 275/40/275 234/115/234 233/23/233
f 276/53/276 235/114/235 234/115/234
f 277/17/277 236/90/236 235/114/235
f 278/44/278 237/89/237 236/90/236
f 278/44/278 238/3/238 237/89/237
f 238/3/238 279/88/279 254/145/254
f 254/145/254 279/88/279 280/65/280
f 255/146/255 254/145/254 281/27/281
f 255/146/255 282/83/282 239/28/239
f 239/28/239 282/83/282 283/96/283
f 283/96/283 256/47/256 239/28/239
f 256/47/256 284/97/284 240/98/240
f 240/98/240 284/97/284 257/26/257
f 285/144/285 241/143/241 257/26/257
f 258/64/258 241/143/241 285/144/285
f 259/84/259 219/1/219 258/64/258
f 259/84/259 286/2/286 242/43/242
f 242/43/242 286/2/286 260/85/260
f 222/86/222 260/85/260 262/18/262
f 221/55/221 262/18/262 261/117/261
f 261/117/261 287/54/287 243/42/243
f 243/42/243 287/54/287 263/116/263
f 263/116/263 288/41/288 244/138/244
f 244/138/244 288/41/288 264/24/264
f 264/24/264 289/135/289 245/165/245
f 245/165/245 289/135/289 266/167/266
f 225/7/225 266/61/266 265/136/265
f 265/136/265 290/8/290 267/69/267
f 246/161/246 267/69/267 291/81/291
f 268/100/268 246/161/246 292/30/292
f 247/29/247 228/82/228 268/100/268
f 293/99/293 248/49/248 247/29/247
f 293/99/293 269/105/269 248/49/248
f 269/105/269 294/102/294 249/48/249
f 294/102/294 250/32/250 249/48/249
f 251/80/251 250/32/250 270/101/270
f 271/160/271 270/101/270 295/31/295
f 272/150/272 230/71/230 271/160/271
f 296/70/296 252/10/252 272/150/272
f 273/133/273 252/10/252 296/70/296
f 297/9/297 253/60/253 273/133/273
f 298/134/298 253/60/253 297/9/297
f 298/168/298 274/132/274 253/170/253
f 274/132/274 275/40/275 233/23/233
f 275/40/275 276/53/276 234/115/234
f 276/53/276 277/17/277 235/114/235
f 277/17/277 278/44/278 236/90/236
f 279/88/279 238/3/238 278/44/278
f 137/350/299 136/349/137 279/88/279
f 280/65/280 279/88/279 129/351/300
f 136/353/137 130/352/123 279/88/279
f 130/352/123 129/351/300 279/88/279
f 129/355/300 128/354/301 280/65/280
f 128/357/301 127/356/302 280/65/280
f 127/359/302 126/358/127 280/65/280
f 125/360/128 254/145/254 126/361/127
f 126/361/127 254/145/254 280/65/280
f 125/363/128 124/362/129 254/145/254
f 124/362/129 281/27/281 254/145/254
f 123/366/303 118/365/304 122/364/305
f 124/370/129 123/369/303 281/27/281
f 123/369/303 122/368/305 281/27/281
f 122/368/305 121/367/306 281/27/281
f 121/372/306 120/371/307 281/27/281
f 120/371/307 255/146/255 281/27/281
f 120/374/307 119/373/308 255/146/255
f 119/373/308 282/83/282 255/146/255
f 119/377/308 117/376/309 282/83/282
f 282/83/282 117/376/309 116/375/310
f 116/379/310 115/378/311 282/83/282
f 115/381/311 114/380/312 282/83/282
f 282/83/282 114/380/312 283/96/283
f 114/383/312 113/382/313 283/96/283
f 256/47/256 283/96/283 106/385/314
f 113/384/313 107/386/315 283/96/283
f 107/386/315 106/385/314 283/96/283
f 106/388/314 112/387/316 256/47/256
f 112/390/316 111/389/317 256/47/256
f 110/391/318 284/97/284 111/392/317
f 111/392/317 284/97/284 256/47/256
f 110/394/318 109/393/319 284/97/284
f 104/396/320 257/26/257 105/397/321
f 105/397/321 257/26/257 109/395/319
f 257/26/257 284/97/284 109/395/319
f 103/398/322 285/144/285 104/399/320
f 104/399/320 285/144/285 257/26/257
f 95/401/323 285/144/285 96/402/324
f 96/402/324 285/144/285 103/400/322
f 95/404/323 94/403/100 285/144/285
f 93/405/99 258/64/258 94/406/100
f 94/406/100 258/64/258 285/144/285
f 93/408/99 92/407/98 258/64/258
f 102/409/97 259/84/259 92/410/98
f 92/410/98 259/84/259 258/64/258
f 286/2/286 259/84/259 101/411/96
f 102/412/97 101/411/96 259/84/259
f 101/414/96 100/413/95 286/2/286
f 100/416/95 99/415/94 286/2/286
f 98/417/325 260/85/260 99/418/94
f 99/418/94 260/85/260 286/2/286
f 98/420/325 97/419/326 260/85/260
f 90/421/327 262/18/262 91/422/328
f 91/422/328 262/18/262 97/423/326
f 97/423/326 262/18/262 260/85/260
f 90/425/327 89/424/329 262/18/262
f 88/426/330 261/117/261 89/427/329
f 89/427/329 261/117/261 262/18/262
f 287/54/287 261/117/261 87/428/331
f 88/429/330 87/428/331 261/117/261
f 87/431/331 86/430/332 287/54/287
f 86/433/332 85/432/333 287/54/287
f 81/434/334 263/116/263 82/435/335
f 287/54/287 85/436/333 263/116/263
f 85/436/333 82/435/335 263/116/263
f 80/437/336 288/41/288 81/438/334
f 81/438/334 288/41/288 263/116/263
f 80/440/336 79/439/337 288/41/288
f 79/442/337 78/441/338 288/41/288
f 288/41/288 78/445/338 264/24/264
f 73/443/339 264/24/264 72/444/340
f 78/445/338 72/444/340 264/24/264
f 73/448/339 70/447/341 264/24/264
f 70/447/341 71/446/342 264/24/264
f 71/446/342 289/135/289 264/24/264
f 71/451/342 69/450/343 289/135/289
f 69/450/343 68/449/344 289/135/289
f 60/452/345 289/135/289 61/453/346
f 68/454/344 61/453/346 289/135/289
f 59/455/347 266/167/266 60/456/345
f 60/456/345 266/167/266 289/135/289
f 59/458/347 66/457/348 266/167/266
f 65/459/349 265/136/265 66/460/348
f 66/460/348 265/136/265 266/61/266
f 290/8/290 265/136/265 64/461/350
f 65/462/349 64/461/350 265/136/265
f 58/464/351 290/8/290 55/465/352
f 55/465/352 290/8/290 64/463/350
f 58/467/351 57/466/353 290/8/290
f 57/470/353 56/469/354 290/8/290
f 290/8/290 56/469/354 63/468/355
f 290/8/290 63/471/355 267/69/267
f 63/471/355 62/473/356 267/69/267
f 62/473/356 67/472/357 267/69/267
f 291/81/291 267/69/267 54/474/358
f 54/474/358 267/69/267 53/475/359
f 67/476/357 53/475/359 267/69/267
f 54/479/358 47/478/360 291/81/291
f 47/478/360 52/477/361 291/81/291
f 52/481/361 51/480/362 291/81/291
f 51/483/362 50/482/363 291/81/291
f 291/81/291 50/486/363 246/161/246
f 77/484/364 246/161/246 49/485/365
f 50/486/363 49/485/365 246/161/246
f 77/488/364 76/487/366 246/161/246
f 76/487/366 292/30/292 246/161/246
f 76/490/366 75/489/367 292/30/292
f 75/489/367 268/100/268 292/30/292
f 75/492/367 74/491/368 268/100/268
f 84/494/369 247/29/247 83/495/370
f 83/495/370 247/29/247 74/493/368
f 247/29/247 268/100/268 74/493/368
f 293/99/293 247/29/247 43/497/371
f 43/497/371 247/29/247 44/498/372
f 44/498/372 247/29/247 84/496/369
f 43/500/371 46/499/373 293/99/293
f 46/502/373 45/501/374 293/99/293
f 269/105/269 293/99/293 39/503/375
f 293/99/293 45/505/374 39/503/375
f 45/505/374 40/504/376 39/503/375
f 294/102/294 269/105/269 37/509/377
f 37/509/377 269/105/269 38/510/378
f 38/510/378 269/105/269 108/506/379
f 39/508/375 42/507/380 269/105/269
f 269/105/269 42/507/380 108/506/379
f 37/512/377 36/511/381 294/102/294
f 36/515/381 33/514/382 294/102/294
f 294/102/294 33/514/382 35/513/383
f 294/102/294 35/518/383 250/32/250
f 35/518/383 32/517/384 250/32/250
f 32/517/384 31/516/385 250/32/250
f 31/520/385 30/519/386 250/32/250
f 30/519/386 270/101/270 250/32/250
f 29/522/387 270/101/270 23/523/388
f 23/523/388 270/101/270 30/521/386
f 28/524/389 295/31/295 29/525/387
f 29/525/387 295/31/295 270/101/270
f 28/527/389 27/526/390 295/31/295
f 295/31/295 27/526/390 271/160/271
f 27/529/390 26/528/391 271/160/271
f 25/530/392 272/150/272 26/531/391
f 26/531/391 272/150/272 271/160/271
f 25/533/392 24/532/393 272/150/272
f 24/532/393 296/70/296 272/150/272
f 24/536/393 22/535/394 296/70/296
f 22/535/394 21/534/395 296/70/296
f 17/538/396 296/70/296 18/539/397
f 18/539/397 296/70/296 21/537/395
f 16/540/398 273/133/273 17/541/396
f 17/541/396 273/133/273 296/70/296
f 297/9/297 273/133/273 15/542/399
f 16/543/398 15/542/399 273/133/273
f 15/545/399 14/544/400 297/9/297
f 14/547/400 13/546/401 297/9/297
f 13/549/401 12/548/402 297/9/297
f 297/9/297 12/548/402 298/134/298
f 12/551/402 11/550/403 298/134/298
f 11/553/403 20/552/404 298/168/298
f 298/168/298 20/555/404 274/132/274
f 20/555/404 19/554/405 274/132/274
f 9/557/406 274/132/274 8/558/407
f 19/556/405 10/559/408 274/132/274
f 10/559/408 8/558/407 274/132/274
f 275/40/275 274/132/274 5/560/409
f 5/560/409 274/132/274 6/561/410
f 9/562/406 6/561/410 274/132/274
f 5/564/409 4/563/411 275/40/275
f 276/53/276 275/40/275 135/567/412
f 135/567/412 275/40/275 3/568/413
f 3/568/413 275/40/275 1/565/414
f 275/40/275 4/566/411 1/565/414
f 135/570/412 134/569/415 276/53/276
f 134/572/415 133/571/416 276/53/276
f 276/53/276 133/571/416 277/17/277
f 133/574/416 132/573/417 277/17/277
f 132/576/417 131/575/418 277/17/277
f 277/17/277 131/575/418 278/44/278
f 131/578/418 137/577/299 278/44/278
f 278/44/278 137/577/299 279/88/279
