# This file uses centimeters as units for non-parametric coordinates.

mtllib SM_Shard_3.mtl
g default
v 1.843214 0.145191 -1.472242
v 1.683264 -0.389285 -1.734496
v 2.939785 -0.154264 -2.449027
v 2.549206 0.145191 -1.966150
v 1.426405 0.145191 -1.262492
v 0.970042 0.145191 -1.215074
v -0.022716 0.145191 -1.111923
v -0.117441 -0.025343 -1.244167
v -0.230591 0.145191 -1.013780
v -0.437634 0.145191 -0.865054
v -0.736023 0.145191 -0.650710
v -1.214429 0.145191 -0.307055
v -1.835116 0.145191 0.138806
v -1.916535 -0.018483 0.054182
v -1.977426 0.145191 0.205116
v -2.883959 0.145191 0.669313
v -8.682549 0.564634 3.842967
v -8.944656 0.603492 3.984740
v -9.015099 0.544799 3.973208
v -9.057198 0.509721 3.966315
v -8.984489 0.408563 3.862102
v -8.932220 0.335838 3.787181
v -8.715424 0.279114 3.652267
v -8.662613 0.561678 3.832183
v -8.164528 0.116639 3.151332
v -8.498497 0.534322 3.699039
v -6.943928 0.216845 2.620627
v -7.704689 0.380282 3.155669
v -8.219627 0.490908 3.517829
v -7.925175 0.050189 2.969405
v -6.919571 -0.228988 2.205064
v -6.917095 -0.229624 2.203227
v -6.684692 0.200427 2.473823
v -6.730000 -0.278021 2.060439
v -6.273369 -0.396142 1.711940
v -6.215691 -0.414408 1.664863
v -5.954792 -0.497036 1.451909
v -5.946362 -0.504565 1.440587
v -5.867393 -0.575099 1.334527
v -5.865917 -0.576001 1.332925
v -5.850811 -0.585226 1.316537
v -6.232929 0.169566 2.207631
v -6.377663 0.180815 2.294158
v -5.454506 -0.545907 1.140405
v -5.086884 0.152512 1.579314
v -5.866890 0.159544 2.002789
v -6.150177 0.163105 2.157506
v -5.818306 -0.605128 1.281047
v -5.815735 -0.606596 1.278337
v -5.806122 -0.604791 1.274840
v -5.605644 -0.567796 1.201305
v -4.634388 -0.499568 0.861278
v -4.496239 -0.500762 0.806769
v -4.450945 -0.501171 0.788882
v -4.683849 0.149352 1.420556
v -5.256462 -0.519035 1.086053
v -5.217072 -0.513765 1.075181
v -4.748329 -0.502277 0.903161
v -3.727497 -0.507816 0.508430
v -3.477138 0.145191 0.958545
v -4.156334 0.145191 1.216632
v -4.198391 0.145191 1.232614
v -4.391531 0.147076 1.307580
v -3.974901 -0.505445 0.604423
v -3.909864 -0.506019 0.579229
v -2.754747 -0.516690 0.122179
v -3.355470 0.145191 0.911164
v -3.463918 -0.510429 0.403596
v -3.178556 -0.513143 0.290194
v -3.040024 -0.514497 0.235111
v -1.978076 -0.522991 -0.280778
v -2.594284 -0.518013 0.038911
v -1.363071 -0.528289 -0.673816
v -1.185406 -0.529888 -0.802627
v -0.892416 -0.531974 -1.014696
v -0.799575 -0.532232 -1.081634
v -0.703929 -0.531948 -1.150239
v -0.387973 -0.529522 -1.375905
v -0.231576 -0.528049 -1.487432
v 0.237985 -0.524487 -1.628825
v 0.492733 -0.522749 -1.662334
v 1.439535 -0.515461 -1.786320
v 1.578411 -0.514397 -1.804509
v 1.640879 -0.513824 -1.812627
v 1.783970 -0.512440 -1.893329
v 3.258324 -0.497356 -2.918195
v 3.286618 -0.498703 -2.939032
v 2.983338 -0.187761 -2.503580
v 2.289038 -0.507483 -2.244567
v 2.569527 -0.504397 -2.439387
v 2.662644 -0.503410 -2.504090
v 2.809059 -0.501966 -2.605907
v -3.509147 -0.497036 -6.297746
v -4.272629 -0.497036 -5.830392
v -3.694702 -0.396142 -6.661912
v -4.062918 -0.228988 -7.384580
v -4.512882 -0.396142 -6.161077
v -4.989651 -0.228988 -6.817296
v -4.192543 -0.575099 -5.720162
v -5.220745 0.335838 -9.656945
v -2.808601 -0.396142 -7.029454
v -2.682292 -0.497036 -6.640714
v -3.447298 -0.575099 -6.176354
v -5.815540 -0.228988 -6.111218
v -6.488815 0.335838 -8.880723
v -5.242031 -0.396142 -5.537709
v -4.953026 -0.497036 -5.248704
v -4.856689 -0.575099 -5.152368
v -3.059253 -0.228988 -7.800885
v -3.847414 0.335838 -10.226586
v -2.640189 -0.575099 -6.511132
v -3.413963 -0.606596 -6.110932
v -4.149382 -0.606596 -5.660760
v -7.618904 0.335838 -7.914582
v -4.804771 -0.606596 -5.100450
v -6.606808 0.509721 -9.043122
v -5.311871 0.509721 -9.835793
v -3.909445 0.509721 -10.417497
v -2.002578 -0.228988 -8.054021
v -2.401540 0.335838 -10.572961
v -1.875700 -0.396142 -7.252942
v -1.811763 -0.497036 -6.849256
v -1.790450 -0.575099 -6.714696
v -2.617498 -0.606596 -6.441297
v -8.585045 0.335838 -6.784493
v -7.760838 0.509721 -8.056516
v -6.521618 -0.228988 -5.285329
v -5.865398 -0.396142 -4.808560
v -5.534714 -0.497036 -4.568307
v -5.424484 -0.575099 -4.488221
v -5.365082 -0.606596 -4.445062
v -8.747444 0.509721 -6.902486
v -7.699581 0.603492 -7.995259
v -2.432939 0.509721 -10.771218
v -0.919395 0.335838 -10.690339
v -1.778964 -0.606596 -6.642175
v -2.549426 -0.567796 -6.231793
v -3.313965 -0.567796 -5.914674
v -4.019901 -0.567796 -5.482545
v -4.649021 -0.567796 -4.944699
v -5.186867 -0.567796 -4.315581
v -8.677353 0.603492 -6.851560
v -6.555885 0.603492 -8.973031
v -5.272545 0.603492 -9.758607
v -3.882673 0.603492 -10.335107
v -2.419388 0.603492 -10.685655
v -0.919395 0.509721 -10.891076
v -0.919396 -0.228988 -8.139798
v -0.919396 -0.396142 -7.328668
v -0.919396 -0.497036 -6.919919
v -0.919396 -0.575099 -6.783673
v -0.919396 -0.606596 -6.710244
v -1.744506 -0.567796 -6.424619
v -0.919396 -0.567796 -6.489957
v -5.618996 -0.567796 -3.609643
v -5.815254 -0.606596 -3.709643
v -9.540115 0.509721 -5.607549
v -9.361267 0.335838 -5.516423
v -7.088898 -0.228988 -4.358596
v -6.366234 -0.396142 -3.990380
v -6.002064 -0.497036 -3.804828
v -5.880676 -0.575099 -3.742976
v -9.462929 0.603492 -5.568219
v -7.088097 0.490908 -7.383775
v -6.047546 0.490908 -8.273366
v -0.919395 0.603492 -10.804437
v 0.594149 0.509721 -10.771218
v 0.562749 0.335838 -10.572968
v -0.059828 -0.606596 -6.642175
v -2.422539 -0.513455 -5.882619
v -3.138452 -0.513516 -5.585698
v -1.677803 -0.513400 -6.072991
v -3.798305 -0.513575 -5.183518
v -4.374859 -0.513627 -4.677367
v -4.865421 -0.513677 -4.086841
v -5.267311 -0.513726 -3.431531
v -5.936115 -0.567796 -2.845104
v -5.562946 -0.513763 -2.724582
v -10.121819 0.509721 -4.205123
v -10.039421 0.603492 -4.178349
v -8.692413 0.490908 -5.175622
v -7.977688 0.490908 -6.343221
v -4.879944 0.490908 -8.988091
v -3.615423 0.490908 -9.512597
v -2.284108 0.490908 -9.831529
v -0.919395 0.490908 -9.939607
v 0.580597 0.603492 -10.685655
v 0.163787 -0.228988 -8.054025
v 0.036908 -0.396142 -7.252942
v -0.027029 -0.497036 -6.849256
v -0.048342 -0.575099 -6.714696
v -0.094285 -0.567796 -6.424619
v -2.223406 -0.498332 -5.393769
v 0.710635 -0.567796 -6.231793
v -0.145126 -0.513306 -6.078572
v -0.915060 -0.513349 -6.142934
v -6.128941 -0.567796 -2.040184
v -6.145618 -0.606596 -2.913177
v -9.930908 0.335838 -4.143090
v -7.505203 -0.228988 -3.354932
v -6.733776 -0.396142 -3.104280
v -6.345036 -0.497036 -2.977970
v -6.215454 -0.575099 -2.935866
v -10.475533 0.509721 -2.728618
v -10.389969 0.603492 -2.715066
v -9.216911 0.490908 -3.911101
v -5.984158 0.216845 -6.279836
v -5.129822 0.216845 -7.010228
v -4.171173 0.216845 -7.597047
v 0.445318 0.490908 -9.831529
v 2.008623 0.335838 -10.226586
v 2.070654 0.509721 -10.417504
v 1.986664 0.603492 -10.348809
v 1.991028 0.600074 -10.351007
v 0.801398 -0.575099 -6.511132
v 0.778707 -0.606596 -6.441300
v -2.878586 -0.498573 -5.122136
v -3.478798 -0.498809 -4.761678
v -1.569581 -0.498108 -5.598256
v 0.609900 -0.513267 -5.895257
v -3.967716 -0.499019 -4.290717
v -4.376329 -0.499216 -3.745898
v -4.735619 -0.499414 -3.163859
v -5.002113 -0.499562 -2.544541
v -5.734753 -0.513775 -1.979137
v -10.277283 0.335838 -2.697217
v -9.535851 0.490908 -2.579786
v -7.301365 0.216845 -4.466849
v -6.714550 0.216845 -5.425496
v -5.302750 0.163105 -5.872846
v -4.857540 0.177037 -6.635465
v -3.994669 0.163105 -6.823224
v -3.132948 0.216845 -8.027684
v -2.039881 0.216845 -8.289544
v -0.919396 0.216845 -8.378274
v 0.201090 0.216845 -8.289544
v 2.173002 0.509721 -10.375054
v 2.464360 0.389950 -10.104974
v 1.995066 0.598569 -10.308030
v 1.776633 0.490908 -9.512597
v 2.016798 0.592083 -10.251748
v 2.000103 0.592965 -10.355561
v 2.054478 0.566378 -10.367715
v 2.160128 0.515876 -10.374253
v 2.595995 0.335838 -9.982957
v 1.220463 -0.228988 -7.800885
v 0.969811 -0.396142 -7.029454
v 0.843501 -0.497036 -6.640714
v 1.327917 -0.513229 -5.608338
v 0.489217 -0.497576 -5.444318
v 1.475172 -0.567796 -5.914674
v 1.575173 -0.606596 -6.110936
v -2.074932 -0.501866 -4.977899
v -0.205763 -0.497733 -5.620580
v -0.902053 -0.497906 -5.689294
v -3.978275 -0.503182 -3.465495
v -5.132347 -0.499609 -1.887881
v -5.789753 -0.513774 -1.214490
v -6.194279 -0.567796 -1.215074
v -6.346497 -0.606596 -2.074642
v -7.758343 -0.228988 -2.298257
v -6.957260 -0.396142 -2.171377
v -6.553577 -0.497036 -2.107440
v -6.419018 -0.575099 -2.086128
v -10.394653 0.335838 -1.215074
v -10.595398 0.509721 -1.215073
v -10.508759 0.603492 -1.215074
v -7.732006 0.216845 -3.428626
v -5.923622 0.163105 -4.850858
v -2.830841 0.163105 -7.097898
v -1.727834 0.163105 -7.559758
v -0.919396 0.177037 -7.915040
v -0.110958 0.163105 -7.559758
v 1.294155 0.216845 -8.027684
v 2.212044 0.490908 -9.331994
v 2.248564 0.525910 -9.607026
v 2.636879 0.322134 -9.899217
v 2.621138 0.137026 -9.003640
v 1.670357 -0.497036 -6.297746
v 1.608505 -0.575099 -6.176354
v 1.152819 -0.497426 -5.212701
v -2.444538 -0.504324 -4.556050
v -2.983265 -0.505921 -4.097621
v -1.549317 -0.503743 -4.910424
v 0.373949 -0.500726 -5.060597
v -0.890098 -0.504523 -4.915059
v -3.509760 -0.505208 -3.698440
v -4.011652 -0.505702 -2.920226
v -4.172838 -0.507080 -2.278152
v -5.163597 -0.499605 -1.212737
v -7.844120 -0.228988 -1.215074
v -9.643921 0.490908 -1.215074
v -7.993862 0.216845 -2.335560
v -7.203369 0.163105 -2.406820
v -7.291443 0.177037 -3.285478
v -6.703732 0.163105 -3.944560
v -3.835779 0.145191 -5.229131
v 2.161770 0.377324 -8.654496
v 2.195841 0.284179 -8.067670
v 0.992049 0.163105 -7.097898
v 2.464117 0.000784 -7.886254
v 2.608481 -0.011795 -8.283624
v 2.601904 -0.044696 -8.126012
v 2.224127 -0.228988 -7.384580
v 1.855911 -0.396142 -6.661912
v 2.353750 -0.575099 -5.720166
v 1.989163 -0.513203 -5.212674
v 2.181111 -0.567796 -5.482545
v 2.310591 -0.606596 -5.660760
v 1.758602 -0.497322 -4.878301
v -1.746486 -0.512128 -3.919505
v -0.181169 -0.502988 -4.960973
v 0.776023 -0.502604 -4.691894
v -3.083147 -0.513434 -2.814226
v -4.656750 -0.503765 -1.211787
v -5.133152 -0.499601 -0.537968
v -6.128941 -0.567796 -0.389964
v -6.414566 -0.606596 -1.215074
v -7.032990 -0.396142 -1.215074
v -6.624241 -0.497036 -1.215074
v -6.487991 -0.575099 -1.215074
v -7.758343 -0.228988 -0.131891
v -10.277283 0.335838 0.267070
v -10.475533 0.509721 0.298471
v -10.389969 0.603492 0.284919
v -8.082596 0.216845 -1.215074
v -9.535851 0.490908 0.149638
v -0.919396 0.145191 -6.176721
v 2.217610 0.224667 -7.692742
v 2.225882 0.216845 -7.641221
v 2.229904 0.212736 -7.558885
v 2.592024 -0.077869 -7.956975
v 2.663098 -0.126782 -7.655309
v 2.674092 -0.396142 -6.161077
v 2.433836 -0.497036 -5.830392
v 2.573868 -0.513199 -4.703113
v 2.280131 -0.497306 -4.393695
v 1.329987 -0.503622 -4.274911
v 0.023681 -0.510982 -4.010068
v -4.383455 -0.506092 -1.665740
v -5.734955 -0.513773 -0.449936
v -6.957260 -0.396142 -0.258770
v -7.104958 0.163105 -1.215074
v -7.993862 0.216845 -0.094588
v -5.638203 0.145191 -2.748307
v -4.211344 0.145191 -3.606814
v -2.176808 0.145191 -5.084992
v 2.250773 0.191998 -7.239259
v 2.155878 0.163105 -6.823224
v 2.381455 0.149886 -5.397840
v 2.293123 0.163105 -6.723508
v 1.996989 0.145191 -5.229131
v 2.286377 0.165212 -6.794827
v 2.278544 0.168912 -6.843431
v 2.270314 0.172394 -6.905599
v 2.685635 -0.142291 -7.559655
v 2.838360 -0.228988 -7.008588
v 2.896828 -0.261779 -6.786813
v 2.958565 -0.296406 -6.552625
v 3.052883 -0.347536 -6.146581
v 3.114235 -0.497036 -5.248704
v 3.017899 -0.575099 -5.152371
v 2.810227 -0.567796 -4.944699
v 2.965981 -0.606596 -5.100453
v 3.074349 -0.513206 -4.106488
v -2.233596 -0.517334 -3.071954
v -0.888918 -0.516256 -3.606259
v -2.994346 -0.518202 -1.898588
v -4.384460 -0.506082 -0.757516
v -3.549822 -0.514017 -1.212037
v -4.999794 -0.499592 0.115536
v -5.936115 -0.567796 0.414956
v -6.346497 -0.606596 -0.355506
v -6.553577 -0.497036 -0.322708
v -6.419018 -0.575099 -0.344020
v -6.733776 -0.396142 0.674132
v -7.505203 -0.228988 0.924785
v -9.930908 0.335838 1.712943
v -10.121819 0.509721 1.774976
v -10.039421 0.603492 1.748202
v -9.216911 0.490908 1.480952
v -7.732006 0.216845 0.998477
v -7.203369 0.163105 -0.023329
v 0.338017 0.145191 -5.084992
v 3.348076 -0.567796 -4.315581
v 2.386748 0.148535 -5.158517
v 2.385891 0.149495 -5.323800
v 3.128445 -0.388497 -5.821294
v 3.138813 -0.396142 -5.763776
v 3.171589 -0.420252 -5.607652
v 3.223915 -0.458745 -5.358388
v 3.254761 -0.481496 -5.180913
v 3.275826 -0.497036 -5.059690
v 2.386782 0.146742 -4.293143
v 2.361384 0.145191 -3.655055
v 3.099098 -0.372380 -3.284635
v 3.332901 -0.538832 -4.881021
v 2.728405 -0.497333 -3.824487
v 1.927510 -0.502360 -3.862327
v 0.543876 -0.515569 -3.197997
v -4.167938 -0.507146 -0.151962
v -5.562366 -0.513771 0.294720
v -6.345036 -0.497036 0.547822
v -7.291443 0.177037 0.855329
v -4.988464 0.145191 -1.215074
v -0.919396 0.145191 -1.215074
v 2.359698 0.145191 -3.616153
v 3.386582 -0.570174 -4.278451
v 3.383312 -0.567796 -4.258016
v 3.337120 -0.533528 -3.921527
v 3.309590 -0.513209 -3.728295
v 3.373009 -0.568201 -4.755471
v 3.384499 -0.575099 -4.723561
v 3.400376 -0.584518 -4.671302
v 3.437599 -0.606596 -4.548802
v 3.430271 -0.601394 -4.512059
v 3.398369 -0.578745 -4.352120
v 3.308056 -0.509531 -3.536511
v 2.418246 -0.500356 -3.594008
v 1.514500 -0.510606 -2.954887
v -0.892393 -0.533401 -1.211854
v -2.986343 -0.518319 -0.537141
v -4.722313 -0.499573 0.726884
v -5.263985 -0.513766 0.999675
v -5.618996 -0.567796 1.179494
v -6.145618 -0.606596 0.483028
v -6.215454 -0.575099 0.505719
v -6.002064 -0.497036 1.374679
v -6.366234 -0.396142 1.560231
v -7.088898 -0.228988 1.928447
v -9.361267 0.335838 3.086276
v -9.540115 0.509721 3.177402
v -9.462929 0.603492 3.138072
v -8.692413 0.490908 2.745475
v -6.703732 0.163105 1.514411
v -5.638203 0.145191 0.318159
v 2.358862 0.145191 -3.596868
v 3.307980 -0.509382 -3.529279
v 3.297417 -0.505230 -3.342233
v 3.114434 -0.497357 -3.236283
v 2.512404 -0.502425 -3.045920
v 1.437243 -0.515485 -1.969515
v -3.986213 -0.506027 0.472671
v -5.880676 -0.575099 1.312827
v -7.301365 0.216845 2.036702
v -4.211344 0.145191 1.176665
v 2.325640 0.145191 -2.830364
v 3.280560 -0.499384 -2.994601
v 3.286293 -0.501433 -3.108871
vt 0.537301 0.484456
vt 0.582303 0.514453
vt 0.634371 0.529077
vt 0.688409 0.526893
vt 0.739128 0.508118
vt 0.781562 0.474590
vt 0.811559 0.429590
vt 0.826182 0.377523
vt 0.824002 0.323486
vt 0.038517 0.783119
vt 0.036746 0.713318
vt 0.056630 0.646386
vt 0.096224 0.588875
vt 0.151652 0.546413
vt 0.217489 0.523158
vt 0.287290 0.521385
vt 0.831303 0.322025
vt 0.833578 0.378390
vt 0.818324 0.432699
vt 0.787035 0.479637
vt 0.742774 0.514610
vt 0.689871 0.534194
vt 0.633505 0.536471
vt 0.579194 0.521219
vt 0.532254 0.489930
vt 0.950511 0.298136
vt 0.954334 0.392508
vt 0.928807 0.483441
vt 0.876432 0.562036
vt 0.802333 0.620600
vt 0.713763 0.653401
vt 0.619391 0.657227
vt 0.528455 0.631703
vt 0.519323 0.432990
vt 0.653683 0.357193
vt 0.549135 0.471471
vt 0.589667 0.497817
vt 0.636339 0.511123
vt 0.684325 0.508522
vt 0.729808 0.491744
vt 0.767119 0.461434
vt 0.793868 0.421481
vt 0.806472 0.375193
vt 0.804898 0.327271
vt 0.257984 0.742624
vt 0.131853 0.810971
vt 0.105174 0.770813
vt 0.115768 0.723780
vt 0.117789 0.675610
vt 0.154006 0.643786
vt 0.183954 0.606004
vt 0.231959 0.601546
vt 0.278395 0.588582
vt 0.869817 0.314316
vt 0.872589 0.382960
vt 0.854014 0.449100
vt 0.815910 0.506265
vt 0.762007 0.548856
vt 0.697580 0.572707
vt 0.628936 0.575482
vt 0.562793 0.556908
vt 0.573138 0.444621
vt 0.640057 0.472717
vt 0.708353 0.454876
vt 0.752127 0.402463
vt 0.759754 0.336107
vt 0.541677 0.419398
vt 0.600088 0.472632
vt 0.676792 0.479016
vt 0.741711 0.438796
vt 0.771127 0.370963
vt 0.516907 0.466106
vt 0.557236 0.503304
vt 0.607086 0.526218
vt 0.661577 0.532607
vt 0.715375 0.521844
vt 0.763213 0.494983
vt 0.800409 0.454656
vt 0.823324 0.404807
vt 0.829715 0.350318
vt 0.818954 0.296521
vt 0.543059 0.444851
vt 0.616123 0.492224
vt 0.701336 0.486458
vt 0.766444 0.432157
vt 0.788456 0.351682
vt 0.178707 0.826025
vt 0.144826 0.763499
vt 0.154167 0.692999
vt 0.203163 0.641455
vt 0.273099 0.628554
vt 0.835989 0.290213
vt 0.847865 0.349583
vt 0.840814 0.409718
vt 0.815526 0.464730
vt 0.774476 0.509236
vt 0.721682 0.538879
vt 0.662312 0.550757
vt 0.602176 0.543708
vt 0.547162 0.518420
vt 0.322378 0.525868
vt 0.252245 0.516578
vt 0.182674 0.529414
vt 0.120474 0.563122
vt 0.071735 0.614400
vt 0.041227 0.678230
vt 0.031937 0.748363
vt 0.044774 0.817935
vt 0.524390 0.460193
vt 0.562525 0.495369
vt 0.609665 0.517037
vt 0.661192 0.523078
vt 0.712064 0.512900
vt 0.757300 0.487500
vt 0.792474 0.449366
vt 0.814142 0.402229
vt 0.820185 0.350703
vt 0.810010 0.299832
vt 0.066648 0.810206
vt 0.055128 0.747772
vt 0.063466 0.684834
vt 0.090845 0.627553
vt 0.134584 0.581536
vt 0.190403 0.551288
vt 0.252836 0.539769
vt 0.315774 0.548106
vt 0.305309 0.583349
vt 0.253773 0.576521
vt 0.202651 0.585951
vt 0.156944 0.610719
vt 0.121129 0.648397
vt 0.098709 0.695300
vt 0.091880 0.746834
vt 0.101311 0.797958
vt 0.572212 0.402765
vt 0.614862 0.441139
vt 0.670420 0.444792
vt 0.716167 0.415200
vt 0.736591 0.366921
vt 0.521266 0.405690
vt 0.575232 0.474527
vt 0.658754 0.496520
vt 0.738360 0.464505
vt 0.783492 0.393798
vt 0.780266 0.310714
vt 0.518877 0.464549
vt 0.535599 0.486302
vt 0.513036 0.469165
vt 0.558628 0.501215
vt 0.581254 0.516734
vt 0.554500 0.507410
vt 0.607765 0.523802
vt 0.634079 0.531570
vt 0.605753 0.530969
vt 0.661476 0.530098
vt 0.688902 0.529355
vt 0.661777 0.537537
vt 0.714503 0.519489
vt 0.740357 0.510307
vt 0.717088 0.526471
vt 0.761656 0.493014
vt 0.783407 0.476292
vt 0.766273 0.498855
vt 0.798320 0.453263
vt 0.813840 0.430638
vt 0.804516 0.457392
vt 0.820907 0.404129
vt 0.828676 0.377816
vt 0.828075 0.406141
vt 0.827206 0.350419
vt 0.826464 0.322993
vt 0.834645 0.350118
vt 0.823581 0.294807
vt 0.531156 0.425454
vt 0.556005 0.429564
vt 0.557557 0.461876
vt 0.532756 0.453435
vt 0.595086 0.484182
vt 0.617771 0.471556
vt 0.637595 0.496916
vt 0.612553 0.506299
vt 0.679901 0.492534
vt 0.689867 0.467207
vt 0.721382 0.477408
vt 0.707749 0.501878
vt 0.753103 0.449002
vt 0.744748 0.421906
vt 0.777025 0.413810
vt 0.782057 0.442458
vt 0.786938 0.372847
vt 0.764294 0.355793
vt 0.786686 0.330804
vt 0.807559 0.351137
vt 0.143019 0.836357
vt 0.175014 0.787583
vt 0.116683 0.787755
vt 0.109880 0.750881
vt 0.164433 0.730228
vt 0.117142 0.696081
vt 0.133313 0.662251
vt 0.189586 0.677608
vt 0.171398 0.622185
vt 0.204365 0.604321
vt 0.240865 0.649822
vt 0.258727 0.594292
vt 0.295898 0.599218
vt 0.298682 0.657483
vt 0.860413 0.281169
vt 0.844278 0.319428
vt 0.873888 0.348529
vt 0.846720 0.379930
vt 0.865888 0.416756
vt 0.830347 0.438225
vt 0.837198 0.479173
vt 0.796762 0.488608
vt 0.790625 0.529669
vt 0.749253 0.526147
vt 0.730727 0.563302
vt 0.692467 0.547168
vt 0.663367 0.576780
vt 0.631965 0.549613
vt 0.595138 0.568782
vt 0.573668 0.533242
vt 0.532720 0.540092
vt 0.523283 0.499656
vt 0.937578 0.252567
vt 0.321535 0.528709
vt 0.287679 0.518447
vt 0.956115 0.345173
vt 0.252321 0.519541
vt 0.216951 0.520243
vt 0.945129 0.438973
vt 0.183661 0.532209
vt 0.150239 0.543807
vt 0.905695 0.524788
vt 0.122277 0.565475
vt 0.094075 0.586833
vt 0.841674 0.594218
vt 0.074177 0.616081
vt 0.053955 0.645108
vt 0.759331 0.640467
vt 0.044069 0.679074
vt 0.033807 0.712929
vt 0.666726 0.659007
vt 0.034901 0.748287
vt 0.035602 0.783657
vt 0.572924 0.648023
vt 0.047569 0.816947
vt 0.059167 0.850369
vt 0.509900 0.438579
vt 0.542064 0.479291
vt 0.568316 0.486236
vt 0.585238 0.508069
vt 0.635189 0.522098
vt 0.660392 0.511734
vt 0.687031 0.520002
vt 0.735688 0.501991
vt 0.749650 0.478063
vt 0.776396 0.469825
vt 0.805174 0.426655
vt 0.801957 0.398851
vt 0.819203 0.376705
vt 0.817112 0.324865
vt 0.798168 0.304183
vt 0.079563 0.839312
vt 0.058416 0.779445
vt 0.056806 0.715973
vt 0.074888 0.655110
vt 0.110893 0.602814
vt 0.161296 0.564202
vt 0.221164 0.543057
vt 0.284635 0.541446
vt 0.279812 0.577893
vt 0.227839 0.579213
vt 0.178817 0.596524
vt 0.137546 0.628141
vt 0.108060 0.670960
vt 0.093256 0.720797
vt 0.094570 0.772769
vt 0.111886 0.821790
vt 0.578229 0.372307
vt 0.540745 0.401954
vt 0.601605 0.413901
vt 0.588894 0.459658
vt 0.644811 0.431880
vt 0.660640 0.474986
vt 0.688719 0.420132
vt 0.726241 0.444349
vt 0.716748 0.386308
vt 0.760939 0.384126
vt 0.721480 0.343803
vt 0.756370 0.315953
vt 0.524957 0.639323
vt 0.618418 0.665555
vt 0.570661 0.656097
vt 0.715411 0.661622
vt 0.667068 0.667384
vt 0.806441 0.627910
vt 0.762245 0.648328
vt 0.882598 0.567718
vt 0.846875 0.600795
vt 0.936428 0.486940
vt 0.912674 0.529436
vt 0.962662 0.393481
vt 0.953202 0.441237
vt 0.958733 0.296488
vt 0.964493 0.344831
vt 0.945441 0.249653
vt 0.575000 0.450000
vt 0.525000 0.475000
vt 0.525000 0.487353
vt 0.533312 0.480374
vt 0.539757 0.475000
vt 0.525000 0.487353
vt 0.532726 0.480867
vt 0.532920 0.480703
vt 0.575000 0.455011
vt 0.566526 0.458474
vt 0.570096 0.456961
vt 0.573532 0.455546
vt 0.574407 0.455160
vt 0.588220 0.450000
vt 0.575000 0.455011
vt 0.580154 0.453057
vt 0.608736 0.441264
vt 0.608327 0.441673
vt 0.608776 0.441518
vt 0.608763 0.441436
vt 0.603134 0.438055
vt 0.601069 0.437524
vt 0.600000 0.437700
vt 0.600000 0.444115
vt 0.607649 0.441854
vt 0.608327 0.441673
vt 0.608736 0.441264
vt 0.608467 0.440580
vt 0.607786 0.439377
vt 0.607703 0.439230
vt 0.596713 0.445960
vt 0.600000 0.444115
vt 0.600000 0.437700
vt 0.588267 0.442393
vt 0.578834 0.446166
vt 0.588220 0.450000
vt 0.575000 0.447749
vt 0.578834 0.446166
vt 0.576975 0.446909
vt 0.570269 0.450000
vt 0.575000 0.447749
vt 0.571408 0.449458
vt 0.550767 0.467467
vt 0.564560 0.459468
vt 0.565315 0.459057
vt 0.565852 0.458809
vt 0.566526 0.458474
vt 0.570269 0.450000
vt 0.563761 0.452181
vt 0.561162 0.453088
vt 0.558418 0.454046
vt 0.553744 0.455832
vt 0.550000 0.457264
vt 0.550000 0.467918
vt 0.548353 0.469047
vt 0.550000 0.467918
vt 0.550000 0.457264
vt 0.549360 0.457558
vt 0.547591 0.458313
vt 0.544767 0.459518
vt 0.542799 0.460439
vt 0.541455 0.461067
vt 0.539300 0.461741
vt 0.537786 0.462214
vt 0.539757 0.475000
vt 0.532121 0.465031
vt 0.528982 0.467716
vt 0.527192 0.469272
vt 0.525079 0.470439
vt 0.525000 0.470483
vt 0.537786 0.462214
vt 0.537282 0.462236
vt 0.536494 0.462315
vt 0.534647 0.462502
vt 0.534334 0.462828
vt 0.532972 0.464250
vt 0.532306 0.464862
vt 0.523333 0.472075
vt 0.521231 0.474036
vt 0.520204 0.475000
vt 0.525000 0.470483
vt 0.520204 0.475000
vt 0.516966 0.397543
vt 0.516368 0.401087
vt 0.516368 0.401087
vt 0.515165 0.408328
vt 0.515165 0.408328
vt 0.514148 0.414125
vt 0.514120 0.414351
vt 0.514120 0.414351
vt 0.513368 0.420330
vt 0.510771 0.621817
vt 0.513748 0.590399
vt 0.509797 0.618993
vt 0.513748 0.590399
vt 0.517837 0.562442
vt 0.517004 0.567452
vt 0.517837 0.562442
vt 0.517726 0.547192
vt 0.518809 0.557078
vt 0.517726 0.547192
vt 0.514763 0.525982
vt 0.517395 0.544066
vt 0.143070 0.839243
vt 0.144215 0.839214
vt 0.143070 0.839243
vt 0.133911 0.840285
vt 0.141616 0.839318
vt 0.126519 0.841164
vt 0.133911 0.840285
vt 0.124622 0.841420
vt 0.126519 0.841164
vt 0.063576 0.847978
vt 0.061217 0.847704
vt 0.062190 0.847722
vt 0.124622 0.841420
vt 0.114650 0.842594
vt 0.123398 0.841455
vt 0.114650 0.842594
vt 0.085531 0.848510
vt 0.100963 0.844386
vt 0.063576 0.847978
vt 0.079362 0.850524
vt 0.085531 0.848510
vt 0.508171 0.439550
vt 0.506538 0.444456
vt 0.506538 0.444456
vt 0.506164 0.445585
vt 0.513368 0.420330
vt 0.511754 0.426276
vt 0.511754 0.426276
vt 0.509010 0.436652
vt 0.509010 0.436652
vt 0.508828 0.437281
vt 0.508828 0.437281
vt 0.508171 0.439550
vt 0.060589 0.852204
vt 0.060741 0.849515
vt 0.060576 0.852541
vt 0.060589 0.852204
vt 0.514142 0.626682
vt 0.521855 0.637589
vt 0.510771 0.621817
vt 0.514142 0.626682
vt 0.061153 0.847825
vt 0.061217 0.847704
vt 0.060741 0.849515
vt 0.061024 0.848087
vt 0.061153 0.847825
vt 0.511344 0.497871
vt 0.512749 0.511081
vt 0.511344 0.497871
vt 0.510136 0.485451
vt 0.510237 0.487309
vt 0.509728 0.480370
vt 0.510136 0.485451
vt 0.509096 0.472279
vt 0.509728 0.480370
vt 0.508832 0.466544
vt 0.509096 0.472279
vt 0.508659 0.462637
vt 0.508832 0.466544
vt 0.513775 0.518728
vt 0.514763 0.525982
vt 0.512749 0.511081
vt 0.513775 0.518728
vt 0.217455 0.827412
vt 0.234797 0.823429
vt 0.144215 0.839214
vt 0.145870 0.839067
vt 0.145870 0.839067
vt 0.176476 0.835503
vt 0.176476 0.835503
vt 0.178183 0.835293
vt 0.181957 0.834618
vt 0.181957 0.834618
vt 0.201693 0.830978
vt 0.216139 0.827714
vt 0.216139 0.827714
vt 0.217019 0.827512
vt 0.217019 0.827512
vt 0.217455 0.827412
vt 0.507789 0.456609
vt 0.508659 0.462637
vt 0.507789 0.456609
vt 0.507014 0.451348
vt 0.507206 0.452416
vt 0.506755 0.449618
vt 0.507014 0.451348
vt 0.506164 0.445585
vt 0.506755 0.449618
vt 0.500000 0.475000
vt 0.500000 0.500000
vt 0.500000 0.525000
vt 0.506013 0.535050
vt 0.500000 0.541885
vt 0.508144 0.525000
vt 0.508144 0.525000
vt 0.506912 0.518088
vt 0.506912 0.518088
vt 0.502717 0.500000
vt 0.505591 0.512392
vt 0.502717 0.500000
vt 0.502746 0.497254
vt 0.502746 0.497254
vt 0.502647 0.475000
vt 0.502685 0.483609
vt 0.502715 0.490244
vt 0.502733 0.494383
vt 0.502647 0.475000
vt 0.502007 0.472993
vt 0.502007 0.472993
vt 0.500000 0.459135
vt 0.497818 0.375000
vt 0.493542 0.375000
vt 0.493690 0.371693
vt 0.494584 0.370735
vt 0.495829 0.369403
vt 0.496471 0.369920
vt 0.497545 0.370785
vt 0.497799 0.374702
vt 0.497416 0.377584
vt 0.491125 0.383875
vt 0.493542 0.375000
vt 0.497818 0.375000
vt 0.493369 0.400000
vt 0.486526 0.400000
vt 0.486534 0.399968
vt 0.490242 0.386969
vt 0.491125 0.383875
vt 0.497416 0.377584
vt 0.496917 0.380982
vt 0.495522 0.387442
vt 0.493460 0.396986
vt 0.493042 0.404844
vt 0.492855 0.407145
vt 0.480807 0.419193
vt 0.480954 0.418887
vt 0.480969 0.418857
vt 0.482097 0.417071
vt 0.482217 0.416881
vt 0.483547 0.412221
vt 0.483841 0.411190
vt 0.485746 0.403252
vt 0.486526 0.400000
vt 0.493369 0.400000
vt 0.481110 0.422842
vt 0.480498 0.420043
vt 0.480468 0.419910
vt 0.480491 0.419858
vt 0.480807 0.419193
vt 0.492855 0.407145
vt 0.492760 0.408476
vt 0.492732 0.412885
vt 0.492698 0.425000
vt 0.481476 0.425000
vt 0.485337 0.434253
vt 0.483013 0.427986
vt 0.482759 0.427490
vt 0.481476 0.425000
vt 0.492698 0.425000
vt 0.494519 0.430481
vt 0.486728 0.438272
vt 0.486524 0.437656
vt 0.485901 0.435776
vt 0.488532 0.447043
vt 0.488315 0.445989
vt 0.486728 0.438272
vt 0.494519 0.430481
vt 0.495498 0.435217
vt 0.496140 0.438349
vt 0.496285 0.439028
vt 0.498630 0.450000
vt 0.489138 0.450000
vt 0.487968 0.458842
vt 0.488204 0.457060
vt 0.488688 0.453390
vt 0.489138 0.450000
vt 0.498630 0.450000
vt 0.498441 0.451559
vt 0.487492 0.462508
vt 0.487996 0.465089
vt 0.487492 0.462508
vt 0.498441 0.451559
vt 0.500000 0.459135
vt 0.489937 0.475000
vt 0.489936 0.475000
vt 0.490709 0.484291
vt 0.490709 0.484291
vt 0.490792 0.500000
vt 0.490754 0.497833
vt 0.490688 0.493454
vt 0.490676 0.492127
vt 0.490674 0.490837
vt 0.490692 0.486763
vt 0.490792 0.500000
vt 0.493176 0.506824
vt 0.493176 0.506824
vt 0.497874 0.525000
vt 0.497664 0.524191
vt 0.497198 0.522392
vt 0.494026 0.510125
vt 0.497874 0.525000
vt 0.497992 0.527008
vt 0.495430 0.541618
vt 0.495796 0.539531
vt 0.496029 0.538204
vt 0.496727 0.534207
vt 0.497992 0.527008
vt 0.500000 0.541885
vt 0.499411 0.542663
vt 0.494213 0.548432
vt 0.494307 0.548021
vt 0.541183 0.382823
vt 0.538041 0.384501
vt 0.550647 0.377771
vt 0.541183 0.382823
vt 0.574428 0.366642
vt 0.572449 0.366667
vt 0.567690 0.368661
vt 0.550647 0.377771
vt 0.578827 0.366583
vt 0.574428 0.366643
vt 0.608820 0.366179
vt 0.578827 0.366583
vt 0.616891 0.366066
vt 0.608820 0.366179
vt 0.637345 0.360465
vt 0.632058 0.363373
vt 0.648028 0.354581
vt 0.637345 0.360465
vt 0.651263 0.352791
vt 0.648028 0.354581
vt 0.654405 0.351042
vt 0.651263 0.352791
vt 0.664321 0.345498
vt 0.654405 0.351042
vt 0.664321 0.345498
vt 0.711355 0.324397
vt 0.690961 0.332116
vt 0.670335 0.342129
vt 0.725980 0.319905
vt 0.716666 0.322385
vt 0.711355 0.324397
vt 0.730503 0.318693
vt 0.725980 0.319905
vt 0.739821 0.316199
vt 0.730503 0.318693
vt 0.754377 0.312349
vt 0.748428 0.313892
vt 0.739821 0.316199
vt 0.756499 0.311801
vt 0.754377 0.312349
vt 0.756499 0.311801
vt 0.773504 0.307395
vt 0.772026 0.307787
vt 0.778014 0.306199
vt 0.773504 0.307395
vt 0.781723 0.305309
vt 0.778014 0.306199
vt 0.796981 0.301655
vt 0.781723 0.305309
vt 0.798259 0.301455
vt 0.796981 0.301655
vt 0.809673 0.299102
vt 0.804691 0.300465
vt 0.798259 0.301455
vt 0.816293 0.297506
vt 0.809673 0.299102
vt 0.816610 0.297430
vt 0.816293 0.297506
vt 0.816610 0.297430
vt 0.816709 0.297352
vt 0.816610 0.297430
vt 0.816709 0.297352
vt 0.818561 0.295841
vt 0.817974 0.296318
vt 0.818618 0.295793
vt 0.818561 0.295840
vt 0.822023 0.292563
vt 0.818618 0.295793
vt 0.822382 0.292208
vt 0.822023 0.292563
vt 0.831596 0.286394
vt 0.822382 0.292208
vt 0.833629 0.285100
vt 0.831596 0.286394
vt 0.849514 0.275734
vt 0.833629 0.285100
vt 0.849514 0.275734
vt 0.856101 0.271832
vt 0.856015 0.271881
vt 0.891248 0.251212
vt 0.856101 0.271832
vt 0.891249 0.251212
vt 0.926598 0.228798
vt 0.919148 0.232317
vt 0.899602 0.246280
vt 0.929310 0.226331
vt 0.926598 0.228798
vt 0.933002 0.222727
vt 0.929310 0.226331
vt 0.342794 0.534897
vt 0.342557 0.533622
vt 0.343100 0.536996
vt 0.342794 0.534897
vt 0.340952 0.543630
vt 0.343100 0.536996
vt 0.340788 0.544134
vt 0.340952 0.543630
vt 0.335436 0.555662
vt 0.338423 0.548477
vt 0.329276 0.569144
vt 0.335436 0.555662
vt 0.320134 0.589047
vt 0.329276 0.569144
vt 0.320134 0.589047
vt 0.315060 0.603357
vt 0.317871 0.595587
vt 0.312896 0.609134
vt 0.313693 0.607031
vt 0.315060 0.603357
vt 0.310560 0.616246
vt 0.312896 0.609134
vt 0.300910 0.652822
vt 0.302257 0.645679
vt 0.304183 0.635818
vt 0.310560 0.616246
vt 0.300013 0.657543
vt 0.300910 0.652822
vt 0.299825 0.658569
vt 0.300013 0.657543
vt 0.296228 0.678119
vt 0.296797 0.675145
vt 0.299825 0.658569
vt 0.277452 0.732075
vt 0.285009 0.716043
vt 0.285923 0.712519
vt 0.292696 0.689891
vt 0.271627 0.744432
vt 0.277452 0.732075
vt 0.267994 0.752139
vt 0.271627 0.744431
vt 0.265473 0.757487
vt 0.267994 0.752139
vt 0.265933 0.785716
vt 0.264109 0.762641
vt 0.266772 0.796324
vt 0.265933 0.785716
vt 0.255448 0.824892
vt 0.263742 0.806713
vt 0.517775 0.482226
vt 0.517481 0.483140
vt 0.514912 0.491289
vt 0.519556 0.475343
vt 0.517775 0.482225
vt 0.517941 0.395240
vt 0.516981 0.395787
vt 0.533100 0.387141
vt 0.517941 0.395240
vt 0.538041 0.384501
vt 0.533100 0.387141
vn 0.460564 -0.498271 0.734580
vn 0.324525 -0.552088 0.768038
vn 0.497244 -0.497560 0.710761
vn 0.496885 -0.499926 0.709352
vn 0.175335 -0.603005 0.778230
vn 0.378838 -0.530899 0.758043
vn 0.097359 -0.643100 0.759568
vn 0.079574 -0.638086 0.765842
vn 0.469188 -0.583821 0.662582
vn 0.426390 -0.534185 0.729957
vn 0.475676 -0.578994 0.662192
vn 0.475675 -0.578997 0.662190
vn 0.475677 -0.578990 0.662195
vn 0.458110 -0.577332 0.675886
vn 0.379668 -0.546859 0.746188
vn 0.383258 -0.542933 0.747220
vn 0.447637 -0.538305 0.714037
vn 0.412644 -0.542861 0.731455
vn 0.332809 -0.549951 0.766024
vn 0.332812 -0.549953 0.766021
vn 0.332809 -0.549949 0.766025
vn 0.332821 -0.549951 0.766019
vn 0.332813 -0.549945 0.766026
vn 0.332806 -0.549956 0.766021
vn 0.456462 -0.551048 0.698562
vn 0.375409 -0.612278 0.695833
vn 0.353213 -0.627490 0.693900
vn 0.353216 -0.627486 0.693902
vn 0.353215 -0.627487 0.693902
vn 0.362319 -0.628736 0.688053
vn 0.355588 -0.627821 0.692386
vn 0.353216 -0.627490 0.693898
vn 0.353215 -0.627487 0.693901
vn 0.367751 -0.625842 0.687809
vn 0.363104 -0.628379 0.687965
vn 0.362379 -0.628759 0.688000
vn 0.362468 -0.628763 0.687949
vn 0.362426 -0.628743 0.687989
vn 0.362435 -0.628740 0.687988
vn 0.362430 -0.628743 0.687988
vn 0.362424 -0.628747 0.687988
vn 0.362425 -0.628747 0.687987
vn 0.362429 -0.628747 0.687984
vn 0.367772 -0.625830 0.687809
vn 0.367778 -0.625827 0.687809
vn 0.336684 -0.621666 0.707231
vn 0.367781 -0.625828 0.687805
vn 0.367724 -0.625810 0.687852
vn 0.367770 -0.625822 0.687817
vn 0.367777 -0.625826 0.687809
vn 0.331830 -0.620946 0.710152
vn 0.280298 -0.615175 0.736880
vn 0.283843 -0.613746 0.736715
vn 0.285361 -0.613130 0.736642
vn 0.285354 -0.613133 0.736642
vn 0.285358 -0.613132 0.736641
vn 0.285360 -0.613131 0.736641
vn 0.285359 -0.613132 0.736641
vn 0.280010 -0.615291 0.736893
vn 0.280014 -0.615290 0.736892
vn 0.281002 -0.615367 0.736452
vn 0.280012 -0.615291 0.736892
vn 0.282131 -0.615453 0.735948
vn 0.280015 -0.615289 0.736893
vn 0.280014 -0.615289 0.736893
vn 0.371299 -0.552532 0.746221
vn 0.329497 -0.584664 0.741350
vn 0.285931 -0.615735 0.734244
vn 0.285929 -0.615735 0.734245
vn 0.285930 -0.615734 0.734245
vn 0.383286 -0.542877 0.747246
vn 0.423480 -0.536364 0.730054
vn 0.488725 -0.495159 0.718308
vn 0.466200 -0.468880 0.750206
vn 0.516875 -0.465124 0.718679
vn 0.516873 -0.465130 0.718677
vn 0.516876 -0.465123 0.718679
vn 0.516873 -0.465130 0.718677
vn 0.516873 -0.465128 0.718678
vn 0.132530 -0.544093 0.828492
vn 0.136861 -0.559442 0.817492
vn 0.112195 -0.555200 0.824115
vn 0.112192 -0.555203 0.824113
vn 0.112274 -0.554254 0.824741
vn 0.493452 -0.507494 0.706368
vn 0.496058 -0.505164 0.706212
vn 0.496075 -0.505148 0.706212
vn 0.496072 -0.505151 0.706212
vn 0.496076 -0.505148 0.706211
vn 0.496076 -0.505148 0.706211
vn 0.496075 -0.505145 0.706214
vn 0.496078 -0.505146 0.706211
vn -0.138266 -0.952199 -0.272398
vn -0.179125 -0.952224 -0.247355
vn -0.096352 -0.976983 -0.190318
vn -0.096040 -0.976999 -0.190393
vn -0.124918 -0.976988 -0.172885
vn -0.124625 -0.977002 -0.173021
vn -0.273331 -0.885046 -0.376808
vn -0.119669 -0.964313 -0.236177
vn -0.065379 -0.976988 -0.203026
vn -0.093920 -0.952223 -0.290602
vn -0.211024 -0.885046 -0.414924
vn -0.150174 -0.976999 -0.151397
vn -0.155152 -0.964305 -0.214577
vn -0.150448 -0.976983 -0.151229
vn -0.215673 -0.952199 -0.216339
vn -0.328915 -0.885045 -0.329409
vn -0.065058 -0.977002 -0.203064
vn -0.081251 -0.964305 -0.252020
vn -0.143511 -0.885047 -0.442829
vn 0.004943 -0.999938 0.009946
vn 0.006352 -0.999940 0.008935
vn -0.186794 -0.964313 -0.187638
vn 0.007775 -0.999938 0.007932
vn -0.541268 -0.388824 -0.745550
vn -0.417976 -0.388830 -0.821040
vn -0.284389 -0.388833 -0.876317
vn -0.032504 -0.976999 -0.210753
vn -0.040828 -0.964313 -0.261597
vn -0.032824 -0.976983 -0.210778
vn -0.047320 -0.952199 -0.301792
vn -0.072475 -0.885044 -0.459832
vn 0.003280 -0.999940 0.010461
vn -0.213867 -0.964305 -0.156130
vn -0.651237 -0.388823 -0.651696
vn -0.171992 -0.977002 -0.126042
vn -0.172228 -0.976988 -0.125823
vn -0.246794 -0.952224 -0.179896
vn -0.376393 -0.885045 -0.273904
vn 0.008803 -0.999940 0.006535
vn -0.745167 -0.388818 -0.541801
vn 0.005436 0.999972 0.005105
vn -0.143803 -0.388832 -0.910017
vn 0.000604 -0.964305 -0.264792
vn 0.001627 -0.999938 0.010987
vn 0.048271 -0.987683 0.148840
vn 0.070663 -0.987746 0.139157
vn 0.091652 -0.987802 0.125884
vn 0.108351 -0.988221 0.108071
vn 0.121793 -0.988578 0.088768
vn 0.006075 0.999973 0.004122
vn 0.004504 0.999973 0.005797
vn 0.003592 0.999972 0.006535
vn 0.002492 0.999973 0.006905
vn 0.001397 0.999972 0.007325
vn 0.000327 -0.388814 -0.921316
vn 0.000875 -0.977002 -0.213230
vn 0.000559 -0.976988 -0.213292
vn 0.000477 -0.952223 -0.305403
vn 0.000353 -0.885043 -0.465510
vn -0.000113 -0.999940 0.010963
vn 0.025278 -0.987199 0.157479
vn 0.000156 -0.986717 0.162450
vn 0.134184 -0.988570 0.068732
vn 0.009845 -0.999938 0.005141
vn -0.820746 -0.388827 -0.418556
vn -0.235635 -0.964313 -0.120732
vn -0.189608 -0.976999 -0.097581
vn -0.189816 -0.976983 -0.097336
vn -0.271970 -0.952199 -0.139105
vn -0.414614 -0.885042 -0.211649
vn 0.006747 0.999972 0.003176
vn 0.110386 0.987807 0.109780
vn 0.091843 0.987811 0.125674
vn 0.000236 0.999973 0.007337
vn 0.142724 -0.401563 -0.904642
vn 0.042007 -0.964313 -0.261410
vn -0.001847 -0.999938 0.010952
vn 0.025301 -0.996683 0.077346
vn 0.036478 -0.996735 0.072032
vn 0.014490 -0.996257 0.085223
vn 0.047446 -0.996780 0.064644
vn 0.055663 -0.996969 0.054365
vn 0.060640 -0.997205 0.043645
vn 0.065236 -0.997306 0.033532
vn 0.143472 -0.988552 0.046706
vn 0.070214 -0.997274 0.022702
vn -0.876125 -0.388809 -0.285014
vn 0.007051 0.999973 0.002042
vn 0.138907 0.987807 0.070296
vn 0.126184 0.987811 0.091142
vn 0.071059 0.987807 0.138518
vn 0.048513 0.987811 0.147904
vn 0.024777 0.987807 0.153697
vn 0.000434 0.987811 0.155656
vn -0.000880 0.999973 0.007241
vn 0.034212 -0.976999 -0.210482
vn 0.033915 -0.976983 -0.210604
vn 0.048252 -0.952199 -0.301645
vn 0.073164 -0.885044 -0.459722
vn -0.025729 -0.986742 0.160243
vn 0.004363 -0.999916 0.012191
vn -0.050266 -0.986802 0.153933
vn -0.014668 -0.995874 0.089549
vn 0.000522 -0.995805 0.091497
vn 0.148009 -0.988716 0.023108
vn 0.010391 -0.999940 0.003495
vn -0.251646 -0.964305 -0.082400
vn -0.202523 -0.977002 -0.066725
vn -0.202681 -0.976988 -0.066443
vn -0.290307 -0.952224 -0.094828
vn -0.442608 -0.885048 -0.144184
vn -0.909923 -0.388814 -0.144445
vn 0.007398 0.999972 0.000935
vn 0.148172 0.987811 0.047688
vn 0.099585 0.990294 0.096956
vn 0.089197 0.988524 0.121922
vn 0.062214 0.990295 0.124276
vn -0.023931 0.987807 0.153831
vn 0.071499 -0.965942 -0.248685
vn 0.204983 -0.537831 -0.817753
vn 0.171383 0.677406 -0.715367
vn 0.016103 0.997607 -0.067244
vn 0.144185 -0.885044 -0.442615
vn -0.003495 -0.999940 0.010391
vn 0.004298 -0.999959 0.007978
vn 0.004636 -0.999972 0.005884
vn 0.002321 -0.999943 0.010392
vn -0.027909 -0.995936 0.085635
vn 0.006366 -0.999965 0.005433
vn 0.008557 -0.999949 0.005474
vn 0.006839 -0.999971 0.003350
vn 0.006002 -0.999980 0.001809
vn 0.071302 -0.997399 0.010581
vn -0.261411 -0.964313 -0.042007
vn 0.153831 0.987807 0.023931
vn 0.123380 0.990295 0.063973
vn 0.107109 0.991238 0.077300
vn 0.023268 0.999537 0.019626
vn 0.037474 0.997966 0.051579
vn 0.011475 0.999537 0.028194
vn 0.041217 0.991238 0.125494
vn 0.023576 0.990294 0.136973
vn 0.000498 0.988524 0.151065
vn -0.022716 0.990295 0.137110
vn 0.251299 -0.754841 -0.605858
vn 0.252109 -0.752998 -0.607812
vn -0.029244 0.991652 0.125586
vn -0.042144 0.987518 0.151761
vn 0.017480 0.994952 0.098821
vn 0.428776 0.901360 -0.060843
vn 0.607240 0.793979 -0.029259
vn 0.607258 0.793966 -0.029258
vn 0.175023 0.677644 -0.714259
vn 0.171374 0.677438 -0.715338
vn 0.281790 0.677559 -0.679345
vn 0.084750 -0.975227 -0.204327
vn 0.060359 -0.977240 -0.203367
vn 0.066443 -0.976988 -0.202680
vn 0.094828 -0.952223 -0.290307
vn -0.042314 -0.995479 0.085037
vn -0.004614 -0.999880 0.014787
vn -0.074467 -0.986371 0.146719
vn -0.005142 -0.999938 0.009845
vn -0.002520 -0.999965 -0.007944
vn -0.001699 -0.999939 0.010905
vn 0.000404 -0.999959 0.009057
vn -0.006791 -0.999964 -0.004992
vn 0.007247 -0.999973 0.000876
vn 0.071545 -0.997437 -0.000270
vn 0.148511 -0.988911 -0.000261
vn 0.010951 -0.999938 0.001847
vn -0.210482 -0.976999 -0.034212
vn -0.210605 -0.976983 -0.033915
vn -0.301646 -0.952198 -0.048251
vn -0.459723 -0.885043 -0.073164
vn -0.264792 -0.964305 -0.000605
vn -0.921308 -0.388833 -0.000329
vn 0.007337 0.999973 -0.000236
vn 0.143826 0.988524 0.046209
vn 0.018518 0.999738 0.013454
vn 0.007073 0.999738 0.021770
vn 0.007288 0.999537 0.029554
vn 0.000000 0.997966 0.063755
vn -0.007288 0.999537 0.029554
vn -0.037020 0.991806 0.122270
vn -0.062698 0.986520 0.151156
vn -0.049611 0.991581 0.119607
vn 0.541230 0.828939 0.141174
vn 0.427395 0.902001 -0.061063
vn 0.535733 0.834300 0.130131
vn 0.427397 0.902000 -0.061063
vn 0.427400 0.901998 -0.061062
vn 0.427387 0.902004 -0.061060
vn 0.427390 0.902003 -0.061062
vn 0.083085 -0.976203 -0.200313
vn 0.083087 -0.976203 -0.200313
vn 0.139105 -0.952199 -0.271969
vn 0.211649 -0.885043 -0.414612
vn -0.005108 -0.999924 0.011201
vn -0.003290 -0.999961 -0.008191
vn -0.004947 -0.999962 -0.007163
vn -0.001902 -0.999962 -0.008556
vn 0.002586 -0.999966 -0.007828
vn 0.000216 -0.999962 -0.008687
vn -0.006585 -0.999961 -0.005825
vn -0.007515 -0.999961 -0.004640
vn -0.008262 -0.999962 -0.002761
vn 0.009275 -0.999957 0.000010
vn -0.213230 -0.977002 -0.000876
vn 0.155656 0.987811 -0.000434
vn 0.137555 0.990294 0.019904
vn 0.030360 0.999537 0.002201
vn 0.060635 0.997966 0.019701
vn 0.025856 0.999537 0.016064
vn 0.003711 0.999980 0.005107
vn -0.066437 0.984849 0.160180
vn -0.066440 0.984849 0.160181
vn -0.006664 0.999773 0.020241
vn 0.611423 0.789119 0.058761
vn 0.558936 0.810008 0.177420
vn 0.571171 0.803262 0.168918
vn 0.558606 0.810263 0.177294
vn 0.558606 0.810263 0.177293
vn 0.083087 -0.976203 -0.200312
vn 0.083663 -0.976213 -0.200021
vn 0.089321 -0.978021 -0.188404
vn 0.096696 -0.976791 -0.191125
vn 0.273904 -0.885044 -0.376396
vn -0.058408 -0.995010 0.080892
vn -0.098118 -0.985949 0.135197
vn -0.006535 -0.999940 0.008803
vn -0.005981 -0.999946 0.008540
vn -0.002566 -0.999962 -0.008329
vn 0.002154 -0.999961 -0.008544
vn 0.003435 -0.999962 -0.008053
vn -0.006962 -0.999962 -0.005200
vn -0.008470 -0.999964 0.000001
vn 0.007284 -0.999973 -0.000927
vn 0.147622 -0.988771 -0.023228
vn 0.010963 -0.999940 0.000113
vn -0.213292 -0.976988 -0.000559
vn -0.305401 -0.952224 -0.000477
vn -0.465511 -0.885042 -0.000353
vn -0.210753 -0.976999 0.032504
vn -0.261598 -0.964313 0.040828
vn -0.910025 -0.388812 0.143806
vn 0.007326 0.999972 -0.001397
vn 0.132088 0.991238 -0.000420
vn 0.153697 0.987807 -0.024777
vn 0.000000 0.999980 0.006313
vn -0.023287 0.998151 0.056143
vn -0.066441 0.984849 0.160182
vn 0.696331 0.715248 0.059528
vn 0.700933 0.709590 0.071935
vn -0.017043 0.997951 0.061679
vn 0.588000 0.786537 0.188721
vn 0.556194 0.826515 0.086730
vn 0.113218 -0.976203 -0.184959
vn 0.113220 -0.976202 -0.184960
vn 0.123318 -0.975647 -0.181398
vn 0.184911 -0.947599 -0.260509
vn -0.069175 -0.995306 0.067679
vn -0.007992 -0.999940 0.007499
vn 0.005196 -0.999962 -0.006952
vn 0.002798 -0.999962 -0.008267
vn -0.008793 -0.999961 -0.000753
vn 0.071494 -0.997381 -0.010942
vn -0.210778 -0.976983 0.032824
vn 0.022890 0.999738 -0.000000
vn 0.137419 0.990295 -0.020765
vn 0.006004 0.999980 0.001951
vn 0.001445 0.999998 0.001050
vn 0.000552 0.999998 0.001699
vn -0.015706 0.997715 0.065707
vn -0.005585 0.999755 0.021423
vn -0.007911 0.999909 0.010889
vn -0.007677 0.999917 0.010331
vn -0.000796 0.999986 0.005185
vn -0.026268 0.998567 0.046619
vn -0.035719 0.996930 0.069681
vn -0.037211 0.997457 0.060784
vn 0.580568 0.813742 -0.027663
vn 0.674003 0.738719 0.003929
vn 0.674000 0.738721 0.003927
vn 0.674007 0.738714 0.003934
vn 0.528962 0.848546 0.012959
vn 0.572900 0.819086 -0.029748
vn 0.109029 -0.977951 -0.178114
vn 0.113219 -0.976203 -0.184959
vn 0.105691 -0.979295 -0.172660
vn 0.115678 -0.979413 -0.165433
vn 0.131550 -0.979295 -0.153872
vn 0.249390 -0.928632 -0.274676
vn 0.313845 -0.887944 -0.336239
vn -0.116820 -0.986233 0.117039
vn -0.018695 -0.999679 0.017097
vn -0.068656 -0.996237 0.052900
vn -0.004094 -0.999972 -0.006264
vn 0.000331 -0.999971 -0.007580
vn -0.006949 -0.999973 -0.002466
vn -0.008799 -0.999961 0.000739
vn -0.008704 -0.999962 -0.000017
vn 0.005975 -0.999980 -0.001929
vn 0.143455 -0.988565 -0.046475
vn 0.010988 -0.999938 -0.001628
vn -0.301793 -0.952198 0.047321
vn -0.459832 -0.885044 0.072474
vn -0.203026 -0.976988 0.065379
vn -0.203064 -0.977002 0.065059
vn -0.252020 -0.964305 0.081251
vn -0.876325 -0.388814 0.284390
vn 0.006905 0.999973 -0.002492
vn 0.147904 0.987811 -0.048513
vn 0.143519 0.988524 -0.047155
vn 0.030360 0.999537 -0.002201
vn -0.000555 0.999998 0.001709
vn -0.123491 -0.987080 0.102097
vn -0.009641 0.999936 0.005857
vn -0.009045 0.999956 0.002570
vn 0.573177 0.818881 -0.030026
vn 0.584981 0.811037 -0.003924
vn 0.573840 0.818468 -0.028590
vn 0.573177 0.818881 -0.030026
vn 0.573177 0.818881 -0.030026
vn 0.573177 0.818881 -0.030029
vn 0.573177 0.818881 -0.030025
vn 0.573175 0.818882 -0.030026
vn 0.573177 0.818881 -0.030030
vn 0.573173 0.818884 -0.030029
vn 0.155154 -0.971077 -0.181484
vn 0.131550 -0.979294 -0.153873
vn 0.156185 -0.970686 -0.182690
vn 0.157829 -0.970725 -0.181059
vn 0.182688 -0.970686 -0.156184
vn 0.366417 -0.876133 -0.313258
vn 0.584929 0.811073 0.004353
vn 0.565879 0.824123 0.024527
vn 0.571172 0.820580 -0.020275
vn 0.378757 -0.867002 -0.323808
vn -0.009620 -0.999929 0.007042
vn 0.006664 -0.999962 -0.005691
vn 0.004112 -0.999970 -0.006633
vn -0.008316 -0.999962 0.002592
vn 0.069380 -0.997336 -0.022524
vn -0.290602 -0.952224 0.093920
vn 0.060635 0.997966 -0.019701
vn 0.001786 0.999998 -0.000000
vn 0.000000 1.000000 0.000000
vn -0.000298 1.000000 0.000069
vn -0.008956 0.999958 0.002073
vn 0.565879 0.824124 0.024523
vn -0.148390 -0.984749 0.090831
vn -0.134271 -0.987530 0.082193
vn -0.135016 -0.987333 0.083334
vn -0.040948 -0.998837 0.025461
vn 0.587069 0.809535 0.001550
vn 0.587437 0.809269 0.001654
vn 0.587437 0.809268 0.001648
vn 0.587437 0.809268 0.001657
vn 0.587436 0.809269 0.001654
vn 0.587438 0.809268 0.001657
vn 0.587436 0.809269 0.001652
vn 0.587436 0.809269 0.001655
vn 0.305215 -0.915837 -0.260933
vn 0.378758 -0.867001 -0.323809
vn 0.300436 -0.918568 -0.256849
vn -0.067692 -0.996027 0.057871
vn -0.132252 -0.984746 0.113066
vn -0.132470 -0.984752 0.112762
vn -0.030478 -0.999355 0.019014
vn 0.006674 -0.999967 -0.004686
vn 0.006949 -0.999963 -0.005175
vn -0.002444 -0.999988 -0.004321
vn -0.007512 -0.999971 0.001255
vn 0.004642 -0.999987 -0.002068
vn 0.064751 -0.997503 -0.028187
vn 0.138617 -0.988606 -0.058681
vn 0.009669 -0.999949 -0.002946
vn -0.442910 -0.885007 0.143502
vn -0.279576 -0.952536 0.120468
vn -0.195319 -0.976982 0.085774
vn -0.195081 -0.976915 0.087065
vn -0.251578 -0.961042 0.114487
vn -0.834003 -0.377265 0.402629
vn 0.005022 0.999984 -0.002551
vn 0.140068 0.987875 -0.066964
vn 0.026116 0.999551 -0.014710
vn 0.006219 0.999980 -0.000661
vn 0.000000 1.000000 0.000000
vn 0.565879 0.824124 0.024526
vn 0.538687 0.842422 -0.011839
vn 0.538691 0.842421 -0.011837
vn 0.538659 0.842441 -0.011847
vn 0.538629 0.842459 -0.011887
vn 0.538607 0.842474 -0.011861
vn 0.538746 0.842385 -0.011811
vn 0.538693 0.842419 -0.011841
vn 0.538652 0.842445 -0.011850
vn 0.538683 0.842426 -0.011835
vn 0.543211 0.839572 -0.006361
vn 0.522003 0.852851 -0.012579
vn -0.003140 -0.999993 0.001982
vn -0.031601 -0.999307 0.019682
vn -0.031175 -0.999305 0.020417
vn 0.007488 -0.999961 -0.004656
vn 0.006858 -0.999968 -0.004048
vn -0.007568 -0.999963 0.004103
vn -0.431549 -0.883539 0.182001
vn 0.127720 0.989831 -0.062634
vn 0.000135 1.000000 -0.000213
vn -0.000000 1.000000 -0.000000
vn 0.529116 0.846192 -0.063213
vn 0.618249 0.784797 -0.043151
vn 0.559131 0.828975 0.013176
vn 0.559141 0.828968 0.013171
vn -0.035118 -0.999264 0.015402
vn 0.007518 -0.999964 -0.003903
vn 0.007891 -0.999960 -0.004107
vn 0.008029 -0.999959 -0.004225
vn 0.009029 -0.999959 -0.001130
vn 0.008725 -0.999962 -0.000870
vn 0.009028 -0.999959 -0.001129
vn 0.007698 -0.999970 0.000034
vn 0.006256 -0.999971 -0.004409
vn 0.006251 -0.999971 -0.004423
vn 0.006238 -0.999971 -0.004467
vn 0.006238 -0.999971 -0.004467
vn 0.007532 -0.999972 0.000549
vn 0.004354 -0.999973 0.005875
vn -0.001360 -0.999973 0.007241
vn -0.005723 -0.999974 0.004488
vn -0.005767 -0.999974 0.004458
vn -0.005767 -0.999974 0.004456
vn -0.005789 -0.999973 0.004472
vn -0.006884 -0.999966 0.004471
vn -0.005890 -0.999972 0.004540
vn -0.008007 -0.999958 0.004354
vn -0.007885 -0.999960 0.004104
vn -0.007689 -0.999955 0.005587
vn -0.007524 -0.999957 0.005467
vn -0.007019 -0.999963 0.005021
vn -0.007022 -0.999963 0.004992
vn -0.007040 -0.999963 0.005009
vn 0.003067 -0.999993 -0.001967
vn 0.019873 -0.999726 -0.012403
vn 0.025124 -0.999563 -0.015603
vn 0.114847 -0.990882 -0.070446
vn 0.125022 -0.989198 -0.076532
vn 0.115112 -0.990851 -0.070459
vn 0.160689 -0.984748 -0.066716
vn -0.087308 -0.995523 0.036209
vn -0.364991 -0.918577 0.151654
vn -0.337104 -0.918577 0.206344
vn -0.337112 -0.918570 0.206361
vn -0.424065 -0.867634 0.259576
vn -0.424998 -0.867007 0.260146
vn -0.212052 -0.968601 0.129794
vn -0.204996 -0.970686 0.125483
vn -0.175935 -0.978493 0.107694
vn -0.172661 -0.979294 0.105690
vn -0.184932 -0.976209 0.113204
vn -0.172664 -0.979294 0.105691
vn -0.184959 -0.976203 0.113219
vn -0.184959 -0.976203 0.113219
vn -0.320614 -0.926655 0.196258
vn -0.184960 -0.976203 0.113219
vn -0.559412 -0.754850 0.342433
vn -0.815016 -0.294708 0.498895
vn -0.627347 0.677470 0.384018
vn 0.003057 0.999994 -0.001872
vn 0.110439 0.991581 -0.067604
vn 0.110437 0.991581 -0.067603
vn 0.110439 0.991581 -0.067604
vn 0.134536 0.987481 -0.082354
vn 0.147904 0.984849 -0.090536
vn 0.124126 0.989353 -0.075981
vn 0.050347 0.997890 -0.040985
vn 0.046959 0.998483 -0.028745
vn 0.016779 0.999755 -0.014443
vn 0.051201 0.997716 -0.044072
vn 0.007193 0.999946 -0.007543
vn 0.004739 0.999958 -0.007876
vn 0.004751 0.999958 -0.007860
vn 0.004739 0.999958 -0.007876
vn 0.007576 0.999970 -0.001754
vn -0.000000 1.000000 -0.000000
vn -0.000000 1.000000 -0.000000
vn 0.000001 1.000000 0.000002
vn 0.000000 1.000000 -0.000000
vn 0.000000 1.000000 0.000000
vn -0.000002 1.000000 -0.000001
vn 0.000000 1.000000 0.000000
vn 0.000000 1.000000 0.000000
vn 0.000000 1.000000 -0.000000
vn -0.000000 1.000000 0.000000
vn 0.000000 1.000000 0.000001
vn 0.000000 1.000000 -0.000000
vn -0.000000 1.000000 -0.000000
vn -0.000000 1.000000 0.000000
vn -0.000000 1.000000 -0.000000
vn 0.000000 1.000000 0.000000
vn 0.517648 0.846648 -0.123402
vn 0.498117 0.857482 -0.128859
vn 0.498117 0.857482 -0.128859
vn 0.654783 0.751508 -0.080589
vn 0.005752 -0.999980 -0.002599
vn -0.035660 -0.999234 0.016134
vn -0.035667 -0.999233 0.016137
vn 0.007308 -0.999966 -0.003769
s 1
g SM_Shard_3 SM_broken_plate
usemtl aiStandardSurface1SG
f 1/505/1 2/502/2 4/503/3
f 4/503/3 2/502/2 3/504/4
f 5/507/5 2/502/2 1/506/1
f 8/501/6 2/502/2 7/509/7
f 7/509/7 2/502/2 6/510/8
f 6/510/8 2/502/2 5/508/5
f 9/512/9 8/501/6 7/511/7
f 8/501/6 9/513/9 14/500/10
f 9/513/9 10/517/11 14/500/10
f 10/517/11 11/516/12 14/500/10
f 11/516/12 12/515/13 14/500/10
f 12/515/13 13/514/14 14/500/10
f 15/519/15 14/500/10 13/518/14
f 16/521/16 14/500/10 15/520/15
f 23/523/17 24/522/18 22/524/19
f 24/522/18 17/529/20 22/524/19
f 17/529/20 18/528/21 22/524/19
f 22/524/19 18/528/21 21/525/22
f 18/528/21 19/527/23 21/525/22
f 19/527/23 20/526/24 21/525/22
f 24/533/18 23/532/17 26/530/25
f 26/530/25 23/532/17 25/531/26
f 26/539/25 25/538/26 29/540/27
f 29/540/27 25/538/26 28/541/28
f 25/538/26 30/537/29 28/541/28
f 32/535/30 33/534/31 31/536/32
f 31/536/32 33/534/31 30/537/29
f 33/534/31 27/542/33 30/537/29
f 27/542/33 28/541/28 30/537/29
f 41/545/34 42/544/35 40/546/36
f 40/546/36 42/544/35 39/547/37
f 39/547/37 42/544/35 38/548/38
f 38/548/38 42/544/35 37/549/39
f 37/549/39 42/544/35 36/550/40
f 36/550/40 42/544/35 35/551/41
f 35/551/41 42/544/35 34/552/42
f 42/544/35 43/543/43 34/552/42
f 43/543/43 33/554/31 34/552/42
f 33/554/31 32/553/30 34/552/42
f 42/560/35 41/559/34 47/561/44
f 47/561/44 41/559/34 46/562/45
f 46/562/45 41/559/34 45/563/46
f 41/559/34 48/558/47 45/563/46
f 48/558/47 49/557/48 45/563/46
f 49/557/48 50/556/49 45/563/46
f 50/556/49 51/555/50 45/563/46
f 44/564/51 45/563/46 51/555/50
f 54/571/52 55/570/53 53/572/54
f 53/572/54 55/570/53 52/573/55
f 44/568/51 56/567/56 45/569/46
f 52/573/55 55/570/53 58/565/57
f 56/567/56 57/566/58 45/569/46
f 58/565/57 55/570/53 57/566/58
f 55/570/53 45/569/46 57/566/58
f 55/577/53 54/576/52 63/578/59
f 63/578/59 54/576/52 62/579/60
f 60/581/61 61/580/62 59/582/63
f 59/582/63 61/580/62 65/574/64
f 65/574/64 61/580/62 64/575/65
f 54/576/52 64/575/65 62/579/60
f 61/580/62 62/579/60 64/575/65
f 66/589/66 67/588/67 70/583/68
f 70/583/68 67/588/67 69/584/69
f 69/584/69 67/588/67 68/585/70
f 68/585/70 67/588/67 59/586/63
f 67/588/67 60/587/61 59/586/63
f 67/592/67 66/591/66 16/593/16
f 16/593/16 66/591/66 14/500/10
f 66/591/66 72/590/71 14/500/10
f 71/594/72 14/500/10 72/590/71
f 73/596/73 14/500/10 71/595/72
f 8/501/6 14/500/10 79/598/74
f 79/598/74 14/500/10 78/599/75
f 78/599/75 14/500/10 77/600/76
f 77/600/76 14/500/10 76/601/77
f 76/601/77 14/500/10 75/602/78
f 75/602/78 14/500/10 74/603/79
f 74/603/79 14/500/10 73/597/73
f 80/605/80 8/501/6 79/604/74
f 2/502/2 8/501/6 84/607/81
f 84/607/81 8/501/6 83/608/82
f 83/608/82 8/501/6 82/609/83
f 8/501/6 80/606/80 82/609/83
f 81/610/84 82/609/83 80/606/80
f 85/612/85 2/502/2 84/611/81
f 87/620/86 88/619/87 86/621/88
f 86/621/88 88/619/87 92/613/89
f 2/502/2 85/617/85 3/618/4
f 85/617/85 89/616/90 3/618/4
f 89/616/90 90/615/91 3/618/4
f 90/615/91 91/614/92 3/618/4
f 91/614/92 92/613/89 3/618/4
f 88/619/87 3/618/4 92/613/89
s 10
f 93/160/93 94/21/94 95/97/95
f 96/218/96 97/217/97 98/58/98
f 95/97/95 94/21/94 97/217/97
f 93/160/93 99/159/99 94/21/94
f 95/97/95 97/217/97 96/218/96
f 96/218/96 98/58/98 100/241/100
f 101/219/101 93/160/93 95/97/95
f 102/22/102 103/76/103 93/160/93
f 103/76/103 99/159/99 93/160/93
f 98/58/98 104/216/104 105/30/105
f 97/217/97 106/96/106 98/58/98
f 94/21/94 107/163/107 97/217/97
f 99/159/99 108/77/108 94/21/94
f 100/241/100 98/58/98 105/30/105
f 109/59/109 95/97/95 96/218/96
f 110/31/110 96/218/96 100/241/100
f 101/219/101 95/97/95 109/59/109
f 102/22/102 93/160/93 101/219/101
f 111/156/111 103/76/103 102/22/102
f 111/156/111 112/158/112 103/76/103
f 103/76/103 113/5/113 99/159/99
f 105/30/105 104/216/104 114/238/114
f 98/58/98 106/96/106 104/216/104
f 97/217/97 107/163/107 106/96/106
f 94/21/94 108/77/108 107/163/107
f 99/159/99 115/161/115 108/77/108
f 105/30/105 114/238/114 116/298/116
f 100/241/100 105/30/105 117/299/117
f 109/59/109 96/218/96 110/31/110
f 110/31/110 100/241/100 118/296/118
f 119/220/119 109/59/109 120/244/120
f 119/220/119 101/219/101 109/59/109
f 121/98/121 102/22/102 101/219/101
f 122/157/122 111/156/111 102/22/102
f 123/75/123 124/4/124 111/156/111
f 124/4/124 112/158/112 111/156/111
f 112/158/112 113/5/113 103/76/103
f 113/5/113 115/161/115 99/159/99
f 114/238/114 125/29/125 126/301/126
f 104/216/104 127/57/127 114/238/114
f 106/96/106 128/215/128 104/216/104
f 107/163/107 129/20/129 106/96/106
f 108/77/108 130/162/130 107/163/107
f 115/161/115 131/6/131 108/77/108
f 116/298/116 114/238/114 126/301/126
f 117/299/117 105/30/105 116/298/116
f 126/105/126 132/237/132 133/239/133
f 118/296/118 100/241/100 117/299/117
f 120/244/120 109/59/109 110/31/110
f 134/297/134 110/31/110 118/296/118
f 135/32/135 119/220/119 120/244/120
f 121/98/121 101/219/101 119/220/119
f 122/157/122 102/22/102 121/98/121
f 123/75/123 111/156/111 122/157/122
f 136/155/136 124/4/124 123/75/123
f 124/4/124 136/155/136 137/256/137
f 112/158/112 124/4/124 138/113/138
f 113/5/113 112/158/112 139/257/139
f 115/161/115 113/5/113 140/114/140
f 131/6/131 115/161/115 141/259/141
f 126/301/126 125/29/125 132/300/132
f 114/238/114 127/57/127 125/29/125
f 104/216/104 128/215/128 127/57/127
f 106/96/106 129/20/129 128/215/128
f 107/163/107 130/162/130 129/20/129
f 108/77/108 131/6/131 130/162/130
f 133/239/133 132/237/132 142/13/142
f 116/240/116 126/105/126 143/12/143
f 117/106/117 116/240/116 144/242/144
f 143/12/143 126/105/126 133/239/133
f 118/243/118 117/106/117 145/11/145
f 120/244/120 110/31/110 134/297/134
f 134/107/134 118/243/118 146/245/146
f 135/32/135 120/244/120 147/294/147
f 148/60/148 119/220/119 135/32/135
f 148/60/148 121/98/121 119/220/119
f 149/221/149 122/157/122 121/98/121
f 150/23/150 123/75/123 122/157/122
f 151/153/151 136/155/136 123/75/123
f 136/155/136 152/3/152 153/112/153
f 137/256/137 136/155/136 153/112/153
f 138/113/138 124/4/124 137/256/137
f 153/112/153 152/3/152 154/254/154
f 139/257/139 112/158/112 138/113/138
f 140/114/140 113/5/113 139/257/139
f 141/259/141 115/161/115 140/114/140
f 155/115/155 131/6/131 141/259/141
f 156/164/156 131/6/131 155/115/155
f 132/237/132 157/104/157 142/13/142
f 125/29/125 158/235/158 132/300/132
f 127/57/127 159/214/159 125/29/125
f 128/215/128 160/95/160 127/57/127
f 129/20/129 161/166/161 128/215/128
f 130/162/130 162/78/162 129/20/129
f 131/6/131 156/164/156 130/162/130
f 142/13/142 157/104/157 163/236/163
f 133/239/133 142/13/142 164/122/164
f 144/242/144 116/240/116 143/12/143
f 145/11/145 117/106/117 144/242/144
f 143/12/143 133/239/133 165/268/165
f 146/245/146 118/243/118 145/11/145
f 147/294/147 120/244/120 134/297/134
f 166/10/166 134/107/134 146/245/146
f 167/295/167 135/32/135 147/294/147
f 168/247/168 148/60/148 135/32/135
f 149/221/149 121/98/121 148/60/148
f 150/23/150 122/157/122 149/221/149
f 151/153/151 123/75/123 150/23/150
f 152/3/152 136/155/136 151/153/151
f 152/3/152 169/152/169 154/254/154
f 137/256/137 153/112/153 170/39/170
f 138/113/138 137/256/137 171/185/171
f 170/39/170 153/112/153 172/255/172
f 153/112/153 154/254/154 172/255/172
f 139/257/139 138/113/138 173/40/173
f 140/114/140 139/257/139 174/258/174
f 141/259/141 140/114/140 175/41/175
f 155/115/155 141/259/141 176/189/176
f 177/260/177 155/115/155 178/42/178
f 177/260/177 156/164/156 155/115/155
f 132/300/132 158/235/158 157/303/157
f 125/29/125 159/214/159 158/235/158
f 127/57/127 160/95/160 159/214/159
f 128/215/128 161/166/161 160/95/160
f 129/20/129 162/78/162 161/166/161
f 130/162/130 156/164/156 162/78/162
f 157/104/157 179/234/179 163/236/163
f 163/236/163 179/234/179 180/14/180
f 163/236/163 180/14/180 181/123/181
f 142/13/142 163/236/163 182/269/182
f 164/122/164 142/13/142 182/269/182
f 165/268/165 133/239/133 164/122/164
f 144/242/144 143/12/143 183/121/183
f 145/11/145 144/242/144 184/267/184
f 183/121/183 143/12/143 165/268/165
f 146/245/146 145/11/145 185/120/185
f 147/246/147 134/107/134 166/10/166
f 166/10/166 146/245/146 186/266/186
f 167/108/167 147/246/147 187/248/187
f 168/247/168 135/32/135 167/295/167
f 188/222/188 148/60/148 168/247/168
f 188/222/188 149/221/149 148/60/148
f 189/99/189 150/23/150 149/221/149
f 190/154/190 151/153/151 150/23/150
f 191/74/191 152/3/152 151/153/151
f 169/152/169 152/3/152 191/74/191
f 154/254/154 169/152/169 192/111/192
f 171/185/171 137/256/137 170/39/170
f 173/40/173 138/113/138 171/185/171
f 170/39/170 172/255/172 193/182/193
f 192/111/192 194/253/194 195/181/195
f 154/254/154 192/111/192 196/38/196
f 172/255/172 154/254/154 196/38/196
f 175/41/175 140/114/140 174/258/174
f 174/258/174 139/257/139 173/40/173
f 176/189/176 141/259/141 175/41/175
f 178/42/178 155/115/155 176/189/176
f 177/260/177 178/42/178 197/116/197
f 198/7/198 156/164/156 177/260/177
f 158/235/158 199/28/199 157/303/157
f 159/214/159 200/56/200 158/235/158
f 160/95/160 201/213/201 159/214/159
f 161/166/161 202/19/202 160/95/160
f 162/78/162 203/165/203 161/166/161
f 156/164/156 198/7/198 162/78/162
f 157/303/157 199/28/199 179/302/179
f 179/234/179 204/103/204 180/14/180
f 180/14/180 205/233/205 206/270/206
f 181/123/181 180/14/180 206/270/206
f 182/269/182 163/236/163 181/123/181
f 164/122/164 182/269/182 207/131/207
f 165/268/165 164/122/164 208/277/208
f 184/267/184 144/242/144 183/121/183
f 185/120/185 145/11/145 184/267/184
f 183/121/183 165/268/165 209/132/209
f 186/266/186 146/245/146 185/120/185
f 187/248/187 147/246/147 166/10/166
f 210/119/210 166/10/166 186/266/186
f 211/33/211 168/247/168 212/293/212
f 214/453/213 167/108/167 213/454/214
f 213/454/214 167/108/167 187/248/187
f 212/293/212 168/247/168 167/295/167
f 211/33/211 188/222/188 168/247/168
f 189/99/189 149/221/149 188/222/188
f 190/154/190 150/23/150 189/99/189
f 191/74/191 151/153/151 190/154/190
f 215/150/215 169/152/169 191/74/191
f 169/152/169 216/2/216 192/111/192
f 192/111/192 216/2/216 194/253/194
f 193/182/193 217/84/217 170/39/170
f 170/39/170 217/84/217 171/185/171
f 171/185/171 218/184/218 173/40/173
f 193/182/193 172/255/172 219/142/219
f 195/181/195 194/253/194 220/37/220
f 196/38/196 192/111/192 195/181/195
f 172/255/172 196/38/196 219/142/219
f 175/41/175 221/143/221 222/186/222
f 174/258/174 221/143/221 175/41/175
f 173/40/173 218/184/218 174/258/174
f 222/186/222 223/85/223 175/41/175
f 175/41/175 223/85/223 176/189/176
f 176/189/176 224/188/224 178/42/178
f 197/116/197 178/42/178 225/261/225
f 197/116/197 198/7/198 177/260/177
f 158/235/158 200/56/200 199/28/199
f 159/214/159 201/213/201 200/56/200
f 160/95/160 202/19/202 201/213/201
f 161/166/161 203/165/203 202/19/202
f 162/78/162 198/7/198 203/165/203
f 199/28/199 226/232/226 179/302/179
f 179/302/179 226/232/226 204/305/204
f 180/14/180 204/103/204 205/233/205
f 206/270/206 205/233/205 227/124/227
f 181/123/181 206/270/206 228/130/228
f 182/269/182 181/123/181 229/276/229
f 208/277/208 164/122/164 207/131/207
f 207/131/207 182/269/182 229/276/229
f 208/277/208 230/200/230 231/49/231
f 232/199/232 208/277/208 231/49/231
f 209/132/209 165/268/165 208/277/208
f 184/267/184 183/121/183 233/278/233
f 185/120/185 184/267/184 234/133/234
f 233/278/233 183/121/183 209/132/209
f 186/266/186 185/120/185 235/279/235
f 187/248/187 166/10/166 210/119/210
f 210/119/210 186/266/186 236/134/236
f 238/449/237 211/33/211 237/450/238
f 237/450/238 211/33/211 212/293/212
f 213/422/214 187/248/187 239/423/239
f 187/248/187 240/265/240 239/423/239
f 239/423/239 240/265/240 241/421/241
f 242/325/242 214/328/243 239/326/239
f 214/328/243 213/327/244 239/326/239
f 212/249/212 167/108/167 243/455/245
f 243/455/245 167/108/167 242/456/246
f 214/457/213 242/456/246 167/108/167
f 243/446/245 244/445/247 212/249/212
f 244/448/247 237/447/238 212/249/212
f 238/452/237 245/451/248 211/33/211
f 246/61/249 188/222/188 211/33/211
f 246/61/249 189/99/189 188/222/188
f 247/223/250 190/154/190 189/99/189
f 248/24/251 191/74/191 190/154/190
f 215/150/215 191/74/191 248/24/251
f 216/2/216 169/152/169 215/150/215
f 220/37/220 249/252/252 250/178/253
f 194/253/194 251/110/254 220/37/220
f 216/2/216 252/149/255 194/253/194
f 193/182/193 253/69/256 217/84/217
f 217/84/217 218/184/218 171/185/171
f 193/182/193 219/142/219 253/69/256
f 250/178/253 254/83/257 220/37/220
f 220/37/220 254/83/257 195/181/195
f 195/181/195 255/180/258 196/38/196
f 219/142/219 196/38/196 255/180/258
f 222/186/222 221/143/221 256/70/259
f 174/258/174 218/184/218 221/143/221
f 222/186/222 256/70/259 223/85/223
f 178/42/178 224/188/224 225/261/225
f 223/85/223 224/188/224 176/189/176
f 225/261/225 257/144/260 258/43/261
f 197/116/197 225/261/225 259/262/262
f 260/167/263 198/7/198 197/116/197
f 200/56/200 261/212/264 199/28/199
f 201/213/201 262/94/265 200/56/200
f 202/19/202 263/169/266 201/213/201
f 203/165/203 264/79/267 202/19/202
f 198/7/198 260/167/263 203/165/203
f 199/28/199 261/212/264 226/232/226
f 226/232/226 265/27/268 204/305/204
f 204/103/204 266/231/269 205/233/205
f 205/233/205 267/15/270 227/124/227
f 206/270/206 227/124/227 268/275/271
f 228/130/228 206/270/206 268/275/271
f 229/276/229 181/123/181 228/130/228
f 207/131/207 230/200/230 208/277/208
f 229/276/229 269/50/272 207/131/207
f 230/200/230 232/199/232 231/49/231
f 209/132/209 208/277/208 232/199/232
f 235/279/235 185/120/185 234/133/234
f 234/133/234 184/267/184 233/278/233
f 233/278/233 209/132/209 270/48/273
f 235/279/235 271/197/274 272/47/275
f 273/196/276 235/279/235 272/47/275
f 236/134/236 186/266/186 235/279/235
f 240/265/240 187/248/187 210/119/210
f 274/280/277 210/119/210 236/134/236
f 275/432/278 276/431/279 240/265/240
f 240/265/240 276/431/279 241/430/241
f 277/331/280 245/330/281 276/332/282
f 245/330/281 238/329/283 276/332/282
f 238/329/283 237/338/284 276/332/282
f 237/338/284 244/337/285 276/332/282
f 244/337/285 243/336/286 276/332/282
f 243/336/286 242/335/242 276/332/282
f 276/332/282 242/335/242 241/333/241
f 242/335/242 239/334/239 241/333/241
f 211/33/211 245/400/248 246/61/249
f 245/400/248 277/402/287 246/61/249
f 277/402/287 278/401/288 246/61/249
f 247/223/250 189/99/189 246/61/249
f 248/24/251 190/154/190 247/223/250
f 279/151/289 215/150/215 248/24/251
f 280/73/290 216/2/216 215/150/215
f 252/149/255 216/2/216 280/73/290
f 250/178/253 249/252/252 281/141/291
f 220/37/220 251/110/254 249/252/252
f 194/253/194 252/149/255 251/110/254
f 217/84/217 253/69/256 282/183/292
f 217/84/217 283/64/293 218/184/218
f 253/69/256 284/286/294 282/183/292
f 253/69/256 219/142/219 284/286/294
f 250/178/253 285/68/295 254/83/257
f 254/83/257 255/180/258 195/181/195
f 255/180/258 286/63/296 219/142/219
f 250/178/253 281/141/291 285/68/295
f 256/70/259 221/143/221 287/288/297
f 218/184/218 283/64/293 221/143/221
f 223/85/223 256/70/259 288/187/298
f 256/70/259 287/288/297 288/187/298
f 225/261/225 224/188/224 257/144/260
f 223/85/223 289/65/299 224/188/224
f 258/43/261 257/144/260 290/190/300
f 259/262/262 225/261/225 258/43/261
f 259/262/262 260/167/263 197/116/197
f 200/56/200 262/94/265 261/212/264
f 201/213/201 263/169/266 262/94/265
f 202/19/202 264/79/267 263/169/266
f 203/165/203 260/167/263 264/79/267
f 261/212/264 291/55/301 226/232/226
f 226/232/226 291/55/301 265/27/268
f 204/305/204 265/27/268 266/304/269
f 205/233/205 266/231/269 267/15/270
f 227/124/227 267/15/270 292/271/302
f 227/124/227 292/271/302 293/129/303
f 268/275/271 227/124/227 293/129/303
f 268/275/271 294/203/304 295/51/305
f 296/202/306 268/275/271 295/51/305
f 228/130/228 268/275/271 296/202/306
f 229/276/229 228/130/228 269/50/272
f 207/131/207 269/50/272 230/200/230
f 297/89/307 232/199/232 230/200/230
f 270/48/273 209/132/209 232/199/232
f 234/133/234 271/197/274 235/279/235
f 233/278/233 270/48/273 234/133/234
f 271/197/274 273/196/276 272/47/275
f 236/134/236 235/279/235 273/196/276
f 240/265/240 210/119/210 274/280/277
f 275/428/278 240/265/240 298/429/308
f 298/429/308 240/265/240 299/427/309
f 274/280/277 236/134/236 300/46/310
f 301/309/311 302/343/312 298/344/313
f 302/343/312 278/342/314 298/344/313
f 298/344/313 278/342/314 275/339/315
f 277/341/280 276/340/282 278/342/314
f 278/342/314 276/340/282 275/339/315
f 278/403/288 302/405/316 246/61/249
f 302/405/316 303/404/317 246/61/249
f 303/404/317 304/224/318 246/61/249
f 304/224/318 247/223/250 246/61/249
f 305/100/319 248/24/251 247/223/250
f 279/151/289 248/24/251 305/100/319
f 280/73/290 215/150/215 279/151/289
f 306/147/320 252/149/255 280/73/290
f 249/252/252 307/36/321 281/141/291
f 251/110/254 308/251/322 249/252/252
f 252/149/255 309/1/323 251/110/254
f 281/141/291 307/36/321 310/176/324
f 282/183/292 283/64/293 217/84/217
f 282/183/292 284/286/294 311/137/325
f 219/142/219 286/63/296 284/286/294
f 254/83/257 285/68/295 312/179/326
f 254/83/257 286/63/296 255/180/258
f 285/68/295 313/284/327 312/179/326
f 285/68/295 281/141/291 313/284/327
f 221/143/221 283/64/293 287/288/297
f 288/187/298 289/65/299 223/85/223
f 288/187/298 287/288/297 314/138/328
f 224/188/224 289/65/299 257/144/260
f 290/190/300 257/144/260 315/71/329
f 290/190/300 316/86/330 258/43/261
f 259/262/262 258/43/261 317/117/331
f 318/8/332 260/167/263 259/262/262
f 262/94/265 319/211/333 261/212/264
f 263/169/266 320/18/334 262/94/265
f 264/79/267 321/168/335 263/169/266
f 260/167/263 318/8/332 264/79/267
f 261/212/264 319/211/333 291/55/301
f 291/55/301 322/210/336 265/27/268
f 265/27/268 323/229/337 266/304/269
f 266/231/269 324/102/338 267/15/270
f 267/15/270 325/230/339 292/271/302
f 293/129/303 292/271/302 326/274/340
f 292/271/302 327/125/341 326/274/340
f 293/129/303 294/203/304 268/275/271
f 294/203/304 296/202/306 295/51/305
f 269/50/272 228/130/228 296/202/306
f 269/50/272 297/89/307 230/200/230
f 297/89/307 270/48/273 232/199/232
f 234/133/234 270/48/273 271/197/274
f 328/88/342 273/196/276 271/197/274
f 300/46/310 236/134/236 273/196/276
f 330/424/343 329/426/344 274/280/277
f 329/426/344 299/425/309 274/280/277
f 299/425/309 240/265/240 274/280/277
f 329/323/345 301/309/311 299/324/346
f 299/324/346 301/309/311 298/322/313
f 331/420/347 330/419/343 300/46/310
f 330/419/343 274/280/277 300/46/310
f 302/346/312 301/309/311 303/347/348
f 303/347/348 301/309/311 332/345/349
f 303/406/317 332/408/350 304/224/318
f 332/408/350 333/407/351 304/224/318
f 305/100/319 247/223/250 304/224/318
f 334/225/352 279/151/289 305/100/319
f 335/25/353 280/73/290 279/151/289
f 306/147/320 280/73/290 335/25/353
f 309/1/323 252/149/255 306/147/320
f 249/252/252 308/251/322 307/36/321
f 251/110/254 309/1/323 308/251/322
f 336/177/354 310/176/324 307/36/321
f 337/82/355 310/176/324 336/177/354
f 310/176/324 338/62/356 281/141/291
f 282/183/292 311/137/325 283/64/293
f 284/286/294 286/63/296 311/137/325
f 312/179/326 286/63/296 254/83/257
f 312/179/326 313/284/327 339/136/357
f 281/141/291 338/62/356 313/284/327
f 287/288/297 283/64/293 314/138/328
f 288/187/298 314/138/328 289/65/299
f 290/190/300 315/71/329 316/86/330
f 257/144/260 289/65/299 340/290/358
f 315/71/329 257/144/260 340/290/358
f 258/43/261 316/86/330 341/193/359
f 317/117/331 258/43/261 341/193/359
f 317/117/331 318/8/332 259/262/262
f 262/94/265 320/18/334 319/211/333
f 263/169/266 321/168/335 320/18/334
f 264/79/267 318/8/332 321/168/335
f 319/211/333 342/93/360 291/55/301
f 291/55/301 342/93/360 322/210/336
f 265/27/268 322/210/336 323/229/337
f 266/304/269 323/229/337 324/307/338
f 267/15/270 324/102/338 325/230/339
f 292/271/302 325/230/339 327/125/341
f 326/274/340 343/52/361 293/129/303
f 326/274/340 327/125/341 344/128/362
f 293/129/303 343/52/361 294/203/304
f 345/90/363 296/202/306 294/203/304
f 345/90/363 269/50/272 296/202/306
f 346/201/364 297/89/307 269/50/272
f 347/198/365 270/48/273 297/89/307
f 270/48/273 328/88/342 271/197/274
f 328/88/342 300/46/310 273/196/276
f 331/417/347 300/46/310 348/418/366
f 348/418/366 300/46/310 349/194/367
f 351/479/368 349/194/367 350/480/369
f 350/480/369 349/194/367 352/87/370
f 351/478/368 353/477/371 349/194/367
f 353/413/371 354/412/372 349/194/367
f 348/415/366 349/194/367 355/416/373
f 355/416/373 349/194/367 354/414/372
f 355/318/374 301/309/311 348/319/375
f 348/319/375 301/309/311 331/320/376
f 331/320/376 301/309/311 330/321/377
f 330/321/377 301/309/311 329/317/345
f 332/349/349 301/309/311 333/350/378
f 333/350/378 301/309/311 356/348/379
f 357/410/380 304/224/318 356/411/381
f 356/411/381 304/224/318 333/409/351
f 357/472/380 358/471/382 304/224/318
f 304/224/318 358/471/382 305/100/319
f 359/473/383 334/225/352 358/474/382
f 358/474/382 334/225/352 305/100/319
f 359/459/383 360/458/384 334/225/352
f 335/25/353 279/151/289 334/225/352
f 361/148/385 306/147/320 335/25/353
f 362/72/386 306/147/320 361/148/385
f 362/72/386 309/1/323 306/147/320
f 308/251/322 363/109/387 307/36/321
f 309/1/323 364/146/388 308/251/322
f 307/36/321 363/109/387 336/177/354
f 365/34/389 337/82/355 336/177/354
f 337/82/355 338/62/356 310/176/324
f 283/64/293 311/137/325 366/287/390
f 311/137/325 286/63/296 367/285/391
f 312/179/326 339/136/357 286/63/296
f 313/284/327 338/62/356 339/136/357
f 314/138/328 283/64/293 366/287/390
f 289/65/299 314/138/328 368/289/392
f 316/86/330 315/71/329 369/191/393
f 340/290/358 289/65/299 370/139/394
f 315/71/329 340/290/358 369/191/393
f 316/86/330 371/192/395 341/193/359
f 317/117/331 341/193/359 372/263/396
f 373/170/397 318/8/332 317/117/331
f 320/18/334 374/172/398 319/211/333
f 321/168/335 375/80/399 320/18/334
f 318/8/332 373/170/397 321/168/335
f 319/211/333 374/172/398 342/93/360
f 342/93/360 376/209/400 322/210/336
f 322/210/336 377/54/401 323/229/337
f 323/229/337 378/26/402 324/307/338
f 324/102/338 379/228/403 325/230/339
f 325/230/339 380/16/404 327/125/341
f 327/125/341 381/272/405 344/128/362
f 344/128/362 382/273/406 383/205/407
f 326/274/340 344/128/362 343/52/361
f 343/52/361 345/90/363 294/203/304
f 346/201/364 269/50/272 345/90/363
f 346/201/364 347/198/365 297/89/307
f 347/198/365 328/88/342 270/48/273
f 384/195/408 300/46/310 328/88/342
f 300/46/310 352/87/370 349/194/367
f 336/177/354 385/250/409 365/34/389
f 350/481/369 352/87/370 387/482/410
f 386/483/411 387/482/410 352/87/370
f 301/309/311 355/355/374 356/356/379
f 356/356/379 355/355/374 357/357/412
f 387/362/413 388/361/414 350/351/415
f 350/351/415 388/361/414 351/352/416
f 388/361/414 360/360/417 351/352/416
f 360/360/417 359/359/418 351/352/416
f 359/359/418 358/358/419 351/352/416
f 358/358/419 357/357/412 351/352/416
f 351/352/416 357/357/412 353/353/420
f 353/353/420 357/357/412 354/354/421
f 357/357/412 355/355/374 354/354/421
f 389/461/422 334/225/352 388/462/423
f 388/462/423 334/225/352 360/460/384
f 390/463/424 335/25/353 389/464/422
f 389/464/422 335/25/353 334/225/352
f 361/148/385 335/25/353 391/465/425
f 390/466/424 391/465/425 335/25/353
f 391/468/425 392/467/426 361/148/385
f 392/470/426 393/469/427 361/148/385
f 394/313/428 395/312/429 396/310/430
f 397/491/431 362/72/386 393/492/427
f 393/492/427 362/72/386 361/148/385
f 364/146/388 309/1/323 362/72/386
f 308/251/322 364/146/388 363/109/387
f 363/109/387 385/250/409 336/177/354
f 398/174/432 337/82/355 365/34/389
f 398/174/432 399/175/433 337/82/355
f 399/175/433 338/62/356 337/82/355
f 311/137/325 367/285/391 366/287/390
f 286/63/296 339/136/357 367/285/391
f 339/136/357 338/62/356 400/283/434
f 314/138/328 366/287/390 368/289/392
f 370/139/394 289/65/299 368/289/392
f 369/191/393 401/66/435 316/86/330
f 369/191/393 340/290/358 370/139/394
f 316/86/330 401/66/435 371/192/395
f 341/193/359 371/192/395 402/44/436
f 372/263/396 341/193/359 402/44/436
f 372/263/396 373/170/397 317/117/331
f 320/18/334 375/80/399 374/172/398
f 321/168/335 373/170/397 375/80/399
f 374/172/398 403/17/437 342/93/360
f 342/93/360 403/17/437 376/209/400
f 322/210/336 376/209/400 377/54/401
f 323/229/337 377/54/401 378/26/402
f 324/307/338 378/26/402 379/306/403
f 325/230/339 379/228/403 380/16/404
f 327/125/341 380/16/404 381/272/405
f 344/128/362 381/272/405 382/273/406
f 383/205/407 382/273/406 404/53/438
f 343/52/361 344/128/362 383/205/407
f 405/204/439 345/90/363 343/52/361
f 405/204/439 346/201/364 345/90/363
f 406/45/440 347/198/365 346/201/364
f 347/198/365 384/195/408 328/88/342
f 384/195/408 352/87/370 300/46/310
f 395/486/441 394/485/442 352/87/370
f 352/87/370 394/485/442 386/484/411
f 395/312/429 407/316/443 396/310/430
f 408/442/444 409/441/445 385/250/409
f 410/439/446 365/34/389 409/440/445
f 409/440/445 365/34/389 385/250/409
f 410/438/446 411/437/447 365/34/389
f 396/310/430 412/372/448 394/373/428
f 394/373/428 412/372/448 386/363/449
f 412/372/448 397/371/450 386/363/449
f 397/371/450 393/370/451 386/363/449
f 393/370/451 392/369/452 386/363/449
f 388/365/414 387/364/413 389/366/453
f 392/369/452 391/368/454 386/363/449
f 389/366/453 387/364/413 390/367/455
f 386/363/449 391/368/454 387/364/413
f 391/368/454 390/367/455 387/364/413
f 413/494/456 362/72/386 412/495/457
f 412/495/457 362/72/386 397/493/431
f 414/496/458 364/146/388 413/497/456
f 413/497/456 364/146/388 362/72/386
f 414/499/458 415/498/459 364/146/388
f 416/435/460 363/109/387 415/436/459
f 415/436/459 363/109/387 364/146/388
f 385/250/409 363/109/387 417/433/461
f 416/434/460 417/433/461 363/109/387
f 417/444/461 408/443/444 385/250/409
f 418/398/462 398/174/432 411/399/447
f 411/399/447 398/174/432 365/34/389
f 419/67/463 399/175/433 398/174/432
f 399/175/433 420/135/464 338/62/356
f 338/62/356 420/135/464 400/283/434
f 366/287/390 367/285/391 421/35/465
f 339/136/357 400/283/434 367/285/391
f 368/289/392 366/287/390 421/35/465
f 370/139/394 368/289/392 422/291/466
f 369/191/393 370/139/394 401/66/435
f 371/192/395 401/66/435 423/145/467
f 402/44/436 371/192/395 424/264/468
f 372/263/396 402/44/436 425/118/469
f 426/9/470 373/170/397 372/263/396
f 375/80/399 427/171/471 374/172/398
f 373/170/397 426/9/470 375/80/399
f 374/172/398 427/171/471 403/17/437
f 403/17/437 428/173/472 376/209/400
f 376/209/400 429/92/473 377/54/401
f 377/54/401 430/208/474 378/26/402
f 378/26/402 431/226/475 379/306/403
f 379/228/403 432/101/476 380/16/404
f 380/16/404 433/227/477 381/272/405
f 381/272/405 434/126/478 382/273/406
f 382/273/406 435/206/479 404/53/438
f 435/206/479 383/205/407 404/53/438
f 436/91/480 343/52/361 383/205/407
f 405/204/439 343/52/361 436/91/480
f 406/45/440 346/201/364 405/204/439
f 406/45/440 384/195/408 347/198/365
f 407/488/481 395/487/441 384/195/408
f 395/487/441 352/87/370 384/195/408
f 407/316/443 437/315/482 396/310/430
f 412/379/448 396/310/430 413/380/483
f 413/380/483 396/310/430 414/381/484
f 414/381/484 396/310/430 415/382/485
f 415/382/485 396/310/430 416/383/486
f 416/383/486 396/310/430 417/384/487
f 417/384/487 396/310/430 408/385/488
f 408/385/488 396/310/430 409/374/489
f 409/374/489 396/310/430 410/375/490
f 410/375/490 396/310/430 411/376/491
f 396/310/430 438/378/492 411/376/491
f 438/378/492 418/377/493 411/376/491
f 440/140/494 398/174/432 439/395/495
f 418/397/462 438/396/496 398/174/432
f 438/396/496 439/395/495 398/174/432
f 419/67/463 441/282/497 399/175/433
f 398/174/432 440/140/494 419/67/463
f 399/175/433 441/282/497 420/135/464
f 420/135/464 442/281/498 400/283/434
f 367/285/391 400/283/434 421/35/465
f 422/291/466 368/289/392 421/35/465
f 401/66/435 370/139/394 422/291/466
f 423/145/467 401/66/435 443/292/499
f 424/264/468 371/192/395 423/145/467
f 425/118/469 402/44/436 424/264/468
f 425/118/469 426/9/470 372/263/396
f 375/80/399 426/9/470 427/171/471
f 427/171/471 444/81/500 403/17/437
f 403/17/437 444/81/500 428/173/472
f 376/209/400 428/173/472 429/92/473
f 377/54/401 429/92/473 430/208/474
f 378/26/402 430/208/474 431/226/475
f 379/306/403 431/226/475 432/308/476
f 380/16/404 432/101/476 433/227/477
f 381/272/405 433/227/477 434/126/478
f 382/273/406 434/126/478 445/127/501
f 445/127/501 435/206/479 382/273/406
f 436/91/480 383/205/407 435/206/479
f 446/207/502 405/204/439 436/91/480
f 406/45/440 405/204/439 446/207/502
f 406/45/440 437/490/503 384/195/408
f 437/490/503 407/489/481 384/195/408
f 447/314/504 396/310/430 437/315/482
f 448/388/505 449/387/506 396/310/430
f 438/389/492 396/310/430 439/386/507
f 396/310/430 449/387/506 439/386/507
f 439/394/495 449/393/508 440/140/494
f 419/67/463 440/140/494 441/282/497
f 91/623/509 90/622/510 441/282/497
f 90/622/510 420/135/464 441/282/497
f 90/625/510 89/624/511 420/135/464
f 420/135/464 89/624/511 442/281/498
f 89/629/511 85/628/512 442/281/498
f 442/281/498 85/628/512 83/626/513
f 85/628/512 84/627/514 83/626/513
f 83/631/513 82/630/515 442/281/498
f 82/633/515 81/632/516 442/281/498
f 421/35/465 400/283/434 78/636/517
f 78/636/517 400/283/434 79/637/518
f 79/637/518 400/283/434 80/634/519
f 80/634/519 400/283/434 81/635/516
f 400/283/434 442/281/498 81/635/516
f 78/639/517 77/638/520 421/35/465
f 77/641/520 76/640/521 421/35/465
f 76/643/521 75/642/522 421/35/465
f 75/645/522 74/644/523 421/35/465
f 421/35/465 74/646/523 422/291/466
f 74/646/523 73/649/524 422/291/466
f 73/649/524 71/648/525 422/291/466
f 71/648/525 72/647/526 422/291/466
f 70/650/527 422/291/466 66/651/528
f 72/652/526 66/651/528 422/291/466
f 70/654/527 69/653/529 422/291/466
f 69/653/529 401/66/435 422/291/466
f 69/656/529 68/655/530 401/66/435
f 68/655/530 443/292/499 401/66/435
f 68/659/530 59/658/531 443/292/499
f 443/292/499 59/658/531 65/657/532
f 65/661/532 64/660/533 443/292/499
f 423/145/467 443/292/499 53/663/534
f 53/663/534 443/292/499 54/664/535
f 54/664/535 443/292/499 64/662/533
f 53/666/534 52/665/536 423/145/467
f 52/668/536 58/667/537 423/145/467
f 57/669/538 424/264/468 58/670/537
f 58/670/537 424/264/468 423/145/467
f 57/672/538 56/671/539 424/264/468
f 425/118/469 424/264/468 51/673/540
f 51/673/540 424/264/468 44/674/541
f 56/675/539 44/674/541 424/264/468
f 51/677/540 50/676/542 425/118/469
f 49/678/543 426/9/470 50/679/542
f 50/679/542 426/9/470 425/118/469
f 49/680/543 427/171/471 426/9/470
f 49/682/543 48/681/544 427/171/471
f 48/681/544 444/81/500 427/171/471
f 40/684/545 444/81/500 41/685/546
f 41/685/546 444/81/500 48/683/544
f 40/687/545 39/686/547 444/81/500
f 39/689/547 38/688/548 444/81/500
f 444/81/500 38/688/548 428/173/472
f 38/691/548 37/690/549 428/173/472
f 37/693/549 36/692/550 428/173/472
f 428/173/472 36/692/550 429/92/473
f 36/695/550 35/694/551 429/92/473
f 35/697/551 34/696/552 429/92/473
f 429/92/473 34/696/552 430/208/474
f 31/699/553 430/208/474 32/700/554
f 32/700/554 430/208/474 34/698/552
f 31/702/553 30/701/555 430/208/474
f 430/208/474 30/701/555 431/226/475
f 30/703/555 25/706/556 431/226/475
f 22/704/557 431/226/475 23/705/558
f 25/706/556 23/705/558 431/226/475
f 22/708/557 21/707/559 431/226/475
f 431/226/475 21/707/559 432/308/476
f 21/710/559 20/709/560 432/308/476
f 19/711/561 433/227/477 20/712/560
f 20/712/560 433/227/477 432/101/476
f 19/714/561 18/713/562 433/227/477
f 18/716/562 17/715/563 433/227/477
f 433/227/477 17/715/563 434/126/478
f 17/718/563 24/717/564 434/126/478
f 24/717/564 26/720/565 434/126/478
f 26/720/565 29/719/566 434/126/478
f 29/722/566 28/721/567 434/126/478
f 434/126/478 28/721/567 445/127/501
f 28/724/567 27/723/568 445/127/501
f 43/726/569 445/127/501 33/727/570
f 33/727/570 445/127/501 27/725/568
f 445/127/501 43/730/569 435/206/479
f 47/728/571 435/206/479 42/729/572
f 43/730/569 42/729/572 435/206/479
f 47/732/571 46/731/573 435/206/479
f 435/206/479 46/731/573 436/91/480
f 46/736/573 45/735/574 436/91/480
f 446/207/502 436/91/480 63/733/575
f 63/733/575 436/91/480 55/734/576
f 45/735/574 55/734/576 436/91/480
f 63/738/575 62/737/577 446/207/502
f 62/740/577 61/739/578 446/207/502
f 446/207/502 61/743/578 406/45/440
f 61/743/578 60/742/579 406/45/440
f 60/742/579 67/741/580 406/45/440
f 67/741/580 16/747/581 406/45/440
f 16/747/581 15/746/582 406/45/440
f 15/746/582 13/745/583 406/45/440
f 13/745/583 12/744/584 406/45/440
f 12/749/584 11/748/585 406/45/440
f 11/751/585 10/750/586 406/45/440
f 6/754/587 406/45/440 7/755/588
f 7/755/588 406/45/440 9/752/589
f 406/45/440 10/753/586 9/752/589
f 406/45/440 6/757/587 437/475/503
f 437/475/503 6/757/587 447/476/590
f 6/757/587 5/756/591 447/476/590
f 5/756/591 1/759/592 447/476/590
f 1/759/592 4/758/593 447/476/590
f 396/310/430 447/311/504 88/760/594
f 4/762/595 3/761/596 447/311/504
f 3/761/596 88/760/594 447/311/504
f 88/764/594 87/763/597 396/310/430
f 87/763/597 448/390/505 396/310/430
f 86/765/598 440/140/494 87/766/599
f 87/766/599 440/140/494 448/391/600
f 440/140/494 449/392/508 448/391/600
f 86/768/598 92/767/601 440/140/494
f 91/769/509 441/282/497 92/770/601
f 92/770/601 441/282/497 440/140/494
