# This file uses centimeters as units for non-parametric coordinates.

mtllib SM_Shard_1.mtl
g default
v 2.376338 0.145191 0.552406
v 2.766918 -0.154264 0.069530
v 1.510397 -0.389285 0.784060
v 1.670347 0.145191 1.046314
v 1.253538 0.145191 1.256065
v -0.290308 -0.025343 1.274390
v -0.195584 0.145191 1.406633
v 0.797174 0.145191 1.303482
v -0.403458 0.145191 1.504776
v -2.089403 -0.018483 2.572739
v -2.007984 0.145191 2.657362
v -1.387296 0.145191 2.211501
v -0.908890 0.145191 1.867846
v -0.610502 0.145191 1.653503
v -2.150294 0.145191 2.723673
v -3.056826 0.145191 3.187869
v -8.835480 0.561678 6.350739
v -8.888290 0.279114 6.170823
v -9.105087 0.335838 6.305737
v -9.157356 0.408563 6.380658
v -9.230064 0.509721 6.484872
v -9.187965 0.544799 6.491765
v -9.117523 0.603492 6.503297
v -8.855415 0.564634 6.361524
v -8.671364 0.534322 6.217595
v -8.337395 0.116639 5.669888
v -6.857560 0.200427 4.992379
v -7.089962 -0.229624 4.721784
v -7.092438 -0.228988 4.723620
v -8.098042 0.050189 5.487962
v -8.392494 0.490908 6.036386
v -7.877556 0.380282 5.674226
v -7.116795 0.216845 5.139184
v -6.550530 0.180815 4.812715
v -6.405797 0.169566 4.726188
v -6.023678 -0.585226 3.835093
v -6.038785 -0.576001 3.851481
v -6.040261 -0.575099 3.853084
v -6.119229 -0.504565 3.959144
v -6.127659 -0.497036 3.970466
v -6.388558 -0.414408 4.183419
v -6.446236 -0.396142 4.230496
v -6.902867 -0.278021 4.578996
v -5.778512 -0.567796 3.719861
v -5.978989 -0.604791 3.793397
v -5.988678 -0.606553 3.796975
v -5.991173 -0.605128 3.799603
v -6.323044 0.163105 4.676063
v -6.039757 0.159544 4.521346
v -5.259751 0.152512 4.097871
v -5.627373 -0.545907 3.658961
v -4.921196 -0.502277 3.421718
v -5.389939 -0.513765 3.593738
v -5.429329 -0.519035 3.604609
v -4.856717 0.149352 3.939113
v -4.623812 -0.501171 3.307439
v -4.669106 -0.500762 3.325326
v -4.807255 -0.499568 3.379834
v -4.082732 -0.506019 3.097785
v -4.147768 -0.505445 3.122979
v -4.564398 0.147076 3.826137
v -4.371258 0.145191 3.751170
v -4.329201 0.145191 3.735188
v -3.650006 0.145191 3.477101
v -3.900364 -0.507816 3.026986
v -3.212891 -0.514497 2.753668
v -3.351424 -0.513143 2.808750
v -3.636786 -0.510429 2.922153
v -3.528338 0.145191 3.429721
v -2.927615 -0.516690 2.640736
v -2.767151 -0.518013 2.557467
v -2.150943 -0.522991 2.237779
v -1.535939 -0.528289 1.844741
v -0.404444 -0.528049 1.031125
v -0.560840 -0.529522 1.142652
v -0.876796 -0.531948 1.368318
v -0.972443 -0.532232 1.436923
v -1.065283 -0.531974 1.503861
v -1.358273 -0.529888 1.715929
v 0.065117 -0.524487 0.889732
v 1.468011 -0.513824 0.705929
v 1.405544 -0.514397 0.714048
v 1.266668 -0.515461 0.732237
v 0.319866 -0.522749 0.856222
v 1.611103 -0.512440 0.625228
v 2.636192 -0.501966 -0.087351
v 2.489776 -0.503410 0.014466
v 2.396659 -0.504397 0.079169
v 2.116170 -0.507483 0.273990
v 2.810470 -0.187761 0.014977
v 3.113750 -0.498703 -0.420475
v 3.085456 -0.497356 -0.399638
v -5.988122 -0.606596 3.798049
v -5.537949 -0.606596 4.533467
v -5.597352 -0.575099 4.576627
v -5.707581 -0.497036 4.656713
v -4.977639 -0.606596 5.188859
v -5.029557 -0.575099 5.240777
v -4.322251 -0.606596 5.749166
v -4.365410 -0.575099 5.808572
v -5.125893 -0.497036 5.337110
v -4.445494 -0.497036 5.918801
v -3.586831 -0.606596 6.199342
v -3.620163 -0.575099 6.264760
v -2.790365 -0.606596 6.529706
v -2.813056 -0.575099 6.599538
v -3.682015 -0.497036 6.386151
v -2.855158 -0.497036 6.729119
v -1.951831 -0.606596 6.730580
v -1.963317 -0.575099 6.803102
v -1.092263 -0.606596 6.798650
v -1.092263 -0.575099 6.872079
v -1.984629 -0.497036 6.937661
v -1.092263 -0.497036 7.008328
v -0.232695 -0.606596 6.730580
v -0.221209 -0.575099 6.803102
v 0.605838 -0.606596 6.529706
v 0.628529 -0.575099 6.599538
v -0.199897 -0.497036 6.937661
v 0.670632 -0.497036 6.729119
v 1.402305 -0.606596 6.199342
v 1.435638 -0.575099 6.264760
v 2.137722 -0.606596 5.749166
v 2.180883 -0.575099 5.808572
v 1.497490 -0.497036 6.386151
v 2.260967 -0.497036 5.918797
v 2.793113 -0.606596 5.188859
v 2.845031 -0.575099 5.240777
v 3.353420 -0.606596 4.533467
v 3.412826 -0.575099 4.576627
v 2.941364 -0.497036 5.337110
v 3.455684 -0.544746 4.607768
v 3.367950 -0.497036 4.838138
v 3.571815 -0.606596 4.176690
v 3.530220 -0.584561 4.342732
v 3.512355 -0.575099 4.414033
v -5.031678 -0.513760 4.170341
v -4.522753 -0.499550 3.814679
v -4.538716 -0.513754 4.756455
v -4.104544 -0.499527 4.341849
v -4.113545 -0.503683 3.521636
v -3.628767 -0.505969 3.731380
v -3.107508 -0.506673 4.125607
v -3.619215 -0.499336 4.806857
v -3.963061 -0.513707 5.261121
v -2.414644 -0.498107 5.503839
v -1.758351 -0.497387 5.763318
v -2.600000 -0.513399 5.976441
v -1.854646 -0.513219 6.180562
v -2.259682 -0.501509 5.106027
v -1.740555 -0.502748 5.106645
v -1.074087 -0.503022 5.173001
v -1.083065 -0.496888 5.892106
v -1.089964 -0.513094 6.259942
v 0.290235 -0.497036 5.603368
v 0.958871 -0.497225 5.332921
v 0.430503 -0.513132 6.001325
v 1.149780 -0.513179 5.704701
v 0.170354 -0.499912 5.252530
v 0.571538 -0.502149 4.845258
v 1.140773 -0.503608 4.377017
v 1.574136 -0.497345 4.972676
v 1.813396 -0.513209 5.302575
v 2.901020 -0.513181 4.200599
v 2.553699 -0.497235 3.935718
v 3.313430 -0.513159 3.543490
v 2.955085 -0.497146 3.346478
v 2.248163 -0.500211 3.708718
v 2.358716 -0.502125 3.165872
v 2.560390 -0.503273 2.489244
v 3.249668 -0.497100 2.713581
v 3.268966 -0.503581 3.062284
v 3.281696 -0.505167 3.130464
v 3.264274 -0.500779 2.903690
v 3.258770 -0.497499 2.716551
v 3.264652 -0.498164 0.810596
v 3.316810 -0.497891 1.236933
v 3.313472 -0.497941 1.311715
v 3.025939 -0.500187 1.314388
v 3.243865 -0.498339 0.640088
v 2.774372 -0.502312 0.810748
v 3.229263 -0.498335 0.521468
v 2.525119 -0.503642 0.141936
v 3.156333 -0.497974 -0.067682
v -6.096489 0.163105 4.939267
v -2.349676 0.145191 5.173398
v -4.008646 0.145191 5.317540
v -5.475617 0.163105 5.961255
v -4.167536 0.163105 6.911630
v -5.030404 0.177037 6.723870
v -3.003706 0.163105 7.186303
v 0.165148 0.145191 5.173398
v -1.092263 0.145191 6.265130
v -1.900701 0.163105 7.648168
v -0.283825 0.163105 7.648168
v -1.092263 0.177037 8.003449
v 0.819181 0.163105 7.186303
v 2.151342 0.145191 3.730344
v 2.169778 0.145191 3.673493
v 2.018732 0.145191 4.139304
v 1.824119 0.145191 5.317540
v 2.020729 0.145191 4.468251
v 1.983009 0.163105 6.911630
v 2.272085 0.163105 6.701604
v 2.270990 0.162538 6.648320
v 2.085962 0.148389 5.432439
v 2.270401 0.167745 6.849092
v 2.021369 0.146376 5.037126
v 2.060806 0.147222 5.274655
v 2.632022 0.145191 2.247970
v 2.651165 0.145191 1.825433
v 2.601703 0.145191 1.423577
v 2.570636 0.145191 1.303482
v 2.501224 -0.396142 6.249482
v 3.197608 -0.407580 5.593354
v 3.176143 -0.396142 5.672479
v 3.130245 -0.371933 5.865788
v 2.985130 -0.278531 6.584294
v 2.938476 -0.242841 6.851315
v 0.796943 -0.396142 7.117864
v 1.683042 -0.396142 6.750321
v 2.051258 -0.228988 7.472985
v 2.919525 -0.228988 6.941491
v 1.047596 -0.228988 7.889291
v -1.092263 -0.396142 7.417073
v -0.135960 -0.396142 7.341348
v -0.009081 -0.228988 8.142426
v -1.092263 -0.228988 8.228204
v -2.981469 -0.396142 7.117864
v -2.048566 -0.396142 7.341348
v -2.175445 -0.228988 8.142426
v -3.232121 -0.228988 7.889291
v -4.685750 -0.396142 6.249482
v -3.867568 -0.396142 6.750321
v -4.235785 -0.228988 7.472985
v -5.162518 -0.228988 6.905702
v -6.038266 -0.396142 4.896970
v -5.414898 -0.396142 5.626119
v -5.988408 -0.228988 6.199628
v -6.694481 -0.228988 5.373738
v 1.951458 0.335838 10.266999
v 1.856029 0.392673 10.377397
v 1.835754 0.335838 10.314988
v -1.092263 0.335838 10.778741
v 0.389881 0.335838 10.661370
v -1.092263 0.509721 10.979486
v 0.421281 0.509721 10.859620
v 1.662470 0.509721 10.562280
v 1.637907 0.526076 10.552674
v 0.407729 0.603492 10.774056
v 1.521633 0.603492 10.507211
v -1.092263 0.603492 10.892846
v -4.020279 0.335838 10.314988
v -2.574407 0.335838 10.661370
v -4.082312 0.509721 10.505906
v -2.605807 0.509721 10.859620
v -2.592255 0.603492 10.774056
v -4.055539 0.603492 10.423509
v -6.661683 0.335838 8.969132
v -5.393612 0.335838 9.745355
v -6.779675 0.509721 9.131532
v -5.484738 0.509721 9.924203
v -5.445408 0.603492 9.847016
v -6.728749 0.603492 9.061440
v -8.757912 0.335838 6.872903
v -7.791771 0.335838 8.002992
v -8.920311 0.509721 6.990895
v -7.933705 0.509721 8.144925
v -7.872448 0.603492 8.083665
v -8.850220 0.603492 6.939969
v -5.359734 -0.567796 4.403987
v -4.192769 -0.567796 5.570954
v -4.821885 -0.567796 5.033105
v -2.722292 -0.567796 6.320203
v -3.486832 -0.567796 6.003079
v -3.309813 -0.513575 5.668870
v -1.092263 -0.567796 6.578362
v -1.917374 -0.567796 6.513024
v 0.537766 -0.567796 6.320199
v -0.267153 -0.567796 6.513024
v -0.322163 -0.513084 6.193299
v 2.008243 -0.567796 5.570951
v 1.302305 -0.567796 6.003079
v 3.175205 -0.567796 4.403987
v 2.637359 -0.567796 5.033105
v 2.399074 -0.513204 4.794084
v 3.559410 -0.598861 4.113095
v 3.517639 -0.581502 3.993163
v 3.484653 -0.567796 3.898463
v 3.454650 -0.555990 3.806685
v 3.377899 -0.525144 3.577394
v 3.355152 -0.516890 3.501843
v 3.345096 -0.513158 3.469171
v -8.150555 0.490908 6.431630
v -6.887417 0.216845 5.513906
v -7.260964 0.490908 7.472180
v -6.220410 0.490908 8.361772
v -6.157021 0.216845 6.368241
v -5.302685 0.216845 7.098634
v -5.052811 0.490908 9.076493
v -3.788291 0.490908 9.600999
v -4.344038 0.216845 7.685452
v -3.305813 0.216845 8.116090
v -2.456975 0.490908 9.919930
v -1.092263 0.490908 10.028008
v -2.212749 0.216845 8.377946
v -1.092263 0.216845 8.466683
v 0.272449 0.490908 9.919930
v 1.567211 0.582096 10.327806
v 1.686876 0.525921 9.856790
v 1.603765 0.490908 9.600999
v 0.028223 0.216845 8.377946
v 1.121288 0.216845 8.116090
v 1.742794 0.500354 9.621636
v 1.763454 0.490908 9.534760
v 2.203096 0.233698 7.770993
v 2.214273 0.224844 7.705190
v 2.159511 0.216845 7.685452
v 2.224370 0.216845 7.645749
v 1.924646 0.411605 8.980325
v 2.015094 0.357063 8.607461
v 2.145086 0.278673 8.071576
v 2.261289 0.176279 6.957475
v 2.494903 0.061519 8.704720
v 2.305999 0.153149 9.229623
v 2.567020 0.022617 8.485230
v 2.575817 0.017935 8.455125
v -0.170265 -0.510164 4.199214
v 0.363615 -0.515398 3.311351
v -0.380151 -0.501676 5.206174
v -1.065548 -0.515340 3.800769
v 1.350752 -0.510463 3.060534
v 1.283470 -0.515287 2.074573
v 1.747301 -0.502348 3.967870
v 1.919006 -0.510439 1.314211
v 2.795391 -0.502110 1.819684
v -3.220780 -0.513935 2.867135
v -2.374216 -0.517706 3.134810
v -1.913325 -0.511749 4.055894
v -2.608362 -0.504526 4.630277
v -3.045424 -0.498810 5.189603
v -0.395306 -0.496847 5.814275
v 2.099565 -0.497325 4.492364
v 3.258491 -0.497363 2.703209
v 3.257904 -0.497103 2.671230
v 3.257041 -0.497325 2.544016
v 3.278423 -0.497921 2.085054
v 3.282768 -0.497989 1.990663
v 3.309936 -0.497988 1.390794
v 3.125724 -0.497356 -0.310622
v 2.994674 -0.268236 3.310905
v 2.743255 -0.154803 6.232080
v 2.447759 0.092825 8.534501
vt 0.805229 0.272767
vt 0.771703 0.230330
vt 0.726704 0.200328
vt 0.674638 0.185697
vt 0.620598 0.187881
vt 0.569877 0.206657
vt 0.527440 0.240187
vt 0.354222 0.541270
vt 0.411734 0.580864
vt 0.454195 0.636293
vt 0.477451 0.702129
vt 0.566231 0.200166
vt 0.619136 0.180581
vt 0.675504 0.178303
vt 0.729813 0.193563
vt 0.776750 0.224857
vt 0.811721 0.269121
vt 0.595244 0.061375
vt 0.689619 0.057551
vt 0.780555 0.083080
vt 0.859151 0.135461
vt 0.917714 0.209564
vt 0.787912 0.282352
vt 0.758557 0.244409
vt 0.718642 0.217106
vt 0.672566 0.202748
vt 0.624185 0.205249
vt 0.578482 0.221990
vt 0.540516 0.252392
vt 0.319853 0.613192
vt 0.365041 0.629999
vt 0.384115 0.674277
vt 0.410794 0.714435
vt 0.400200 0.761469
vt 0.611426 0.142068
vt 0.680073 0.139295
vt 0.746215 0.157873
vt 0.803378 0.195982
vt 0.845968 0.249887
vt 0.668097 0.236607
vt 0.596086 0.253335
vt 0.544893 0.307036
vt 0.537405 0.380395
vt 0.727710 0.276715
vt 0.704842 0.243027
vt 0.629564 0.229572
vt 0.559093 0.270133
vt 0.526069 0.341985
vt 0.756889 0.299237
vt 0.792095 0.248681
vt 0.751769 0.211481
vt 0.701922 0.188559
vt 0.647431 0.182167
vt 0.593631 0.192931
vt 0.545790 0.219792
vt 0.759608 0.273613
vt 0.691602 0.220690
vt 0.605257 0.224178
vt 0.535714 0.278849
vt 0.337261 0.659224
vt 0.371142 0.721750
vt 0.361801 0.792249
vt 0.587323 0.175896
vt 0.646695 0.164017
vt 0.706832 0.171071
vt 0.761844 0.196364
vt 0.806348 0.237417
vt 0.484031 0.736885
vt 0.471194 0.667314
vt 0.437486 0.605114
vt 0.386208 0.556375
vt 0.784612 0.254594
vt 0.746480 0.219416
vt 0.699344 0.197741
vt 0.647816 0.191695
vt 0.596942 0.201875
vt 0.551703 0.227275
vt 0.373055 0.575485
vt 0.419072 0.619224
vt 0.449320 0.675042
vt 0.460840 0.737477
vt 0.417259 0.789948
vt 0.424088 0.738414
vt 0.414657 0.687291
vt 0.389890 0.641585
vt 0.352211 0.605769
vt 0.636339 0.263680
vt 0.584721 0.293639
vt 0.560604 0.346041
vt 0.726641 0.316394
vt 0.690197 0.274525
vt 0.729662 0.243290
vt 0.649265 0.214118
vt 0.566595 0.246228
vt 0.816600 0.297392
vt 0.807418 0.271538
vt 0.790126 0.250237
vt 0.773405 0.228485
vt 0.795967 0.245621
vt 0.750377 0.213570
vt 0.727753 0.198047
vt 0.754506 0.207374
vt 0.701244 0.190976
vt 0.674930 0.183204
vt 0.703256 0.183808
vt 0.647532 0.184675
vt 0.620105 0.185420
vt 0.647231 0.177237
vt 0.594503 0.195285
vt 0.568648 0.204468
vt 0.591918 0.188304
vt 0.547347 0.221762
vt 0.525595 0.238485
vt 0.542731 0.215921
vt 0.770728 0.291591
vt 0.742531 0.290921
vt 0.746166 0.257329
vt 0.774674 0.262261
vt 0.711130 0.231181
vt 0.688648 0.241112
vt 0.671005 0.214207
vt 0.696132 0.208016
vt 0.627107 0.218187
vt 0.615558 0.240810
vt 0.584745 0.233166
vt 0.600658 0.211872
vt 0.550390 0.261933
vt 0.553659 0.286664
vt 0.524210 0.297516
vt 0.525246 0.271386
vt 0.532075 0.358617
vt 0.345772 0.623058
vt 0.372949 0.648892
vt 0.340954 0.697665
vt 0.399285 0.697494
vt 0.406088 0.734368
vt 0.351535 0.755020
vt 0.398826 0.789168
vt 0.559752 0.188629
vt 0.578278 0.151474
vt 0.616539 0.167607
vt 0.645641 0.137996
vt 0.677043 0.165162
vt 0.713870 0.145996
vt 0.735339 0.181540
vt 0.776287 0.174691
vt 0.785721 0.215129
vt 0.826781 0.221269
vt 0.823258 0.262642
vt 0.642282 0.055770
vt 0.481067 0.736961
vt 0.480366 0.701591
vt 0.736086 0.066756
vt 0.468399 0.668301
vt 0.456801 0.634880
vt 0.821903 0.106195
vt 0.435134 0.606917
vt 0.413776 0.578715
vt 0.891332 0.170221
vt 0.384527 0.558817
vt 0.355500 0.538596
vt 0.799102 0.276207
vt 0.766939 0.235496
vt 0.739666 0.229297
vt 0.723769 0.206713
vt 0.673820 0.192675
vt 0.648369 0.202015
vt 0.621977 0.194772
vt 0.573317 0.212784
vt 0.558349 0.235712
vt 0.532605 0.244951
vt 0.345498 0.559529
vt 0.397795 0.595533
vt 0.436405 0.645936
vt 0.457552 0.705803
vt 0.459162 0.769276
vt 0.422712 0.764452
vt 0.421398 0.712479
vt 0.404082 0.663458
vt 0.372470 0.622184
vt 0.329647 0.592703
vt 0.646569 0.233033
vt 0.662814 0.279385
vt 0.616436 0.289426
vt 0.575667 0.263880
vt 0.583214 0.324645
vt 0.535111 0.327065
vt 0.701208 0.304947
vt 0.713982 0.259145
vt 0.925023 0.205456
vt 0.864834 0.129295
vt 0.897909 0.165020
vt 0.784054 0.075460
vt 0.826551 0.099216
vt 0.690591 0.049222
vt 0.738350 0.058683
vt 0.641939 0.047392
vt 0.475000 0.500000
vt 0.450000 0.525000
vt 0.425000 0.550000
vt 0.444077 0.525000
vt 0.450000 0.518015
vt 0.441268 0.528064
vt 0.440343 0.529142
vt 0.425000 0.547568
vt 0.444077 0.525000
vt 0.422701 0.550000
vt 0.425000 0.547568
vt 0.424716 0.547846
vt 0.418931 0.556069
vt 0.422701 0.550000
vt 0.410644 0.571468
vt 0.410966 0.571653
vt 0.412494 0.572527
vt 0.413979 0.570870
vt 0.417879 0.566518
vt 0.419861 0.564384
vt 0.420593 0.563596
vt 0.425000 0.558268
vt 0.418931 0.556069
vt 0.411161 0.566574
vt 0.410854 0.568276
vt 0.428666 0.554876
vt 0.433934 0.550000
vt 0.425000 0.558268
vt 0.450000 0.535334
vt 0.433934 0.550000
vt 0.436988 0.546466
vt 0.437673 0.545714
vt 0.438292 0.545034
vt 0.446320 0.538275
vt 0.447548 0.537165
vt 0.449336 0.535802
vt 0.462568 0.527488
vt 0.464208 0.526486
vt 0.466690 0.525000
vt 0.450000 0.535334
vt 0.475000 0.518307
vt 0.466690 0.525000
vt 0.471947 0.520747
vt 0.479180 0.514349
vt 0.479761 0.513798
vt 0.494332 0.500000
vt 0.475000 0.518307
vt 0.506145 0.494709
vt 0.504744 0.495256
vt 0.505030 0.482747
vt 0.500000 0.485312
vt 0.500000 0.497671
vt 0.504744 0.495256
vt 0.518274 0.476022
vt 0.515399 0.477473
vt 0.508441 0.481007
vt 0.507041 0.481720
vt 0.500000 0.497671
vt 0.500000 0.485312
vt 0.498996 0.485723
vt 0.497935 0.486159
vt 0.489889 0.489466
vt 0.488623 0.489987
vt 0.482475 0.492525
vt 0.494332 0.500000
vt 0.475000 0.494503
vt 0.482475 0.492525
vt 0.480666 0.493044
vt 0.480207 0.493169
vt 0.480015 0.493220
vt 0.477301 0.493915
vt 0.474244 0.494934
vt 0.470490 0.497076
vt 0.470094 0.497234
vt 0.469182 0.497607
vt 0.466350 0.498643
vt 0.465222 0.499066
vt 0.464041 0.499478
vt 0.462546 0.500000
vt 0.475000 0.494503
vt 0.460157 0.502805
vt 0.458851 0.504896
vt 0.457479 0.507603
vt 0.451944 0.515208
vt 0.451396 0.516043
vt 0.450000 0.518015
vt 0.462546 0.500000
vt 0.461844 0.500351
vt 0.460663 0.502067
vt 0.523987 0.273589
vt 0.524731 0.284391
vt 0.516945 0.384624
vt 0.517011 0.392316
vt 0.517011 0.392316
vt 0.517488 0.338562
vt 0.517088 0.341016
vt 0.520531 0.319947
vt 0.517488 0.338562
vt 0.521012 0.317019
vt 0.520531 0.319947
vt 0.521012 0.317019
vt 0.523798 0.298807
vt 0.523360 0.302779
vt 0.523897 0.297807
vt 0.523798 0.298807
vt 0.523937 0.297390
vt 0.523897 0.297807
vt 0.548971 0.165008
vt 0.565536 0.117101
vt 0.565153 0.118027
vt 0.565536 0.117101
vt 0.591404 0.062465
vt 0.576466 0.094290
vt 0.568605 0.110356
vt 0.398611 0.795986
vt 0.401053 0.795326
vt 0.401053 0.795326
vt 0.416626 0.791595
vt 0.437953 0.782851
vt 0.419426 0.790592
vt 0.426125 0.788028
vt 0.437953 0.782851
vt 0.446189 0.779219
vt 0.458321 0.773208
vt 0.416626 0.791595
vt 0.417954 0.791121
vt 0.417954 0.791121
vt 0.419426 0.790592
vt 0.458321 0.773208
vt 0.460230 0.772371
vt 0.460230 0.772371
vt 0.465400 0.770101
vt 0.465400 0.770101
vt 0.475729 0.765383
vt 0.475729 0.765383
vt 0.479663 0.763581
vt 0.523784 0.272529
vt 0.523987 0.273589
vt 0.523333 0.270075
vt 0.523784 0.272529
vt 0.521712 0.262596
vt 0.523333 0.270075
vt 0.521091 0.259602
vt 0.521712 0.262596
vt 0.520381 0.256500
vt 0.521091 0.259602
vt 0.520381 0.256500
vt 0.519309 0.250533
vt 0.519480 0.252576
vt 0.479663 0.763581
vt 0.481970 0.766152
vt 0.481970 0.766152
vt 0.482459 0.766672
vt 0.601300 0.052236
vt 0.594705 0.058688
vt 0.594705 0.058688
vt 0.591404 0.062465
vt 0.548971 0.165008
vt 0.548054 0.167802
vt 0.548054 0.167802
vt 0.545642 0.176094
vt 0.538532 0.198328
vt 0.536403 0.204283
vt 0.535457 0.206717
vt 0.527503 0.230015
vt 0.536403 0.204283
vt 0.535457 0.206717
vt 0.273395 0.826163
vt 0.273395 0.826163
vt 0.276264 0.826367
vt 0.285637 0.825804
vt 0.295194 0.823590
vt 0.325761 0.807050
vt 0.361819 0.797828
vt 0.365523 0.797737
vt 0.361819 0.797828
vt 0.343259 0.800307
vt 0.356236 0.797928
vt 0.395253 0.796644
vt 0.398611 0.795986
vt 0.365523 0.797737
vt 0.394033 0.796843
vt 0.395253 0.796644
vt 0.343259 0.800307
vt 0.326980 0.806390
vt 0.335749 0.801645
vt 0.325761 0.807050
vt 0.326980 0.806390
vt 0.516824 0.365978
vt 0.516945 0.384624
vt 0.516803 0.362224
vt 0.516824 0.365978
vt 0.516778 0.356828
vt 0.516803 0.362224
vt 0.517088 0.341016
vt 0.516710 0.343337
vt 0.516778 0.356828
vt 0.524448 0.291531
vt 0.523937 0.297390
vt 0.524448 0.291531
vt 0.524731 0.284391
vt 0.524880 0.286565
vt 0.524184 0.237184
vt 0.521885 0.243205
vt 0.521885 0.243205
vt 0.521114 0.245403
vt 0.521114 0.245403
vt 0.519309 0.250533
vt 0.527503 0.230015
vt 0.524184 0.237184
vt 0.500000 0.475000
vt 0.500000 0.500000
vt 0.500000 0.525000
vt 0.508144 0.525000
vt 0.500000 0.541885
vt 0.506013 0.535050
vt 0.506912 0.518088
vt 0.508144 0.525000
vt 0.505591 0.512392
vt 0.502717 0.500000
vt 0.506912 0.518088
vt 0.502746 0.497254
vt 0.502717 0.500000
vt 0.502733 0.494383
vt 0.502715 0.490244
vt 0.502685 0.483609
vt 0.502647 0.475000
vt 0.502746 0.497254
vt 0.502007 0.472993
vt 0.502647 0.475000
vt 0.500000 0.459135
vt 0.502007 0.472993
vt 0.497799 0.374702
vt 0.497545 0.370785
vt 0.496471 0.369920
vt 0.495829 0.369403
vt 0.494584 0.370735
vt 0.493690 0.371693
vt 0.493542 0.375000
vt 0.497818 0.375000
vt 0.497818 0.375000
vt 0.493542 0.375000
vt 0.491125 0.383875
vt 0.497416 0.377584
vt 0.493460 0.396986
vt 0.495522 0.387442
vt 0.496917 0.380982
vt 0.497416 0.377584
vt 0.491125 0.383875
vt 0.490242 0.386969
vt 0.486534 0.399968
vt 0.486526 0.400000
vt 0.493369 0.400000
vt 0.493369 0.400000
vt 0.486526 0.400000
vt 0.485746 0.403252
vt 0.483841 0.411190
vt 0.483547 0.412221
vt 0.482217 0.416881
vt 0.482097 0.417071
vt 0.480969 0.418857
vt 0.480954 0.418887
vt 0.480807 0.419193
vt 0.492855 0.407145
vt 0.493042 0.404844
vt 0.481476 0.425000
vt 0.492698 0.425000
vt 0.492732 0.412885
vt 0.492760 0.408476
vt 0.492855 0.407145
vt 0.480807 0.419193
vt 0.480491 0.419858
vt 0.480469 0.419908
vt 0.480498 0.420043
vt 0.481110 0.422842
vt 0.485901 0.435776
vt 0.486524 0.437656
vt 0.486728 0.438272
vt 0.494519 0.430481
vt 0.492698 0.425000
vt 0.481476 0.425000
vt 0.482759 0.427490
vt 0.483013 0.427986
vt 0.485337 0.434253
vt 0.489138 0.450000
vt 0.498630 0.450000
vt 0.496285 0.439028
vt 0.496140 0.438349
vt 0.495498 0.435217
vt 0.494519 0.430481
vt 0.486728 0.438272
vt 0.488315 0.445989
vt 0.488532 0.447043
vt 0.487492 0.462508
vt 0.498441 0.451559
vt 0.498630 0.450000
vt 0.489138 0.450000
vt 0.488688 0.453390
vt 0.488204 0.457060
vt 0.487968 0.458842
vt 0.489937 0.475000
vt 0.500000 0.459135
vt 0.498441 0.451559
vt 0.487492 0.462508
vt 0.487996 0.465089
vt 0.490709 0.484291
vt 0.489936 0.475000
vt 0.490692 0.486763
vt 0.490674 0.490837
vt 0.490676 0.492127
vt 0.490688 0.493454
vt 0.490754 0.497833
vt 0.490792 0.500000
vt 0.490709 0.484291
vt 0.493176 0.506824
vt 0.490792 0.500000
vt 0.494026 0.510125
vt 0.497198 0.522392
vt 0.497664 0.524191
vt 0.497874 0.525000
vt 0.493176 0.506824
vt 0.497992 0.527008
vt 0.497874 0.525000
vt 0.494307 0.548021
vt 0.494213 0.548432
vt 0.499411 0.542663
vt 0.500000 0.541885
vt 0.497992 0.527008
vt 0.496727 0.534207
vt 0.496029 0.538204
vt 0.495796 0.539531
vt 0.495430 0.541618
vt 0.816613 0.297428
vt 0.816709 0.297352
vt 0.816709 0.297352
vt 0.817974 0.296318
vt 0.818561 0.295841
vt 0.818561 0.295840
vt 0.818618 0.295793
vt 0.818618 0.295793
vt 0.822023 0.292563
vt 0.822023 0.292563
vt 0.822382 0.292208
vt 0.302257 0.645679
vt 0.300910 0.652822
vt 0.310560 0.616246
vt 0.304183 0.635818
vt 0.312896 0.609134
vt 0.310560 0.616246
vt 0.285009 0.716043
vt 0.277452 0.732075
vt 0.299825 0.658569
vt 0.296797 0.675145
vt 0.296228 0.678119
vt 0.292696 0.689891
vt 0.285923 0.712519
vt 0.300013 0.657543
vt 0.299825 0.658569
vt 0.300910 0.652822
vt 0.300013 0.657543
vt 0.277452 0.732075
vt 0.271627 0.744432
vt 0.271627 0.744431
vt 0.267994 0.752139
vt 0.267994 0.752139
vt 0.265473 0.757487
vt 0.264109 0.762641
vt 0.265933 0.785716
vt 0.265933 0.785716
vt 0.266772 0.796324
vt 0.263742 0.806713
vt 0.255448 0.824892
vt 0.822382 0.292208
vt 0.831596 0.286394
vt 0.831596 0.286394
vt 0.833629 0.285100
vt 0.833629 0.285100
vt 0.849514 0.275734
vt 0.849514 0.275734
vt 0.856015 0.271881
vt 0.856101 0.271832
vt 0.926598 0.228798
vt 0.929310 0.226331
vt 0.929310 0.226331
vt 0.933002 0.222727
vt 0.342557 0.533622
vt 0.342794 0.534897
vt 0.342794 0.534897
vt 0.343100 0.536996
vt 0.809673 0.299102
vt 0.816293 0.297506
vt 0.816293 0.297506
vt 0.816613 0.297428
vt 0.809673 0.299102
vt 0.798259 0.301455
vt 0.804691 0.300465
vt 0.796981 0.301655
vt 0.798259 0.301455
vt 0.343100 0.536996
vt 0.340952 0.543630
vt 0.340952 0.543630
vt 0.340788 0.544134
vt 0.338423 0.548477
vt 0.335436 0.555662
vt 0.335436 0.555662
vt 0.329276 0.569144
vt 0.329276 0.569144
vt 0.320134 0.589047
vt 0.320134 0.589047
vt 0.317871 0.595587
vt 0.315060 0.603357
vt 0.312896 0.609134
vt 0.315060 0.603357
vt 0.313693 0.607031
vt 0.856101 0.271832
vt 0.891248 0.251212
vt 0.926598 0.228798
vt 0.891249 0.251212
vt 0.899602 0.246280
vt 0.919148 0.232317
vt 0.651263 0.352791
vt 0.654405 0.351042
vt 0.648028 0.354581
vt 0.651263 0.352791
vt 0.572449 0.366667
vt 0.574428 0.366642
vt 0.550647 0.377771
vt 0.567690 0.368661
vt 0.574428 0.366643
vt 0.578827 0.366583
vt 0.637345 0.360465
vt 0.648028 0.354581
vt 0.578827 0.366583
vt 0.608820 0.366179
vt 0.538041 0.384501
vt 0.541183 0.382823
vt 0.541183 0.382823
vt 0.550647 0.377771
vt 0.608820 0.366179
vt 0.616891 0.366066
vt 0.632058 0.363373
vt 0.637345 0.360465
vt 0.754377 0.312349
vt 0.756499 0.311801
vt 0.754377 0.312349
vt 0.739821 0.316199
vt 0.748428 0.313892
vt 0.730503 0.318693
vt 0.739821 0.316199
vt 0.725980 0.319905
vt 0.730503 0.318693
vt 0.725980 0.319905
vt 0.711355 0.324397
vt 0.716666 0.322385
vt 0.711355 0.324397
vt 0.664321 0.345498
vt 0.670335 0.342129
vt 0.690961 0.332116
vt 0.654405 0.351042
vt 0.664321 0.345498
vt 0.516981 0.395787
vt 0.517941 0.395240
vt 0.517941 0.395240
vt 0.533100 0.387141
vt 0.533100 0.387141
vt 0.538041 0.384501
vt 0.781723 0.305309
vt 0.796981 0.301655
vt 0.778014 0.306199
vt 0.781723 0.305309
vt 0.773504 0.307395
vt 0.778014 0.306199
vt 0.756499 0.311801
vt 0.772026 0.307787
vt 0.773504 0.307395
vt 0.517775 0.482225
vt 0.519556 0.475343
vt 0.517775 0.482226
vt 0.514912 0.491289
vt 0.517481 0.483140
vn -0.496885 0.499926 -0.709352
vn -0.324525 0.552088 -0.768038
vn -0.497244 0.497560 -0.710761
vn -0.460564 0.498270 -0.734580
vn -0.175335 0.603005 -0.778230
vn -0.378838 0.530899 -0.758042
vn -0.097359 0.643100 -0.759568
vn -0.079574 0.638086 -0.765842
vn -0.469189 0.583821 -0.662582
vn -0.426390 0.534186 -0.729957
vn -0.475676 0.578993 -0.662193
vn -0.475673 0.579000 -0.662188
vn -0.475677 0.578990 -0.662195
vn -0.458110 0.577332 -0.675886
vn -0.379668 0.546860 -0.746188
vn -0.383258 0.542933 -0.747220
vn -0.447638 0.538305 -0.714037
vn -0.332810 0.549951 -0.766023
vn -0.412644 0.542860 -0.731456
vn -0.332809 0.549952 -0.766023
vn -0.332810 0.549949 -0.766025
vn -0.332814 0.549952 -0.766021
vn -0.332818 0.549943 -0.766026
vn -0.332794 0.549958 -0.766025
vn -0.375410 0.612278 -0.695833
vn -0.456463 0.551048 -0.698561
vn -0.353213 0.627491 -0.693899
vn -0.353217 0.627486 -0.693901
vn -0.353216 0.627487 -0.693902
vn -0.362318 0.628736 -0.688053
vn -0.353216 0.627490 -0.693898
vn -0.355588 0.627821 -0.692386
vn -0.353216 0.627484 -0.693903
vn -0.367752 0.625841 -0.687809
vn -0.362396 0.628744 -0.688005
vn -0.363103 0.628379 -0.687965
vn -0.362461 0.628765 -0.687951
vn -0.362433 0.628737 -0.687992
vn -0.362439 0.628735 -0.687990
vn -0.362429 0.628744 -0.687987
vn -0.362424 0.628747 -0.687987
vn -0.362425 0.628747 -0.687987
vn -0.362429 0.628747 -0.687984
vn -0.367770 0.625831 -0.687809
vn -0.367778 0.625827 -0.687808
vn -0.336684 0.621665 -0.707231
vn -0.367770 0.625822 -0.687817
vn -0.367686 0.625787 -0.687894
vn -0.367776 0.625828 -0.687808
vn -0.367778 0.625826 -0.687809
vn -0.331832 0.620945 -0.710151
vn -0.280298 0.615176 -0.736880
vn -0.285360 0.613131 -0.736641
vn -0.283842 0.613746 -0.736715
vn -0.285356 0.613132 -0.736642
vn -0.285358 0.613131 -0.736642
vn -0.285361 0.613131 -0.736640
vn -0.285359 0.613131 -0.736641
vn -0.280009 0.615292 -0.736893
vn -0.280014 0.615290 -0.736893
vn -0.280012 0.615290 -0.736893
vn -0.280013 0.615289 -0.736894
vn -0.281155 0.615378 -0.736385
vn -0.280018 0.615292 -0.736889
vn -0.283299 0.615540 -0.735426
vn -0.371299 0.552532 -0.746221
vn -0.285932 0.615734 -0.734244
vn -0.329497 0.584664 -0.741350
vn -0.285930 0.615734 -0.734245
vn -0.285929 0.615735 -0.734245
vn -0.383286 0.542877 -0.747246
vn -0.423479 0.536364 -0.730054
vn -0.488725 0.495159 -0.718307
vn -0.466200 0.468880 -0.750206
vn -0.516874 0.465125 -0.718680
vn -0.516873 0.465129 -0.718678
vn -0.516875 0.465124 -0.718679
vn -0.516874 0.465128 -0.718677
vn -0.516873 0.465128 -0.718678
vn -0.132531 0.544093 -0.828491
vn -0.136861 0.559442 -0.817492
vn -0.112194 0.555200 -0.824115
vn -0.112192 0.555203 -0.824113
vn -0.112279 0.554229 -0.824757
vn -0.493452 0.507494 -0.706368
vn -0.496058 0.505160 -0.706215
vn -0.496072 0.505150 -0.706212
vn -0.496075 0.505148 -0.706212
vn -0.496077 0.505148 -0.706211
vn -0.496076 0.505148 -0.706211
vn -0.496075 0.505145 -0.706214
vn -0.496077 0.505146 -0.706211
vn -0.337096 -0.918579 0.206347
vn 0.018177 -0.998574 -0.050191
vn 0.110709 -0.991539 -0.067786
vn 0.011769 -0.999898 -0.008094
vn -0.337111 -0.918571 0.206357
vn -0.337112 -0.918571 0.206357
vn -0.423015 -0.868335 0.258944
vn -0.374999 -0.885549 0.274189
vn -0.424992 -0.867008 0.260153
vn -0.228824 -0.963338 0.140071
vn -0.248386 -0.951311 0.182516
vn 0.007933 -0.999938 -0.007775
vn -0.329412 -0.885042 0.328919
vn 0.006535 -0.999940 -0.008803
vn -0.273902 -0.885046 0.376392
vn -0.216339 -0.952199 0.215673
vn -0.179897 -0.952223 0.246795
vn 0.005142 -0.999938 -0.009845
vn -0.211648 -0.885043 0.414613
vn 0.003495 -0.999940 -0.010391
vn -0.144185 -0.885044 0.442616
vn -0.139104 -0.952199 0.271969
vn -0.094827 -0.952224 0.290306
vn 0.001847 -0.999938 -0.010953
vn -0.073165 -0.885044 0.459722
vn 0.000113 -0.999940 -0.010963
vn -0.000354 -0.885046 0.465504
vn -0.048252 -0.952199 0.301644
vn -0.000477 -0.952223 0.305403
vn -0.001628 -0.999938 -0.010987
vn 0.072475 -0.885044 0.459832
vn -0.003280 -0.999940 -0.010460
vn 0.143513 -0.885043 0.442834
vn 0.047321 -0.952199 0.301792
vn 0.093919 -0.952224 0.290600
vn -0.004943 -0.999938 -0.009946
vn 0.211026 -0.885043 0.414930
vn -0.006353 -0.999940 -0.008936
vn 0.273332 -0.885044 0.376810
vn 0.138265 -0.952199 0.272396
vn 0.179125 -0.952223 0.247356
vn -0.007774 -0.999938 -0.007932
vn 0.328922 -0.885040 0.329415
vn -0.026431 -0.999494 -0.017708
vn 0.343326 -0.898078 0.274925
vn 0.224147 -0.947606 0.227599
vn 0.394560 -0.867604 0.302631
vn 0.319615 -0.907294 0.273248
vn -0.078629 -0.995741 -0.048131
vn 0.337099 -0.918577 0.206350
vn 0.356445 -0.908482 0.218190
vn 0.058329 -0.997358 -0.043297
vn 0.008225 -0.999947 -0.006189
vn 0.052715 -0.997265 -0.051802
vn 0.005427 -0.999974 -0.004675
vn -0.006822 -0.999964 0.005005
vn -0.006383 -0.999962 0.005886
vn -0.004870 -0.999962 0.007264
vn 0.004488 -0.999976 -0.005253
vn 0.044616 -0.997171 -0.060491
vn 0.006077 -0.999920 -0.011134
vn 0.003330 -0.999939 -0.010527
vn 0.028531 -0.996351 -0.080447
vn 0.017983 -0.995185 -0.096351
vn -0.002483 -0.999966 0.007903
vn -0.001825 -0.999962 0.008559
vn 0.000174 -0.999962 0.008695
vn 0.000438 -0.999923 -0.012395
vn 0.000994 -0.994309 -0.106534
vn -0.005682 -0.999867 -0.015268
vn -0.005668 -0.999922 -0.011110
vn -0.030965 -0.995096 -0.093941
vn -0.044063 -0.995183 -0.087577
vn 0.002583 -0.999967 0.007698
vn 0.003332 -0.999962 0.008112
vn 0.005070 -0.999963 0.007029
vn -0.006255 -0.999945 -0.008479
vn -0.058587 -0.995030 -0.080514
vn -0.071054 -0.996078 -0.052719
vn -0.013666 -0.999857 -0.009944
vn -0.047687 -0.998435 -0.029225
vn -0.007136 -0.999963 -0.004760
vn 0.006664 -0.999966 0.004812
vn 0.007495 -0.999962 0.004557
vn 0.008250 -0.999962 0.002733
vn 0.005909 -0.999979 0.002566
vn -0.035520 -0.999231 -0.016605
vn -0.035521 -0.999231 -0.016607
vn -0.035547 -0.999230 -0.016605
vn -0.038516 -0.999129 -0.016070
vn 0.008360 -0.999965 -0.000055
vn 0.007809 -0.999970 -0.000315
vn 0.008205 -0.999966 -0.000080
vn 0.007810 -0.999969 -0.000278
vn 0.008281 -0.999966 -0.000498
vn 0.008823 -0.999961 -0.000678
vn 0.008239 -0.999965 -0.001305
vn 0.008540 -0.999962 -0.001518
vn 0.008246 -0.999964 -0.002205
vn 0.008917 0.999958 -0.002126
vn 0.004739 0.999958 -0.007876
vn 0.020864 0.999693 -0.013337
vn 0.004738 0.999958 -0.007877
vn 0.005248 0.999956 -0.007807
vn 0.020453 0.999636 -0.017605
vn 0.000000 1.000000 0.000000
vn 0.000000 1.000000 0.000000
vn 0.000874 0.999996 -0.002690
vn -0.000000 1.000000 0.000000
vn -0.000000 1.000000 0.000000
vn -0.000000 1.000000 -0.000000
vn 0.000000 1.000000 -0.000000
vn 0.000000 1.000000 -0.000000
vn 0.007109 0.999973 -0.001646
vn 0.003517 0.999980 -0.005310
vn 0.023268 0.999537 -0.019626
vn 0.011475 0.999537 -0.028194
vn 0.037474 0.997966 -0.051579
vn 0.007073 0.999738 -0.021770
vn 0.000000 1.000000 0.000000
vn -0.000701 0.999997 -0.002158
vn -0.000000 0.999980 -0.006313
vn 0.007288 0.999537 -0.029554
vn -0.007288 0.999537 -0.029554
vn -0.000000 0.997966 -0.063755
vn -0.007073 0.999738 -0.021770
vn 0.000000 1.000000 -0.000000
vn -0.000000 1.000000 0.000000
vn -0.000000 1.000000 -0.000000
vn 0.133381 0.991008 0.010613
vn 0.156317 0.987707 -0.000962
vn -0.000461 0.999979 -0.006512
vn -0.008224 0.999570 -0.028154
vn -0.008234 0.999902 -0.011333
vn -0.007611 0.999916 -0.010478
vn -0.007728 0.999918 -0.010214
vn -0.026691 0.998463 -0.048568
vn 0.369336 0.929290 -0.003237
vn -0.009225 0.999951 -0.003562
vn 0.000000 1.000000 -0.000000
vn -0.000000 1.000000 0.000000
vn -0.000000 1.000000 0.000000
vn -0.000000 1.000000 0.000000
vn -0.000000 1.000000 0.000000
vn 0.000000 1.000000 0.000000
vn 0.000000 1.000000 -0.000000
vn -0.000000 1.000000 0.000000
vn 0.000000 1.000000 0.000000
vn 0.000000 1.000000 0.000000
vn 0.123832 -0.976251 0.177763
vn 0.153840 -0.971572 0.179947
vn 0.177756 -0.970790 0.161153
vn 0.131550 -0.979294 0.153873
vn 0.118464 -0.979420 0.163410
vn 0.131550 -0.979295 0.153873
vn 0.065379 -0.976988 0.203026
vn 0.096353 -0.976983 0.190318
vn 0.092868 -0.977357 0.190130
vn 0.108765 -0.978059 0.177682
vn 0.065059 -0.977002 0.203065
vn -0.000559 -0.976988 0.213292
vn 0.032824 -0.976983 0.210778
vn 0.032503 -0.976999 0.210753
vn -0.000876 -0.977002 0.213230
vn -0.066442 -0.976988 0.202680
vn -0.033915 -0.976983 0.210605
vn -0.034212 -0.976999 0.210482
vn -0.066724 -0.977002 0.202524
vn -0.125823 -0.976988 0.172228
vn -0.097337 -0.976983 0.189816
vn -0.097581 -0.976999 0.189608
vn -0.126042 -0.977002 0.171992
vn -0.171585 -0.976854 0.127731
vn -0.151229 -0.976983 0.150448
vn -0.151397 -0.976999 0.150174
vn -0.168837 -0.977066 0.129751
vn -0.204996 -0.970685 0.125485
vn -0.176913 -0.978251 0.108294
vn -0.172660 -0.979295 0.105691
vn -0.184926 -0.976211 0.113199
vn -0.172661 -0.979294 0.105693
vn 0.084316 -0.975482 0.203287
vn 0.155666 -0.754977 0.637007
vn 0.061079 -0.972304 0.225598
vn -0.000604 -0.964306 0.264792
vn 0.040829 -0.964313 0.261597
vn -0.000330 -0.388833 0.921308
vn 0.138341 -0.412539 0.900374
vn 0.159728 -0.727961 0.666754
vn 0.171361 0.677465 0.715315
vn -0.000295 0.999996 -0.002938
vn 0.061409 0.964633 0.256342
vn -0.000236 0.999973 -0.007337
vn -0.082400 -0.964305 0.251646
vn -0.042008 -0.964313 0.261411
vn -0.285012 -0.388833 0.876115
vn -0.144445 -0.388813 0.909923
vn 0.000935 0.999972 -0.007399
vn 0.002043 0.999973 -0.007051
vn -0.156130 -0.964305 0.213866
vn -0.120732 -0.964313 0.235635
vn -0.541801 -0.388816 0.745167
vn -0.418555 -0.388828 0.820746
vn 0.003176 0.999972 -0.006747
vn 0.004121 0.999973 -0.006075
vn -0.211346 -0.962714 0.168862
vn -0.187638 -0.964313 0.186794
vn -0.719477 -0.405395 0.563922
vn -0.651698 -0.388814 0.651240
vn 0.005105 0.999972 -0.005436
vn 0.000823 0.999998 -0.001990
vn -0.559415 -0.754848 0.342431
vn -0.285779 -0.942194 0.174932
vn -0.641141 -0.659480 0.392459
vn -0.627350 0.677465 0.384023
vn -0.128885 0.988516 0.078895
vn 0.120792 -0.988654 -0.089287
vn 0.148399 -0.984746 -0.090842
vn 0.135843 -0.987235 -0.083154
vn 0.114719 -0.990898 -0.070431
vn 0.115110 -0.990851 -0.070463
vn 0.047244 -0.998452 -0.029345
vn 0.089790 -0.988330 -0.123050
vn 0.106237 -0.988678 -0.105966
vn 0.049268 -0.987490 -0.149785
vn 0.070331 -0.988013 -0.137416
vn 0.036217 -0.996931 -0.069397
vn 0.000726 -0.985418 -0.170152
vn 0.026811 -0.986406 -0.162123
vn -0.051059 -0.986115 -0.158021
vn -0.026719 -0.985617 -0.166868
vn -0.017437 -0.994473 -0.103540
vn -0.098161 -0.985933 -0.135282
vn -0.075198 -0.986054 -0.148469
vn -0.131732 -0.986367 -0.098630
vn -0.117470 -0.986156 -0.117038
vn -0.069071 -0.995297 -0.067916
vn -0.148396 -0.984747 -0.090839
vn -0.148400 -0.984746 -0.090840
vn -0.137338 -0.986950 -0.084069
vn -0.137324 -0.986807 -0.085761
vn -0.138065 -0.986661 -0.086247
vn -0.151856 -0.986343 -0.063781
vn -0.042030 -0.998955 -0.017927
vn 0.110439 0.991581 -0.067604
vn 0.121304 0.987757 -0.098087
vn 0.110439 0.991581 -0.067600
vn 0.110440 0.991581 -0.067603
vn 0.135499 0.987300 -0.082943
vn 0.147904 0.984849 -0.090537
vn 0.123454 0.989469 -0.075569
vn 0.105114 0.990879 -0.084323
vn 0.109780 0.987807 -0.110386
vn 0.091141 0.987811 -0.126183
vn 0.098968 0.990295 -0.097572
vn 0.088392 0.988523 -0.122508
vn 0.070296 0.987807 -0.138907
vn 0.047688 0.987811 -0.148172
vn 0.061437 0.990294 -0.124672
vn 0.040418 0.991238 -0.125754
vn 0.023931 0.987807 -0.153831
vn -0.000434 0.987811 -0.155656
vn 0.022716 0.990295 -0.137110
vn -0.000498 0.988524 -0.151066
vn -0.024432 0.987539 -0.155465
vn -0.030167 0.991581 -0.125924
vn -0.030434 0.991584 -0.125838
vn -0.041585 0.986100 -0.160867
vn -0.023577 0.990294 -0.136973
vn -0.032162 0.993073 -0.113010
vn -0.049613 0.991581 -0.119608
vn -0.066204 0.984957 -0.159612
vn -0.066561 0.984851 -0.160120
vn -0.090537 0.984849 -0.147902
vn -0.023611 0.997402 -0.068050
vn -0.038874 0.997224 -0.063505
vn -0.066439 0.984849 -0.160182
vn -0.066440 0.984849 -0.160181
vn -0.066440 0.984849 -0.160181
vn -0.036797 0.997320 -0.063240
vn 0.047217 0.998444 -0.029675
vn 0.046959 0.998483 -0.028745
vn 0.051201 0.997715 -0.044071
vn 0.083087 -0.976203 0.200313
vn 0.083086 -0.976203 0.200313
vn 0.084282 -0.976224 0.199708
vn 0.113224 -0.976202 0.184958
vn -0.184959 -0.976203 0.113219
vn -0.184960 -0.976203 0.113219
vn -0.184960 -0.976203 0.113219
vn 0.002739 -0.999962 0.008315
vn 0.004538 -0.999970 0.006225
vn 0.002038 -0.999962 0.008515
vn 0.000546 -0.999970 0.007726
vn 0.004365 -0.999973 0.005870
vn 0.001592 -0.999973 0.007242
vn 0.007005 -0.999963 0.005095
vn 0.007207 -0.999969 0.003074
vn 0.006660 -0.999962 0.005705
vn 0.006519 -0.999972 0.003649
vn 0.008703 -0.999962 0.000265
vn 0.009017 -0.999959 -0.001164
vn 0.009029 -0.999959 -0.001130
vn 0.007730 -0.999970 -0.000020
vn 0.009029 -0.999959 -0.001130
vn 0.008765 -0.999961 0.000741
vn 0.007697 -0.999970 0.000033
vn 0.007695 -0.999970 0.000015
vn 0.007699 -0.999970 0.000024
vn 0.007973 -0.999959 -0.004276
vn 0.007391 -0.999965 -0.003868
vn 0.006238 -0.999971 -0.004467
vn 0.006236 -0.999971 -0.004473
vn -0.006586 -0.999960 0.006034
vn -0.003358 -0.999970 0.007040
vn -0.007423 -0.999958 0.005397
vn -0.006970 -0.999963 0.005017
vn -0.007691 -0.999955 0.005573
vn -0.007689 -0.999955 0.005587
vn -0.007907 -0.999960 0.004129
vn -0.006012 -0.999972 0.004532
vn -0.005795 -0.999973 0.004476
vn -0.005890 -0.999972 0.004540
vn -0.001923 -0.999972 0.007209
vn -0.005768 -0.999974 0.004456
vn -0.005766 -0.999973 0.004456
vn -0.002497 -0.999962 0.008365
vn -0.003331 -0.999961 0.008233
vn 0.005133 -0.999955 -0.007951
vn -0.002396 -0.999921 -0.012335
vn -0.008787 -0.999926 -0.008459
vn -0.038733 -0.999220 -0.007640
vn 0.008388 -0.999963 0.001686
vn 0.008212 -0.999965 0.001346
vn 0.008406 -0.999963 0.001690
vn 0.008275 -0.999966 0.000509
vn 0.008103 -0.999967 0.000111
vn 0.004514 -0.999988 -0.002037
vn -0.035657 -0.999234 0.016135
vn 0.007617 -0.999965 -0.003441
vn 0.007786 -0.999963 -0.003538
vn 0.019547 -0.999731 -0.012450
vn 0.006598 -0.999969 -0.004275
vn -0.006864 -0.999966 0.004547
vn -0.007033 -0.999963 0.005024
vn 0.471084 0.881760 -0.024070
vn 0.494601 0.869089 0.007371
vn 0.508020 0.858511 0.069820
vn 0.495719 0.868437 0.008944
vn 0.495720 0.868436 0.008943
vn 0.495720 0.868436 0.008943
vn 0.495726 0.868433 0.008942
vn 0.495716 0.868439 0.008946
vn 0.495717 0.868438 0.008943
vn 0.499369 0.866372 0.005526
vn 0.495725 0.868434 0.008937
vn 0.598310 0.795826 -0.093201
vn 0.598331 0.795807 -0.093230
vn 0.598324 0.795812 -0.093225
vn 0.598325 0.795813 -0.093218
vn 0.598315 0.795822 -0.093201
vn 0.598324 0.795812 -0.093226
vn 0.638885 0.768957 -0.023047
vn 0.598325 0.795813 -0.093217
vn 0.708343 0.705156 0.031690
vn 0.648169 0.761476 -0.005722
vn 0.648177 0.761468 -0.005713
vn 0.648152 0.761490 -0.005733
vn 0.648168 0.761476 -0.005721
vn 0.632185 0.770261 0.083905
vn 0.656776 0.750158 -0.076860
vn 0.692672 0.721238 -0.004656
vn 0.708995 0.704482 0.032116
vn 0.708995 0.704482 0.032114
vn 0.708995 0.704482 0.032115
vn 0.708994 0.704483 0.032117
vn 0.654784 0.751508 -0.080586
vn 0.651653 0.754108 -0.081669
vn 0.654785 0.751507 -0.080587
vn 0.654784 0.751507 -0.080591
vn 0.652296 0.753576 -0.081448
vn 0.654780 0.751511 -0.080587
vn 0.654781 0.751510 -0.080591
vn 0.654781 0.751510 -0.080589
vn 0.498119 0.857481 -0.128858
vn 0.498114 0.857484 -0.128860
vn 0.498116 0.857482 -0.128859
vn 0.497996 0.852011 0.161482
vn 0.497998 0.852010 0.161484
vn 0.502061 0.860504 -0.086418
vn 0.502055 0.860508 -0.086412
vn 0.534899 0.844120 -0.036660
vn 0.525623 0.850713 -0.002758
vn 0.545187 0.838073 -0.020119
vn 0.545335 0.837976 -0.020138
vn 0.545339 0.837974 -0.020137
vn 0.545339 0.837974 -0.020137
vn 0.545322 0.837985 -0.020129
vn 0.545331 0.837979 -0.020136
vn 0.535035 0.844762 -0.010679
vn 0.540685 0.840562 0.033386
vn 0.521411 0.853304 0.001660
vn 0.542981 0.838888 0.037933
vn 0.543455 0.838575 0.038056
vn 0.543455 0.838575 0.038056
vn 0.543447 0.838580 0.038060
vn 0.543454 0.838576 0.038056
vn 0.543453 0.838576 0.038056
vn 0.543451 0.838578 0.038053
vn 0.543453 0.838576 0.038056
vn 0.543457 0.838574 0.038053
vn 0.543452 0.838578 0.038055
vn 0.492594 0.869940 0.023570
vn 0.490458 0.870933 -0.030459
vn 0.512171 0.858733 0.016088
vn 0.488609 0.872014 -0.029214
vn 0.490340 0.870989 -0.030742
vn 0.490220 0.871055 -0.030791
s 1
g SM_Shard_1 SM_broken_plate
usemtl aiStandardSurface1SG
f 2/412/1 3/410/2 1/413/3
f 1/413/3 3/410/2 4/411/4
f 4/415/4 3/410/2 5/414/5
f 6/409/6 7/417/7 3/410/2
f 7/417/7 8/416/8 3/410/2
f 5/418/5 3/410/2 8/416/8
f 7/420/7 6/409/6 9/419/9
f 6/409/6 10/408/10 9/425/9
f 9/425/9 10/408/10 14/421/11
f 14/421/11 10/408/10 13/422/12
f 13/422/12 10/408/10 12/423/13
f 10/408/10 11/424/14 12/423/13
f 11/427/14 10/408/10 15/426/15
f 15/429/15 10/408/10 16/428/16
f 18/436/17 19/435/18 17/437/19
f 17/437/19 19/435/18 24/430/20
f 24/430/20 19/435/18 23/431/21
f 19/435/18 20/434/22 23/431/21
f 23/431/21 20/434/22 22/432/23
f 20/434/22 21/433/24 22/432/23
f 26/440/25 18/439/17 25/441/26
f 25/441/26 18/439/17 17/438/19
f 25/445/26 31/444/27 26/446/25
f 31/444/27 32/443/28 26/446/25
f 26/446/25 32/443/28 30/447/29
f 28/449/30 29/448/31 27/450/32
f 29/448/31 30/447/29 27/450/32
f 27/450/32 30/447/29 33/442/33
f 30/447/29 32/443/28 33/442/33
f 36/460/34 37/459/35 35/461/36
f 37/459/35 38/458/37 35/461/36
f 38/458/37 39/457/38 35/461/36
f 39/457/38 40/456/39 35/461/36
f 40/456/39 41/455/40 35/461/36
f 41/455/40 42/454/41 35/461/36
f 42/454/41 43/453/42 35/461/36
f 35/461/36 43/453/42 34/462/43
f 34/462/43 43/453/42 27/451/32
f 43/453/42 28/452/30 27/451/32
f 35/467/36 48/466/44 36/468/34
f 48/466/44 49/465/45 36/468/34
f 49/465/45 50/464/46 36/468/34
f 36/468/34 50/464/46 47/469/47
f 47/469/47 50/464/46 46/470/48
f 46/470/48 50/464/46 45/471/49
f 45/471/49 50/464/46 44/472/50
f 44/472/50 50/464/46 51/463/51
f 56/475/52 57/474/53 55/476/54
f 57/474/53 58/473/55 55/476/54
f 51/478/51 50/477/46 54/479/56
f 58/473/55 52/481/57 55/476/54
f 54/479/56 50/477/46 53/480/58
f 52/481/57 53/480/58 55/476/54
f 53/480/58 50/477/46 55/476/54
f 55/487/54 61/486/59 56/488/52
f 61/486/59 62/485/60 56/488/52
f 56/488/52 62/485/60 60/489/61
f 62/485/60 63/484/62 60/489/61
f 63/484/62 64/483/63 60/489/61
f 60/489/61 64/483/63 59/490/64
f 59/490/64 64/483/63 65/482/65
f 70/491/66 66/497/67 69/492/68
f 66/497/67 67/496/69 69/492/68
f 67/496/69 68/495/70 69/492/68
f 68/495/70 65/494/65 69/492/68
f 65/494/65 64/493/63 69/492/68
f 69/500/68 16/499/16 70/501/66
f 16/499/16 10/408/10 70/501/66
f 70/501/66 10/408/10 71/502/71
f 71/502/71 10/408/10 72/498/72
f 72/504/72 10/408/10 73/503/73
f 6/409/6 74/510/74 10/408/10
f 74/510/74 75/509/75 10/408/10
f 75/509/75 76/508/76 10/408/10
f 76/508/76 77/507/77 10/408/10
f 77/507/77 78/506/78 10/408/10
f 78/506/78 79/505/79 10/408/10
f 73/511/73 10/408/10 79/505/79
f 74/513/74 6/409/6 80/512/80
f 3/410/2 81/517/81 6/409/6
f 81/517/81 82/516/82 6/409/6
f 82/516/82 83/515/83 6/409/6
f 6/409/6 83/515/83 80/518/80
f 80/518/80 83/515/83 84/514/84
f 81/520/81 3/410/2 85/519/85
f 91/522/86 92/521/87 90/523/88
f 92/521/87 86/529/89 90/523/88
f 3/410/2 2/524/1 85/525/85
f 85/525/85 2/524/1 89/526/90
f 89/526/90 2/524/1 88/527/91
f 88/527/91 2/524/1 87/528/92
f 87/528/92 2/524/1 86/529/89
f 86/529/89 2/524/1 90/523/88
s 9
f 47/531/93 46/530/94 93/95/95
f 93/95/95 94/1/96 47/532/93
f 47/532/93 94/1/96 36/533/97
f 37/534/98 36/533/97 94/1/96
f 38/536/99 37/535/98 95/96/100
f 37/535/98 94/1/96 95/96/100
f 39/538/101 38/537/99 95/96/100
f 39/539/101 95/96/100 40/540/102
f 40/540/102 95/96/100 96/17/103
f 94/1/96 97/97/104 95/96/100
f 95/96/100 97/97/104 98/50/105
f 97/97/104 99/2/106 98/50/105
f 98/50/105 99/2/106 100/98/107
f 98/50/105 100/98/107 101/99/108
f 101/99/108 100/98/107 102/16/109
f 95/96/100 98/50/105 96/17/103
f 96/17/103 98/50/105 101/99/108
f 99/2/106 103/100/110 100/98/107
f 100/98/107 103/100/110 104/51/111
f 103/100/110 105/3/112 104/51/111
f 104/51/111 105/3/112 106/101/113
f 104/51/111 106/101/113 107/102/114
f 107/102/114 106/101/113 108/15/115
f 100/98/107 104/51/111 102/16/109
f 102/16/109 104/51/111 107/102/114
f 105/3/112 109/103/116 106/101/113
f 106/101/113 109/103/116 110/52/117
f 109/103/116 111/4/118 110/52/117
f 110/52/117 111/4/118 112/104/119
f 110/52/117 112/104/119 113/105/120
f 113/105/120 112/104/119 114/14/121
f 106/101/113 110/52/117 108/15/115
f 108/15/115 110/52/117 113/105/120
f 111/4/118 115/106/122 112/104/119
f 112/104/119 115/106/122 116/53/123
f 115/106/122 117/5/124 116/53/123
f 116/53/123 117/5/124 118/107/125
f 116/53/123 118/107/125 119/108/126
f 119/108/126 118/107/125 120/13/127
f 112/104/119 116/53/123 114/14/121
f 114/14/121 116/53/123 119/108/126
f 117/5/124 121/109/128 118/107/125
f 118/107/125 121/109/128 122/54/129
f 121/109/128 123/6/130 122/54/129
f 122/54/129 123/6/130 124/110/131
f 122/54/129 124/110/131 125/111/132
f 125/111/132 124/110/131 126/12/133
f 118/107/125 122/54/129 120/13/127
f 120/13/127 122/54/129 125/111/132
f 123/6/130 127/112/134 124/110/131
f 124/110/131 127/112/134 128/55/135
f 127/112/134 129/7/136 128/55/135
f 128/55/135 129/7/136 130/113/137
f 128/55/135 130/113/137 131/114/138
f 132/407/139 133/406/140 130/113/137
f 133/406/140 131/114/138 130/113/137
f 124/110/131 128/55/135 126/12/133
f 126/12/133 128/55/135 131/114/138
f 134/405/141 135/404/142 129/7/136
f 129/7/136 135/404/142 130/113/137
f 135/403/142 136/402/143 130/113/137
f 136/401/143 132/400/139 130/113/137
f 137/23/144 138/115/145 139/118/146
f 139/118/146 138/115/145 140/56/147
f 138/115/145 141/49/148 140/56/147
f 140/56/147 141/49/148 142/116/149
f 142/116/149 143/44/150 140/56/147
f 140/56/147 143/44/150 144/117/151
f 140/56/147 144/117/151 139/118/146
f 139/118/146 144/117/151 145/24/152
f 146/119/153 147/57/154 148/25/155
f 148/25/155 147/57/154 149/122/156
f 150/45/157 151/120/158 146/119/153
f 146/119/153 151/120/158 147/57/154
f 151/120/158 152/40/159 147/57/154
f 147/57/154 152/40/159 153/121/160
f 147/57/154 153/121/160 149/122/156
f 149/122/156 153/121/160 154/26/161
f 155/123/162 156/58/163 157/27/164
f 157/27/164 156/58/163 158/126/165
f 155/123/162 159/46/166 156/58/163
f 156/58/163 159/46/166 160/124/167
f 160/124/167 161/41/168 156/58/163
f 156/58/163 161/41/168 162/125/169
f 156/58/163 162/125/169 158/126/165
f 158/126/165 162/125/169 163/28/170
f 164/29/171 165/127/172 166/130/173
f 166/130/173 165/127/172 167/59/174
f 165/127/172 168/47/175 167/59/174
f 167/59/174 168/47/175 169/128/176
f 169/128/176 170/42/177 167/59/174
f 167/59/174 170/42/177 171/129/178
f 171/129/178 174/397/179 167/59/174
f 174/397/179 172/399/180 167/59/174
f 166/130/173 167/59/174 173/398/181
f 172/399/180 173/398/181 167/59/174
f 175/396/182 174/395/179 171/129/178
f 176/394/183 177/393/184 179/48/185
f 179/48/185 177/393/184 178/392/186
f 180/391/187 176/390/183 181/131/188
f 181/131/188 176/390/183 179/48/185
f 180/388/187 181/131/188 182/389/189
f 182/389/189 181/131/188 183/43/190
f 184/387/191 182/386/189 183/43/190
f 61/542/192 55/541/193 185/30/194
f 55/541/193 50/544/195 185/30/194
f 50/544/195 49/543/196 185/30/194
f 49/546/196 48/545/197 185/30/194
f 12/548/198 11/547/199 186/134/200
f 63/549/201 186/134/200 64/550/202
f 11/547/199 15/553/203 186/134/200
f 15/553/203 16/552/204 186/134/200
f 64/550/202 186/134/200 69/551/205
f 16/552/204 69/551/205 186/134/200
f 62/554/206 187/60/207 63/555/201
f 63/555/201 187/60/207 186/134/200
f 62/557/206 61/556/192 187/60/207
f 61/556/192 185/30/194 187/60/207
f 187/60/207 185/30/194 188/132/208
f 187/60/207 188/132/208 189/133/209
f 189/133/209 188/132/208 190/31/210
f 186/134/200 187/60/207 191/32/211
f 191/32/211 187/60/207 189/133/209
f 13/559/212 12/558/198 192/137/213
f 192/137/213 12/558/198 186/134/200
f 192/137/213 186/134/200 193/61/214
f 186/134/200 191/32/211 193/61/214
f 193/61/214 191/32/211 194/135/215
f 193/61/214 194/135/215 195/136/216
f 195/136/216 194/135/215 196/33/217
f 192/137/213 193/61/214 197/34/218
f 197/34/218 193/61/214 195/136/216
f 13/560/212 192/137/213 14/561/219
f 199/384/220 14/561/219 198/385/221
f 14/561/219 192/137/213 198/385/221
f 198/382/221 192/137/213 200/383/222
f 200/383/222 192/137/213 202/381/223
f 192/137/213 201/62/224 202/381/223
f 192/137/213 197/34/218 201/62/224
f 201/62/224 197/34/218 203/138/225
f 203/138/225 204/380/226 201/62/224
f 204/380/226 205/379/227 201/62/224
f 205/379/227 206/378/228 201/62/224
f 207/377/229 204/376/226 203/138/225
f 202/374/223 201/62/224 208/375/230
f 208/375/230 201/62/224 209/373/231
f 206/372/228 209/371/231 201/62/224
f 14/562/219 199/370/220 9/563/232
f 9/563/232 199/370/220 7/564/233
f 7/564/233 199/370/220 8/565/234
f 199/370/220 210/369/235 8/565/234
f 210/369/235 211/368/236 8/565/234
f 213/366/237 8/565/234 212/367/238
f 8/565/234 211/368/236 212/367/238
f 8/566/234 213/365/237 5/567/239
f 5/567/239 213/365/237 4/568/240
f 1/569/241 4/568/240 213/365/237
f 126/12/133 131/114/138 214/139/242
f 214/139/242 131/114/138 216/363/243
f 215/364/244 216/363/243 131/114/138
f 133/362/140 215/361/244 131/114/138
f 216/360/243 217/359/245 214/139/242
f 219/357/246 214/139/242 218/358/247
f 217/359/245 218/358/247 214/139/242
f 120/13/127 125/111/132 220/141/248
f 220/141/248 125/111/132 221/63/249
f 125/111/132 126/12/133 221/63/249
f 221/63/249 126/12/133 214/139/242
f 221/63/249 214/139/242 222/140/250
f 222/140/250 214/139/242 223/355/251
f 219/356/246 223/355/251 214/139/242
f 220/141/248 221/63/249 224/35/252
f 224/35/252 221/63/249 222/140/250
f 114/14/121 119/108/126 225/143/253
f 225/143/253 119/108/126 226/64/254
f 119/108/126 120/13/127 226/64/254
f 226/64/254 120/13/127 220/141/248
f 226/64/254 220/141/248 227/142/255
f 227/142/255 220/141/248 224/35/252
f 225/143/253 226/64/254 228/36/256
f 228/36/256 226/64/254 227/142/255
f 108/15/115 113/105/120 229/145/257
f 229/145/257 113/105/120 230/65/258
f 113/105/120 114/14/121 230/65/258
f 230/65/258 114/14/121 225/143/253
f 230/65/258 225/143/253 231/144/259
f 231/144/259 225/143/253 228/36/256
f 229/145/257 230/65/258 232/37/260
f 232/37/260 230/65/258 231/144/259
f 102/16/109 107/102/114 233/147/261
f 233/147/261 107/102/114 234/66/262
f 107/102/114 108/15/115 234/66/262
f 234/66/262 108/15/115 229/145/257
f 234/66/262 229/145/257 235/146/263
f 235/146/263 229/145/257 232/37/260
f 233/147/261 234/66/262 236/38/264
f 236/38/264 234/66/262 235/146/263
f 96/17/103 101/99/108 237/149/265
f 237/149/265 101/99/108 238/67/266
f 101/99/108 102/16/109 238/67/266
f 238/67/266 102/16/109 233/147/261
f 238/67/266 233/147/261 239/148/267
f 239/148/267 233/147/261 236/38/264
f 237/149/265 238/67/266 240/39/268
f 240/39/268 238/67/266 239/148/267
f 41/571/269 40/570/102 96/17/103
f 42/573/270 41/572/269 237/149/265
f 237/149/265 41/572/269 96/17/103
f 43/575/271 42/574/270 237/149/265
f 29/578/272 28/577/273 240/39/268
f 28/577/273 43/576/271 240/39/268
f 43/576/271 237/149/265 240/39/268
f 241/354/274 242/353/275 243/18/276
f 244/19/277 245/150/278 246/195/279
f 246/195/279 245/150/278 247/197/280
f 245/150/278 243/18/276 247/197/280
f 243/18/276 242/352/275 247/197/280
f 242/352/275 248/351/281 247/197/280
f 248/350/281 249/349/282 247/68/280
f 247/68/280 249/349/282 250/151/283
f 249/348/282 251/347/284 250/151/283
f 246/152/279 247/68/280 252/11/285
f 252/11/285 247/68/280 250/151/283
f 253/20/286 254/153/287 255/193/288
f 255/193/288 254/153/287 256/196/289
f 254/153/287 244/19/277 256/196/289
f 256/196/289 244/19/277 246/195/279
f 256/69/289 246/152/279 257/154/290
f 257/154/290 246/152/279 252/11/285
f 255/155/288 256/69/289 258/10/291
f 258/10/291 256/69/289 257/154/290
f 259/21/292 260/156/293 261/191/294
f 261/191/294 260/156/293 262/194/295
f 260/156/293 253/20/286 262/194/295
f 262/194/295 253/20/286 255/193/288
f 262/70/295 255/155/288 263/157/296
f 263/157/296 255/155/288 258/10/291
f 261/158/294 262/70/295 264/9/297
f 264/9/297 262/70/295 263/157/296
f 265/22/298 266/159/299 267/190/300
f 267/190/300 266/159/299 268/192/301
f 266/159/299 259/21/292 268/192/301
f 268/192/301 259/21/292 261/191/294
f 268/71/301 261/158/294 269/160/302
f 269/160/302 261/158/294 264/9/297
f 267/161/300 268/71/301 270/8/303
f 270/8/303 268/71/301 269/160/302
f 20/580/304 19/579/305 265/22/298
f 20/581/304 265/22/298 21/582/306
f 21/582/306 265/22/298 267/190/300
f 22/584/307 21/583/306 267/161/300
f 22/585/307 267/161/300 23/586/308
f 23/586/308 267/161/300 270/8/303
f 94/1/96 93/95/95 271/162/309
f 93/95/95 45/588/310 271/162/309
f 45/588/310 44/587/311 271/162/309
f 46/590/94 45/589/310 93/95/95
f 54/592/312 271/162/309 51/593/313
f 51/593/313 271/162/309 44/591/311
f 54/595/312 53/594/314 271/162/309
f 53/594/314 137/23/144 271/162/309
f 99/2/106 97/97/104 272/163/315
f 272/163/315 97/97/104 273/72/316
f 97/97/104 94/1/96 273/72/316
f 273/72/316 94/1/96 271/162/309
f 271/162/309 137/23/144 273/72/316
f 273/72/316 137/23/144 139/118/146
f 273/72/316 139/118/146 272/163/315
f 272/163/315 139/118/146 145/24/152
f 105/3/112 103/100/110 274/165/317
f 274/165/317 103/100/110 275/73/318
f 103/100/110 99/2/106 275/73/318
f 275/73/318 99/2/106 272/163/315
f 272/163/315 145/24/152 275/73/318
f 275/73/318 145/24/152 276/164/319
f 275/73/318 276/164/319 274/165/317
f 274/165/317 276/164/319 148/25/155
f 111/4/118 109/103/116 277/166/320
f 277/166/320 109/103/116 278/74/321
f 109/103/116 105/3/112 278/74/321
f 278/74/321 105/3/112 274/165/317
f 274/165/317 148/25/155 278/74/321
f 278/74/321 148/25/155 149/122/156
f 278/74/321 149/122/156 277/166/320
f 277/166/320 149/122/156 154/26/161
f 117/5/124 115/106/122 279/168/322
f 279/168/322 115/106/122 280/75/323
f 115/106/122 111/4/118 280/75/323
f 280/75/323 111/4/118 277/166/320
f 280/75/323 277/166/320 281/167/324
f 281/167/324 277/166/320 154/26/161
f 279/168/322 280/75/323 157/27/164
f 157/27/164 280/75/323 281/167/324
f 123/6/130 121/109/128 282/169/325
f 282/169/325 121/109/128 283/76/326
f 121/109/128 117/5/124 283/76/326
f 283/76/326 117/5/124 279/168/322
f 283/76/326 279/168/322 158/126/165
f 158/126/165 279/168/322 157/27/164
f 282/169/325 283/76/326 163/28/170
f 163/28/170 283/76/326 158/126/165
f 129/7/136 127/112/134 284/171/327
f 284/171/327 127/112/134 285/77/328
f 127/112/134 123/6/130 285/77/328
f 285/77/328 123/6/130 282/169/325
f 282/169/325 163/28/170 285/77/328
f 285/77/328 163/28/170 286/170/329
f 285/77/328 286/170/329 284/171/327
f 284/171/327 286/170/329 164/29/171
f 288/344/330 287/346/331 129/7/136
f 287/346/331 134/345/141 129/7/136
f 289/343/332 288/342/330 284/171/327
f 284/171/327 288/342/330 129/7/136
f 290/341/333 289/340/332 164/29/171
f 164/29/171 289/340/332 284/171/327
f 166/130/173 291/339/334 164/29/171
f 291/339/334 290/338/333 164/29/171
f 292/337/335 291/336/334 166/130/173
f 293/335/336 292/334/335 166/130/173
f 24/597/337 23/596/308 270/8/303
f 270/8/303 294/172/338 24/598/337
f 24/598/337 294/172/338 17/599/339
f 17/599/339 294/172/338 25/600/340
f 31/601/341 25/600/340 294/172/338
f 32/603/342 31/602/341 294/172/338
f 33/605/343 32/604/342 295/181/344
f 295/181/344 32/604/342 294/172/338
f 270/8/303 269/160/302 294/172/338
f 294/172/338 269/160/302 296/78/345
f 269/160/302 264/9/297 296/78/345
f 296/78/345 264/9/297 297/173/346
f 296/78/345 297/173/346 298/86/347
f 298/86/347 297/173/346 299/180/348
f 294/172/338 296/78/345 295/181/344
f 295/181/344 296/78/345 298/86/347
f 264/9/297 263/157/296 297/173/346
f 297/173/346 263/157/296 300/79/349
f 263/157/296 258/10/291 300/79/349
f 300/79/349 258/10/291 301/174/350
f 300/79/349 301/174/350 302/85/351
f 302/85/351 301/174/350 303/179/352
f 297/173/346 300/79/349 299/180/348
f 299/180/348 300/79/349 302/85/351
f 258/10/291 257/154/290 301/174/350
f 301/174/350 257/154/290 304/80/353
f 257/154/290 252/11/285 304/80/353
f 304/80/353 252/11/285 305/175/354
f 304/80/353 305/175/354 306/84/355
f 306/84/355 305/175/354 307/178/356
f 301/174/350 304/80/353 303/179/352
f 303/179/352 304/80/353 306/84/355
f 252/11/285 250/151/283 305/175/354
f 305/175/354 250/151/283 308/81/357
f 251/333/284 309/332/358 250/151/283
f 250/151/283 309/332/358 308/81/357
f 309/331/358 310/330/359 308/81/357
f 310/330/359 311/176/360 308/81/357
f 308/81/357 311/176/360 312/83/361
f 312/83/361 311/176/360 313/177/362
f 305/175/354 308/81/357 307/178/356
f 307/178/356 308/81/357 312/83/361
f 310/329/359 314/328/363 311/176/360
f 314/327/363 315/326/364 311/176/360
f 316/325/365 317/324/366 318/82/367
f 317/323/366 319/322/368 318/82/367
f 311/176/360 315/321/364 313/177/362
f 315/321/364 320/320/369 313/177/362
f 320/320/369 321/319/370 313/177/362
f 321/316/370 322/318/371 313/177/362
f 318/82/367 313/177/362 316/317/365
f 322/318/371 316/317/365 313/177/362
f 319/315/368 323/314/372 318/82/367
f 318/82/367 323/314/372 203/138/225
f 323/313/372 207/312/229 203/138/225
f 313/177/362 318/82/367 197/34/218
f 197/34/218 318/82/367 203/138/225
f 313/177/362 197/34/218 312/83/361
f 312/83/361 197/34/218 195/136/216
f 312/83/361 195/136/216 307/178/356
f 307/178/356 195/136/216 196/33/217
f 306/84/355 307/178/356 194/135/215
f 194/135/215 307/178/356 196/33/217
f 303/179/352 306/84/355 191/32/211
f 191/32/211 306/84/355 194/135/215
f 303/179/352 191/32/211 302/85/351
f 302/85/351 191/32/211 189/133/209
f 302/85/351 189/133/209 299/180/348
f 299/180/348 189/133/209 190/31/210
f 298/86/347 299/180/348 188/132/208
f 188/132/208 299/180/348 190/31/210
f 295/181/344 298/86/347 185/30/194
f 185/30/194 298/86/347 188/132/208
f 185/30/194 34/608/373 295/181/344
f 34/608/373 27/607/374 295/181/344
f 27/607/374 33/606/343 295/181/344
f 34/610/373 185/30/194 35/611/375
f 35/611/375 185/30/194 48/609/197
f 224/35/252 222/140/250 243/18/276
f 243/18/276 222/140/250 241/309/274
f 241/309/274 222/140/250 325/310/376
f 325/310/376 222/140/250 324/311/377
f 324/311/377 222/140/250 326/308/378
f 326/306/378 222/140/250 327/307/379
f 327/307/379 222/140/250 223/305/251
f 228/36/256 227/142/255 244/19/277
f 244/19/277 227/142/255 245/150/278
f 227/142/255 224/35/252 245/150/278
f 245/150/278 224/35/252 243/18/276
f 232/37/260 231/144/259 253/20/286
f 253/20/286 231/144/259 254/153/287
f 231/144/259 228/36/256 254/153/287
f 254/153/287 228/36/256 244/19/277
f 236/38/264 235/146/263 259/21/292
f 259/21/292 235/146/263 260/156/293
f 235/146/263 232/37/260 260/156/293
f 260/156/293 232/37/260 253/20/286
f 240/39/268 239/148/267 265/22/298
f 265/22/298 239/148/267 266/159/299
f 239/148/267 236/38/264 266/159/299
f 266/159/299 236/38/264 259/21/292
f 30/613/380 29/612/272 240/39/268
f 240/39/268 265/22/298 30/615/380
f 30/615/380 265/22/298 26/616/381
f 26/616/381 265/22/298 18/617/382
f 18/617/382 265/22/298 19/614/305
f 160/124/167 328/87/383 161/41/168
f 161/41/168 328/87/383 329/184/384
f 159/46/166 330/182/385 160/124/167
f 160/124/167 330/182/385 328/87/383
f 330/182/385 152/40/159 328/87/383
f 328/87/383 152/40/159 331/183/386
f 328/87/383 331/183/386 329/184/384
f 77/618/387 329/184/384 78/619/388
f 78/619/388 329/184/384 331/183/386
f 169/128/176 332/88/389 170/42/177
f 170/42/177 332/88/389 333/186/390
f 168/47/175 334/185/391 169/128/176
f 169/128/176 334/185/391 332/88/389
f 334/185/391 161/41/168 332/88/389
f 332/88/389 161/41/168 329/184/384
f 332/88/389 329/184/384 333/186/390
f 77/621/387 76/620/392 329/184/384
f 76/620/392 333/186/390 329/184/384
f 181/131/188 335/89/393 183/43/190
f 183/43/190 335/89/393 89/624/394
f 89/624/394 335/89/393 85/625/395
f 82/623/396 81/622/397 335/89/393
f 85/625/395 335/89/393 81/622/397
f 179/48/185 336/187/398 181/131/188
f 181/131/188 336/187/398 335/89/393
f 336/187/398 170/42/177 335/89/393
f 335/89/393 170/42/177 333/186/390
f 83/627/399 82/626/396 333/186/390
f 82/626/396 335/89/393 333/186/390
f 76/629/392 75/628/400 333/186/390
f 75/628/400 84/631/401 333/186/390
f 84/631/401 83/630/399 333/186/390
f 88/633/402 87/632/403 183/43/190
f 89/635/394 88/634/402 183/43/190
f 74/638/404 80/637/405 75/639/400
f 75/639/400 80/637/405 84/636/401
f 142/116/149 337/90/406 143/44/150
f 143/44/150 337/90/406 338/188/407
f 59/640/408 142/116/149 60/641/409
f 60/641/409 142/116/149 141/49/148
f 337/90/406 142/116/149 68/643/410
f 68/643/410 142/116/149 65/644/411
f 65/644/411 142/116/149 59/642/408
f 68/646/410 67/645/412 337/90/406
f 67/648/412 66/647/413 337/90/406
f 71/650/414 338/188/407 70/651/415
f 337/90/406 66/649/413 338/188/407
f 70/651/415 338/188/407 66/649/413
f 79/653/416 338/188/407 73/654/417
f 73/654/417 338/188/407 72/655/418
f 72/655/418 338/188/407 71/652/414
f 151/120/158 339/91/419 152/40/159
f 152/40/159 339/91/419 331/183/386
f 150/45/157 340/189/420 151/120/158
f 151/120/158 340/189/420 339/91/419
f 340/189/420 143/44/150 339/91/419
f 339/91/419 143/44/150 338/188/407
f 339/91/419 338/188/407 331/183/386
f 78/656/388 331/183/386 79/657/416
f 79/657/416 331/183/386 338/188/407
f 276/164/319 341/92/421 148/25/155
f 148/25/155 341/92/421 146/119/153
f 145/24/152 144/117/151 276/164/319
f 276/164/319 144/117/151 341/92/421
f 341/92/421 144/117/151 340/189/420
f 340/189/420 144/117/151 143/44/150
f 146/119/153 341/92/421 150/45/157
f 150/45/157 341/92/421 340/189/420
f 281/167/324 342/93/422 157/27/164
f 157/27/164 342/93/422 155/123/162
f 154/26/161 153/121/160 281/167/324
f 281/167/324 153/121/160 342/93/422
f 153/121/160 152/40/159 342/93/422
f 342/93/422 152/40/159 330/182/385
f 342/93/422 330/182/385 155/123/162
f 155/123/162 330/182/385 159/46/166
f 286/170/329 343/94/423 164/29/171
f 164/29/171 343/94/423 165/127/172
f 163/28/170 162/125/169 286/170/329
f 286/170/329 162/125/169 343/94/423
f 162/125/169 161/41/168 343/94/423
f 343/94/423 161/41/168 334/185/391
f 165/127/172 343/94/423 168/47/175
f 168/47/175 343/94/423 334/185/391
f 344/304/424 175/303/182 171/129/178
f 345/302/425 344/301/424 171/129/178
f 347/298/426 346/300/427 170/42/177
f 171/129/178 170/42/177 345/299/425
f 346/300/427 345/299/425 170/42/177
f 348/297/428 347/296/426 336/187/398
f 347/296/426 170/42/177 336/187/398
f 349/295/429 348/294/428 336/187/398
f 178/293/186 349/292/429 179/48/185
f 349/292/429 336/187/398 179/48/185
f 92/659/430 91/658/431 350/291/432
f 183/43/190 86/661/433 184/289/191
f 92/660/430 350/290/432 86/661/433
f 86/661/433 350/290/432 184/289/191
f 87/663/403 86/662/433 183/43/190
f 53/665/314 52/664/434 137/23/144
f 58/666/435 138/115/145 52/667/434
f 52/667/434 138/115/145 137/23/144
f 58/669/435 57/668/436 138/115/145
f 138/115/145 57/668/436 141/49/148
f 57/672/436 56/671/437 141/49/148
f 56/671/437 60/670/409 141/49/148
f 173/288/181 293/287/336 166/130/173
f 352/199/438 217/283/439 351/198/440
f 217/283/439 216/282/441 351/198/440
f 216/282/441 215/281/442 351/198/440
f 215/281/442 133/280/443 351/198/440
f 133/280/443 132/279/444 351/198/440
f 132/279/444 136/278/445 351/198/440
f 136/278/445 135/286/446 351/198/440
f 351/198/440 135/286/446 287/284/447
f 135/286/446 134/285/448 287/284/447
f 287/276/447 288/275/449 351/198/440
f 288/275/449 289/274/450 351/198/440
f 289/274/450 290/273/451 351/198/440
f 290/273/451 291/272/452 351/198/440
f 291/272/452 292/271/453 351/198/440
f 292/271/453 293/270/454 351/198/440
f 172/277/455 351/198/440 173/269/456
f 351/198/440 293/270/454 173/269/456
f 346/264/457 351/198/440 345/265/458
f 345/265/458 351/198/440 344/266/459
f 344/266/459 351/198/440 175/267/460
f 175/267/460 351/198/440 174/268/461
f 174/268/461 351/198/440 172/263/455
f 351/198/440 346/261/457 210/262/462
f 177/256/463 211/255/464 178/257/465
f 178/257/465 211/255/464 349/258/466
f 349/258/466 211/255/464 348/259/467
f 346/261/457 347/260/468 210/262/462
f 211/255/464 210/262/462 348/259/467
f 210/262/462 347/260/468 348/259/467
f 91/674/469 90/673/470 350/251/471
f 350/251/471 90/673/470 184/252/472
f 211/249/464 177/248/463 212/250/473
f 212/250/473 177/248/463 90/673/470
f 177/248/463 176/247/474 90/673/470
f 176/247/474 180/254/475 90/673/470
f 180/254/475 182/253/476 90/673/470
f 90/673/470 182/253/476 184/252/472
f 212/246/473 90/675/470 213/245/477
f 90/675/470 2/677/478 213/245/477
f 2/677/478 1/676/479 213/245/477
f 200/244/222 351/198/440 198/241/480
f 198/241/480 351/198/440 199/242/481
f 351/198/440 210/243/462 199/242/481
f 352/199/438 351/198/440 208/239/230
f 208/239/230 351/198/440 202/240/223
f 202/240/223 351/198/440 200/238/222
f 208/236/230 209/235/482 352/199/438
f 209/235/482 206/234/483 352/199/438
f 205/237/484 352/199/438 206/234/483
f 352/199/438 205/226/484 353/200/485
f 205/226/484 204/233/486 353/200/485
f 204/233/486 207/232/487 353/200/485
f 207/232/487 323/231/488 353/200/485
f 323/231/488 319/230/489 353/200/485
f 319/230/489 317/229/490 353/200/485
f 317/229/490 316/228/491 353/200/485
f 316/228/491 322/227/492 353/200/485
f 320/225/493 353/200/485 321/223/494
f 321/223/494 353/200/485 322/224/492
f 353/200/485 320/219/493 325/220/495
f 320/219/493 315/218/496 325/220/495
f 325/220/495 315/218/496 241/221/497
f 315/218/496 314/217/498 241/221/497
f 314/217/498 310/216/499 241/221/497
f 310/216/499 309/215/500 241/221/497
f 241/221/497 309/215/500 242/222/501
f 242/222/501 309/215/500 248/212/502
f 248/212/502 309/215/500 249/213/503
f 309/215/500 251/214/504 249/213/503
f 324/211/505 353/200/485 325/210/495
f 327/208/506 353/200/485 326/209/507
f 326/209/507 353/200/485 324/207/505
f 352/199/438 353/200/485 218/206/508
f 218/206/508 353/200/485 219/203/509
f 219/203/509 353/200/485 223/204/510
f 353/200/485 327/205/506 223/204/510
f 217/202/439 352/199/438 218/201/508
