# This file uses centimeters as units for non-parametric coordinates.

mtllib SM_window.mtl
g default
v -27.500000 -17.500000 0.500000
v 27.500000 -17.500000 0.500000
v -27.500000 17.500000 0.500000
v 27.500000 17.500000 0.500000
v -27.500000 17.500000 -0.500000
v 27.500000 17.500000 -0.500000
v -27.500000 -17.500000 -0.500000
v 27.500000 -17.500000 -0.500000
vt 0.007710 0.007746
vt 0.490731 0.007746
vt 0.007710 0.315123
vt 0.490731 0.315123
vt 0.007710 0.323905
vt 0.490731 0.323905
vt 0.007710 0.631282
vt 0.490731 0.631282
vt 0.007710 0.640065
vt 0.490731 0.640065
vt 0.509086 0.007746
vt 0.509086 0.315123
vt 0.008500 0.007746
vt 0.008500 0.315123
vn 0.000000 0.000000 1.000000
vn 0.000000 0.000000 1.000000
vn 0.000000 0.000000 1.000000
vn 0.000000 0.000000 1.000000
vn 0.000000 1.000000 0.000000
vn 0.000000 1.000000 0.000000
vn 0.000000 1.000000 0.000000
vn 0.000000 1.000000 0.000000
vn 0.000000 0.000000 -1.000000
vn 0.000000 0.000000 -1.000000
vn 0.000000 0.000000 -1.000000
vn 0.000000 0.000000 -1.000000
vn 0.000000 -1.000000 0.000000
vn 0.000000 -1.000000 0.000000
vn 0.000000 -1.000000 0.000000
vn 0.000000 -1.000000 0.000000
vn 1.000000 0.000000 0.000000
vn 1.000000 0.000000 0.000000
vn 1.000000 0.000000 0.000000
vn 1.000000 0.000000 0.000000
vn -1.000000 0.000000 0.000000
vn -1.000000 0.000000 0.000000
vn -1.000000 0.000000 0.000000
vn -1.000000 0.000000 0.000000
s off
g SM_Window_Pane SM_Window
usemtl lambert3SG
f 1/1/1 2/2/2 4/4/3 3/3/4
f 3/3/5 4/4/6 6/6/7 5/5/8
f 5/5/9 6/6/10 8/8/11 7/7/12
f 7/7/13 8/8/14 2/10/15 1/9/16
f 2/2/17 8/11/18 6/12/19 4/4/20
f 7/13/21 1/1/22 3/3/23 5/14/24
g default
v 12.954743 -18.000000 2.000000
v 13.954743 -18.000000 2.000000
v 12.954743 18.000000 2.000000
v 13.954743 18.000000 2.000000
v 12.954743 18.000000 -2.000000
v 13.954743 18.000000 -2.000000
v 12.954743 -18.000000 -2.000000
v 13.954743 -18.000000 -2.000000
vt 0.453053 0.089868
vt 0.492115 0.089868
vt 0.492115 0.441430
vt 0.453053 0.441430
vt 0.501881 0.089868
vt 0.540944 0.089868
vt 0.540944 0.441430
vt 0.501881 0.441430
vt 0.550709 0.089868
vt 0.550709 0.441430
vn 0.000000 0.000000 1.000000
vn 0.000000 0.000000 1.000000
vn 0.000000 0.000000 1.000000
vn 0.000000 0.000000 1.000000
vn 0.000000 1.000000 0.000000
vn 0.000000 1.000000 0.000000
vn 0.000000 1.000000 0.000000
vn 0.000000 1.000000 0.000000
vn 0.000000 0.000000 -1.000000
vn 0.000000 0.000000 -1.000000
vn 0.000000 0.000000 -1.000000
vn 0.000000 0.000000 -1.000000
vn 0.000000 -1.000000 0.000000
vn 0.000000 -1.000000 0.000000
vn 0.000000 -1.000000 0.000000
vn 0.000000 -1.000000 0.000000
vn 1.000000 0.000000 0.000000
vn 1.000000 0.000000 0.000000
vn 1.000000 0.000000 0.000000
vn 1.000000 0.000000 0.000000
vn -1.000000 0.000000 0.000000
vn -1.000000 0.000000 0.000000
vn -1.000000 0.000000 0.000000
vn -1.000000 0.000000 0.000000
s off
g SM_Window SM_Frame3
usemtl lambert2SG
f 9/20/25 10/23/26 12/24/27 11/21/28
f 11//29 12//30 14//31 13//32
f 13/22/33 14/17/34 16/16/35 15/19/36
f 15//37 16//38 10//39 9//40
f 10/15/41 16/16/42 14/17/43 12/18/44
f 15/19/45 9/20/46 11/21/47 13/22/48
g default
v -13.926155 -18.000000 2.000000
v -12.926155 -18.000000 2.000000
v -13.926155 18.000000 2.000000
v -12.926155 18.000000 2.000000
v -13.926155 18.000000 -2.000000
v -12.926155 18.000000 -2.000000
v -13.926155 -18.000000 -2.000000
v -12.926155 -18.000000 -2.000000
vt 0.453053 0.089868
vt 0.492115 0.089868
vt 0.492115 0.441430
vt 0.453053 0.441430
vt 0.501881 0.089868
vt 0.540944 0.089868
vt 0.540944 0.441430
vt 0.501881 0.441430
vt 0.550709 0.089868
vt 0.550709 0.441430
vn 0.000000 0.000000 1.000000
vn 0.000000 0.000000 1.000000
vn 0.000000 0.000000 1.000000
vn 0.000000 0.000000 1.000000
vn 0.000000 1.000000 0.000000
vn 0.000000 1.000000 0.000000
vn 0.000000 1.000000 0.000000
vn 0.000000 1.000000 0.000000
vn 0.000000 0.000000 -1.000000
vn 0.000000 0.000000 -1.000000
vn 0.000000 0.000000 -1.000000
vn 0.000000 0.000000 -1.000000
vn 0.000000 -1.000000 0.000000
vn 0.000000 -1.000000 0.000000
vn 0.000000 -1.000000 0.000000
vn 0.000000 -1.000000 0.000000
vn 1.000000 0.000000 0.000000
vn 1.000000 0.000000 0.000000
vn 1.000000 0.000000 0.000000
vn 1.000000 0.000000 0.000000
vn -1.000000 0.000000 0.000000
vn -1.000000 0.000000 0.000000
vn -1.000000 0.000000 0.000000
vn -1.000000 0.000000 0.000000
s off
g SM_Window SM_Frame2
usemtl lambert2SG
f 17/30/49 18/33/50 20/34/51 19/31/52
f 19//53 20//54 22//55 21//56
f 21/32/57 22/27/58 24/26/59 23/29/60
f 23//61 24//62 18//63 17//64
f 18/25/65 24/26/66 22/27/67 20/28/68
f 23/29/69 17/30/70 19/31/71 21/32/72
g default
v -0.500000 -18.000000 2.000000
v 0.500000 -18.000000 2.000000
v -0.500000 18.000000 2.000000
v 0.500000 18.000000 2.000000
v -0.500000 18.000000 -2.000000
v 0.500000 18.000000 -2.000000
v -0.500000 -18.000000 -2.000000
v 0.500000 -18.000000 -2.000000
vt 0.453053 0.089868
vt 0.492115 0.089868
vt 0.492115 0.441430
vt 0.453053 0.441430
vt 0.501881 0.089868
vt 0.540944 0.089868
vt 0.540944 0.441430
vt 0.501881 0.441430
vt 0.550709 0.089868
vt 0.550709 0.441430
vn 0.000000 0.000000 1.000000
vn 0.000000 0.000000 1.000000
vn 0.000000 0.000000 1.000000
vn 0.000000 0.000000 1.000000
vn 0.000000 1.000000 0.000000
vn 0.000000 1.000000 0.000000
vn 0.000000 1.000000 0.000000
vn 0.000000 1.000000 0.000000
vn 0.000000 0.000000 -1.000000
vn 0.000000 0.000000 -1.000000
vn 0.000000 0.000000 -1.000000
vn 0.000000 0.000000 -1.000000
vn 0.000000 -1.000000 0.000000
vn 0.000000 -1.000000 0.000000
vn 0.000000 -1.000000 0.000000
vn 0.000000 -1.000000 0.000000
vn 1.000000 0.000000 0.000000
vn 1.000000 0.000000 0.000000
vn 1.000000 0.000000 0.000000
vn 1.000000 0.000000 0.000000
vn -1.000000 0.000000 0.000000
vn -1.000000 0.000000 0.000000
vn -1.000000 0.000000 0.000000
vn -1.000000 0.000000 0.000000
s off
g SM_Window SM_Frame1
usemtl lambert2SG
f 25/40/73 26/43/74 28/44/75 27/41/76
f 27//77 28//78 30//79 29//80
f 29/42/81 30/37/82 32/36/83 31/39/84
f 31//85 32//86 26//87 25//88
f 26/35/89 32/36/90 30/37/91 28/38/92
f 31/39/93 25/40/94 27/41/95 29/42/96
g default
v -27.000000 -0.500000 2.000000
v 27.000000 -0.500000 2.000000
v -27.000000 0.500000 2.000000
v 27.000000 0.500000 2.000000
v -27.000000 0.500000 -2.000000
v 27.000000 0.500000 -2.000000
v -27.000000 -0.500000 -2.000000
v 27.000000 -0.500000 -2.000000
vt 0.676490 0.039875
vt 0.676490 0.567218
vt 0.666724 0.039875
vt 0.666724 0.567218
vt 0.627662 0.039875
vt 0.627662 0.567218
vt 0.617896 0.039875
vt 0.617896 0.567218
vt 0.578834 0.039875
vt 0.578834 0.567218
vn 0.000000 0.000000 1.000000
vn 0.000000 0.000000 1.000000
vn 0.000000 0.000000 1.000000
vn 0.000000 0.000000 1.000000
vn 0.000000 1.000000 0.000000
vn 0.000000 1.000000 0.000000
vn 0.000000 1.000000 0.000000
vn 0.000000 1.000000 0.000000
vn 0.000000 0.000000 -1.000000
vn 0.000000 0.000000 -1.000000
vn 0.000000 0.000000 -1.000000
vn 0.000000 0.000000 -1.000000
vn 0.000000 -1.000000 0.000000
vn 0.000000 -1.000000 0.000000
vn 0.000000 -1.000000 0.000000
vn 0.000000 -1.000000 0.000000
vn 1.000000 0.000000 0.000000
vn 1.000000 0.000000 0.000000
vn 1.000000 0.000000 0.000000
vn 1.000000 0.000000 0.000000
vn -1.000000 0.000000 0.000000
vn -1.000000 0.000000 0.000000
vn -1.000000 0.000000 0.000000
vn -1.000000 0.000000 0.000000
s off
g SM_Window SM_Frame
usemtl lambert2SG
f 33/45/97 34/46/98 36/48/99 35/47/100
f 35/47/101 36/48/102 38/50/103 37/49/104
f 37/49/105 38/50/106 40/52/107 39/51/108
f 39/51/109 40/52/110 34/54/111 33/53/112
f 34//113 40//114 38//115 36//116
f 39//117 33//118 35//119 37//120
g default
v -30.000000 -20.000000 3.000000
v 30.000000 -20.000000 3.000000
v -30.000000 20.000000 3.000000
v 30.000000 20.000000 3.000000
v -30.000000 20.000000 -3.000000
v 30.000000 20.000000 -3.000000
v -30.000000 -20.000000 -3.000000
v 30.000000 -20.000000 -3.000000
v -26.513620 -17.675745 2.651362
v 26.513620 -17.675745 2.651362
v 26.513620 17.675745 2.651362
v -26.513620 17.675745 2.651362
v -26.513620 17.675745 -2.651362
v 26.513620 17.675745 -2.651362
v 26.513620 -17.675745 -2.651362
v -26.513620 -17.675745 -2.651362
vt 0.120000 0.633184
vt 0.325110 0.463739
vt 0.359326 0.441040
vt 0.142952 0.599085
vt 0.118060 0.047059
vt 0.141236 0.080953
vt 0.325010 0.459687
vt 0.358518 0.437465
vt 0.266504 0.073115
vt 0.325098 0.073114
vt 0.266516 0.463741
vt 0.267633 0.459680
vt 0.267680 0.077167
vt 0.325057 0.077174
vt 0.409269 0.099411
vt 0.409227 0.437471
vt 0.358560 0.099405
vt 0.411099 0.095809
vt 0.411110 0.441038
vt 0.359315 0.095810
vt 0.061406 0.633184
vt 0.061406 0.047247
vt 0.120000 0.047247
vt 0.121941 0.632984
vt 0.059467 0.047447
vt 0.063348 0.633372
vt 0.196450 0.598443
vt 0.193020 0.080610
vt 0.144666 0.598786
vt 0.194736 0.081240
vt 0.194736 0.599085
vt 0.142952 0.081240
vt 0.232288 0.095814
vt 0.040171 0.599478
vt 0.038455 0.081329
vt 0.234171 0.099390
vt 0.038455 0.599173
vt 0.232299 0.441044
vt 0.036741 0.081645
vt 0.234130 0.437449
vn 0.000000 1.000000 0.000000
vn 0.000000 1.000000 0.000000
vn 0.000000 1.000000 0.000000
vn 0.000000 1.000000 0.000000
vn 0.000000 -1.000000 0.000000
vn 0.000000 -1.000000 0.000000
vn 0.000000 -1.000000 0.000000
vn 0.000000 -1.000000 0.000000
vn 1.000000 0.000000 0.000000
vn 1.000000 0.000000 0.000000
vn 1.000000 0.000000 0.000000
vn 1.000000 0.000000 0.000000
vn -1.000000 0.000000 0.000000
vn -1.000000 0.000000 0.000000
vn -1.000000 0.000000 0.000000
vn -1.000000 0.000000 0.000000
vn 0.000000 0.148340 0.988936
vn 0.000000 0.148340 0.988936
vn 0.000000 0.148340 0.988936
vn 0.000000 0.148340 0.988936
vn -0.099504 0.000000 0.995037
vn -0.099504 0.000000 0.995037
vn -0.099504 0.000000 0.995037
vn -0.099504 0.000000 0.995037
vn 0.000000 -0.148340 0.988936
vn 0.000000 -0.148340 0.988936
vn 0.000000 -0.148340 0.988936
vn 0.000000 -0.148340 0.988936
vn 0.099504 0.000000 0.995037
vn 0.099504 0.000000 0.995037
vn 0.099504 0.000000 0.995037
vn 0.099504 0.000000 0.995037
vn 0.000000 -0.148340 -0.988936
vn 0.000000 -0.148340 -0.988936
vn 0.000000 -0.148340 -0.988936
vn 0.000000 -0.148340 -0.988936
vn -0.099504 0.000000 -0.995037
vn -0.099504 0.000000 -0.995037
vn -0.099504 0.000000 -0.995037
vn -0.099504 0.000000 -0.995037
vn 0.000000 0.148340 -0.988936
vn 0.000000 0.148340 -0.988936
vn 0.000000 0.148340 -0.988936
vn 0.000000 0.148340 -0.988936
vn 0.099504 0.000000 -0.995037
vn 0.099504 0.000000 -0.995037
vn 0.099504 0.000000 -0.995037
vn 0.099504 0.000000 -0.995037
vn 1.000000 0.000000 0.000000
vn 1.000000 0.000000 0.000000
vn 1.000000 0.000000 0.000000
vn 1.000000 0.000000 0.000000
vn 0.000000 1.000000 0.000000
vn 0.000000 1.000000 0.000000
vn 0.000000 1.000000 0.000000
vn 0.000000 1.000000 0.000000
vn 0.000000 -1.000000 0.000000
vn 0.000000 -1.000000 0.000000
vn 0.000000 -1.000000 0.000000
vn 0.000000 -1.000000 0.000000
vn -1.000000 0.000000 0.000000
vn -1.000000 0.000000 0.000000
vn -1.000000 0.000000 0.000000
vn -1.000000 0.000000 0.000000
s off
g SM_Window SM_Window_Frame
usemtl lambert2SG
f 43/75/121 44/76/122 46/77/123 45/55/124
f 47/78/125 48/59/126 42/79/127 41/80/128
f 42/63/129 48/64/130 46/56/131 44/65/132
f 47/61/133 41/66/134 43/67/135 45/68/136
f 41/80/137 42/79/138 50/93/139 49/88/140
f 42/63/141 44/65/142 51/92/143 50/87/144
f 44/76/145 43/75/146 52/91/147 51/89/148
f 43/67/149 41/66/150 49/94/151 52/90/152
f 45/55/153 46/77/154 54/86/155 53/58/156
f 46/56/157 48/64/158 55/74/159 54/57/160
f 48/59/161 47/78/162 56/83/163 55/60/164
f 47/61/165 45/68/166 53/71/167 56/62/168
f 52/69/169 49/70/170 56/62/171 53/71/172
f 49/81/173 50/82/174 55/60/175 56/83/176
f 51/84/177 52/85/178 53/58/179 54/86/180
f 50/72/181 51/73/182 54/57/183 55/74/184
